<svg xmlns="http://www.w3.org/2000/svg" width="50mm" height="50mm" fill-rule="evenodd" clip-rule="evenodd" image-rendering="optimizeQuality" shape-rendering="geometricPrecision" text-rendering="geometricPrecision" viewBox="0 0 50 50"><path d="M1427.252 805.131c-3.636 3.261-7.006 6.836-10.467 10.29-.465.645-1.384 1.081-1.515 1.905.908.945 2.2 1.535 3.071 2.573 2.917 2.63 4.41 6.691 3.854 10.58-.76 4.678-4.492 8.355-8.646 10.276-2.751 1.34-5.824 1.809-8.863 1.671a16.66 16.66 0 0 1-7.68-1.39c-6.77-2.322-11.744-10.301-8.376-17.164.401-.752 1.128-1.767.048-2.325-4.238-4.177-8.356-8.489-12.707-12.546-1.197-.146-.58 1.498-.752 2.192-.154 25.63-.07 51.262-.092 76.894.453.973 1.91.263 2.778.48h101.47c.973-.454.263-1.91.48-2.778-.039-25.453.095-50.908-.13-76.36-.324-1.039-1.247-.032-1.637.406-4.16 4.043-8.231 8.177-12.34 12.271-.354.818.706 1.462.807 2.286 1.472 3.772.936 8.279-1.66 11.437-3.552 4.669-9.546 6.863-15.232 6.695-5.769-.077-11.846-2.487-15.131-7.47-2.197-3.291-2.512-7.815-.734-11.333 1.209-2.576 3.31-4.626 5.7-6.125.597-.948-1.024-1.51-1.441-2.23-3.438-3.39-6.829-6.831-10.322-10.164-.16-.012-.321-.162-.483-.07z" style="opacity:1;fill:#575452;fill-opacity:1;stroke:none;stroke-width:1.00219858;stroke-linecap:square;stroke-linejoin:miter;stroke-miterlimit:4;stroke-dasharray:none;stroke-dashoffset:0;stroke-opacity:1;paint-order:fill markers stroke" transform="translate(-373.108 -212.083) scale(.2788)"/><path d="M-246.308 296.653c-.847 8.252-3.205 14.214-6.879 16.62 4.954.121 6.462-.072 7.222.001.184-6.277-.022-10.535-.035-16.93-.09.04-.293.28-.308.31z" style="fill:#464342;fill-opacity:1;fill-rule:evenodd;stroke:none;stroke-width:.26458332px;stroke-linecap:butt;stroke-linejoin:miter;stroke-opacity:1" transform="translate(358.76 -371.274) scale(1.29853)"/><path d="M-168.924 208.018v3.502h-4.119v1.709h4.12v6.017h1.804v-6.017h4.185v-1.71h-4.185v-3.501z" style="color:#000;font-style:normal;font-variant:normal;font-weight:400;font-stretch:normal;font-size:medium;line-height:normal;font-family:sans-serif;font-variant-ligatures:normal;font-variant-position:normal;font-variant-caps:normal;font-variant-numeric:normal;font-variant-alternates:normal;font-feature-settings:normal;text-indent:0;text-align:start;text-decoration:none;text-decoration-line:none;text-decoration-style:solid;text-decoration-color:#000;letter-spacing:normal;word-spacing:normal;text-transform:none;writing-mode:lr-tb;direction:ltr;text-orientation:mixed;dominant-baseline:auto;baseline-shift:baseline;text-anchor:start;white-space:normal;shape-padding:0;clip-rule:nonzero;display:inline;overflow:visible;visibility:visible;opacity:1;isolation:auto;mix-blend-mode:normal;color-interpolation:sRGB;color-interpolation-filters:linearRGB;solid-color:#000;solid-opacity:1;vector-effect:none;fill:#b3b3b3;fill-opacity:1;fill-rule:nonzero;stroke:none;stroke-width:1.37872994;stroke-linecap:square;stroke-linejoin:miter;stroke-miterlimit:4;stroke-dasharray:none;stroke-dashoffset:0;stroke-opacity:1;paint-order:fill markers stroke;color-rendering:auto;image-rendering:auto;shape-rendering:auto;text-rendering:auto;enable-background:accumulate" transform="translate(105.765 -86.683) scale(.48185)"/><path d="M1430.496 792.338c-.792 0-1.585.3-2.187.898l-18.871 18.864a3.106 3.106 0 0 0-.819 2.923 3.08 3.08 0 0 0 2.055 2.211c5.027 1.636 8.28 5.181 8.28 9.069 0 5.387-6.38 9.935-13.93 9.935-7.685 0-13.93-4.453-13.93-9.935 0-2.375 1.224-4.206 2.258-5.34a3.1 3.1 0 0 0-.108-4.28l-22.478-22.412a3.148 3.148 0 0 0-3.375-.656 3.09 3.09 0 0 0-1.905 2.854v102.674H1495.5V796.469a3.108 3.108 0 0 0-1.908-2.854 3.095 3.095 0 0 0-3.364.656l-22.503 22.39a3.085 3.085 0 0 0-.104 4.277c1.047 1.133 2.287 2.986 2.287 5.367 0 5.387-6.378 9.933-13.93 9.933-7.684 0-13.933-4.451-13.933-9.933 0-3.888 3.248-7.435 8.273-9.07a3.08 3.08 0 0 0 2.063-2.21 3.121 3.121 0 0 0-.824-2.921l-18.873-18.868a3.095 3.095 0 0 0-2.188-.898zm-.01 7.482 13.508 13.504c-5.067 2.99-8.15 7.752-8.15 12.99 0 8.891 9.028 16.122 20.123 16.122 11.094 0 20.123-7.219 20.123-16.122 0-2.515-.715-4.955-2.094-7.16l15.312-15.236v89.555h-117.636V803.93l15.293 15.254c-1.358 2.198-2.067 4.633-2.067 7.136 0 8.891 9.026 16.121 20.121 16.121 11.096 0 20.123-7.218 20.123-16.12 0-5.24-3.09-10.019-8.164-12.99z" style="fill:#000;stroke-width:.99295139" transform="translate(-327.939 -184.835) scale(.24663)"/><path d="M253.048 430.564c-1.62 0-2.925.991-2.925 2.222.002 2.21 0 4.539 0 6.558h34.538v-6.558c0-1.23-1.304-2.222-2.924-2.222z" style="opacity:1;fill:#575452;fill-opacity:1;stroke:#000;stroke-width:1.46207666;stroke-linecap:square;stroke-linejoin:miter;stroke-miterlimit:4;stroke-dasharray:none;stroke-dashoffset:0;stroke-opacity:1;paint-order:fill markers stroke" transform="translate(-242.392 -394.375)"/></svg>