<svg xmlns="http://www.w3.org/2000/svg" width="50mm" height="50mm" fill-rule="evenodd" clip-rule="evenodd" image-rendering="optimizeQuality" shape-rendering="geometricPrecision" text-rendering="geometricPrecision" viewBox="0 0 50 50"><path d="m-327.432 207.287-4.374 4.422c.091 2.783.24 3.57 1.567 5.274 4.136-2.686 1.203 2.645 4.67-.077.201-2.241 3.174-2.68 5.122-3.634 7.95 2.305.668 2.527-3.245 8.937-1.122 1.77-1.05 3.886-1.3 5.913l19.558-.13v-1.235l-.714-1.494c-1.25-3.633.325-8.495.158-14.922-1.808-6.262-4.287-9.72-10.42-9.407.174-1.86-.01-7.375-4.355-1.223-.684 4.79-5.913.912-6.667 7.576z" style="display:inline;fill:#575452;fill-opacity:1;stroke:#000;stroke-width:1.22710395;stroke-linecap:butt;stroke-linejoin:miter;stroke-miterlimit:4;stroke-dasharray:none;stroke-opacity:1" transform="translate(357.814 -200.614) scale(1.0497)"/><path d="M-321.43 206.203c-.403.633-2.373.324-2.382-.008-.042-1.336 2.88-1.55 2.9-1.294" style="opacity:1;fill:#000;fill-opacity:1;stroke:none;stroke-width:1.40096557;stroke-linecap:square;stroke-linejoin:miter;stroke-miterlimit:4;stroke-dasharray:none;stroke-dashoffset:0;stroke-opacity:1;paint-order:fill markers stroke" transform="translate(357.814 -200.614) scale(1.0497)"/><path d="M-325.495 229.187c-1.322 0-2.387.81-2.387 1.814v5.354h28.193V231c0-1.005-1.064-1.814-2.387-1.814z" style="opacity:1;fill:#575452;fill-opacity:1;stroke:#000;stroke-width:1.19350111;stroke-linecap:square;stroke-linejoin:miter;stroke-miterlimit:4;stroke-dasharray:none;stroke-dashoffset:0;stroke-opacity:1;paint-order:fill markers stroke" transform="translate(330.736 -183.73) scale(.96826)"/><path d="M-329.265 213.058c.557.105 1.403-1.138 1.225-1.315-.713-.712-2.339.785-2.209.928" style="opacity:1;fill:#000;fill-opacity:1;stroke:none;stroke-width:1.05663764;stroke-linecap:square;stroke-linejoin:miter;stroke-miterlimit:4;stroke-dasharray:none;stroke-dashoffset:0;stroke-opacity:1;paint-order:fill markers stroke" transform="translate(330.736 -183.73) scale(.96826)"/><path d="M-327.684 216.942c.408-.64.725-1.318 1.626-1.745" style="fill:none;fill-rule:evenodd;stroke:#000;stroke-width:1.28615761;stroke-linecap:butt;stroke-linejoin:miter;stroke-opacity:1" transform="translate(330.736 -183.73) scale(.96826)"/><path d="M-315.468 149.75c12.846 9.7 8.318 13.645 2.779 27.417h9.078l-.744-1.885c-.995-3.768.23-10.757.171-15.877-1.952-8.16-6.218-10.615-11.4-9.726zm-1.025-4.396c.427 1.52.742 2.833.912 4.314.462-1.655-.064-5.268-.912-4.314z" style="fill:#464342;fill-opacity:1;fill-rule:evenodd;stroke:none;stroke-width:.26458332px;stroke-linecap:butt;stroke-linejoin:miter;stroke-opacity:1" transform="translate(330.54 -133.914) scale(.96826)"/></svg>