<svg width="177.17" height="177.17" fill-rule="evenodd" clip-rule="evenodd" image-rendering="optimizeQuality" shape-rendering="geometricPrecision" viewBox="0 0 50 50" xmlns:xlink="http://www.w3.org/1999/xlink" xmlns="http://www.w3.org/2000/svg"><defs><filter id="b" width="1.8162406" height="1.0855454" x="-.40812028" y="-.04277272" color-interpolation-filters="sRGB"><feGaussianBlur stdDeviation=".57"/></filter><filter id="c" width="1.8162406" height="1.0855454" x="-.40812028" y="-.04277272" color-interpolation-filters="sRGB"><feGaussianBlur stdDeviation=".57"/></filter><filter id="d" width="1.2552281" height="1.7907812" x="-.12761439" y="-.39539048" style="color-interpolation-filters:sRGB"><feGaussianBlur stdDeviation=".174"/></filter><filter id="f" width="1.3978891" height="1.3296948" x="-.19893191" y="-.16486322" color-interpolation-filters="sRGB"><feGaussianBlur stdDeviation=".467"/></filter><filter id="i" width="1.8162406" height="1.0855454" x="-.40812028" y="-.04277272" color-interpolation-filters="sRGB"><feGaussianBlur stdDeviation=".57"/></filter><filter id="g" width="1.0716073" height="1.0495347" x="-.03580349" y="-.02476737" style="color-interpolation-filters:sRGB"><feGaussianBlur stdDeviation=".074"/></filter><filter id="h" width="1.3684427" height="1.1068328" x="-.18422113" y="-.05341638" style="color-interpolation-filters:sRGB"><feGaussianBlur stdDeviation=".439"/></filter><linearGradient xlink:href="#a" id="e" x1="13.499733" x2="52.966618" y1="39.652447" y2="38.541698" gradientUnits="userSpaceOnUse"/><linearGradient id="a"><stop offset="0" style="stop-color:#f9f9f9;stop-opacity:1"/><stop offset="1" style="stop-color:#fffaf5;stop-opacity:.98823529"/></linearGradient></defs><g style="opacity:1;fill:none;fill-opacity:1;fill-rule:evenodd;stroke-width:1.5;stroke-linecap:round;stroke-linejoin:round;stroke-miterlimit:4;stroke-dasharray:none;stroke-opacity:1"><path d="m13.238 14.74.034.242s.3-.056.379-.056c.08 0 .3.058.3.058.224.091.267.178.267.178l.143.117c.057.039.118.176.118.176l.254-.21-.19-.19-.356-.302-.412-.112z" style="fill:#000;fill-opacity:1;stroke:none;stroke-width:.0618586;stroke-linejoin:round;stroke-dasharray:none;stroke-opacity:1;paint-order:markers stroke fill" transform="translate(-2.742 -.806) scale(1.16857)"/><path d="m25.335 11.966-.058-.047-.22-.108-.332-.105-.597-.166-.334-.083-.588-.113-.026.089 1.1.268.455.085.46.137z" style="opacity:.856538;fill:#fff;fill-opacity:1;stroke:none;stroke-width:.0618586;stroke-linejoin:round;stroke-dasharray:none;stroke-opacity:1;paint-order:markers stroke fill" transform="translate(-2.742 -.806) scale(1.16857)"/><path d="M-700.203-378.72c-.533 12.294-.541 12.54-.008 31.983l2.692-2.508c.02-17.936.722-22.12-.248-29.411z" filter="url(#filter1572-7-1)" opacity=".25" style="clip-rule:evenodd;opacity:.15;fill-rule:evenodd;filter:url(#b);shape-rendering:geometricPrecision" transform="matrix(.71661 -.21227 .21144 .71382 605.087 137.911)"/><path d="M-700.203-378.72c-.533 12.294-.541 12.54-.008 31.983l2.692-2.508c.02-17.936.722-22.12-.248-29.411z" filter="url(#filter1572-7-1)" opacity=".25" style="clip-rule:evenodd;opacity:.15;fill-rule:evenodd;filter:url(#c);shape-rendering:geometricPrecision" transform="matrix(.69474 -.20579 .205 .69203 587.85 134.55)"/><path d="m13.455 14.838.033.24s.298-.055.377-.055c.079 0 .298.058.298.058.223.09.266.177.266.177l.143.116c.056.039.117.175.117.175l.252-.209-.189-.19-.354-.3-.41-.11z" style="fill:#fff;fill-opacity:1;stroke:#fff;stroke-width:.061524;stroke-linejoin:round;stroke-dasharray:none;stroke-opacity:1;paint-order:markers stroke fill" transform="translate(-2.742 -.806) scale(1.16857)"/><path d="m35.643 8.553-.099-.08-.376-.184-.569-.181-1.02-.284-.572-.142L32 7.488l-.044.153 1.734.516.87.205.89.316z" style="opacity:.195894;mix-blend-mode:normal;fill:#fff;fill-opacity:1;stroke:#fff;stroke-width:.105831;stroke-linejoin:round;stroke-dasharray:none;stroke-opacity:1;paint-order:markers stroke fill;filter:url(#d)" transform="translate(2.826 7.499) scale(.67934)"/><path d="M14.479 35.024c-1.169 0-2.11.715-2.11 1.603v4.732h24.917v-4.732c0-.888-.94-1.603-2.11-1.603z" style="fill:#f9f9f9;fill-opacity:1;stroke:#333;stroke-width:1.05481;stroke-linecap:square;stroke-linejoin:miter;stroke-miterlimit:4;stroke-dasharray:none;stroke-dashoffset:0;stroke-opacity:1;paint-order:fill markers stroke" transform="translate(-2.742 -.806) scale(1.16857)"/><g style="stroke:#333;stroke-opacity:1"><g stroke="#000" style="opacity:1;fill:none;fill-opacity:1;fill-rule:evenodd;stroke-width:1.5;stroke-linecap:round;stroke-linejoin:round;stroke-miterlimit:4;stroke-dasharray:none;stroke-opacity:1;stroke:#333"><g style="stroke:#333;stroke-opacity:1"><path d="M17.6 4.8h3" style="stroke:#333;stroke-opacity:1" transform="translate(1.253 6.861) scale(.7862)"/><path d="M19.2 9.9V2.2" style="stroke-width:1.10469;stroke-dasharray:none;stroke:#333;stroke-opacity:1" transform="translate(1.253 6.861) scale(.7862)"/><path d="M39.5 40.1v-5.478c-6.243-2.46-4.46-20.018-8.92-24.117 1.06-1.094 4.46-2.46 1.785-3.28-5.352-1.64-3.568 0-7.136 1.64-3.567 0-10.703-3.28-12.487 6.559-1.783 3.28-5.351 3.28-7.135 6.559-1.127 2.066 1.784 6.558 7.135 1.64.384 0 .758 0 1.123-.002 4.73-.016 7.924-.234 9.58-3.278 1.784 3.28 4.568 4.36 4.568 20.757H39.5v-1z" style="fill:url(#e);fill-opacity:1;stroke-width:1.01697;stroke-dasharray:none;stroke:#333;stroke-opacity:1" transform="translate(1.253 6.861) scale(.7862)"/><path d="M21.1 5.9h3" style="stroke:#333;stroke-opacity:1" transform="translate(1.253 6.861) scale(.7862)"/><path d="M22.7 11V3.3" style="stroke-width:1.08073;stroke-dasharray:none;stroke:#333;stroke-opacity:1" transform="translate(1.253 6.861) scale(.7862)"/></g><path fill="#000" d="M16.374 14.574c-.019.126-.89.166-.866-.5.066-1.734 1.002-.38.866.5zM31.1 22.5a1.73 2.5 0 1 1-3.46 0 1.73 2.5 0 1 1 3.46 0zm2.2 8c0 3.333-3.46 3.333-3.46 0s3.46-3.333 3.46 0zm3.8 6a1.73 2.5 0 1 1-3.46 0 1.73 2.5 0 1 1 3.46 0z" style="stroke:#333;stroke-opacity:1" transform="translate(1.253 6.861) scale(.7862)"/></g><path d="M9.73 20.018a.503.503 0 0 0-.38 0c-.522.213-.862.48-1.068.713a1.665 1.665 0 0 0-.296.486.502.502 0 0 0 .329.627c.265.084.689.043.772-.222 0 0-.012-.005.091-.121.103-.117.302-.29.696-.451.256-.105.237-.503.131-.76a.503.503 0 0 0-.275-.272Z" color="#000" style="font-variant-ligatures:normal;font-variant-position:normal;font-variant-caps:normal;font-variant-numeric:normal;font-variant-alternates:normal;font-variant-east-asian:normal;font-feature-settings:normal;font-variation-settings:normal;text-indent:0;text-decoration-line:none;text-decoration-style:solid;text-decoration-color:#000;text-transform:none;text-orientation:mixed;white-space:normal;shape-padding:0;shape-margin:0;inline-size:0;clip-rule:evenodd;isolation:auto;mix-blend-mode:normal;fill-rule:evenodd;stroke-width:.912772;shape-rendering:geometricPrecision;stroke:#333;stroke-opacity:1" transform="translate(1.253 6.861) scale(.7862)"/><path d="M-716.03-369.64c.405-1.184.326-3.052-.03-3.612-2.96 8.671-8.246 5.492-9.102 11.347 1.64-3.708 7.813-2.42 9.132-7.735z" filter="url(#filter1433-2-4-3)" opacity=".25" style="clip-rule:evenodd;opacity:.15;fill-rule:evenodd;filter:url(#f);image-rendering:optimizeQuality;shape-rendering:geometricPrecision;stroke:#333;stroke-opacity:1" transform="matrix(.65902 .3195 -.28286 .73862 386.228 525.442)"/><path d="m16.366 9.765-.729.561-.678.773-.635 1.058-.473 1.157-.38 1.333-.216 1.004-.519.821-.512.625-.538.525-.523.462-.39.248-.249.165.696.267 2.478-2.88.133-.68.294-1.604.02-.324.498-1.108.971-1.071.893-.947.242-.257-.322-.11z" style="opacity:.4276354;fill:#fff;fill-opacity:1;stroke:#7c7272;stroke-width:.0905641;stroke-linejoin:round;stroke-dasharray:none;stroke-opacity:1;paint-order:markers stroke fill;filter:url(#g)" transform="translate(1.253 6.861) scale(.7862)"/><path d="m23.957 20.13 1.495 2.36.386.654.5.98.414 1.01.315.92.364 1.372.319 1.498.228 1.468.14 1.085.12 1.207.213 2.988.058 1.538.044 3.347 1.32-.013-.16-3.56-.58-5.218-.982-4.366-.724-1.911-1.456-3.156-1.448-2.348-.52.047-.095.009.018.03z" style="opacity:.45740312;fill:#fff;fill-opacity:1;stroke:#797979;stroke-width:.0905641;stroke-linejoin:round;stroke-dasharray:none;stroke-opacity:1;paint-order:markers stroke fill;filter:url(#h)" transform="translate(1.253 6.861) scale(.7862)"/><path d="m12.4 23.248 1.578-2.045.772.705-.923 1.413z" style="opacity:1;fill:#000;fill-opacity:1;stroke:#333;stroke-width:.194846;stroke-linejoin:round;stroke-dasharray:none;stroke-opacity:1;paint-order:markers stroke fill" transform="translate(1.253 6.861) scale(.7862)"/></g><path d="M-700.203-378.72c-.533 12.294-.541 12.54-.008 31.983l2.692-2.508c.02-17.936.722-22.12-.248-29.411z" filter="url(#filter1572-7-1)" opacity=".25" style="clip-rule:evenodd;opacity:.15;fill-rule:evenodd;filter:url(#i);shape-rendering:geometricPrecision" transform="matrix(.68805 -.20381 .20302 .68538 582.498 133.232)"/><path d="m13.604 14.682.033.239s.295-.055.373-.055c.078 0 .295.057.295.057.221.09.264.175.264.175l.141.115a.558.558 0 0 1 .116.173l.25-.206-.187-.188-.35-.297-.407-.11z" style="fill:#000;fill-opacity:1;stroke:none;stroke-width:.0609325;stroke-linejoin:round;stroke-dasharray:none;stroke-opacity:1;paint-order:markers stroke fill" transform="translate(-2.742 -.806) scale(1.16857)"/><path d="m25.52 11.95-.058-.047-.216-.105-.328-.104-.587-.164-.33-.082-.579-.111-.025.088 1.084.264.447.084.453.135z" style="opacity:.856538;fill:#fff;fill-opacity:1;stroke:none;stroke-width:.0609325;stroke-linejoin:round;stroke-dasharray:none;stroke-opacity:1;paint-order:markers stroke fill" transform="translate(-2.742 -.806) scale(1.16857)"/></g></svg>