<svg xmlns="http://www.w3.org/2000/svg" width="50mm" height="50mm" fill-rule="evenodd" clip-rule="evenodd" image-rendering="optimizeQuality" shape-rendering="geometricPrecision" text-rendering="geometricPrecision" viewBox="0 0 50 50"><path d="m-128.588 228.34-7.066-18.123 10.903 10.385-.98-20.836 9.05 20.836 8.976-20.836s-1.568 20.373-1.568 20.902c0 .529 10.952-10.451 10.952-10.451l-6.344 18.124z" style="fill:#f9f9f9;fill-opacity:1;fill-rule:evenodd;stroke:#333;stroke-width:1.20000005;stroke-linecap:butt;stroke-linejoin:miter;stroke-miterlimit:4;stroke-dasharray:none;stroke-opacity:1" transform="translate(142.509 -191.105)"/><path d="M-129.193 228.248c-1.458 0-2.631.892-2.631 2 .002 1.987 0 4.082 0 5.9h31.072v-5.9c0-1.108-1.174-2-2.631-2z" style="opacity:1;fill:#f9f9f9;fill-opacity:1;stroke:#333;stroke-width:1.31536531;stroke-linecap:square;stroke-linejoin:miter;stroke-miterlimit:4;stroke-dasharray:none;stroke-dashoffset:0;stroke-opacity:1;paint-order:fill markers stroke" transform="translate(142.509 -191.105)"/><path d="M-269.665 199.347a2.842 2.842 0 0 1-2.84 2.842 2.842 2.842 0 0 1-2.843-2.838 2.842 2.842 0 0 1 2.836-2.845 2.842 2.842 0 0 1 2.847 2.834m-9.805 9.826a2.842 2.842 0 0 1-2.84 2.841 2.842 2.842 0 0 1-2.843-2.838 2.842 2.842 0 0 1 2.836-2.845 2.842 2.842 0 0 1 2.847 2.834m36.248.008a2.842 2.842 0 0 1-2.84 2.841 2.842 2.842 0 0 1-2.843-2.838 2.842 2.842 0 0 1 2.836-2.845 2.842 2.842 0 0 1 2.847 2.834" style="opacity:1;fill:#f9f9f9;fill-opacity:1;stroke:#333;stroke-width:1;stroke-linecap:square;stroke-linejoin:miter;stroke-miterlimit:4;stroke-dasharray:none;stroke-dashoffset:0;stroke-opacity:1;paint-order:fill markers stroke" transform="translate(289.187 -189.736)"/><path d="m-244.565 207.374-2.292 4.005c3.1.93 3.998-2.946 2.292-4.005zm-2.795 4.876-8.079 13.961 3.733.027 4.83-13.843z" style="fill:#e6e6e6;fill-opacity:1;fill-rule:evenodd;stroke:none;stroke-width:.26458332px;stroke-linecap:butt;stroke-linejoin:miter;stroke-opacity:1" transform="translate(289.187 -189.736)"/><path d="M-251.693 199.347a2.842 2.842 0 0 1-2.84 2.842 2.842 2.842 0 0 1-2.843-2.838 2.842 2.842 0 0 1 2.836-2.845 2.842 2.842 0 0 1 2.847 2.834" style="opacity:1;fill:#f9f9f9;fill-opacity:1;stroke:#333;stroke-width:1;stroke-linecap:square;stroke-linejoin:miter;stroke-miterlimit:4;stroke-dasharray:none;stroke-dashoffset:0;stroke-opacity:1;paint-order:fill markers stroke" transform="translate(289.187 -189.736)"/><path d="m-253.043 197.56-2.292 4.004c3.1.93 3.998-2.946 2.292-4.004zm-17.981 0c.25 2.167-.77 3.242-2.094 4.054 3.1.93 3.8-2.996 2.094-4.054zm-9.858 9.785c1.031 2.992-.478 3.55-2.093 4.054 3.1.93 3.799-2.996 2.093-4.054z" style="fill:#e6e6e6;fill-opacity:1;fill-rule:evenodd;stroke:none;stroke-width:.26458332px;stroke-linecap:butt;stroke-linejoin:miter;stroke-opacity:1" transform="translate(289.187 -189.736)"/></svg>