<?xml version="1.0" encoding="UTF-8" standalone="no"?>
<!-- Created with Inkscape (http://www.inkscape.org/) -->

<svg
   width="330"
   height="120"
   viewBox="0 0 87.312496 31.750001"
   version="1.1"
   id="svg5"
   sodipodi:docname="logo-black.svg"
   inkscape:version="1.1.1 (1:1.1+202109281949+c3084ef5ed)"
   xmlns:inkscape="http://www.inkscape.org/namespaces/inkscape"
   xmlns:sodipodi="http://sodipodi.sourceforge.net/DTD/sodipodi-0.dtd"
   xmlns="http://www.w3.org/2000/svg"
   xmlns:svg="http://www.w3.org/2000/svg">
  <sodipodi:namedview
     id="namedview7"
     pagecolor="#ffffff"
     bordercolor="#666666"
     borderopacity="1.0"
     inkscape:pageshadow="2"
     inkscape:pageopacity="0.0"
     inkscape:pagecheckerboard="0"
     inkscape:document-units="mm"
     showgrid="false"
     units="px"
     width="310px"
     inkscape:zoom="1.5447391"
     inkscape:cx="175.43416"
     inkscape:cy="166.37114"
     inkscape:window-width="1920"
     inkscape:window-height="1028"
     inkscape:window-x="0"
     inkscape:window-y="0"
     inkscape:window-maximized="1"
     inkscape:current-layer="text21260" />
  <defs
     id="defs2" />
  <g
     inkscape:label="Layer 1"
     inkscape:groupmode="layer"
     id="layer1">
    <text
       xml:space="preserve"
       style="font-size:16.9333px;line-height:1.25;font-family:Primer;-inkscape-font-specification:'Primer, Normal';stroke-width:0.264583"
       x="100.71035"
       y="51.624599"
       id="text14531"><tspan
         sodipodi:role="line"
         id="tspan14529"
         style="stroke-width:0.264583"
         x="100.71035"
         y="51.624599" /></text>
    <g
       aria-label="chess3"
       id="text21260"
       style="font-size:24.6055px;line-height:1.25;font-family:Primer;-inkscape-font-specification:'Primer, Normal';stroke-width:0.264583">
      <path
         d="m 2.8270881,16.247492 q 0,-1.008826 0.3690825,-2.214495 0.3690825,-1.20567 1.131853,-2.239101 0.787376,-1.033431 1.9684399,-1.722385 1.2056695,-0.713559 2.8296325,-0.713559 0.935009,0 1.943834,0.344477 1.008826,0.344477 1.820807,0.910403 0.836587,0.565927 1.377908,1.304092 0.541321,0.713559 0.541321,1.451724 0,0.418294 -0.221449,0.590532 -0.196844,0.172239 -0.738165,0.172239 -0.861193,0 -1.304092,-0.442899 -0.442899,-0.442899 -0.836587,-0.959615 -0.369082,-0.541321 -0.861192,-0.98422 -0.49211,-0.442899 -1.4271191,-0.442899 -1.1564584,0 -1.8946234,0.590532 -0.738165,0.565927 -1.1564585,1.402514 -0.4182935,0.811981 -0.5905319,1.722385 -0.1722385,0.910403 -0.1722385,1.550146 0,0.590532 0.147633,1.427119 0.1476329,0.811982 0.5413209,1.574752 0.393688,0.738165 1.0580365,1.254881 0.688954,0.516715 1.771596,0.516715 0.6397429,0 1.082642,-0.221449 0.442899,-0.246055 0.76277,-0.590532 0.344477,-0.344477 0.615138,-0.762771 0.27066,-0.418293 0.565926,-0.76277 0.295266,-0.344477 0.639743,-0.565927 0.369083,-0.246055 0.885798,-0.246055 0.639743,0 0.861193,0.246055 0.246055,0.22145 0.246055,0.71356 0,0.713559 -0.541321,1.427119 -0.516716,0.713559 -1.353303,1.279486 -0.811981,0.565926 -1.796201,0.935009 -0.98422,0.344477 -1.8700181,0.344477 -1.6485684,0 -2.8542379,-0.664349 -1.2056694,-0.688954 -1.9930454,-1.722385 -0.787376,-1.033431 -1.181064,-2.2391 -0.3690825,-1.20567 -0.3690825,-2.263706 z"
         style="font-family:Gihun;-inkscape-font-specification:'Gihun, Normal'"
         id="path826" />
      <path
         d="m 28.564396,23.161637 q -0.147633,0 -0.393688,-0.04921 -0.221449,-0.04921 -0.442899,-0.123027 -0.221449,-0.09842 -0.393688,-0.22145 -0.147633,-0.123027 -0.147633,-0.295266 v -8.36587 q 0,-0.516715 -0.246055,-1.058036 -0.246055,-0.565927 -0.664348,-1.008826 -0.418294,-0.467504 -1.033431,-0.76277 -0.590532,-0.295266 -1.279486,-0.295266 -0.541321,0 -1.131853,0.221449 -0.590532,0.22145 -1.107248,0.565927 -0.49211,0.344477 -0.836587,0.787376 -0.319871,0.442899 -0.319871,0.910403 v 8.85798 q 0,0.147633 -0.172239,0.319872 -0.147633,0.147633 -0.369082,0.27066 -0.22145,0.09842 -0.49211,0.172239 -0.246055,0.07382 -0.418294,0.07382 -0.172238,0 -0.418293,-0.0246 -0.246055,-0.04921 -0.467505,-0.123028 -0.221449,-0.07382 -0.393688,-0.196844 -0.147633,-0.147633 -0.147633,-0.344477 V 5.4210721 q 0,-0.098422 0.147633,-0.2214495 0.147633,-0.1230275 0.344477,-0.2214495 0.22145,-0.098422 0.442899,-0.147633 0.22145,-0.073817 0.344477,-0.073817 0.172239,0 0.442899,0.073817 0.270661,0.049211 0.516716,0.1722385 0.27066,0.098422 0.442899,0.2706605 0.196844,0.147633 0.196844,0.3198715 v 3.4447699 q 0,0.2214495 0.295266,0.295266 0.319871,0.049211 0.565926,0.049211 0.04921,0 0.07382,0 0.04921,-0.024606 0.07382,-0.024606 0.639743,0 1.20567,-0.073816 0.590532,-0.098422 1.205669,-0.098422 1.230275,0 2.288312,0.442899 1.082642,0.4182935 1.870017,1.1072475 0.787376,0.688954 1.230275,1.574752 0.467505,0.885798 0.467505,1.796201 v 8.36587 q 0,0.196844 -0.147633,0.319872 -0.123028,0.123027 -0.319872,0.221449 -0.196844,0.07382 -0.418293,0.123028 -0.22145,0.0246 -0.393688,0.0246 z"
         style="font-family:Gihun;-inkscape-font-specification:'Gihun, Normal'"
         id="path828" />
      <path
         d="m 44.754771,14.9434 q 0,0.07382 -0.04921,0.270661 -0.02461,0.172238 -0.123027,0.344477 -0.07382,0.172238 -0.196844,0.319871 -0.123028,0.123028 -0.270661,0.123028 h -7.676916 q -0.418293,0 -0.688954,0.123027 -0.246055,0.09842 -0.393688,0.270661 -0.123027,0.147633 -0.172238,0.369082 -0.0246,0.22145 -0.0246,0.442899 0,0.541321 0.221449,1.230275 0.221449,0.688954 0.639743,1.304092 0.418293,0.615137 1.058036,1.033431 0.639743,0.418293 1.500936,0.418293 0.664348,0 1.082642,-0.221449 0.442899,-0.22145 0.76277,-0.541321 0.319872,-0.344477 0.565927,-0.738165 0.246055,-0.393688 0.541321,-0.71356 0.295266,-0.344477 0.688954,-0.565926 0.393688,-0.22145 1.008825,-0.22145 0.49211,0 0.787376,0.196844 0.319872,0.196844 0.319872,0.615138 0,0.76277 -0.541321,1.500935 -0.541321,0.738165 -1.377908,1.328697 -0.836587,0.590532 -1.870018,0.959615 -1.008826,0.344477 -1.96844,0.344477 -1.599358,0 -2.805027,-0.688954 -1.205669,-0.71356 -2.017651,-1.746991 -0.787376,-1.033431 -1.181064,-2.2391 -0.393688,-1.20567 -0.393688,-2.214495 0,-1.082642 0.418294,-2.288312 0.418293,-1.230275 1.230275,-2.2391 0.836587,-1.033431 2.066861,-1.69778 1.230275,-0.6889535 2.854238,-0.6889535 1.328697,0 2.435945,0.5167155 1.107247,0.516715 1.894623,1.328697 0.811982,0.811981 1.230275,1.820807 0.442899,0.98422 0.442899,1.943834 z m -2.977265,-1.008825 q 0,-0.467505 -0.270661,-0.935009 -0.246055,-0.467505 -0.688954,-0.836587 -0.442899,-0.393688 -1.033431,-0.615138 -0.565926,-0.246055 -1.181064,-0.246055 -0.590532,0 -1.181064,0.270661 -0.590532,0.246055 -1.058036,0.664348 -0.442899,0.393688 -0.738165,0.885798 -0.270661,0.467505 -0.270661,0.935009 0,0.196844 0.123028,0.467505 0.123027,0.246055 0.541321,0.246055 h 5.117944 q 0.418293,0 0.516715,-0.295266 0.123028,-0.295266 0.123028,-0.541321 z"
         style="font-family:Gihun;-inkscape-font-specification:'Gihun, Normal'"
         id="path830" />
      <path
         d="m 47.559791,20.602665 q 0,-0.418293 0.172238,-0.664348 0.172239,-0.270661 0.787376,-0.270661 0.639743,0 1.082642,0.344477 0.442899,0.344477 0.885798,0.762771 0.442899,0.393688 0.98422,0.738165 0.565927,0.319871 1.427119,0.319871 0.541321,0 1.033431,-0.09842 0.516716,-0.09842 0.910404,-0.295266 0.393688,-0.221449 0.615137,-0.541321 0.22145,-0.319871 0.22145,-0.787376 0,-0.787376 -0.615138,-1.328697 -0.590532,-0.541321 -1.500935,-0.959614 -0.885798,-0.442899 -1.943835,-0.861193 -1.058036,-0.418293 -1.96844,-0.935009 -0.885798,-0.516715 -1.500935,-1.230275 -0.590532,-0.713559 -0.590532,-1.74699 0,-0.910404 0.49211,-1.599358 0.49211,-0.688954 1.279486,-1.156458 0.811981,-0.4675045 1.820807,-0.7135595 1.033431,-0.246055 2.066862,-0.246055 0.442899,0 1.082642,0.049211 0.639743,0.024605 1.230275,0.1722385 0.590532,0.147633 1.008825,0.4428989 0.418294,0.2706601 0.418294,0.7627701 0,0.393688 -0.319872,0.49211 -0.319871,0.09842 -0.738165,0.09842 -0.688954,0 -1.279486,-0.172238 -0.590532,-0.196844 -1.279486,-0.196844 -0.590532,0 -1.156458,0.172238 -0.541321,0.147633 -0.959615,0.442899 -0.418293,0.295266 -0.664348,0.71356 -0.246055,0.418293 -0.246055,0.910403 0,0.885798 0.590532,1.47633 0.615137,0.590532 1.500935,1.033431 0.910404,0.442899 1.96844,0.836587 1.058037,0.393688 1.943835,0.861193 0.910403,0.467504 1.500935,1.107247 0.615138,0.639743 0.615138,1.574752 0,0.811982 -0.516716,1.427119 -0.516715,0.590532 -1.328697,0.98422 -0.811981,0.393688 -1.796201,0.590532 -0.98422,0.196844 -1.894624,0.196844 -0.738165,0 -1.673174,-0.172238 -0.910403,-0.147633 -1.722385,-0.467505 -0.811981,-0.344477 -1.377908,-0.836587 -0.565926,-0.516715 -0.565926,-1.230275 z"
         style="font-family:Gihun;-inkscape-font-specification:'Gihun, Normal'"
         id="path832" />
      <path
         d="m 61.117389,20.602665 q 0,-0.418293 0.172239,-0.664348 0.172238,-0.270661 0.787376,-0.270661 0.639743,0 1.082642,0.344477 0.442899,0.344477 0.885798,0.762771 0.442899,0.393688 0.984219,0.738165 0.565927,0.319871 1.427119,0.319871 0.541321,0 1.033431,-0.09842 0.516716,-0.09842 0.910404,-0.295266 0.393688,-0.221449 0.615137,-0.541321 0.22145,-0.319871 0.22145,-0.787376 0,-0.787376 -0.615138,-1.328697 -0.590532,-0.541321 -1.500935,-0.959614 -0.885798,-0.442899 -1.943835,-0.861193 -1.058036,-0.418293 -1.968439,-0.935009 -0.885798,-0.516715 -1.500936,-1.230275 -0.590532,-0.713559 -0.590532,-1.74699 0,-0.910404 0.49211,-1.599358 0.49211,-0.688954 1.279486,-1.156458 0.811982,-0.4675045 1.820807,-0.7135595 1.033431,-0.246055 2.066862,-0.246055 0.442899,0 1.082642,0.049211 0.639743,0.024605 1.230275,0.1722385 0.590532,0.147633 1.008825,0.4428989 0.418294,0.2706601 0.418294,0.7627701 0,0.393688 -0.319872,0.49211 -0.319871,0.09842 -0.738165,0.09842 -0.688954,0 -1.279486,-0.172238 -0.590532,-0.196844 -1.279486,-0.196844 -0.590532,0 -1.156458,0.172238 -0.541321,0.147633 -0.959615,0.442899 -0.418293,0.295266 -0.664348,0.71356 -0.246055,0.418293 -0.246055,0.910403 0,0.885798 0.590532,1.47633 0.615137,0.590532 1.500935,1.033431 0.910404,0.442899 1.96844,0.836587 1.058037,0.393688 1.943835,0.861193 0.910403,0.467504 1.500935,1.107247 0.615138,0.639743 0.615138,1.574752 0,0.811982 -0.516716,1.427119 -0.516715,0.590532 -1.328697,0.98422 -0.811981,0.393688 -1.796201,0.590532 -0.98422,0.196844 -1.894624,0.196844 -0.738165,0 -1.673174,-0.172238 -0.910403,-0.147633 -1.722384,-0.467505 -0.811982,-0.344477 -1.377908,-0.836587 -0.565927,-0.516715 -0.565927,-1.230275 z"
         style="font-family:Gihun;-inkscape-font-specification:'Gihun, Normal'"
         id="path834" />
      <path
         d="m 84.910875,5.7409436 q 0,0.49211 -0.295266,1.0334309 -0.295266,0.5167155 -0.565927,0.935009 -0.123027,0.2214495 -0.467504,0.787376 -0.319872,0.5659265 -0.688954,1.2056695 -0.369083,0.615137 -0.71356,1.181064 -0.344476,0.541321 -0.467504,0.76277 0,0.04921 -0.0246,0.22145 0,0.147633 0,0.196844 0,0.27066 0.319871,0.541321 0.319871,0.246055 0.787376,0.565926 0.467504,0.319872 1.033431,0.688954 0.565926,0.369083 1.033431,0.861193 0.467504,0.467504 0.787376,1.082642 0.319871,0.590532 0.319871,1.353302 0,1.058037 -0.467504,2.165284 -0.467505,1.082642 -1.328697,1.96844 -0.861193,0.885798 -2.091468,1.451725 -1.205669,0.565926 -2.706604,0.565926 -1.451725,0 -2.534367,-0.590532 -1.082642,-0.590532 -1.943834,-1.377908 -0.02461,-0.04921 -0.02461,-0.172238 0,-0.123028 0,-0.172239 0,-0.664348 0.836587,-0.664348 0.516716,0 0.959615,0.172238 0.442899,0.147633 0.861192,0.344477 0.442899,0.172239 0.910404,0.344477 0.467504,0.147633 1.033431,0.147633 1.058036,0 1.796201,-0.393688 0.76277,-0.418293 1.230275,-1.033431 0.49211,-0.639743 0.713559,-1.377908 0.22145,-0.76277 0.22145,-1.47633 0,-0.836587 -0.393688,-1.427119 -0.393688,-0.590532 -1.082642,-0.98422 -0.664348,-0.393688 -1.574752,-0.590532 -0.885798,-0.221449 -1.870018,-0.27066 -0.393688,-0.09842 -0.418293,-0.295266 -0.02461,-0.22145 -0.02461,-0.418294 0,-0.811981 0.467505,-1.550146 0.467504,-0.738165 1.033431,-1.451725 0.590532,-0.7381645 1.058036,-1.4763295 0.467505,-0.738165 0.467505,-1.5501465 0,-0.147633 -0.07382,-0.4182935 -0.04921,-0.2952659 -0.369082,-0.2952659 h -4.281357 q -0.369083,0 -0.639743,-0.344477 -0.270661,-0.3690825 -0.270661,-0.590532 0,-0.295266 0.172239,-0.4675045 0.172238,-0.1722385 0.738165,-0.1722385 h 7.480071 q 0.196844,0 0.369083,0.098422 0.196844,0.098422 0.344477,0.246055 0.147633,0.147633 0.246055,0.3198715 0.09842,0.1722385 0.09842,0.3198715 z"
         style="fill:#448960"
         id="path836" />
    </g>
  </g>
</svg>
