<svg xmlns="http://www.w3.org/2000/svg" width="188.976" height="219.976" fill-rule="evenodd" clip-rule="evenodd" image-rendering="optimizeQuality" shape-rendering="geometricPrecision" text-rendering="geometricPrecision" viewBox="0 0 50 58.202"><defs><linearGradient id="b" x1="21.405" x2="77.641" y1="37.346" y2="37.346" gradientUnits="userSpaceOnUse"><stop offset="0" stop-color="#fff"/><stop offset="1" stop-color="#fff" stop-opacity="0"/></linearGradient></defs><linearGradient id="a" x1="21.253" x2="77.641" y1="37.592" y2="37.469" gradientUnits="userSpaceOnUse"><stop offset="0" stop-color="#fff"/><stop offset="1" stop-color="#fff" stop-opacity="0"/></linearGradient><g stroke="none" style="fill:#9cc5ad;stroke:#540000;stroke-width:2.13543;stroke-linejoin:round;stroke-opacity:.452214;paint-order:markers stroke fill"><path d="m27.248 26.504 10.525.95v6.637l-10.525-2.855Z" style="fill:#e9e9ff;fill-rule:evenodd;stroke:none;stroke-linejoin:round"/><path d="M12.619 28.089v7.79l14.63-4.643v-4.732Z" style="fill:#353564;fill-rule:evenodd;stroke:none;stroke-linejoin:round"/><path d="M12.619 35.878 22.93 46.394 37.773 34.09l-10.525-2.855Z" style="fill:#afafde;fill-rule:evenodd;stroke:none;stroke-linejoin:round"/><path d="m12.619 28.089 10.312 3.534 14.842-4.169-10.525-.95Z" style="fill:#4d4d9f;fill-rule:evenodd;stroke:none;stroke-linejoin:round"/><path d="M22.931 31.623v14.77l14.842-12.302v-6.637z" style="fill:#d7d7ff;fill-rule:evenodd;stroke:none;stroke-linejoin:round"/><path d="m12.619 28.089 10.312 3.534v14.77L12.62 35.879Z" style="fill:#8686bf;fill-rule:evenodd;stroke:none;stroke-linejoin:round"/></g><path fill="#1f1a17" d="M24.64 11.623a7.927 7.927 0 0 1 3.216.983 8.507 8.507 0 0 1 2.488 2.085c.475.59.918 1.3 1.331 2.126a12.868 12.868 0 0 1 .978 2.615 16.38 16.38 0 0 1 .48 3.36c.051 1.167.063 2.25.039 3.245l-.059 2.422-13.68-.332c-.07-.002-.095-.185-.083-.545.013-.365.043-.657.093-.88a4.99 4.99 0 0 1 .228-.75c.122-.324.314-.715.587-1.175.124-.237.413-.575.868-1.02.46-.445.981-.964 1.577-1.55.342-.334.61-.757.813-1.272.203-.512.294-.98.274-1.407a3.755 3.755 0 0 1-.913.525c-1.586.524-2.745 1.312-3.473 2.362-.055.068-.23.364-.523.892-.155.277-.289.468-.394.568-.144.137-.35.212-.617.22-.415.01-.733-.196-.954-.627a2.457 2.457 0 0 1-.838.094c-.41-.166-.706-.34-.888-.523-.37-.39-.604-.77-.712-1.154a4.23 4.23 0 0 1-.142-1.226c.016-.623.42-1.438 1.219-2.444.932-1.155 1.436-2.043 1.508-2.657.006-.266.04-.565.102-.898a1.883 1.883 0 0 1 .293-.662c.102-.146.17-.246.201-.299.036-.056.099-.138.192-.246.067-.09.125-.156.172-.201.043-.048.102-.111.172-.193.082-.093.187-.2.32-.327a8.102 8.102 0 0 1-.398-3.357c1.46.56 2.683 1.418 3.653 2.57a3.752 3.752 0 0 1 1.497-2 4.44 4.44 0 0 1 1.372 1.678z" style="stroke-width:1"/><path fill="url(#a)" d="M31.788 27.637c-.008 0 .005-.201.034-.603.032-.406.054-.843.066-1.31.03-.926.053-1.883.07-2.874a12.04 12.04 0 0 0-.327-2.975c-.231-.956-.489-1.771-.776-2.45a9.833 9.833 0 0 0-.949-1.764c-.512-.814-1.225-1.512-2.13-2.088a8.161 8.161 0 0 0-2.855-1.164 5.2 5.2 0 0 1 .065 1.073c-.022.265-.15.396-.39.39-.274-.007-.391-.143-.358-.408.046-.98-.283-1.827-.984-2.539-.576.578-.9 1.258-.961 2.043-.022.262-.157.373-.411.336-.235-.013-.35-.152-.343-.419l.021-.09a5.86 5.86 0 0 0-.967.39c-.216.143-.39.101-.517-.122-.128-.228-.067-.401.191-.52.322-.156.565-.271.73-.35a7.91 7.91 0 0 0-2.141-1.633 7.765 7.765 0 0 0 .776 2.948c.12.193.086.363-.104.506-.212.158-.387.131-.522-.089a3.98 3.98 0 0 1-.21-.407c-.16.151-.269.267-.32.337a4.5 4.5 0 0 0-.284.438 5.583 5.583 0 0 0-.299.563c-.07.184-.103.332-.094.45.008.114.016.24.02.384a3.414 3.414 0 0 1-.481 1.223 59.984 59.984 0 0 1-.93 1.391 57.246 57.246 0 0 1-.831 1.18c-.193.265-.342.6-.447 1.015-.074.25-.082.557-.022.915.056.363.197.647.413.854.333.354.66.521.98.503.101.002.243-.036.42-.116.176-.075.313-.228.417-.457.2-.417.365-.626.494-.622.182.004.282.113.292.318 0 .046-.066.23-.191.554a3.4 3.4 0 0 1-.278.46c-.149.19-.211.27-.195.239.107.428.302.506.583.239.081-.078.18-.232.288-.45.112-.221.282-.517.512-.888a4.81 4.81 0 0 1 .861-1.05c.303-.267.57-.484.806-.645a8.62 8.62 0 0 1 .498-.322c.197-.125.458-.248.788-.373.26-.096.552-.218.871-.362.32-.145.605-.331.853-.564.35-.326.622-.73.82-1.215.106-.272.148-.608.135-1.011-.059-.253.07-.375.389-.367.239.006.37.13.394.378a3.961 3.961 0 0 1-.77 2.272c.144.478.173 1 .083 1.56-.075.45-.246.932-.506 1.443-.263.506-.778 1.067-1.549 1.68-1.569 1.238-2.326 2.534-2.275 3.884l5.46.133zm-14.921-7.13a.801.801 0 0 0-.404.526c.001.243-.116.374-.352.39-.263.024-.393-.089-.395-.344a1.47 1.47 0 0 1 .686-1.15c.197-.15.376-.135.534.056.159.205.136.379-.07.522zm3.432-5.224a.67.67 0 0 1 .099.47c-.084.472-.354.664-.804.58a.716.716 0 0 1-.32-.14 1.713 1.713 0 0 0-.14.24c-.085.237-.242.313-.472.235-.226-.096-.313-.266-.254-.508.355-.846.973-1.416 1.854-1.714.257-.07.422.01.496.233.086.241.013.403-.213.485a1.231 1.231 0 0 1-.123.058c-.038.017-.077.04-.123.061z" style="fill:url(#b);stroke-width:1"/></svg>