<?xml version="1.0" encoding="UTF-8" standalone="no"?>
<svg
   width="550"
   height="540"
   viewBox="0 0 145.521 142.875"
   version="1.1"
   id="svg88"
   sodipodi:docname="seek-bg2.svg"
   inkscape:version="1.1.2 (0a00cf5339, 2022-02-04)"
   xmlns:inkscape="http://www.inkscape.org/namespaces/inkscape"
   xmlns:sodipodi="http://sodipodi.sourceforge.net/DTD/sodipodi-0.dtd"
   xmlns:xlink="http://www.w3.org/1999/xlink"
   xmlns="http://www.w3.org/2000/svg"
   xmlns:svg="http://www.w3.org/2000/svg">
  <sodipodi:namedview
     id="namedview90"
     pagecolor="#505050"
     bordercolor="#eeeeee"
     borderopacity="1"
     inkscape:pageshadow="0"
     inkscape:pageopacity="0"
     inkscape:pagecheckerboard="0"
     showgrid="false"
     inkscape:zoom="2.2810741"
     inkscape:cx="285.39187"
     inkscape:cy="236.94978"
     inkscape:window-width="1914"
     inkscape:window-height="1034"
     inkscape:window-x="2"
     inkscape:window-y="42"
     inkscape:window-maximized="0"
     inkscape:current-layer="svg88" />
  <defs
     id="defs38">
    <linearGradient
       xlink:href="#a"
       id="g"
       x1="21.13"
       x2="77.64"
       y1="37.592"
       y2="37.469"
       gradientUnits="userSpaceOnUse" />
    <linearGradient
       id="a"
       x1="21.13"
       x2="77.64"
       y1="37.592"
       y2="37.469"
       gradientUnits="userSpaceOnUse">
      <stop
         stop-color="#fff"
         id="stop3" />
      <stop
         offset="1"
         stop-color="#fff"
         stop-opacity="0"
         id="stop5" />
    </linearGradient>
    <linearGradient
       id="h"
       x1="21.405"
       x2="77.64"
       gradientTransform="translate(1.741 -3.952) scale(.87297)"
       gradientUnits="userSpaceOnUse">
      <stop
         stop-color="#fff"
         id="stop8" />
      <stop
         offset="1"
         stop-color="#fff"
         stop-opacity="0"
         id="stop10" />
    </linearGradient>
    <linearGradient
       xlink:href="#b"
       id="l"
       x1="52.415"
       x2="87.489"
       y1="10.288"
       y2="69.24"
       gradientTransform="translate(62.792 215.568) scale(.26458)"
       gradientUnits="userSpaceOnUse" />
    <linearGradient
       id="b">
      <stop
         offset="0"
         style="stop-color:#525252;stop-opacity:1"
         id="stop14" />
      <stop
         offset="1"
         style="stop-color:#999;stop-opacity:0"
         id="stop16" />
    </linearGradient>
    <linearGradient
       xlink:href="#c"
       id="k"
       x1="120.405"
       x2="6.133"
       y1="64.5"
       y2="20.335"
       gradientTransform="translate(62.792 215.568) scale(.26458)"
       gradientUnits="userSpaceOnUse" />
    <linearGradient
       id="c">
      <stop
         offset="0"
         style="stop-color:#000;stop-opacity:1"
         id="stop20" />
      <stop
         offset="1"
         style="stop-color:#000;stop-opacity:0"
         id="stop22" />
    </linearGradient>
    <linearGradient
       xlink:href="#c"
       id="j"
       x1="53.469"
       x2="57.793"
       y1="112.319"
       y2="78.677"
       gradientTransform="translate(62.792 215.568) scale(.26458)"
       gradientUnits="userSpaceOnUse" />
    <linearGradient
       xlink:href="#d"
       id="i"
       x1="20.076"
       x2="-55.59"
       y1="54.618"
       y2="-17.58"
       gradientTransform="translate(62.792 215.568) scale(.26458)"
       gradientUnits="userSpaceOnUse" />
    <linearGradient
       id="d">
      <stop
         offset="0"
         style="stop-color:#5e5e5e;stop-opacity:1"
         id="stop27" />
      <stop
         offset="1"
         style="stop-color:#5e5e5e;stop-opacity:0"
         id="stop29" />
    </linearGradient>
    <clipPath
       id="e"
       clipPathUnits="userSpaceOnUse">
      <path
         d="M-2.542-1.907h56.568v26.271H-2.542z"
         style="opacity:1;fill:#d40000;fill-opacity:1;stroke:#d40000;stroke-width:.36687925;stroke-linecap:square;stroke-linejoin:miter;stroke-miterlimit:4;stroke-dasharray:none;stroke-opacity:1;paint-order:normal"
         id="path32" />
    </clipPath>
    <clipPath
       id="f"
       clipPathUnits="userSpaceOnUse">
      <path
         d="M2.86 31.674h45.869v22.458H2.86z"
         style="opacity:1;fill:#d40000;fill-opacity:1;stroke:#000;stroke-width:.19755;stroke-linecap:square;stroke-linejoin:miter;stroke-miterlimit:4;stroke-dasharray:none;stroke-opacity:1;paint-order:normal"
         id="path35" />
    </clipPath>
    <linearGradient
       id="a-3"
       x1="21.405001"
       x2="77.640999"
       y1="37.346001"
       y2="37.346001"
       gradientUnits="userSpaceOnUse"
       gradientTransform="matrix(0.69152458,0,0,0.69152458,57.108979,24.35913)">
      <stop
         offset="0"
         stop-color="#fff"
         id="stop1032" />
      <stop
         offset="1"
         stop-color="#fff"
         stop-opacity="0"
         id="stop1034" />
    </linearGradient>
    <linearGradient
       id="a-6"
       x1="21.405001"
       x2="77.640999"
       y1="37.346001"
       y2="37.346001"
       gradientUnits="userSpaceOnUse"
       gradientTransform="matrix(0,-0.65202335,0.65202335,0,52.076161,62.782271)">
      <stop
         offset="0"
         stop-color="#fff"
         id="stop1032-7" />
      <stop
         offset="1"
         stop-color="#fff"
         stop-opacity="0"
         id="stop1034-5" />
    </linearGradient>
  </defs>
  <g
     id="layer2"
     inkscape:label="plinth">
    <path
       d="m 66.601,217.89 a 572.877,572.877 0 0 1 -3.396,-2.176 c 0.039,-0.013 21.993,0.075 24.77,0.1 l 3.57,0.03 -3.564,2.11 -3.564,2.11 H 77.21 l -7.205,-0.001 z"
       style="opacity:0.248;fill:url(#l);fill-opacity:1;stroke:#ffff30;stroke-width:0.0423571;stroke-linecap:square;stroke-miterlimit:4;stroke-dasharray:none;stroke-opacity:1;paint-order:markers stroke fill"
       transform="translate(0,-154.125)"
       id="path86" />
    <path
       d="m 84.48,240.566 2.321,0.072 v -20.55 l -2.384,-0.023 4.64,-2.791 c 1.638,-0.985 2.497,-1.401 2.603,-1.412 a 1.15,1.15 0 0 1 0.209,0.008 c 0.045,0.005 0.04,0.106 0.021,0.121 0.027,-0.109 0.005,28.533 0.005,28.533 0.072,0.737 -7.77,-3.97 -7.415,-3.958 z"
       style="opacity:0.248;fill:url(#k);fill-opacity:1;stroke:#ffff30;stroke-width:0.0423571;stroke-linecap:square;stroke-miterlimit:4;stroke-dasharray:none;stroke-opacity:1;paint-order:markers stroke fill"
       transform="translate(0,-154.125)"
       id="path84" />
    <path
       d="m 63.327,244.58 c 0.012,-0.017 1.52,-0.91 3.35,-1.985 l 3.329,-1.954 h 14.467 l 3.515,1.942 3.514,1.943 -10.85,0.023 c -5.967,0.012 -12.312,0.031 -14.1,0.042 -1.786,0.011 -3.238,0.006 -3.225,-0.011 z"
       style="opacity:0.248;fill:url(#j);fill-opacity:1;stroke:#ffff30;stroke-width:0.0423571;stroke-linecap:square;stroke-miterlimit:4;stroke-dasharray:none;stroke-opacity:1;paint-order:markers stroke fill"
       transform="translate(0,-154.125)"
       id="path82" />
    <path
       d="m 62.951,244.76 -0.093,-29.211 29.085,0.169"
       style="opacity:0.248;fill:none;stroke:#000000;stroke-width:0.264583px;stroke-linecap:butt;stroke-linejoin:miter;stroke-opacity:1"
       transform="translate(0,-154.125)"
       id="path80" />
    <path
       d="m 63.072,232.576 c 0.005,-6.535 -0.025,-12.951 -0.017,-14.257 l 0.003,-2.616 4.125,2.561 2.823,1.798 -2.155,0.027 0.045,2.785 -0.039,7.287 -0.006,10.477 2.155,0.003 c -0.664,0.497 -4.026,2.41 -6.68,3.94 l -0.263,-0.016 z"
       style="opacity:0.248;fill:url(#i);fill-opacity:1;stroke:#ffff30;stroke-width:0.0423571;stroke-linecap:square;stroke-miterlimit:4;stroke-dasharray:none;stroke-opacity:1;paint-order:markers stroke fill"
       transform="translate(0,-154.125)"
       id="path78" />
    <path
       d="m 67.85,220.089 v 20.549 H 86.801 V 220.09 h -9.475 z"
       style="opacity:0.248;fill:#a9a7a7;fill-opacity:1;stroke:#ffff30;stroke-width:0.0748101;stroke-linecap:square;stroke-miterlimit:4;stroke-dasharray:none;stroke-opacity:1;paint-order:markers stroke fill"
       transform="translate(0,-154.125)"
       id="path76" />
  </g>
  <g
     id="layer1"
     inkscape:label="knight"
     style="opacity:0.248"
     transform="matrix(0,1.095917,-1.095917,0,124.09976,-30.554022)">
    <path
       fill="#1f1a17"
       d="m 58.20192,45.713604 c 0.110844,-1.695261 0.546396,-3.262725 1.313827,-4.708913 0.762216,-1.440972 1.744815,-2.671992 2.942582,-3.687844 0.839154,-0.712009 1.855006,-1.380333 3.041689,-2.009536 a 18.702638,18.702638 0 0 1 3.764782,-1.512694 23.806025,23.806025 0 0 1 4.864094,-0.816985 c 1.69461,-0.115408 3.267942,-0.17083 4.71413,-0.17083 h 3.52223 v 19.889972 c 0,0.09976 -0.265374,0.143445 -0.788949,0.138229 -0.530747,-0.0059 -0.955866,-0.03912 -1.281225,-0.104324 -0.259506,-0.03912 -0.623987,-0.144097 -1.09866,-0.304495 C 78.721747,52.26057 78.147315,51.995849 77.468559,51.615067 77.120378,51.443585 76.61832,51.034766 75.955864,50.389263 75.293409,49.737892 74.520761,48.998498 73.648354,48.153475 73.151512,47.667718 72.527525,47.292804 71.771178,47.016346 71.0207,46.74054 70.336075,46.62448 69.717305,46.668818 a 5.4574354,5.4574354 0 0 1 0.795468,1.307959 c 0.816985,2.285342 2.003668,3.941481 3.554831,4.963202 0.09976,0.07694 0.535964,0.319491 1.313828,0.72831 0.408818,0.215168 0.690492,0.40295 0.839153,0.552263 0.204736,0.204084 0.320144,0.502058 0.342313,0.888708 0.02804,0.601818 -0.259506,1.071275 -0.877624,1.40837 0.132361,0.451853 0.187783,0.855455 0.165615,1.214068 -0.226253,0.601818 -0.469457,1.038022 -0.728311,1.307959 -0.552264,0.552264 -1.098659,0.905661 -1.650923,1.076491 a 6.1485802,6.1485802 0 0 1 -1.777415,0.248421 c -0.905661,0 -2.103428,-0.55748 -3.593953,-1.683525 -1.711562,-1.313827 -3.01952,-2.014752 -3.914096,-2.097559 -0.38665,0 -0.822202,-0.03912 -1.308611,-0.11606 a 2.737194,2.737194 0 0 1 -0.971515,-0.40295 c -0.215168,-0.143446 -0.363829,-0.237337 -0.44142,-0.281675 -0.08281,-0.04955 -0.204083,-0.138228 -0.364481,-0.270589 -0.132361,-0.09389 -0.231468,-0.176047 -0.297974,-0.242553 -0.07172,-0.06064 -0.165614,-0.143445 -0.286891,-0.243205 -0.138229,-0.11606 -0.297974,-0.264721 -0.485758,-0.452504 a 11.775542,11.775542 0 0 1 -4.864094,0.695709 c 0.762216,-2.141897 1.965851,-3.947349 3.60569,-5.398753 -1.220588,-0.359265 -2.208403,-1.06019 -2.959534,-2.103428 0.601817,-0.861322 1.40185,-1.545947 2.390317,-2.053873 z"
       id="path1037"
       style="stroke-width:0.652023" />
    <path
       fill="url(#a)"
       d="m 81.21704,34.760915 c 0,0.01108 -0.292758,0 -0.877623,-0.02738 -0.590733,-0.03325 -1.225803,-0.04955 -1.90456,-0.04955 -1.34708,-0.01109 -2.738498,-0.01109 -4.179469,0 a 17.498351,17.498351 0 0 0 -4.311179,0.57964 c -1.380334,0.369698 -2.555932,0.772648 -3.533315,1.214068 -0.976731,0.442072 -1.815885,0.921961 -2.528546,1.440971 -1.164514,0.772649 -2.152981,1.832839 -2.958882,3.168834 -0.811117,1.335996 -1.341212,2.731978 -1.589633,4.189902 0.530095,-0.09911 1.049105,-0.143445 1.55638,-0.13236 0.38665,0.02217 0.5803,0.204083 0.5803,0.552263 0,0.397734 -0.19365,0.573781 -0.5803,0.53466 -1.42402,-0.0326 -2.643955,0.475324 -3.653939,1.519214 0.860671,0.816333 1.860223,1.263621 3.002567,1.324259 0.381434,0.02217 0.547048,0.215168 0.502058,0.585517 -0.01043,0.342312 -0.208647,0.513143 -0.595949,0.513143 0,0 -0.04368,-0.01108 -0.132361,-0.02738 0.143446,0.44142 0.342312,0.905008 0.601818,1.390765 0.215167,0.30906 0.160398,0.563348 -0.159746,0.756348 -0.326011,0.19365 -0.580301,0.110843 -0.762215,-0.259506 -0.237337,-0.462937 -0.414035,-0.811117 -0.535311,-1.048454 a 11.49778,11.49778 0 0 0 -2.296426,3.168834 11.286524,11.286524 0 0 0 4.256407,-1.231672 c 0.275807,-0.181914 0.524227,-0.137577 0.739395,0.133013 0.237337,0.303191 0.204083,0.55748 -0.110843,0.761563 a 5.7834471,5.7834471 0 0 1 -0.584865,0.320138 c 0.226251,0.226253 0.397733,0.380782 0.502057,0.452505 0.09976,0.07759 0.314928,0.209951 0.646156,0.397734 0.337095,0.187783 0.612902,0.326011 0.828069,0.414034 0.27059,0.09389 0.485757,0.13823 0.657239,0.121277 0.165615,-0.0163 0.347529,-0.0326 0.55748,-0.04369 a 4.9618977,4.9618977 0 0 1 1.794369,0.656587 87.182042,87.182042 0 0 1 2.053873,1.302743 83.202742,83.202742 0 0 1 1.744163,1.165165 c 0.391866,0.27059 0.882839,0.474673 1.490525,0.612902 0.364481,0.09911 0.811117,0.09911 1.330128,0 0.524879,-0.09389 0.933046,-0.309711 1.225804,-0.629854 0.502058,-0.496842 0.734178,-0.976731 0.695708,-1.440972 0,-0.148661 -0.06064,-0.352744 -0.182566,-0.606381 -0.11606,-0.25429 -0.342312,-0.44794 -0.678756,-0.591386 -0.612902,-0.275805 -0.921961,-0.507926 -0.921961,-0.695709 0,-0.264721 0.154529,-0.414035 0.452504,-0.435551 0.06651,0 0.337096,0.08802 0.811769,0.258853 0.215168,0.09976 0.44142,0.226904 0.678757,0.38665 0.281673,0.209952 0.397733,0.297975 0.353396,0.275806 0.618118,-0.17083 0.723746,-0.457721 0.326012,-0.855455 -0.11606,-0.11606 -0.342313,-0.254289 -0.662456,-0.40295 -0.326012,-0.15453 -0.762215,-0.391866 -1.308611,-0.71201 -0.640287,-0.380781 -1.154081,-0.783732 -1.557032,-1.214719 -0.397734,-0.430336 -0.723094,-0.811117 -0.965646,-1.147561 -0.143446,-0.193651 -0.303843,-0.430988 -0.485757,-0.712662 -0.187784,-0.281674 -0.375566,-0.657239 -0.568565,-1.131912 -0.149314,-0.375566 -0.337096,-0.794817 -0.558132,-1.25319 -0.221036,-0.458371 -0.502058,-0.866538 -0.849586,-1.219283 -0.485758,-0.497494 -1.082359,-0.878275 -1.794369,-1.148865 -0.397734,-0.143445 -0.888708,-0.192999 -1.473572,-0.159746 -0.365134,0.09389 -0.547048,-0.08867 -0.547048,-0.552263 0,-0.347529 0.176698,-0.54118 0.535311,-0.585517 1.214719,0 2.324463,0.34818 3.329231,1.038021 0.689841,-0.226253 1.446188,-0.286891 2.263173,-0.176047 0.65724,0.09324 1.363381,0.32536 2.114512,0.684625 0.745263,0.363829 1.578549,1.092791 2.495294,2.190798 1.855006,2.236441 3.764783,3.29011 5.724764,3.168834 v -7.938384 z m -9.832512,21.932762 c 0.193652,0.314927 0.453157,0.502058 0.778516,0.568564 0.353397,-0.01108 0.547048,0.15453 0.580301,0.496842 0.04369,0.380782 -0.11606,0.573781 -0.486409,0.585517 -0.71201,-0.04434 -1.274706,-0.358613 -1.694609,-0.955214 -0.226252,-0.281674 -0.209952,-0.541179 0.06064,-0.778516 0.292758,-0.237337 0.546396,-0.209952 0.762215,0.08281 z m -7.71148,-4.802804 c 0.215168,-0.138229 0.44142,-0.192999 0.678756,-0.159745 0.689842,0.104323 0.977383,0.490973 0.872408,1.147561 a 1.0406293,1.0406293 0 0 1 -0.192999,0.469456 c 0.04955,0.03912 0.17083,0.104976 0.352744,0.193651 0.348181,0.11606 0.464241,0.342313 0.358613,0.678756 -0.131708,0.331228 -0.374913,0.463589 -0.728309,0.38665 -1.242105,-0.485757 -2.092343,-1.363381 -2.555932,-2.633522 -0.110844,-0.369698 0,-0.612902 0.320143,-0.72831 0.348181,-0.133013 0.585517,-0.03325 0.71201,0.292106 a 1.7898041,1.7898041 0 0 1 0.08867,0.176699 c 0.02739,0.05542 0.06064,0.110844 0.09389,0.176698 z"
       id="path1039"
       style="fill:url(#a-6);stroke-width:0.652023" />
  </g>
  <g
     style="opacity:0.248"
     id="g50">
    <g
       clip-path="url(#e)"
       transform="matrix(-0.01609698,-0.72552145,-0.72661118,0.01612116,61.789117,95.281422)"
       id="g44">
      <path
         d="m 28.408,9.22 h 4.216 V 5.825 h 6.796 v 9.295 l -5.5,4.243 V 31.22 l 4.22,4.221 v 5.08 h 3.789 V 46.45 H 8.07 v -5.929 h 3.794 v -5.08 L 16.11,31.22 V 19.363 L 10.602,15.12 V 5.825 h 6.774 V 9.22 h 4.242 V 5.825 h 6.79 z"
         style="fill:#1f1a17"
         id="path40" />
      <path
         d="m 33.07,17.678 3.15,-2.557 H 13.8 l 3.175,2.557 h 16.1 m 7.197,24.528 H 9.758 v 2.557 h 30.514 v -2.557 m -3.844,-5.05 H 13.602 v 3.37 h 22.826 v -3.37 M 32.212,19.368 H 17.819 V 31.23 H 32.212 V 19.368 m 5.503,-5.927 V 7.514 H 34.32 v 3.395 H 26.675 V 7.514 h -3.344 v 3.395 h -7.62 V 7.514 h -3.395 v 5.927 h 25.4 m -1.913,22 -2.548,-2.532 H 16.804 l -2.599,2.532 h 21.598"
         style="fill:#ffffff"
         id="path42" />
    </g>
    <path
       d="m 116.614,172.5 c 2.064,0.135 3.971,0.667 5.737,1.608 a 15.043,15.043 0 0 1 4.493,3.59 c 0.867,1.024 1.681,2.264 2.448,3.712 a 22.839,22.839 0 0 1 1.843,4.593 c 0.524,1.887 0.861,3.86 0.995,5.935 a 84.61,84.61 0 0 1 0.21,5.752 v 4.297 h -24.237 c -0.12,0 -0.175,-0.323 -0.168,-0.963 0.006,-0.647 0.047,-1.166 0.128,-1.563 0.046,-0.316 0.174,-0.76 0.37,-1.34 0.202,-0.58 0.524,-1.28 0.989,-2.108 0.208,-0.424 0.706,-1.038 1.493,-1.846 0.794,-0.808 1.695,-1.751 2.724,-2.816 0.592,-0.606 1.05,-1.367 1.386,-2.29 0.336,-0.916 0.477,-1.751 0.423,-2.506 a 6.604,6.604 0 0 1 -1.597,0.97 c -2.784,0.996 -4.806,2.444 -6.046,4.337 -0.094,0.12 -0.39,0.653 -0.888,1.607 -0.262,0.499 -0.49,0.842 -0.673,1.024 -0.248,0.249 -0.612,0.39 -1.083,0.418 -0.733,0.033 -1.305,-0.317 -1.715,-1.071 -0.55,0.161 -1.042,0.229 -1.48,0.202 -0.733,-0.276 -1.264,-0.573 -1.596,-0.89 -0.673,-0.673 -1.104,-1.34 -1.312,-2.014 a 7.515,7.515 0 0 1 -0.302,-2.169 c 0,-1.105 0.679,-2.566 2.05,-4.385 1.605,-2.088 2.455,-3.684 2.556,-4.774 0,-0.471 0.047,-1.004 0.142,-1.599 0.08,-0.411 0.242,-0.803 0.49,-1.185 0.175,-0.263 0.29,-0.445 0.344,-0.539 a 4.01,4.01 0 0 1 0.33,-0.444 c 0.114,-0.162 0.215,-0.284 0.296,-0.364 0.074,-0.088 0.174,-0.202 0.296,-0.35 0.141,-0.169 0.323,-0.364 0.551,-0.593 -0.699,-1.92 -0.982,-3.9 -0.847,-5.934 2.61,0.93 4.806,2.395 6.577,4.399 0.437,-1.489 1.292,-2.695 2.563,-3.61 1.05,0.734 1.883,1.71 2.502,2.916"
       style="fill:#1f1a17;stroke-width:0.794986"
       transform="matrix(-0.02026308,-0.91329524,0.91329524,-0.02026308,-133.95127,191.42024)"
       id="path46" />
    <path
       d="m 129.956,200.583 c -0.013,0 0,-0.357 0.033,-1.07 0.04,-0.721 0.06,-1.496 0.06,-2.325 0.014,-1.643 0.014,-3.341 0,-5.098 a 21.383,21.383 0 0 0 -0.705,-5.262 c -0.45,-1.684 -0.942,-3.118 -1.48,-4.311 -0.538,-1.193 -1.124,-2.216 -1.756,-3.085 -0.941,-1.421 -2.233,-2.627 -3.86,-3.61 -1.628,-0.991 -3.33,-1.637 -5.105,-1.94 0.12,0.647 0.174,1.28 0.16,1.9 -0.026,0.471 -0.248,0.707 -0.672,0.707 -0.485,0 -0.7,-0.236 -0.652,-0.707 0.04,-1.738 -0.579,-3.227 -1.85,-4.46 -0.995,1.051 -1.54,2.27 -1.614,3.665 -0.027,0.464 -0.262,0.667 -0.712,0.613 -0.417,-0.013 -0.625,-0.256 -0.625,-0.727 0,0 0.013,-0.054 0.033,-0.161 a 10.49,10.49 0 0 0 -1.695,0.734 c -0.377,0.262 -0.687,0.195 -0.922,-0.196 -0.235,-0.397 -0.134,-0.707 0.316,-0.93 l 1.279,-0.652 a 14.005,14.005 0 0 0 -3.861,-2.802 c 0.155,1.832 0.66,3.556 1.5,5.193 0.221,0.337 0.168,0.64 -0.162,0.903 -0.37,0.29 -0.679,0.25 -0.927,-0.134 a 7.32,7.32 0 0 1 -0.39,-0.714 c -0.276,0.276 -0.464,0.485 -0.552,0.613 -0.094,0.12 -0.256,0.384 -0.484,0.788 a 9.99,9.99 0 0 0 -0.505,1.01 c -0.114,0.33 -0.168,0.593 -0.148,0.804 0.02,0.202 0.04,0.424 0.054,0.68 a 6.022,6.022 0 0 1 -0.802,2.19 c -0.417,0.68 -0.941,1.515 -1.587,2.506 -0.619,0.943 -1.09,1.657 -1.419,2.128 -0.33,0.478 -0.578,1.078 -0.747,1.819 -0.12,0.445 -0.12,0.99 0,1.624 0.115,0.64 0.377,1.138 0.767,1.495 0.605,0.613 1.19,0.896 1.756,0.85 0.182,0 0.43,-0.075 0.74,-0.223 0.308,-0.141 0.544,-0.417 0.719,-0.828 0.336,-0.748 0.619,-1.125 0.848,-1.125 0.322,0 0.504,0.189 0.531,0.552 0,0.081 -0.108,0.412 -0.316,0.99 -0.12,0.263 -0.276,0.54 -0.471,0.829 -0.256,0.344 -0.363,0.485 -0.336,0.431 0.208,0.754 0.558,0.882 1.042,0.397 0.141,-0.141 0.309,-0.418 0.49,-0.808 0.19,-0.397 0.478,-0.93 0.868,-1.6 0.464,-0.78 0.955,-1.408 1.48,-1.9 0.525,-0.484 0.99,-0.881 1.4,-1.178 0.234,-0.175 0.524,-0.371 0.867,-0.593 0.343,-0.23 0.802,-0.458 1.379,-0.694 0.457,-0.182 0.968,-0.41 1.527,-0.68 a 5.502,5.502 0 0 0 1.486,-1.037 c 0.605,-0.593 1.07,-1.32 1.399,-2.19 0.175,-0.485 0.235,-1.084 0.194,-1.799 -0.114,-0.444 0.108,-0.666 0.673,-0.666 0.424,0 0.66,0.215 0.714,0.653 a 7.024,7.024 0 0 1 -1.265,4.061 c 0.276,0.842 0.35,1.765 0.215,2.762 -0.114,0.803 -0.397,1.663 -0.834,2.58 -0.444,0.91 -1.331,1.927 -2.67,3.045 -2.724,2.263 -4.011,4.593 -3.86,6.985 h 20.451 m -26.721,-11.998 c -0.384,0.236 -0.612,0.553 -0.693,0.95 0.014,0.432 -0.188,0.667 -0.605,0.708 -0.464,0.054 -0.7,-0.142 -0.713,-0.593 0.054,-0.869 0.436,-1.556 1.163,-2.068 0.344,-0.276 0.66,-0.256 0.949,0.074 0.289,0.357 0.256,0.667 -0.101,0.93 m 5.851,-9.41 c 0.169,0.262 0.236,0.538 0.196,0.827 -0.128,0.842 -0.6,1.193 -1.4,1.065 a 1.272,1.272 0 0 1 -0.571,-0.236 c -0.047,0.06 -0.128,0.209 -0.235,0.432 -0.142,0.424 -0.417,0.565 -0.827,0.437 -0.404,-0.161 -0.565,-0.458 -0.471,-0.89 0.592,-1.515 1.66,-2.552 3.21,-3.118 0.45,-0.134 0.746,0 0.887,0.39 0.161,0.425 0.04,0.715 -0.356,0.87 -0.074,0.04 -0.148,0.08 -0.216,0.108 -0.067,0.033 -0.134,0.074 -0.215,0.114"
       style="fill:#ffffff;stroke-width:0.794986"
       transform="matrix(-0.02026308,-0.91329524,0.91329524,-0.02026308,-133.95127,191.42024)"
       id="path48" />
  </g>
  <g
     style="opacity:.248"
     id="g74">
    <g
       clip-path="url(#f)"
       transform="rotate(91.181 40.471 95.122) scale(.79418)"
       id="g68">
      <path
         d="M25.447 42.01c-.229.94-.517 1.592-.847 1.956-.33.364-.762.745-1.312 1.143-.593.415-1.295.762-2.108 1.05-.813.288-1.71.364-2.701.212l-6.968-.965a2.85 2.85 0 0 0-.762 0c-.22.034-.432.051-.635.051-.347 0-.787.076-1.321.237-.542.152-.957.381-1.253.677l-2.405-3.946c.296-.33.559-.559.787-.694.237-.127.508-.271.821-.415a9.158 9.158 0 0 1 3.073-.821 12.27 12.27 0 0 1 1.363-.025c.449.017.914 0 1.397-.051.889.152 1.786.288 2.684.406.906.127 1.812.254 2.718.389.991 0 1.66-.102 2.01-.296.186-.102.474-.288.872-.55.398-.262.796-.652 1.194-1.168a17.272 17.272 0 0 1-2.684-.508 23.912 23.912 0 0 1-2.404-.754l2.582-6.401c-1.295-.745-2.193-1.338-2.709-1.795a5.306 5.306 0 0 1-1.211-1.575c-.432-.762-.711-1.499-.83-2.21a9.338 9.338 0 0 1-.161-1.913c.017-.991.245-2.083.703-3.285.457-1.194 1.312-2.269 2.565-3.209a80.007 80.007 0 0 0 3.057-2.455 27.681 27.681 0 0 0 2.946-2.955c-1.219-.627-1.829-1.626-1.829-2.997 0-.931.322-1.719.974-2.388.652-.66 1.456-.991 2.396-.991.923 0 1.719.33 2.379.991.66.669.991 1.456.991 2.388 0 1.355-.61 2.354-1.829 2.997a26.783 26.783 0 0 0 2.913 2.955c.982.838 2.02 1.66 3.09 2.455 1.236.94 2.083 2.02 2.523 3.209.449 1.202.694 2.294.72 3.285a11.7 11.7 0 0 1-.169 1.913c-.118.711-.381 1.448-.796 2.21a6.07 6.07 0 0 1-1.253 1.575c-.5.457-1.389 1.05-2.667 1.795l2.582 6.401a28.46 28.46 0 0 1-2.455.754c-.914.246-1.787.415-2.633.508.381.517.77.906 1.168 1.168.398.263.694.449.898.55.347.195 1.016.296 2.01.296.889-.136 1.786-.263 2.692-.389a80.91 80.91 0 0 0 2.718-.406c.44.051.889.068 1.346.051.457-.017.923-.008 1.405.025a9.651 9.651 0 0 1 3.073.821c.296.144.567.288.804.415.245.135.508.364.804.694l-2.43 3.946c-.296-.296-.711-.525-1.253-.677-.533-.161-.965-.237-1.295-.237-.22 0-.44-.017-.66-.051a2.79 2.79 0 0 0-.754 0l-6.951.965c-.991.152-1.913.085-2.76-.195-.855-.279-1.558-.652-2.1-1.118-.542-.449-.982-.83-1.304-1.151-.322-.322-.593-.957-.804-1.897"
         style="fill:#1f1a17"
         id="path64" />
      <path
         d="M26.32 39.2c0 1.092.245 2.024.753 2.794.5.77 1.041 1.372 1.626 1.795.906.669 2.235.999 3.988.999.432 0 1.279-.093 2.532-.279a77.514 77.514 0 0 1 2.481-.356c.627-.076 1.05-.135 1.27-.186a6.507 6.507 0 0 1 1.981.051c.262.068.559.127.88.186.322.059.593.186.804.381l1.194-1.93a7.373 7.373 0 0 0-2.159-.72c-1.253-.22-2.354-.263-3.302-.152a8.044 8.044 0 0 0-1.101.245c-.457.136-1.067.263-1.846.373-1.676.271-2.557.398-2.659.398-.644 0-1.202-.076-1.685-.246a10.22 10.22 0 0 1-1.287-.542c-.881-.398-1.77-1.338-2.684-2.811h-.787m-1.761 0h-.796c-.931 1.49-1.812 2.43-2.659 2.811-.398.195-.83.373-1.312.542-.483.169-1.033.246-1.66.246-.119 0-.999-.127-2.659-.398-.787-.11-1.422-.237-1.88-.373-.466-.127-.83-.212-1.092-.245-.948-.11-2.04-.068-3.302.152a7.068 7.068 0 0 0-2.134.72l1.194 1.93c.195-.195.457-.322.779-.381s.618-.118.88-.186a6.507 6.507 0 0 1 1.981-.051c.22.051.643.11 1.27.186s1.465.195 2.506.356c1.236.186 2.083.279 2.532.279 1.736 0 3.065-.33 3.988-.999.567-.423 1.101-1.025 1.6-1.795.508-.77.762-1.702.762-2.794m.889-9.347c1.6 0 3.141.127 4.614.373 1.617-.576 2.794-1.482 3.522-2.701.627-1.058.94-2.227.94-3.497 0-.762-.186-1.6-.567-2.523-.381-.914-.999-1.744-1.863-2.489-.974-.813-2.04-1.702-3.2-2.667-1.151-.965-2.303-2.1-3.446-3.387-1.16 1.287-2.311 2.422-3.471 3.387-1.16.965-2.218 1.854-3.175 2.667-.881.745-1.499 1.575-1.871 2.489-.372.923-.559 1.761-.559 2.523 0 1.27.305 2.438.914 3.497.711 1.219 1.897 2.125 3.548 2.701a27.7 27.7 0 0 1 4.614-.373m0 4.513c1.939 0 3.793.195 5.579.576l-1.185-3.057a28.018 28.018 0 0 0-8.805 0l-1.194 3.057a26.597 26.597 0 0 1 5.605-.576m0-23.537c1.126 0 1.685-.559 1.685-1.685s-.559-1.693-1.685-1.693-1.685.567-1.685 1.693c0 1.126.559 1.685 1.685 1.685m0 27.01a19.07 19.07 0 0 0 3.285-.279c1.067-.195 2.1-.423 3.09-.686-1.939-.508-4.064-.77-6.375-.77-2.345 0-4.47.263-6.375.77.957.263 1.973.491 3.048.686 1.075.186 2.184.279 3.327.279m-.889-14.334-2.066-.025c-.559 0-.838-.279-.838-.847 0-.559.279-.838.838-.838h2.066v-2.134c0-.576.296-.872.889-.872.576 0 .872.296.872.872v2.134h2.134c.542 0 .813.279.813.838 0 .567-.271.847-.813.847h-2.134v2.032c0 .601-.296.898-.872.898-.593 0-.889-.296-.889-.898v-2.01"
         style="fill:url(#g)"
         id="path66" />
    </g>
    <path
       d="M24.596 4.25c2.268.147 4.364.73 6.304 1.763 1.93 1.02 3.578 2.335 4.938 3.94.953 1.123 1.848 2.483 2.69 4.072a25.038 25.038 0 0 1 2.025 5.04c.577 2.07.947 4.235 1.094 6.512a92.3 92.3 0 0 1 .23 6.311v4.716H15.244c-.132 0-.192-.354-.185-1.057.007-.71.052-1.279.14-1.715.052-.347.193-.835.408-1.47.221-.636.576-1.405 1.087-2.314.228-.465.776-1.138 1.64-2.025.873-.887 1.864-1.922 2.994-3.09.65-.665 1.153-1.5 1.523-2.513.369-1.005.524-1.921.465-2.75a7.259 7.259 0 0 1-1.755 1.064c-3.06 1.094-5.281 2.683-6.644 4.76-.104.133-.429.717-.976 1.763-.288.548-.54.924-.74 1.124-.273.273-.672.428-1.19.458-.805.037-1.433-.347-1.884-1.175-.606.177-1.145.251-1.626.222-.806-.303-1.39-.629-1.755-.976-.74-.74-1.212-1.471-1.441-2.21a8.235 8.235 0 0 1-.333-2.38c0-1.213.747-2.816 2.254-4.812 1.764-2.292 2.698-4.043 2.809-5.238 0-.518.051-1.102.155-1.755.089-.45.266-.881.54-1.3.191-.288.317-.488.377-.591.066-.111.185-.273.362-.488.126-.177.236-.311.325-.4.082-.095.192-.22.326-.383.155-.185.354-.4.606-.65A15.776 15.776 0 0 1 11.794.19c2.868 1.02 5.282 2.628 7.229 4.827.48-1.634 1.419-2.957 2.816-3.962 1.153.806 2.07 1.878 2.75 3.2"
       style="fill:#1f1a17;stroke-width:.872966"
       transform="scale(-.6384) rotate(-88.819 -152.323 57.432)"
       id="path70" />
    <path
       d="M39.258 35.063c-.015 0 0-.392.037-1.175.044-.79.066-1.64.066-2.55.015-1.803.015-3.666 0-5.594a23.43 23.43 0 0 0-.776-5.773c-.495-1.848-1.035-3.422-1.626-4.731-.591-1.309-1.235-2.432-1.93-3.385-1.034-1.56-2.454-2.883-4.242-3.962-1.789-1.087-3.659-1.796-5.61-2.128.133.71.192 1.404.177 2.084-.03.518-.273.777-.74.777-.532 0-.768-.259-.716-.777.045-1.906-.635-3.54-2.032-4.893-1.094 1.154-1.693 2.491-1.774 4.021-.03.51-.288.732-.783.673-.458-.014-.687-.28-.687-.797 0 0 .015-.06.037-.178a11.56 11.56 0 0 0-1.863.806c-.414.288-.755.214-1.013-.215-.258-.435-.148-.776.347-1.02l1.405-.716a15.389 15.389 0 0 0-4.243-3.075c.17 2.01.725 3.903 1.649 5.7.243.368.185.701-.178.99-.406.318-.746.273-1.02-.148a8.031 8.031 0 0 1-.428-.783c-.303.303-.51.533-.606.673-.103.132-.28.421-.532.865-.252.45-.436.82-.555 1.108-.125.363-.185.65-.162.882.022.222.045.465.06.746a6.601 6.601 0 0 1-.882 2.403c-.459.746-1.035 1.663-1.744 2.75a113.975 113.975 0 0 1-1.56 2.335c-.362.524-.635 1.183-.82 1.995-.133.488-.133 1.087 0 1.782.126.702.414 1.25.842 1.641.665.672 1.309.983 1.93.932.2 0 .473-.081.812-.244.34-.155.6-.458.791-.909.37-.82.68-1.234.932-1.234.354 0 .554.207.584.606 0 .089-.12.451-.348 1.087a6.437 6.437 0 0 1-.517.909c-.282.377-.4.532-.37.473.229.827.614.968 1.146.435.155-.155.34-.458.54-.887.206-.435.524-1.02.952-1.754.51-.858 1.05-1.545 1.627-2.085.576-.532 1.087-.968 1.537-1.294.258-.192.576-.406.953-.65.377-.251.882-.503 1.516-.761.503-.2 1.064-.45 1.678-.747a6.046 6.046 0 0 0 1.633-1.138c.665-.65 1.175-1.448 1.537-2.402.192-.533.259-1.19.214-1.974-.126-.488.119-.732.74-.732.465 0 .724.237.783.717a7.699 7.699 0 0 1-1.39 4.456c.304.924.385 1.937.237 3.03-.126.882-.436 1.826-.916 2.832-.488.997-1.464 2.114-2.934 3.34-2.994 2.484-4.409 5.04-4.243 7.665h22.476M9.891 21.901c-.421.258-.672.606-.76 1.042.014.473-.208.732-.666.776-.51.06-.77-.155-.784-.65.06-.954.48-1.708 1.279-2.27.377-.302.724-.28 1.042.082.318.392.281.732-.11 1.02m6.43-10.326c.185.288.258.591.214.909-.14.924-.658 1.309-1.537 1.168a1.399 1.399 0 0 1-.628-.258 3.22 3.22 0 0 0-.259.473c-.155.465-.458.62-.909.48-.443-.177-.62-.503-.517-.976.65-1.663 1.825-2.801 3.526-3.422.495-.148.821 0 .976.429.178.465.045.783-.391.953a2.304 2.304 0 0 1-.237.119c-.074.036-.148.08-.237.125"
       style="fill:url(#h);stroke-width:.872966"
       transform="scale(-.6384) rotate(-88.819 -152.323 57.432)"
       id="path72" />
  </g>
</svg>
