<svg xmlns="http://www.w3.org/2000/svg" width="177.17" height="177.17" fill-rule="evenodd" clip-rule="evenodd" image-rendering="optimizeQuality" shape-rendering="geometricPrecision" viewBox="0 0 50 50"><defs><linearGradient id="c" x1="21.09" x2="77.67" y1="37.1" y2="37.469" gradientUnits="userSpaceOnUse"><stop stop-color="#fff"/><stop offset="1" stop-color="#fff" stop-opacity="0"/></linearGradient><linearGradient id="a" x1="21.253" x2="77.64" y1="37.592" y2="37.469" gradientTransform="translate(1.425 -2.51) scale(.86273)" gradientUnits="userSpaceOnUse"><stop stop-color="#fff"/><stop offset="1" stop-color="#fff" stop-opacity="0"/></linearGradient><clipPath id="b" clipPathUnits="userSpaceOnUse"><path d="M3.602 33.686H47.67v15.042H3.602z" style="opacity:1;fill:#d40000;fill-opacity:1;stroke:#000;stroke-width:.19755037;stroke-linecap:square;stroke-linejoin:miter;stroke-miterlimit:4;stroke-dasharray:none;stroke-opacity:1;paint-order:normal"/></clipPath></defs><path d="M26.202 25.347c1.16-1.524 1.727-3.217 1.71-5.08-.068-.55-.381-.821-.94-.821-.762 0-1.058.279-.898.838.051.914-.034 1.668-.271 2.261-.381.94-.804 1.642-1.261 2.108-.254.5-.102.864.449 1.092.525.245.931.119 1.211-.398m16.773 19.345c-.017 0 0-.449.042-1.346.131-3.107.095-6.221.076-9.33a26.839 26.839 0 0 0-.889-6.613c-.84-3.31-2.124-6.485-4.072-9.296-2.634-3.845-6.814-6.03-11.286-6.976.126.766.033 1.54.076 2.311 1.6.542 3.116 1.219 4.538 2.032 4.241 2.554 6.414 7.275 7.197 11.93 1.272 6.154.453 11.557.813 17.289h3.505" style="fill-opacity:1" transform="translate(.658 5.331) scale(.74113)"/><path d="M24.011 5.596c2.242.145 4.314.722 6.23 1.742 1.907 1.008 3.536 2.308 4.88 3.894.943 1.11 1.827 2.454 2.66 4.024a24.745 24.745 0 0 1 2.001 4.982 31.47 31.47 0 0 1 1.081 6.435 91.32 91.32 0 0 1 .227 6.238v4.66H14.77c-.132 0-.19-.35-.183-1.045.007-.701.05-1.264.139-1.694.05-.344.19-.826.402-1.454.219-.628.569-1.388 1.074-2.286.226-.46.767-1.125 1.622-2.002.862-.876 1.84-1.899 2.958-3.053.643-.657 1.14-1.483 1.505-2.484.365-.993.518-1.899.46-2.717a7.174 7.174 0 0 1-1.735 1.051c-3.024 1.081-5.22 2.652-6.566 4.704-.103.131-.424.708-.964 1.743-.285.54-.534.913-.731 1.11-.27.27-.665.424-1.176.453-.796.036-1.418-.343-1.863-1.161-.599.175-1.132.248-1.607.219-.796-.3-1.374-.621-1.734-.965-.73-.73-1.198-1.453-1.425-2.184a8.138 8.138 0 0 1-.328-2.352c0-1.198.737-2.783 2.227-4.755 1.743-2.265 2.666-3.996 2.776-5.177 0-.511.05-1.088.153-1.734.088-.446.263-.871.534-1.285.19-.285.314-.483.372-.584.066-.11.183-.27.358-.483a3.08 3.08 0 0 1 .322-.394c.08-.095.19-.219.322-.38.153-.182.35-.394.599-.642a15.592 15.592 0 0 1-.92-6.435c2.833 1.007 5.219 2.596 7.142 4.77.475-1.614 1.403-2.922 2.784-3.915 1.14.796 2.045 1.855 2.717 3.162" style="fill:#1f1a17;stroke-width:.86273414" transform="matrix(.7769 0 0 .81338 6.573 4.364)"/><path d="M14.96 12.835c.313-.16.467-.241.467-.241.43-.168.562-.482.409-.942-.168-.424-.497-.57-.986-.424-1.68.614-2.842 1.743-3.486 3.382-.101.468.066.789.512.965.445.139.745-.015.898-.475.117-.24.198-.402.255-.467.16.124.365.211.622.255.871.139 1.38-.24 1.519-1.154a1.29 1.29 0 0 0-.212-.898m-3.55 14.462c.05-.13.145-.321.277-.577.241-.598.358-.956.358-1.074-.021-.394-.233-.599-.62-.599-.286 0-.614.41-1.002 1.22a.834.834 0 0 1-.255.3c-.387.402-.329.737.168 1.007.46.27.811.183 1.074-.277m12.622-7.94c1-1.315 1.49-2.776 1.475-4.383-.058-.474-.328-.708-.81-.708-.658 0-.913.24-.775.723.044.788-.03 1.439-.234 1.95-.329.811-.694 1.417-1.088 1.82-.22.43-.088.745.387.941.453.212.804.103 1.045-.343M18.442 8.91a5.869 5.869 0 0 1 .044-1.665c-.855.168-1.658.57-2.417 1.198-.453.241-.563.578-.322 1.008.24.438.577.512 1.008.212l.825-.438a3.16 3.16 0 0 1 .862-.314m20.059 27.136c-.015 0 0-.387.036-1.16.113-2.681.082-5.368.066-8.05a23.154 23.154 0 0 0-.767-5.705c-.725-2.856-1.833-5.595-3.513-8.02-2.273-3.318-5.88-5.203-9.737-6.019.108.661.028 1.329.065 1.994a22.263 22.263 0 0 1 3.915 1.753c3.66 2.203 5.534 6.276 6.21 10.292 1.097 5.31.39 9.971.7 14.916h3.025M9.567 23.492c.41-.292.453-.628.125-1.03-.344-.329-.717-.358-1.132-.088-.872.57-1.337 1.322-1.395 2.25.014.468.299.694.84.665.511-.044.76-.307.745-.796a1.48 1.48 0 0 1 .818-1" style="fill:url(#a);stroke-width:.86273414" transform="matrix(.7769 0 0 .81338 6.573 4.364)"/><g clip-path="url(#b)" transform="translate(-.003 -.226)"><path d="M25 42.16c-.229.94-.517 1.592-.847 1.956-.33.364-.762.745-1.312 1.143-.593.415-1.295.762-2.108 1.05-.813.288-1.71.364-2.701.212l-6.968-.965a2.85 2.85 0 0 0-.762 0c-.22.034-.432.051-.635.051-.347 0-.787.076-1.321.237-.542.152-.957.381-1.253.677l-2.404-3.946c.296-.33.559-.559.787-.694.237-.127.508-.271.821-.415a9.158 9.158 0 0 1 3.073-.821 12.27 12.27 0 0 1 1.363-.025c.449.017.914 0 1.397-.051.889.152 1.786.288 2.684.406.906.127 1.812.254 2.718.39.991 0 1.66-.102 2.01-.296.186-.102.474-.288.872-.55.398-.262.796-.652 1.194-1.168a17.272 17.272 0 0 1-2.684-.508 23.912 23.912 0 0 1-2.404-.754l2.582-6.401c-1.295-.745-2.193-1.338-2.709-1.795a5.306 5.306 0 0 1-1.211-1.575c-.432-.762-.711-1.499-.83-2.21a9.338 9.338 0 0 1-.161-1.913c.017-.991.245-2.083.703-3.285.457-1.194 1.312-2.269 2.565-3.209a80.007 80.007 0 0 0 3.057-2.455 27.681 27.681 0 0 0 2.946-2.955c-1.219-.627-1.829-1.626-1.829-2.997 0-.931.322-1.719.974-2.388.652-.66 1.456-.991 2.396-.991.923 0 1.719.33 2.379.991.66.669.991 1.456.991 2.388 0 1.355-.61 2.354-1.829 2.997a26.783 26.783 0 0 0 2.913 2.955 59.26 59.26 0 0 0 3.09 2.455c1.236.94 2.083 2.01 2.523 3.209.449 1.202.694 2.295.72 3.285a11.7 11.7 0 0 1-.169 1.913c-.118.711-.381 1.448-.796 2.21a6.07 6.07 0 0 1-1.253 1.575c-.5.457-1.389 1.05-2.667 1.795l2.582 6.401a28.46 28.46 0 0 1-2.455.754c-.914.246-1.787.415-2.633.508.381.517.771.906 1.168 1.168.398.263.694.449.897.55.347.195 1.016.296 2.01.296.889-.136 1.787-.263 2.692-.39a80.91 80.91 0 0 0 2.718-.406c.44.051.889.068 1.346.051.457-.017.923-.008 1.406.025a9.651 9.651 0 0 1 3.073.821c.296.144.567.288.804.415.245.135.508.364.804.694l-2.43 3.946c-.296-.296-.711-.525-1.253-.677-.533-.161-.965-.237-1.295-.237-.22 0-.44-.017-.66-.051a2.79 2.79 0 0 0-.754 0l-6.951.965c-.991.152-1.913.085-2.76-.195-.855-.279-1.558-.652-2.1-1.118-.542-.449-.982-.83-1.304-1.151-.322-.322-.593-.957-.804-1.897" style="fill:#1f1a17"/><path d="M24.09 23.705v2.108c0 .61.305.914.914.914.61 0 .914-.305.914-.914v-2.134h2.235c.576 0 .872-.296.872-.897 0-.593-.296-.889-.872-.889h-2.235v-2.235c0-.61-.305-.914-.914-.914-.61 0-.914.305-.914.914v2.235h-2.184c-.584 0-.872.296-.872.889 0 .601.288.897.872.897l2.184.025m7.51 13.741-1.041-2.531c-1.685-.364-3.539-.542-5.554-.542-1.998 0-3.835.178-5.503.542l-1.041 2.506c2.049-.516 4.233-.77 6.545-.77 2.286 0 4.479.262 6.596.796m-2.083-5.114-.72-1.736v-.669a26.998 26.998 0 0 0-3.793-.271c-1.236 0-2.498.093-3.768.271l-.025.669-.669 1.736a25.805 25.805 0 0 1 4.462-.373c1.592 0 3.09.127 4.513.373m-.864 9.381c-.66-.499-1.329-1.287-1.99-2.362h-.787c0 .813.186 1.6.567 2.362h2.21m-5.114 0c.381-.813.576-1.6.576-2.362h-.796c-.643 1.058-1.312 1.846-2.02 2.362h2.235" style="fill:url(#c)"/></g></svg>