<svg xmlns="http://www.w3.org/2000/svg" xmlns:xlink="http://www.w3.org/1999/xlink" width="177.17" height="177.17" fill-rule="evenodd" clip-rule="evenodd" image-rendering="optimizeQuality" shape-rendering="geometricPrecision" viewBox="0 0 50 50"><defs><linearGradient id="a" x1="21.19" x2="77.74" y1="37.552" y2="37.429" gradientUnits="userSpaceOnUse"><stop stop-color="#fff"/><stop offset="1" stop-color="#fff" stop-opacity="0"/></linearGradient><linearGradient id="d" x1="21.253" x2="77.64" y1="37.592" y2="37.469" gradientTransform="translate(-1.597 48.409)" gradientUnits="userSpaceOnUse"><stop stop-color="#fff"/><stop offset="1" stop-color="#fff" stop-opacity="0"/></linearGradient><linearGradient xlink:href="#a" id="c" x1="21.19" x2="77.74" y1="37.552" y2="37.429" gradientUnits="userSpaceOnUse"/><clipPath id="b" clipPathUnits="userSpaceOnUse"><path d="M7.627 3.602h33.686v15.466H7.627z" style="opacity:1;fill:#d40000;fill-opacity:1;stroke:#000;stroke-width:.19755037;stroke-linecap:square;stroke-linejoin:miter;stroke-miterlimit:4;stroke-dasharray:none;stroke-opacity:1;paint-order:normal"/></clipPath></defs><g clip-path="url(#b)" transform="matrix(1 0 0 -1 1.253 52.275)"><path d="M28.408 9.22h4.216V5.825h6.796v9.295l-5.5 4.243V31.22l4.22 4.221v5.08h3.789v5.929H8.07v-5.929h3.794v-5.08l4.246-4.221V19.363l-5.508-4.243V5.825h6.774V9.22h4.242V5.825h6.79z" style="fill:#1f1a17"/><path d="M25.01 35.04H14.74l-1.143 1.067v1.439h22.826v-1.439L35.28 35.04H25.01m-11.413 5.08v2.532h22.826V40.12H13.597M25.01 13.04h-12.7v1.143l1.812 1.363h21.802l1.761-1.363V13.04H25.01m0 4.191h-8.678l1.482 1.168v1.414h14.393v-1.414l1.482-1.168h-8.678m0 13.547h-7.197v1.143l-1.482 1.439h17.357l-1.482-1.439v-1.143H25.01" style="fill:url(#c)"/></g><path d="M24.583 57.804c2.599.169 5 .838 7.222 2.02 2.21 1.168 4.098 2.675 5.656 4.513 1.092 1.287 2.117 2.845 3.082 4.665a28.682 28.682 0 0 1 2.32 5.774 36.517 36.517 0 0 1 1.253 7.459c.178 2.599.263 5.01.263 7.23v5.402H13.87c-.152 0-.22-.406-.212-1.211.008-.813.059-1.465.16-1.964.06-.398.22-.957.467-1.685.254-.728.66-1.61 1.245-2.65.262-.533.889-1.304 1.88-2.32.999-1.016 2.134-2.201 3.429-3.54.745-.761 1.32-1.718 1.744-2.878.423-1.151.6-2.201.533-3.15-.61.5-1.28.906-2.01 1.219-3.505 1.253-6.05 3.073-7.611 5.452-.12.152-.491.82-1.118 2.02-.33.627-.618 1.058-.847 1.287-.313.313-.771.49-1.363.525-.923.042-1.643-.398-2.16-1.346-.693.203-1.311.288-1.862.254-.923-.347-1.592-.72-2.01-1.118-.847-.847-1.39-1.685-1.651-2.532a9.433 9.433 0 0 1-.381-2.726c0-1.39.855-3.226 2.582-5.512 2.02-2.625 3.09-4.631 3.217-6 0-.593.059-1.262.178-2.01.102-.517.305-1.01.618-1.49.22-.33.364-.56.432-.677a5.12 5.12 0 0 1 .415-.56 3.57 3.57 0 0 1 .373-.456c.093-.11.22-.254.373-.44.178-.212.406-.457.694-.745a18.072 18.072 0 0 1-1.067-7.46c3.285 1.169 6.05 3.01 8.28 5.53.55-1.871 1.626-3.387 3.226-4.538 1.32.923 2.37 2.15 3.15 3.666" style="fill:#1f1a17;stroke-width:1" transform="translate(5.958 -31.282) scale(.70161)"/><path d="M14.09 66.195c.365-.186.543-.28.543-.28.499-.194.652-.558.474-1.091-.195-.491-.576-.66-1.143-.491-1.947.71-3.294 2.02-4.04 3.92-.118.542.076.914.593 1.118.516.16.864-.017 1.04-.55.137-.28.23-.466.297-.542.186.144.423.245.72.296 1.01.16 1.6-.28 1.76-1.338a1.495 1.495 0 0 0-.245-1.041M9.974 82.96c.059-.152.169-.373.322-.67.279-.693.415-1.108.415-1.244-.025-.457-.271-.694-.72-.694-.33 0-.711.474-1.16 1.414a.966.966 0 0 1-.296.347c-.45.466-.381.855.195 1.168.533.313.94.212 1.245-.322m14.63-9.203c1.16-1.524 1.727-3.217 1.71-5.08-.068-.55-.381-.821-.94-.821-.762 0-1.058.279-.898.838.05.914-.034 1.668-.271 2.26-.381.94-.804 1.643-1.261 2.109-.254.5-.102.864.449 1.092.525.245.93.119 1.21-.398m-6.476-12.11a6.803 6.803 0 0 1 .05-1.93c-.99.195-1.921.66-2.801 1.389-.525.279-.652.669-.373 1.168.279.508.669.593 1.168.246.347-.186.669-.356.957-.508a3.63 3.63 0 0 1 .999-.364M41.378 93.1c-.017 0 0-.45.042-1.346.13-3.107.095-6.221.076-9.33a26.838 26.838 0 0 0-.89-6.613c-.84-3.31-2.123-6.485-4.071-9.296-2.634-3.845-6.814-6.03-11.286-6.976.126.766.033 1.54.076 2.31 1.6.543 3.116 1.22 4.538 2.033 4.24 2.554 6.414 7.275 7.197 11.93 1.272 6.154.453 11.557.813 17.289h3.505M7.84 78.548c.474-.34.525-.728.144-1.194-.398-.381-.83-.415-1.312-.102-1.01.66-1.55 1.532-1.617 2.608.017.542.347.804.974.77.593-.05.88-.355.864-.922.135-.525.449-.914.948-1.16" style="fill:url(#d);stroke-width:1" transform="translate(5.958 -31.282) scale(.70161)"/></svg>