<svg width="177.17" height="177.17" fill-rule="evenodd" clip-rule="evenodd" image-rendering="optimizeQuality" shape-rendering="geometricPrecision" viewBox="0 0 50 50" xmlns="http://www.w3.org/2000/svg"><g style="opacity:1;fill:none;fill-opacity:1;fill-rule:evenodd;stroke-width:1.5;stroke-linecap:round;stroke-linejoin:round;stroke-miterlimit:4;stroke-dasharray:none;stroke-opacity:1"><g stroke="#000"><path stroke-width="1.752855" d="M17.825 4.803h3.506m-1.636 5.96V1.765"/><path d="M39.5 40.1v-5.478c-6.243-2.46-4.46-20.018-8.92-24.117 1.06-1.094 4.46-2.46 1.785-3.28-5.352-1.64-3.568 0-7.136 1.64-3.567 0-10.703-3.28-12.487 6.559-1.783 3.28-5.351 3.28-7.135 6.559-1.127 2.066 1.784 6.558 7.135 1.64 5.352 0 8.92 0 10.703-3.28 1.784 3.28 4.568 4.36 4.568 20.757H39.5v-1z" style="fill:#000;fill-opacity:1;stroke:#000;stroke-opacity:1;stroke-width:1.06527547;stroke-dasharray:none" transform="translate(-2.742 -.806) scale(1.16857)"/><path stroke-width="1.752855" d="M21.915 6.089h3.506m-1.636 5.96V3.05"/></g><path fill="#fff" stroke="#fff" stroke-width="1.752855" d="M16.392 16.225a.515 1.55 0 1 1-1.012-.585.515 1.55 0 1 1 1.012.585zm17.209 9.262a2.022 2.921 0 1 1-4.044 0 2.022 2.921 0 1 1 4.044 0zm2.57 9.348a2.022 2.921 0 1 1-4.043 0 2.022 2.921 0 1 1 4.043 0zm4.44 7.012a2.022 2.921 0 1 1-4.042 0 2.022 2.921 0 1 1 4.043 0z"/></g></svg>