<svg xmlns="http://www.w3.org/2000/svg" xmlns:xlink="http://www.w3.org/1999/xlink" width="110" height="110"><defs><linearGradient id="d"><stop offset="0" style="stop-color:#5e5e5e;stop-opacity:1"/><stop offset="1" style="stop-color:#5e5e5e;stop-opacity:0"/></linearGradient><linearGradient id="c"><stop offset="0" style="stop-color:#525252;stop-opacity:1"/><stop offset="1" style="stop-color:#999;stop-opacity:0"/></linearGradient><linearGradient id="b"><stop offset="0" style="stop-color:#000;stop-opacity:1"/><stop offset="1" style="stop-color:#000;stop-opacity:0"/></linearGradient><linearGradient id="a"><stop offset="0" style="stop-color:#000;stop-opacity:1"/><stop offset="1" style="stop-color:#000;stop-opacity:0"/></linearGradient><linearGradient xlink:href="#a" id="f" x1="53.469" x2="57.793" y1="112.319" y2="78.677" gradientUnits="userSpaceOnUse"/><linearGradient xlink:href="#b" id="g" x1="120.405" x2="6.133" y1="64.5" y2="20.335" gradientUnits="userSpaceOnUse"/><linearGradient xlink:href="#c" id="h" x1="52.415" x2="87.489" y1="10.288" y2="69.24" gradientUnits="userSpaceOnUse"/><linearGradient xlink:href="#d" id="e" x1="20.076" x2="-55.59" y1="54.618" y2="-17.58" gradientUnits="userSpaceOnUse"/></defs><path d="M19.118 17.087v77.667h71.624V17.087H54.93Z" style="opacity:.818413;fill:#a9a7a7;fill-opacity:1;stroke:#ffff30;stroke-width:.282747;stroke-linecap:square;stroke-miterlimit:4;stroke-dasharray:none;stroke-opacity:1;paint-order:markers stroke fill"/><path d="M1.058 64.282c.02-24.7-.096-48.948-.066-53.884L1.005.51l15.591 9.68 10.668 6.798-8.146.099.172 10.528-.147 27.542-.025 39.597 8.146.01c-2.51 1.877-15.217 9.109-25.245 14.888l-.996-.058z" style="opacity:.818413;fill:url(#e);fill-opacity:1;stroke:#ffff30;stroke-width:.16009;stroke-linecap:square;stroke-miterlimit:4;stroke-dasharray:none;stroke-opacity:1;paint-order:markers stroke fill"/><path d="M.6 110.332.249-.072l109.929.64" style="fill:none;stroke:#000;stroke-width:1px;stroke-linecap:butt;stroke-linejoin:miter;stroke-opacity:1"/><path d="M2.02 109.652c.047-.064 5.747-3.44 12.665-7.502l12.58-7.386h54.679l13.282 7.342 13.284 7.343-41.008.085c-22.555.047-46.534.12-53.289.16-6.754.042-12.242.023-12.194-.042z" style="opacity:.818413;fill:url(#f);fill-opacity:1;stroke:#ffff30;stroke-width:.16009;stroke-linecap:square;stroke-miterlimit:4;stroke-dasharray:none;stroke-opacity:1;paint-order:markers stroke fill"/><path d="m81.97 94.482 8.772.272V17.087l-9.012-.091L99.268 6.448c6.19-3.722 9.438-5.295 9.837-5.335.242-.024.519.003.79.032.173.019.15.4.082.457.1-.411.017 107.84.017 107.84.272 2.786-29.364-15.002-28.024-14.96z" style="opacity:.818413;fill:url(#g);fill-opacity:1;stroke:#ffff30;stroke-width:.16009;stroke-linecap:square;stroke-miterlimit:4;stroke-dasharray:none;stroke-opacity:1;paint-order:markers stroke fill"/><path d="M14.396 8.776C7.318 4.26 1.542.56 1.56.554c.147-.05 83.122.283 93.62.374l13.495.118L95.202 9.02 81.73 16.996l-27.233-.004-27.233-.004Z" style="opacity:.818413;fill:url(#h);fill-opacity:1;stroke:#ffff30;stroke-width:.16009;stroke-linecap:square;stroke-miterlimit:4;stroke-dasharray:none;stroke-opacity:1;paint-order:markers stroke fill"/></svg>