<svg xmlns="http://www.w3.org/2000/svg" xmlns:xlink="http://www.w3.org/1999/xlink" width="110" height="110"><defs><linearGradient id="e"><stop offset="0" style="stop-color:#5e5e60;stop-opacity:1"/><stop offset="1" style="stop-color:#5e5e60;stop-opacity:0"/></linearGradient><linearGradient id="d"><stop offset="0" style="stop-color:#5e5e5e;stop-opacity:1"/><stop offset="1" style="stop-color:#5e5e5e;stop-opacity:0"/></linearGradient><linearGradient id="c"><stop offset="0" style="stop-color:#525252;stop-opacity:1"/><stop offset="1" style="stop-color:#999;stop-opacity:0"/></linearGradient><linearGradient id="b"><stop offset="0" style="stop-color:#000;stop-opacity:1"/><stop offset="1" style="stop-color:#000;stop-opacity:0"/></linearGradient><linearGradient id="a"><stop offset="0" style="stop-color:#000;stop-opacity:1"/><stop offset="1" style="stop-color:#000;stop-opacity:0"/></linearGradient><linearGradient xlink:href="#a" id="h" x1="57.938" x2="26.611" y1="93.9" y2="27.529" gradientUnits="userSpaceOnUse"/><linearGradient xlink:href="#b" id="i" x1="93.49" x2="6.133" y1="60.279" y2="20.335" gradientUnits="userSpaceOnUse"/><linearGradient xlink:href="#c" id="j" x1="52.415" x2="87.489" y1="10.288" y2="69.24" gradientUnits="userSpaceOnUse"/><linearGradient xlink:href="#d" id="g" x1="20.076" x2="-55.59" y1="54.618" y2="-17.58" gradientUnits="userSpaceOnUse"/><linearGradient xlink:href="#e" id="f" x1="37.86" x2="116.013" y1="29.182" y2="131.514" gradientUnits="userSpaceOnUse"/></defs><path d="M21.996 14.192v76.16h66.062v-76.16h-33.03Z" style="opacity:.818413;fill:url(#f);fill-opacity:1;stroke:#ffff30;stroke-width:.282746;stroke-linecap:square;stroke-miterlimit:4;stroke-dasharray:none;stroke-opacity:1;paint-order:markers stroke fill"/><path d="M1.074 64.342c-.08-25.11-.116-49.76-.08-54.779L1.063.44l16.904 8.913 4.178 17.715.005 27.64.005 27.639L12.6 95.029c-5.256 6.976-9.966 13.197-10.467 13.826l-.911 1.142z" style="opacity:.818413;fill:url(#g);fill-opacity:1;stroke:#ffff30;stroke-width:.16009;stroke-linecap:square;stroke-miterlimit:4;stroke-dasharray:none;stroke-opacity:1;paint-order:markers stroke fill"/><path d="M.6 110.332.249-.072l109.929.64" style="fill:none;stroke:#000;stroke-width:1px;stroke-linecap:butt;stroke-linejoin:miter;stroke-opacity:1"/><path d="M2.02 109.637c.047-.08 5.747-4.277 12.665-9.326l12.58-9.18 27.339-.001h27.34l13.282 9.127 13.284 9.127-41.008.106c-22.555.058-46.534.148-53.289.2-6.754.05-12.242.027-12.194-.053z" style="opacity:.818413;fill:url(#h);fill-opacity:1;stroke:#ffff30;stroke-width:.16009;stroke-linecap:square;stroke-miterlimit:4;stroke-dasharray:none;stroke-opacity:1;paint-order:markers stroke fill"/><path d="M99.007 96.1 88.184 82.692l.013-27.462.012-27.462 11.014-12.89c6.058-7.089 11.05-12.844 11.095-12.789.083.104-.358 107.253-.442 107.358-.026.032-4.917-5.975-10.87-13.349z" style="opacity:.818413;fill:url(#i);fill-opacity:1;stroke:#ffff30;stroke-width:.16009;stroke-linecap:square;stroke-miterlimit:4;stroke-dasharray:none;stroke-opacity:1;paint-order:markers stroke fill"/><path d="M14.396 7.252C7.318 3.572 1.542.558 1.56.552c.147-.039 83.122.231 93.62.306l13.495.096L95.202 7.45 81.73 13.948l-27.233-.003-27.233-.003Z" style="opacity:.818413;fill:url(#j);fill-opacity:1;stroke:#ffff30;stroke-width:.16009;stroke-linecap:square;stroke-miterlimit:4;stroke-dasharray:none;stroke-opacity:1;paint-order:markers stroke fill"/></svg>