<?xml version="1.0" encoding="UTF-8" standalone="no"?>
<svg width="177.17" height="177.17" shape-rendering="geometricPrecision" image-rendering="optimizeQuality" fill-rule="evenodd" clip-rule="evenodd" viewBox="0 0 50 50" version="1.1" id="svg402" sodipodi:docname="wG.svg" inkscape:version="1.2.2 (1:1.2.2+202212051550+b0a8486541)" xmlns:inkscape="http://www.inkscape.org/namespaces/inkscape" xmlns:sodipodi="http://sodipodi.sourceforge.net/DTD/sodipodi-0.dtd" xmlns="http://www.w3.org/2000/svg" xmlns:svg="http://www.w3.org/2000/svg">
  <sodipodi:namedview id="namedview404" pagecolor="#ffffff" bordercolor="#000000" borderopacity="0.25" inkscape:showpageshadow="2" inkscape:pageopacity="0.0" inkscape:pagecheckerboard="0" inkscape:deskcolor="#d1d1d1" showgrid="false" inkscape:zoom="3.5002125" inkscape:cx="129.99211" inkscape:cy="108.13629" inkscape:window-width="1920" inkscape:window-height="1080" inkscape:window-x="0" inkscape:window-y="0" inkscape:window-maximized="1" inkscape:current-layer="svg402" />
  <defs id="defs392">
    <linearGradient id="0" x1="21.376" x2="77.64" gradientUnits="userSpaceOnUse">
      <stop stop-color="#fff" id="stop387" />
      <stop offset="1" stop-color="#fff" stop-opacity="0" id="stop389" />
    </linearGradient>
  </defs>
  <g id="g221" transform="matrix(1.1685706,0,0,1.1685706,-2.741966,-0.80588198)">
    <title id="title206">Giraffe</title>
    <g style="opacity:1;fill:none;fill-opacity:1;fill-rule:evenodd;stroke-width:1.5;stroke-linecap:round;stroke-linejoin:round;stroke-miterlimit:4;stroke-dasharray:none;stroke-opacity:1" id="g219">
      <g stroke="black" stroke-dashoffset="0" id="g213">
        <path id="Hor_1" d="m 17.6,4.8 h 3" />
        <path id="Ver_1" d="M 19.2,9.9 V 2.2" />
        <path id="Head" d="M 39.5,40.1003 V 34.622299 C 33.256599,32.1627 35.040401,14.6039 30.580799,10.504596 31.6404,9.410926 35.040401,8.045046 32.3647,7.225188 c -5.351601,-1.63971 -3.567801,0 -7.135401,1.63972 -3.567699,0 -10.703099,-3.27943 -12.486899,6.55879 -1.7838,3.279499 -5.35153,3.279499 -7.13536,6.558897 -1.12738,2.066 1.78383,6.558805 7.13536,1.6397 5.351501,0 8.9192,0 10.703,-3.2794 1.783899,3.2794 4.567699,4.3603 4.567699,20.757404 h 11.4869 v -1 z" style="fill:white" />
        <path id="Hor_2" d="m 21.1,5.9 h 3" />
        <path id="Ver_2" d="M 22.7,11 V 3.3" />
      </g>
      <path id="Eye" d="m 16.37441,14.57421 a 0.44094608,1.3228382 0 1 1 -0.866,-0.5 0.44094608,1.3228382 0 1 1 0.866,0.5 z" fill="black" stroke="black" />
      <path id="Dot_1" d="m 31.1,22.5 a 1.73,2.5 0 1 1 -3.46,0 1.73,2.5 0 1 1 3.46,0 z" fill="black" stroke="black" />
      <path id="Dot_2" d="m 33.3,30.5 a 1.73,2.5 0 1 1 -3.46,0 1.73,2.5 0 1 1 3.46,0 z" fill="black" stroke="black" />
      <path id="Dot_3" d="m 37.1,36.5 a 1.73,2.5 0 1 1 -3.46,0 1.73,2.5 0 1 1 3.46,0 z" fill="black" stroke="black" />
    </g>
  </g>
</svg>
