<svg xmlns="http://www.w3.org/2000/svg" xmlns:xlink="http://www.w3.org/1999/xlink" width="50mm" height="50mm" fill-rule="evenodd" clip-rule="evenodd" image-rendering="optimizeQuality" shape-rendering="geometricPrecision" text-rendering="geometricPrecision" viewBox="0 0 50 50"><defs><filter id="d" width="1.21" height="1.187" x="-.105" y="-.094" style="color-interpolation-filters:sRGB"><feGaussianBlur stdDeviation=".264"/></filter><filter id="e" width="1.234" height="1.17" x="-.117" y="-.085" style="color-interpolation-filters:sRGB"><feGaussianBlur stdDeviation=".373"/></filter><filter id="f" width="1.195" height="1.242" x="-.097" y="-.121" style="color-interpolation-filters:sRGB"><feGaussianBlur stdDeviation=".123"/></filter><filter id="g" width="1.195" height="1.242" x="-.097" y="-.121" style="color-interpolation-filters:sRGB"><feGaussianBlur stdDeviation=".123"/></filter><filter id="j" width="1.128" height="1.077" x="-.064" y="-.038" color-interpolation-filters="sRGB"><feGaussianBlur stdDeviation=".57"/></filter><filter id="l" width="1.216" height="1.115" x="-.108" y="-.057" style="color-interpolation-filters:sRGB"><feGaussianBlur stdDeviation=".527"/></filter><filter id="m" width="1.307" height="1.167" x="-.153" y="-.083" style="color-interpolation-filters:sRGB"><feGaussianBlur stdDeviation=".612"/></filter><filter id="n" width="1.469" height="1.834" x="-.234" y="-.417" color-interpolation-filters="sRGB"><feGaussianBlur stdDeviation=".299"/></filter><filter id="o" width="1.461" height="1.329" x="-.231" y="-.164" style="color-interpolation-filters:sRGB"><feGaussianBlur stdDeviation=".312"/></filter><filter id="p" width="1.238" height="1.197" x="-.119" y="-.099" color-interpolation-filters="sRGB"><feGaussianBlur stdDeviation=".467"/></filter><filter id="q" width="1.358" height="1.414" x="-.179" y="-.207" style="color-interpolation-filters:sRGB"><feGaussianBlur stdDeviation=".292"/></filter><filter id="r" width="1.641" height="1.823" x="-.321" y="-.411" color-interpolation-filters="sRGB"><feGaussianBlur stdDeviation="1.013"/></filter><filter id="s" width="1.479" height="1.139" x="-.239" y="-.07" color-interpolation-filters="sRGB"><feGaussianBlur stdDeviation=".279"/></filter><linearGradient id="b" x1="9.241" x2="40.761" y1="27.266" y2="27.266" gradientTransform="matrix(1.0155 0 0 1.0103 -.389 .482)" gradientUnits="userSpaceOnUse"><stop offset="0" stop-color="#635f5e"/><stop offset="1" stop-color="#131111" style="stop-color:#1f1f1f"/></linearGradient><linearGradient id="c" x1="9.005" x2="40.995" y1="26.762" y2="26.762" gradientTransform="rotate(180 25.324 27.276)" gradientUnits="userSpaceOnUse"><stop offset="0" stop-color="#635f5e" style="stop-color:#737373"/><stop offset="1" stop-color="#131111" style="stop-color:#303030"/></linearGradient><linearGradient id="h" x1="-36.133" x2="-9.938" y1="-313.97" y2="-313.97" gradientTransform="matrix(1 0 0 -1 48.683 -277.7)" gradientUnits="userSpaceOnUse"><stop offset="0" style="stop-color:#000"/><stop offset="1" style="stop-color:#000;stop-opacity:0"/></linearGradient><linearGradient xlink:href="#a" id="i" x1="-736.5" x2="-696.5" y1="-367.96" y2="-367.96" gradientTransform="matrix(.54363 0 0 .54151 412.305 222.453)" gradientUnits="userSpaceOnUse"/><linearGradient id="a" x1="9.241" x2="40.761" y1="27.266" y2="27.266" gradientTransform="matrix(1.0155 0 0 1.0103 -.389 .482)" gradientUnits="userSpaceOnUse"><stop offset="0" stop-color="#635f5e" style="stop-color:#737373"/><stop offset="1" stop-color="#131111" style="stop-color:#303030"/></linearGradient><linearGradient xlink:href="#a" id="k" x1="-116.32" x2="-77.199" y1="299.9" y2="299.9" gradientTransform="matrix(.60047 0 0 .58861 80.74 -162.59)" gradientUnits="userSpaceOnUse"/></defs><path fill="url(#b)" stroke="#000" stroke-linecap="round" d="M33.585 34.051h-15.88m21.039 4.433H12.548m26.196 7.81v-7.81l-5.158-4.433c-5.187-3.48-12.176-4.184-15.879 0l-5.158 4.432v7.811h5.593v-3.348h4.613v3.348h5.783v-3.348h4.613v3.348z" style="fill:url(#c)"/><path d="m12.466 16.525-.041-6.675 3.328-.095-1.997.711v5.356l4.704.667z" style="clip-rule:evenodd;opacity:.25;mix-blend-mode:normal;fill:#fff;fill-rule:evenodd;filter:url(#d);image-rendering:optimizeQuality;shape-rendering:geometricPrecision" transform="rotate(180 25.323 27.79)"/><path d="M17.596 22.031h7.58l-6.467 1v8.598l-1.161.922z" opacity=".9" style="clip-rule:evenodd;opacity:.25;mix-blend-mode:normal;fill:#fff;fill-rule:evenodd;filter:url(#e);image-rendering:optimizeQuality;shape-rendering:geometricPrecision" transform="rotate(180 25.323 27.79)"/><path d="m22.651 9.794-.017 2.433c.658-1.23 1.363-2.176 3.026-2.424z" style="clip-rule:evenodd;opacity:.15;mix-blend-mode:normal;fill:#fff;fill-rule:evenodd;filter:url(#f);image-rendering:optimizeQuality;shape-rendering:geometricPrecision" transform="rotate(180 25.323 27.79)"/><path d="m33.051 9.807-.017 2.433c.388-1.52 1.111-2.39 3.026-2.425z" style="clip-rule:evenodd;opacity:.1;mix-blend-mode:normal;fill:#fff;fill-rule:evenodd;filter:url(#g);image-rendering:optimizeQuality;shape-rendering:geometricPrecision" transform="rotate(180 25.323 27.79)"/><path d="M12.549 38.483h26.195l-5.16-4.432H17.708z" style="clip-rule:evenodd;opacity:.2;fill:url(#h);fill-rule:evenodd;image-rendering:optimizeQuality;shape-rendering:geometricPrecision"/><path fill="url(#linearGradient2766-9)" stroke="#000" stroke-dashoffset="1.852" stroke-linecap="round" d="M15.276 28.136c1.57 1.309 2.26-.381 2.815-1.66.76-2.148 3.875-.992 4.747-3.694 1.54 6.027-5.363 4.563-5.036 11.015h15.432c1.04-12.016-2.72-20.344-14.111-19.184-1.133-1.183-2.714-1.935-2.714-1.935-.614 1.134-.55 2.565.362 3.111.239.218-1.917 1.13-1.628 4.29 0 0-1.736 2.891-2.749 4.791-.737 1.485.584 3.406 2.466 3.582" style="clip-rule:evenodd;fill:url(#i);fill-rule:evenodd;stroke-width:.543654;shape-rendering:geometricPrecision"/><path d="m18.79 18.049-.028.003c-1.6.26-1.822 1.771-1.822 1.771a.3.3 0 0 0 .586.119s.094-1.1 1.333-1.301a.298.298 0 0 0-.068-.592z" color="#000" style="font-variant-ligatures:normal;font-variant-position:normal;font-variant-caps:normal;font-variant-numeric:normal;font-variant-alternates:normal;font-variant-east-asian:normal;font-feature-settings:normal;font-variation-settings:normal;text-indent:0;text-decoration-line:none;text-decoration-style:solid;text-decoration-color:#000;text-transform:none;text-orientation:mixed;white-space:normal;shape-padding:0;shape-margin:0;inline-size:0;clip-rule:evenodd;isolation:auto;mix-blend-mode:normal;fill-rule:evenodd;stroke-width:.543654;shape-rendering:geometricPrecision"/><path d="M18.704 19.269a.608.655 69.395 0 1-.512.743.608.655 69.395 0 1-.762-.449.608.655 69.395 0 1 .513-.743.608.655 69.395 0 1 .761.449z" style="clip-rule:evenodd;fill-rule:evenodd;stroke-width:.543654;paint-order:markers fill stroke;shape-rendering:geometricPrecision"/><path d="M14.202 24.91a.3.3 0 0 0-.208.088 1.689 1.689 0 0 0-.424.637c-.06.176-.05.335-.05.335.014.164.16.284.324.27.165-.015.388-.135.373-.3 0 0-.007 0 .022-.088.03-.087.1-.228.28-.407.116-.116.014-.33-.103-.447a.3.3 0 0 0-.214-.087z" color="#000" style="font-variant-ligatures:normal;font-variant-position:normal;font-variant-caps:normal;font-variant-numeric:normal;font-variant-alternates:normal;font-variant-east-asian:normal;font-feature-settings:normal;font-variation-settings:normal;text-indent:0;text-decoration-line:none;text-decoration-style:solid;text-decoration-color:#000;text-transform:none;text-orientation:mixed;white-space:normal;shape-padding:0;shape-margin:0;inline-size:0;clip-rule:evenodd;isolation:auto;mix-blend-mode:normal;fill-rule:evenodd;stroke-width:.543654;shape-rendering:geometricPrecision"/><path d="M-718.42-382.86c17.099.645 19.298 14.991 17.595 34.473h3.526c1.754-20.341-3.914-34.957-21.01-35.602z" filter="url(#filter1572-7-1)" opacity=".25" style="clip-rule:evenodd;opacity:.2;fill-rule:evenodd;filter:url(#j);shape-rendering:geometricPrecision" transform="matrix(.54363 0 0 .54151 412.305 222.453)"/><path fill="url(#linearGradient2768-3)" stroke="#000" stroke-linecap="round" d="M19.114 15.359s.355-2.252 2.12-2.636c0 0 1.131.59.905 3.245" style="clip-rule:evenodd;fill:url(#k);fill-rule:evenodd;stroke-width:.543654;paint-order:markers fill stroke;shape-rendering:geometricPrecision"/><path fill="none" stroke="#000" stroke-linecap="round" d="M16.261 26.985c-.166.286-.79.95-1.4 1.468" style="clip-rule:evenodd;fill-rule:evenodd;stroke-width:.543654;shape-rendering:geometricPrecision"/><path d="m3.587 15.048 4.195-7.324 1.172-1.892s-.797-4.415 2.719-7.38c0 0 .554-.615.003-1.107-.553-.492-1.936-2.129-.753-4.336-.077-.022.274 4.806 4.353 4.864-3.919 1.25-6.11 4.99-5.15 8.582-.736 1.173-1.458 2.08-2.375 3.208-.82 1.01-1.796 2.195-3.078 3.907-.34.453-.7.944-1.085 1.478z" style="clip-rule:evenodd;opacity:.3;mix-blend-mode:normal;fill:#fff;fill-rule:evenodd;filter:url(#l);image-rendering:optimizeQuality;shape-rendering:geometricPrecision" transform="translate(10.626 16.985) scale(.54365)"/><path d="M13.917 30.304c-.744-9.435 10.084-8.795 9.438-17.61 1.104 10.97-7.883 9.129-9.438 17.61z" style="clip-rule:evenodd;opacity:.2;fill:#fff;fill-rule:evenodd;filter:url(#m);image-rendering:optimizeQuality;shape-rendering:geometricPrecision" transform="translate(10.626 16.985) scale(.54365)"/><path d="M-733.97-364.25c-.015.573 1.587-1.887 3.06-.439-.597-1.43-2.217-1.902-3.06.439z" filter="url(#filter3022-9)" style="clip-rule:evenodd;opacity:.2;fill:#fff;fill-rule:evenodd;filter:url(#n);image-rendering:optimizeQuality;shape-rendering:geometricPrecision" transform="matrix(.54363 0 0 .54151 412.305 222.453)"/><path d="M16.187-2.794s.58-3.7 3.249-4.46c-1.554 1.972-1.745 5.154-3.249 4.46z" style="clip-rule:evenodd;opacity:.2;fill:#fff;fill-rule:evenodd;filter:url(#o);image-rendering:optimizeQuality;shape-rendering:geometricPrecision" transform="translate(10.626 16.985) scale(.54365)"/><path d="M-716.03-369.64c.405-1.184.326-3.052-.03-3.612-2.96 8.671-8.246 5.492-9.102 11.347 1.64-3.708 7.813-2.42 9.132-7.735z" filter="url(#filter1433-2-4-3)" opacity=".25" style="clip-rule:evenodd;opacity:.2;fill-rule:evenodd;filter:url(#p);image-rendering:optimizeQuality;shape-rendering:geometricPrecision" transform="matrix(.54363 0 0 .54151 412.305 222.453)"/><path d="M-723.87-377.47c-3.217.615-3.405 3.277-3.405 3.277s-.499.21-.49-.328c-.231-.688 1.215-3.475 3.895-2.949z" filter="url(#filter1676-3-7)" opacity=".2" style="clip-rule:evenodd;opacity:.2;fill:#fff;fill-rule:evenodd;filter:url(#q);image-rendering:optimizeQuality;shape-rendering:geometricPrecision" transform="matrix(.54363 0 0 .54151 412.305 222.453)"/><path fill="#fff" d="M-723.63-356.13c-6.532-.827-7.581 5.84-7.581 5.84 1.11-2.066 4.294-4.784 7.581-5.84z" filter="url(#filter1866-4-7)" style="clip-rule:evenodd;opacity:.1;fill-rule:evenodd;filter:url(#r);image-rendering:optimizeQuality;shape-rendering:geometricPrecision" transform="matrix(.41593 0 0 .5009 322.602 198.842)"/><path fill="none" stroke="#000" stroke-linecap="round" stroke-linejoin="round" d="M22.838 22.782s.217-.494.405-1.895" style="stroke-width:.543654"/><path d="M22.147 16.797c.364-.026 5.37-6.215 1.061-9.621l-.51 4.557c.107 1.682.437 3.359-.55 5.064z" filter="url(#filter1605-5)" opacity=".15" style="clip-rule:evenodd;opacity:.2;fill-rule:evenodd;filter:url(#s);image-rendering:optimizeQuality;shape-rendering:geometricPrecision" transform="translate(10.626 16.985) scale(.54365)"/></svg>