<svg xmlns="http://www.w3.org/2000/svg" xmlns:xlink="http://www.w3.org/1999/xlink" width="50mm" height="50mm" fill-rule="evenodd" clip-rule="evenodd" image-rendering="optimizeQuality" shape-rendering="geometricPrecision" text-rendering="geometricPrecision" viewBox="0 0 50 50"><defs><filter id="c" width="1.162" height="1.068" x="-.081" y="-.034" color-interpolation-filters="sRGB"><feGaussianBlur stdDeviation=".407"/></filter><filter id="i" width="1" height="1" x="0" y="0" color-interpolation-filters="sRGB"><feGaussianBlur/></filter><filter id="d" width="1.477" height="1.316" x="-.239" y="-.158" color-interpolation-filters="sRGB"><feGaussianBlur stdDeviation=".407"/></filter><filter id="k" width="1.128" height="1.077" x="-.064" y="-.038" color-interpolation-filters="sRGB"><feGaussianBlur stdDeviation=".57"/></filter><filter id="m" width="1.469" height="1.834" x="-.234" y="-.417" color-interpolation-filters="sRGB"><feGaussianBlur stdDeviation=".299"/></filter><filter id="n" width="1.238" height="1.197" x="-.119" y="-.099" color-interpolation-filters="sRGB"><feGaussianBlur stdDeviation=".467"/></filter><filter id="o" width="1.089" height="1.104" x="-.045" y="-.052" color-interpolation-filters="sRGB"><feGaussianBlur stdDeviation=".073"/></filter><filter id="p" width="1.641" height="1.823" x="-.321" y="-.411" color-interpolation-filters="sRGB"><feGaussianBlur stdDeviation="1.013"/></filter><filter id="q" width="1.479" height="1.139" x="-.239" y="-.07" color-interpolation-filters="sRGB"><feGaussianBlur stdDeviation=".279"/></filter><linearGradient id="a" x1="9.241" x2="40.761" y1="27.266" y2="27.266" gradientTransform="matrix(.98495 0 0 .98605 .376 .641)" gradientUnits="userSpaceOnUse"><stop offset="0" stop-color="#ece9df"/><stop offset="1" stop-color="#f4e0c8"/></linearGradient><linearGradient xlink:href="#a" id="b" x1="17.945" x2="16.942" y1="26.964" y2="25.611" gradientTransform="matrix(1.0739 0 0 1.0269 -2.26 -.38)" gradientUnits="userSpaceOnUse"/><linearGradient xlink:href="#a" id="e" x1="5.612" x2="25.919" y1="42.295" y2="42.295" gradientTransform="matrix(1.0856 0 0 .94062 -2.555 2.413)" gradientUnits="userSpaceOnUse"/><linearGradient xlink:href="#a" id="g" x1="24.848" x2="45.155" y1="42.295" y2="42.295" gradientTransform="matrix(1.0856 0 0 .94062 -2.555 2.413)" gradientUnits="userSpaceOnUse"/><linearGradient xlink:href="#a" id="f" x1="5.612" x2="25.919" y1="42.295" y2="42.295" gradientTransform="matrix(1.0856 0 0 .94062 -2.716 2.942)" gradientUnits="userSpaceOnUse"/><linearGradient xlink:href="#a" id="h" x1="24.848" x2="45.155" y1="42.295" y2="42.295" gradientTransform="matrix(1.0856 0 0 .94062 -2.716 2.942)" gradientUnits="userSpaceOnUse"/><linearGradient xlink:href="#a" id="j" x1="-736.5" x2="-696.5" y1="-367.96" y2="-367.96" gradientTransform="matrix(.60196 0 0 .59962 455.13 242.558)" gradientUnits="userSpaceOnUse"/><linearGradient xlink:href="#a" id="l" x1="-116.32" x2="-77.199" y1="299.9" y2="299.9" gradientTransform="matrix(.6649 0 0 .65177 87.988 -183.802)" gradientUnits="userSpaceOnUse"/></defs><path fill="url(#b)" d="m31.016 32.267-2.592-1.654c-7.04.023-6.316.36-8.927 1.226l-.821.417-1.543 4.867c-.03.386 3.095 2.034 7.713 2.034s7.745-1.648 7.714-2.034z" style="clip-rule:evenodd;fill:url(#b);fill-rule:evenodd;stroke:#000;stroke-linecap:round;shape-rendering:geometricPrecision"/><path d="m-543.046-398.558-3.474-.176 1.09 4.423 3 .863-1.354-4.67.638 1.316c-5.59-5.639-1.078-.948.1-1.756z" filter="url(#c)" opacity=".25" style="clip-rule:evenodd;opacity:.15;mix-blend-mode:normal;fill-rule:evenodd;filter:url(#d);shape-rendering:geometricPrecision" transform="matrix(1.0334 0 0 1.0218 592.95 439.08)"/><path d="M26.073 35.618c-3.087.012-6.397.504-8.369 1.768 2.182 1.501 5.798 1.826 8.885 1.77-7.14-1.445 2.03-2.966 4.844-3.001-1.522-.368-3.71-.544-5.36-.537z" opacity=".2" style="clip-rule:evenodd;fill-rule:evenodd;opacity:.15;shape-rendering:geometricPrecision"/><path fill="none" stroke="#000" d="M17.134 37.123s1.925-1.566 7.714-1.566 7.713 1.566 7.713 1.566m-14.065-3.657s1.945-.812 6.257-.812c4.312 0 6.398.796 6.398.796" style="clip-rule:evenodd;fill-rule:evenodd;shape-rendering:geometricPrecision"/><path d="M25 39.156c-5.617 0-7.296-1.77-7.296-1.77s1.679-1.77 7.296-1.77 7.296 1.77 7.296 1.77-1.679 1.77-7.296 1.77z" opacity=".2" style="clip-rule:evenodd;fill-rule:evenodd;opacity:.15;shape-rendering:geometricPrecision"/><path fill="url(#e)" stroke-linecap="round" d="M22.488 39.156c-5.193 6.258-11.79-2.915-18.533 3.487l1.968 3.653c4.398-5.672 18.915 5.213 18.915-7.14z" style="clip-rule:evenodd;fill-rule:evenodd;fill:url(#f);shape-rendering:geometricPrecision;stroke-linejoin:round;stroke:#000"/><path fill="url(#g)" stroke-linecap="round" d="M27.188 39.156c5.193 6.258 11.79-2.915 18.532 3.487l-1.968 3.653c-4.398-5.672-18.915 5.213-18.915-7.14z" style="clip-rule:evenodd;fill-rule:evenodd;fill:url(#h);shape-rendering:geometricPrecision;stroke-linejoin:round;stroke:#000"/><path d="m4.672 42.735 1.404 2.59-.346-2.333c3.12-2.388 5.957-1.62 8.04-1.599 0 0-5.851-1.955-9.098 1.342zm40.408.034-.49.889c-1.905-2.325-3.739-2.756-5.319-2.76 0 0 3.018-.718 5.809 1.871z" style="clip-rule:evenodd;fill-rule:evenodd;fill:#fff;image-rendering:optimizeQuality;shape-rendering:geometricPrecision"/><path d="M23.952 15.274c-.25.041-2.603-1.49.418-2.449-.09-.006-1.757 1.32-.418 2.45z" style="clip-rule:evenodd;fill:#fff;fill-rule:evenodd;stroke-width:.784974;image-rendering:optimizeQuality;shape-rendering:geometricPrecision"/><path fill="#fff" d="m603.76-67.566.915-3.168s.304-.32 1.389-.498c0 0-.545 2.147.708 2.966-2.154.336-2.536.554-3.012.7z" filter="url(#i)" opacity=".7" transform="matrix(1.0007 0 0 .98931 -586.04 102.79)"/><path fill="url(#j)" stroke="#000" stroke-dashoffset="1.852" stroke-linecap="round" d="M15.498 27.39c1.738 1.45 2.503-.422 3.117-1.838.842-2.379 4.291-1.099 5.257-4.09 1.704 6.673-5.938 5.053-5.576 12.197h17.088c1.151-13.306-3.011-22.527-15.626-21.243-1.254-1.31-3.005-2.142-3.005-2.142-.68 1.255-.61 2.84.401 3.444.264.242-2.123 1.252-1.803 4.751 0 0-1.922 3.201-3.043 5.305-.817 1.644.646 3.77 2.73 3.966" style="clip-rule:evenodd;fill:url(#j);fill-rule:evenodd;stroke-width:.60199;shape-rendering:geometricPrecision"/><path d="M19.39 16.22a.286.286 0 0 0-.031.004c-1.772.288-2.018 1.961-2.018 1.961a.331.331 0 0 0 .65.132s.103-1.218 1.475-1.441a.33.33 0 0 0-.075-.655z" color="#000" style="font-variant-ligatures:normal;font-variant-position:normal;font-variant-caps:normal;font-variant-numeric:normal;font-variant-alternates:normal;font-variant-east-asian:normal;font-feature-settings:normal;font-variation-settings:normal;text-indent:0;text-decoration-line:none;text-decoration-style:solid;text-decoration-color:#000;text-transform:none;text-orientation:mixed;white-space:normal;shape-padding:0;shape-margin:0;inline-size:0;clip-rule:evenodd;isolation:auto;mix-blend-mode:normal;fill-rule:evenodd;stroke-width:.60199;shape-rendering:geometricPrecision"/><path d="M19.295 17.571a.673.725 69.395 0 1-.568.823.673.725 69.395 0 1-.843-.497.673.725 69.395 0 1 .568-.822.673.725 69.395 0 1 .843.496z" style="clip-rule:evenodd;fill-rule:evenodd;stroke-width:.60199;paint-order:markers fill stroke;shape-rendering:geometricPrecision"/><path d="M14.31 23.819a.332.332 0 0 0-.231.096c-.264.263-.403.511-.47.706-.066.194-.056.37-.056.37a.331.331 0 0 0 .36.3c.182-.017.43-.15.413-.332 0 0-.008 0 .025-.098.033-.096.11-.253.308-.45.13-.13.017-.367-.113-.496a.332.332 0 0 0-.236-.096z" color="#000" style="font-variant-ligatures:normal;font-variant-position:normal;font-variant-caps:normal;font-variant-numeric:normal;font-variant-alternates:normal;font-variant-east-asian:normal;font-feature-settings:normal;font-variation-settings:normal;text-indent:0;text-decoration-line:none;text-decoration-style:solid;text-decoration-color:#000;text-transform:none;text-orientation:mixed;white-space:normal;shape-padding:0;shape-margin:0;inline-size:0;clip-rule:evenodd;isolation:auto;mix-blend-mode:normal;fill-rule:evenodd;stroke-width:.60199;shape-rendering:geometricPrecision"/><path d="M-718.42-382.86c17.099.645 19.298 14.991 17.595 34.473h3.526c1.754-20.341-3.914-34.957-21.01-35.602z" filter="url(#filter1572-7-1)" opacity=".25" style="clip-rule:evenodd;opacity:.15;fill-rule:evenodd;filter:url(#k);shape-rendering:geometricPrecision" transform="matrix(.60196 0 0 .59962 455.13 242.558)"/><path fill="url(#l)" stroke="#000" stroke-linecap="round" d="M19.749 13.242s.392-2.494 2.348-2.919c0 0 1.251.653 1.001 3.594" style="clip-rule:evenodd;fill:url(#l);fill-rule:evenodd;stroke-width:.60199;paint-order:markers fill stroke;shape-rendering:geometricPrecision"/><path fill="none" stroke="#000" stroke-linecap="round" d="M16.59 26.115c-.185.317-.875 1.052-1.55 1.626" style="clip-rule:evenodd;fill-rule:evenodd;stroke-width:.60199;shape-rendering:geometricPrecision"/><path d="m12.509 24.102 2.525-4.41.705-1.138s-.48-2.658 1.637-4.443c0 0 .334-.37.002-.666-.333-.296-1.166-1.282-.453-2.61-.047-.014.165 2.893 2.62 2.928-2.359.752-3.678 3.003-3.1 5.166-.443.706-.878 1.252-1.43 1.931-.493.608-1.081 1.322-1.852 2.352-.205.273-.422.568-.654.89z" style="clip-rule:evenodd;opacity:.8;mix-blend-mode:normal;fill:#fff;fill-rule:evenodd;stroke-width:.60199;image-rendering:optimizeQuality;shape-rendering:geometricPrecision"/><path d="M18.727 33.286c-.448-5.68 6.07-5.295 5.682-10.601.664 6.604-4.746 5.495-5.682 10.6z" style="clip-rule:evenodd;opacity:.7;fill:#fff;fill-rule:evenodd;stroke-width:.60199;image-rendering:optimizeQuality;shape-rendering:geometricPrecision"/><path d="M-733.97-364.25c-.015.573 1.587-1.887 3.06-.439-.597-1.43-2.217-1.902-3.06.439z" filter="url(#filter3022-9)" style="clip-rule:evenodd;fill:#fff;fill-rule:evenodd;filter:url(#m);image-rendering:optimizeQuality;shape-rendering:geometricPrecision" transform="matrix(.60196 0 0 .59962 455.13 242.558)"/><path d="M20.094 13.361s.349-2.227 1.955-2.684c-.935 1.186-1.05 3.102-1.955 2.684z" style="clip-rule:evenodd;opacity:.8;fill:#fff;fill-rule:evenodd;stroke-width:.60199;image-rendering:optimizeQuality;shape-rendering:geometricPrecision"/><path d="M-716.03-369.64c.405-1.184.326-3.052-.03-3.612-2.96 8.671-8.246 5.492-9.102 11.347 1.64-3.708 7.813-2.42 9.132-7.735z" filter="url(#filter1433-2-4-3)" opacity=".25" style="clip-rule:evenodd;opacity:.15;fill-rule:evenodd;filter:url(#n);image-rendering:optimizeQuality;shape-rendering:geometricPrecision" transform="matrix(.60196 0 0 .59962 455.13 242.558)"/><path d="M-723.87-377.47c-3.217.615-3.405 3.277-3.405 3.277s-.499.21-.49-.328c-.231-.688 1.215-3.475 3.895-2.949z" filter="url(#filter1676-3-7)" opacity=".2" style="clip-rule:evenodd;opacity:.8;fill:#fff;fill-rule:evenodd;filter:url(#o);image-rendering:optimizeQuality;shape-rendering:geometricPrecision" transform="matrix(.60196 0 0 .59962 455.13 242.558)"/><path fill="#fff" d="M-723.63-356.13c-6.532-.827-7.581 5.84-7.581 5.84 1.11-2.066 4.294-4.784 7.581-5.84z" filter="url(#filter1866-4-7)" style="clip-rule:evenodd;fill-rule:evenodd;filter:url(#p);image-rendering:optimizeQuality;shape-rendering:geometricPrecision" transform="matrix(.46056 0 0 .55466 355.801 216.413)"/><path fill="none" stroke="#000" stroke-linecap="round" stroke-linejoin="round" d="M23.872 21.462s.24-.547.448-2.1" style="stroke-width:.60199"/><path d="M28.018 18.83c.364-.026 5.37-6.215 1.06-9.62l-.51 4.556c.108 1.682.438 3.36-.55 5.064z" filter="url(#filter1605-5)" opacity=".15" style="clip-rule:evenodd;opacity:.15;fill-rule:evenodd;filter:url(#q);image-rendering:optimizeQuality;shape-rendering:geometricPrecision" transform="translate(6.815 13.819) scale(.60199)"/></svg>