<svg xmlns="http://www.w3.org/2000/svg" xmlns:xlink="http://www.w3.org/1999/xlink" width="50mm" height="50mm" fill-rule="evenodd" clip-rule="evenodd" image-rendering="optimizeQuality" shape-rendering="geometricPrecision" text-rendering="geometricPrecision" viewBox="0 0 50 50"><defs><linearGradient id="b" x1="9.241" x2="40.761" y1="27.266" y2="27.266" gradientTransform="matrix(1.0155 0 0 1.0103 -.389 .482)" gradientUnits="userSpaceOnUse"><stop offset="0" stop-color="#ece9df"/><stop offset="1" stop-color="#f4e0c8"/></linearGradient><linearGradient id="c" x1="9.005" x2="40.995" y1="26.762" y2="26.762" gradientTransform="rotate(180 25.324 27.276)" gradientUnits="userSpaceOnUse"><stop offset="0" stop-color="#ece9df"/><stop offset="1" stop-color="#f4e0c8"/></linearGradient><linearGradient id="d" x1="-36.133" x2="-9.938" y1="-313.97" y2="-313.97" gradientTransform="matrix(1 0 0 -1 48.683 -277.7)" gradientUnits="userSpaceOnUse"><stop offset="0" style="stop-color:#000"/><stop offset="1" style="stop-color:#000;stop-opacity:0"/></linearGradient><linearGradient xlink:href="#a" id="e" x1="-736.5" x2="-696.5" y1="-367.96" y2="-367.96" gradientTransform="matrix(.56357 0 0 .56138 426.72 229.191)" gradientUnits="userSpaceOnUse"/><linearGradient id="a" x1="9.241" x2="40.761" y1="27.266" y2="27.266" gradientTransform="matrix(.98495 0 0 .98605 .376 .641)" gradientUnits="userSpaceOnUse"><stop offset="0" stop-color="#ece9df"/><stop offset="1" stop-color="#f4e0c8"/></linearGradient><linearGradient xlink:href="#a" id="g" x1="-116.32" x2="-77.199" y1="299.9" y2="299.9" gradientTransform="matrix(.6225 0 0 .6102 82.993 -169.977)" gradientUnits="userSpaceOnUse"/><filter id="f" width="1.128" height="1.077" x="-.064" y="-.038" color-interpolation-filters="sRGB"><feGaussianBlur stdDeviation=".57"/></filter><filter id="h" width="1.469" height="1.834" x="-.234" y="-.417" color-interpolation-filters="sRGB"><feGaussianBlur stdDeviation=".299"/></filter><filter id="i" width="1.238" height="1.197" x="-.119" y="-.099" color-interpolation-filters="sRGB"><feGaussianBlur stdDeviation=".467"/></filter><filter id="j" width="1.089" height="1.104" x="-.045" y="-.052" color-interpolation-filters="sRGB"><feGaussianBlur stdDeviation=".073"/></filter><filter id="k" width="1.641" height="1.823" x="-.321" y="-.411" color-interpolation-filters="sRGB"><feGaussianBlur stdDeviation="1.013"/></filter><filter id="l" width="1.479" height="1.139" x="-.239" y="-.07" color-interpolation-filters="sRGB"><feGaussianBlur stdDeviation=".279"/></filter></defs><path fill="url(#b)" stroke="#000" stroke-linecap="round" d="M33.585 34.051h-15.88m21.039 4.433H12.548m26.196 7.81v-7.81l-5.158-4.433c-2.956-8.087-11.922-6.734-15.879 0l-5.158 4.432v7.811h5.593v-3.348h4.613v3.348h5.783v-3.348h4.613v3.348z" style="fill:url(#c)"/><path d="m38.18 39.055.042 6.675-3.328.095 1.997-.71v-5.357l-4.705-.666z" style="clip-rule:evenodd;opacity:.8;mix-blend-mode:normal;fill:#fff;fill-rule:evenodd;image-rendering:optimizeQuality;shape-rendering:geometricPrecision"/><path d="M32.593 33.398h-7.44l3.256-1.204 1.003-1.538 1.163.217z" opacity=".9" style="clip-rule:evenodd;opacity:.8;mix-blend-mode:normal;fill:#fff;fill-rule:evenodd;stroke-width:.981368;image-rendering:optimizeQuality;shape-rendering:geometricPrecision"/><path d="m27.996 45.786.017-2.433c-.658 1.23-1.363 2.177-3.026 2.424z" style="clip-rule:evenodd;opacity:.8;mix-blend-mode:normal;fill:#fff;fill-rule:evenodd;image-rendering:optimizeQuality;shape-rendering:geometricPrecision"/><path d="m17.596 45.773.017-2.433c-.388 1.52-1.111 2.39-3.026 2.425z" style="clip-rule:evenodd;opacity:.7;mix-blend-mode:normal;fill:#fff;fill-rule:evenodd;image-rendering:optimizeQuality;shape-rendering:geometricPrecision"/><path d="M12.549 38.483h26.195l-5.16-4.432H17.708z" style="clip-rule:evenodd;opacity:.15;fill:url(#d);fill-rule:evenodd;image-rendering:optimizeQuality;shape-rendering:geometricPrecision"/><path fill="url(#e)" stroke="#000" stroke-dashoffset="1.852" stroke-linecap="round" d="M15.126 27.746c1.627 1.357 2.343-.395 2.918-1.72.788-2.228 4.018-1.03 4.922-3.83 1.596 6.247-5.56 4.73-5.22 11.419h15.997c1.078-12.458-2.819-21.09-14.629-19.889C17.94 12.5 16.3 11.721 16.3 11.721c-.636 1.175-.57 2.658.376 3.225.248.226-1.988 1.171-1.688 4.448 0 0-1.8 2.997-2.849 4.966-.764 1.54.605 3.53 2.556 3.714" style="clip-rule:evenodd;fill:url(#e);fill-rule:evenodd;stroke-width:.563598;shape-rendering:geometricPrecision"/><path d="m18.77 17.288-.03.004c-1.658.27-1.889 1.836-1.889 1.836a.31.31 0 0 0 .608.123s.097-1.14 1.382-1.35a.31.31 0 0 0-.07-.613z" color="#000" style="font-variant-ligatures:normal;font-variant-position:normal;font-variant-caps:normal;font-variant-numeric:normal;font-variant-alternates:normal;font-variant-east-asian:normal;font-feature-settings:normal;font-variation-settings:normal;text-indent:0;text-decoration-line:none;text-decoration-style:solid;text-decoration-color:#000;text-transform:none;text-orientation:mixed;white-space:normal;shape-padding:0;shape-margin:0;inline-size:0;clip-rule:evenodd;isolation:auto;mix-blend-mode:normal;fill-rule:evenodd;stroke-width:.563598;shape-rendering:geometricPrecision"/><path d="M18.68 18.553a.63.679 69.395 0 1-.531.77.63.679 69.395 0 1-.79-.465.63.679 69.395 0 1 .532-.77.63.679 69.395 0 1 .79.465z" style="clip-rule:evenodd;fill-rule:evenodd;stroke-width:.563598;paint-order:markers fill stroke;shape-rendering:geometricPrecision"/><path d="M14.013 24.402a.31.31 0 0 0-.216.09 1.751 1.751 0 0 0-.439.661c-.062.182-.053.347-.053.347a.31.31 0 0 0 .337.28c.17-.016.402-.14.387-.31 0 0-.008 0 .023-.092.03-.09.103-.237.289-.422.121-.12.015-.343-.106-.464a.31.31 0 0 0-.222-.09z" color="#000" style="font-variant-ligatures:normal;font-variant-position:normal;font-variant-caps:normal;font-variant-numeric:normal;font-variant-alternates:normal;font-variant-east-asian:normal;font-feature-settings:normal;font-variation-settings:normal;text-indent:0;text-decoration-line:none;text-decoration-style:solid;text-decoration-color:#000;text-transform:none;text-orientation:mixed;white-space:normal;shape-padding:0;shape-margin:0;inline-size:0;clip-rule:evenodd;isolation:auto;mix-blend-mode:normal;fill-rule:evenodd;stroke-width:.563598;shape-rendering:geometricPrecision"/><path d="M-718.42-382.86c17.099.645 19.298 14.991 17.595 34.473h3.526c1.754-20.341-3.914-34.957-21.01-35.602z" filter="url(#filter1572-7-1)" opacity=".25" style="clip-rule:evenodd;opacity:.15;fill-rule:evenodd;filter:url(#f);shape-rendering:geometricPrecision" transform="matrix(.56357 0 0 .56138 426.72 229.191)"/><path fill="url(#g)" stroke="#000" stroke-linecap="round" d="M19.106 14.5s.367-2.335 2.198-2.733c0 0 1.171.612.937 3.365" style="clip-rule:evenodd;fill:url(#g);fill-rule:evenodd;stroke-width:.563598;paint-order:markers fill stroke;shape-rendering:geometricPrecision"/><path fill="none" stroke="#000" stroke-linecap="round" d="M16.148 26.552c-.173.297-.818.985-1.452 1.523" style="clip-rule:evenodd;fill-rule:evenodd;stroke-width:.563598;shape-rendering:geometricPrecision"/><path d="m12.327 24.667 2.364-4.128.66-1.066s-.448-2.488 1.533-4.16c0 0 .313-.346.002-.623-.311-.278-1.091-1.2-.424-2.444-.044-.012.154 2.709 2.453 2.741-2.209.704-3.444 2.812-2.903 4.837-.414.661-.821 1.172-1.338 1.808-.462.569-1.012 1.238-1.735 2.202a58.91 58.91 0 0 0-.611.833z" style="clip-rule:evenodd;opacity:.8;mix-blend-mode:normal;fill:#fff;fill-rule:evenodd;stroke-width:.563598;image-rendering:optimizeQuality;shape-rendering:geometricPrecision"/><path d="M18.15 33.265c-.42-5.317 5.682-4.956 5.319-9.925.621 6.184-4.444 5.145-5.32 9.925z" style="clip-rule:evenodd;opacity:.7;fill:#fff;fill-rule:evenodd;stroke-width:.563598;image-rendering:optimizeQuality;shape-rendering:geometricPrecision"/><path d="M-733.97-364.25c-.015.573 1.587-1.887 3.06-.439-.597-1.43-2.217-1.902-3.06.439z" filter="url(#filter3022-9)" style="clip-rule:evenodd;fill:#fff;fill-rule:evenodd;filter:url(#h);image-rendering:optimizeQuality;shape-rendering:geometricPrecision" transform="matrix(.56357 0 0 .56138 426.72 229.191)"/><path d="M19.429 14.611s.326-2.085 1.83-2.513c-.875 1.111-.983 2.905-1.83 2.513z" style="clip-rule:evenodd;opacity:.8;fill:#fff;fill-rule:evenodd;stroke-width:.563598;image-rendering:optimizeQuality;shape-rendering:geometricPrecision"/><path d="M-716.03-369.64c.405-1.184.326-3.052-.03-3.612-2.96 8.671-8.246 5.492-9.102 11.347 1.64-3.708 7.813-2.42 9.132-7.735z" filter="url(#filter1433-2-4-3)" opacity=".25" style="clip-rule:evenodd;opacity:.15;fill-rule:evenodd;filter:url(#i);image-rendering:optimizeQuality;shape-rendering:geometricPrecision" transform="matrix(.56357 0 0 .56138 426.72 229.191)"/><path d="M-723.87-377.47c-3.217.615-3.405 3.277-3.405 3.277s-.499.21-.49-.328c-.231-.688 1.215-3.475 3.895-2.949z" filter="url(#filter1676-3-7)" opacity=".2" style="clip-rule:evenodd;opacity:.8;fill:#fff;fill-rule:evenodd;filter:url(#j);image-rendering:optimizeQuality;shape-rendering:geometricPrecision" transform="matrix(.56357 0 0 .56138 426.72 229.191)"/><path fill="#fff" d="M-723.63-356.13c-6.532-.827-7.581 5.84-7.581 5.84 1.11-2.066 4.294-4.784 7.581-5.84z" filter="url(#filter1866-4-7)" style="clip-rule:evenodd;fill-rule:evenodd;filter:url(#k);image-rendering:optimizeQuality;shape-rendering:geometricPrecision" transform="matrix(.4312 0 0 .51928 333.726 204.714)"/><path fill="none" stroke="#000" stroke-linecap="round" stroke-linejoin="round" d="M22.966 22.196s.225-.513.42-1.966" style="stroke-width:.563598"/><path d="M23.61 22.997c.365-.026 5.37-6.215 1.061-9.62l-.51 4.556c.108 1.682.437 3.36-.55 5.064z" filter="url(#filter1605-5)" opacity=".15" style="clip-rule:evenodd;opacity:.15;fill-rule:evenodd;filter:url(#l);image-rendering:optimizeQuality;shape-rendering:geometricPrecision" transform="translate(9.48 12.692) scale(.5636)"/></svg>