<svg xmlns="http://www.w3.org/2000/svg" xmlns:xlink="http://www.w3.org/1999/xlink" width="177.17" height="177.17" fill-rule="evenodd" clip-rule="evenodd" image-rendering="optimizeQuality" shape-rendering="geometricPrecision" viewBox="0 0 50 50"><defs><linearGradient id="a"><stop offset="0" style="stop-color:#ece9df;stop-opacity:1"/><stop offset="1" style="stop-color:#f4e0c8;stop-opacity:.98823529"/></linearGradient><linearGradient xlink:href="#a" id="b" x1="5.101" x2="42.926" y1="21.808" y2="21.641" gradientUnits="userSpaceOnUse"/><filter id="d" width="1.816" height="1.086" x="-.408" y="-.043" color-interpolation-filters="sRGB"><feGaussianBlur stdDeviation=".57"/></filter><filter id="c" width="1.238" height="1.197" x="-.119" y="-.099" color-interpolation-filters="sRGB"><feGaussianBlur stdDeviation=".467"/></filter></defs><g stroke="#000" style="opacity:1;fill:none;fill-opacity:1;fill-rule:evenodd;stroke-width:1.5;stroke-linecap:round;stroke-linejoin:round;stroke-miterlimit:4;stroke-dasharray:none;stroke-opacity:1"><path stroke-width="1.7528550000000003" d="M17.825 4.803h3.506"/><path d="M19.2 9.9V2.2" style="stroke-width:1.10469114;stroke-dasharray:none" transform="translate(-2.742 -.806) scale(1.16857)"/><path d="M39.5 40.1v-5.478c-6.243-2.46-4.46-20.018-8.92-24.117 1.06-1.094 4.46-2.46 1.785-3.28-5.352-1.64-3.568 0-7.136 1.64-3.567 0-10.703-3.28-12.487 6.559-1.783 3.28-5.351 3.28-7.135 6.559-1.127 2.066 1.784 6.558 7.135 1.64.384 0 .758 0 1.123-.002 4.73-.016 7.924-.234 9.58-3.278 1.784 3.28 4.568 4.36 4.568 20.757H39.5v-1z" style="fill:url(#b);fill-opacity:1;stroke-width:1.01697;stroke-dasharray:none" transform="translate(-2.742 -.806) scale(1.16857)"/><path stroke-width="1.7528550000000003" d="M21.915 6.089h3.506"/><path d="M22.7 11V3.3" style="stroke-width:1.08073343;stroke-dasharray:none" transform="translate(-2.742 -.806) scale(1.16857)"/><path fill="#000" stroke-width="1.7528550000000003" d="M16.392 16.225c-.022.147-1.04.194-1.012-.585.077-2.026 1.171-.444 1.012.585zm17.209 9.262a2.022 2.921 0 1 1-4.044 0 2.022 2.921 0 1 1 4.044 0zm2.57 9.348c0 3.895-4.043 3.895-4.043 0s4.043-3.894 4.043 0zm4.44 7.012a2.022 2.921 0 1 1-4.042 0 2.022 2.921 0 1 1 4.043 0z"/></g><path d="M9.73 20.018a.503.503 0 0 0-.38 0c-.522.213-.862.48-1.068.713a1.665 1.665 0 0 0-.296.486.502.502 0 0 0 .329.627c.265.084.689.043.772-.222 0 0-.012-.005.091-.121.103-.117.302-.29.696-.451.256-.105.237-.503.131-.76a.503.503 0 0 0-.275-.272Z" color="#000" style="font-variant-ligatures:normal;font-variant-position:normal;font-variant-caps:normal;font-variant-numeric:normal;font-variant-alternates:normal;font-variant-east-asian:normal;font-feature-settings:normal;font-variation-settings:normal;text-indent:0;text-decoration-line:none;text-decoration-style:solid;text-decoration-color:#000;text-transform:none;text-orientation:mixed;white-space:normal;shape-padding:0;shape-margin:0;inline-size:0;clip-rule:evenodd;isolation:auto;mix-blend-mode:normal;fill-rule:evenodd;stroke-width:.912772;shape-rendering:geometricPrecision" transform="translate(-2.742 -.806) scale(1.16857)"/><path d="M-716.03-369.64c.405-1.184.326-3.052-.03-3.612-2.96 8.671-8.246 5.492-9.102 11.347 1.64-3.708 7.813-2.42 9.132-7.735z" filter="url(#filter1433-2-4-3)" opacity=".25" style="clip-rule:evenodd;opacity:.15;fill-rule:evenodd;filter:url(#c);image-rendering:optimizeQuality;shape-rendering:geometricPrecision" transform="matrix(.97952 .47488 -.42042 1.09782 569.456 769.975)"/><path d="m16.366 9.765-.729.561-.678.773-.635 1.058-.473 1.157-.38 1.333-.216 1.004-.519.821-.512.625-.538.525-.523.462-.39.248-.249.165.696.267 2.478-2.88.133-.68.294-1.604.02-.324.498-1.108.971-1.071.893-.947.242-.257-.322-.11z" style="opacity:.84271217;fill:#fff;fill-opacity:1;stroke:#fff;stroke-width:.0905641;stroke-linejoin:round;stroke-dasharray:none;stroke-opacity:1;paint-order:markers stroke fill" transform="translate(-2.742 -.806) scale(1.16857)"/><path d="m23.957 20.13 1.495 2.36.386.654.5.98.414 1.01.315.92.364 1.372.319 1.498.228 1.468.14 1.085.12 1.207.213 2.988.058 1.538.044 3.347 1.32-.013-.16-3.56-.58-5.218-.982-4.366-.724-1.911-1.456-3.156-1.448-2.348-.52.047-.095.009.018.03z" style="opacity:.842712;fill:#fff;fill-opacity:1;stroke:#fff;stroke-width:.0905641;stroke-linejoin:round;stroke-dasharray:none;stroke-opacity:1;paint-order:markers stroke fill" transform="translate(-2.742 -.806) scale(1.16857)"/><path d="m12.4 23.248 1.578-2.045.772.705-.923 1.413z" style="opacity:1;fill:#000;fill-opacity:1;stroke:none;stroke-width:.194846;stroke-linejoin:round;stroke-dasharray:none;stroke-opacity:1;paint-order:markers stroke fill" transform="translate(-2.742 -.806) scale(1.16857)"/><path d="M-700.203-378.72c-.533 12.294-.541 12.54-.008 31.983l2.692-2.508c.02-17.936.722-22.12-.248-29.411z" filter="url(#filter1572-7-1)" opacity=".25" style="clip-rule:evenodd;opacity:.15;fill-rule:evenodd;filter:url(#d);shape-rendering:geometricPrecision" transform="matrix(1.02266 -.30293 .30175 1.01868 861.166 187.02)"/><path d="m14.948 13.299.057.414s.513-.095.649-.095c.135 0 .512.1.512.1.383.155.458.303.458.303l.245.2c.097.067.201.3.201.3l.434-.358-.324-.326-.609-.516-.706-.19z" style="opacity:1;fill:#000;fill-opacity:1;stroke:none;stroke-width:.105831;stroke-linejoin:round;stroke-dasharray:none;stroke-opacity:1;paint-order:markers stroke fill"/><path d="m35.643 8.553-.099-.08-.376-.184-.569-.181-1.02-.284-.572-.142L32 7.488l-.044.153 1.882.46.777.145.787.234z" style="opacity:.856538;fill:#fff;fill-opacity:1;stroke:none;stroke-width:.105831;stroke-linejoin:round;stroke-dasharray:none;stroke-opacity:1;paint-order:markers stroke fill"/></svg>