<svg xmlns="http://www.w3.org/2000/svg" xmlns:xlink="http://www.w3.org/1999/xlink" width="1200" height="1200"><path fill="#8ca2ad" d="M0 0h1200.059v1204.147H0z" style="stroke-width:1"/><g id="q" fill="#dee3e6"><g id="d"><g id="c"><g id="b"><path id="a" d="M0 0h100v100H0z"/><use xlink:href="#a" width="100%" height="100%" x="200"/></g><use xlink:href="#b" width="100%" height="100%" x="400"/></g><use xlink:href="#c" width="100%" height="100%" x="100" y="100"/></g><use xlink:href="#d" width="100%" height="100%" y="200"/></g><g fill="#dee3e6" transform="translate(800)"><g id="h"><g id="g"><g id="f"><path id="e" d="M0 0h100v100H0z"/><use xlink:href="#e" width="100%" height="100%" x="200"/></g><use xlink:href="#f" width="100%" height="100%" x="400"/></g><use xlink:href="#g" width="100%" height="100%" x="100" y="100"/></g><use xlink:href="#h" width="100%" height="100%" y="200"/></g><g fill="#dee3e6" transform="translate(800.04 399.985)"><g id="l"><g id="k"><g id="j"><path id="i" d="M0 0h100v100H0z"/><use xlink:href="#i" width="100%" height="100%" x="200"/></g><use xlink:href="#j" width="100%" height="100%" x="400"/></g><use xlink:href="#k" width="100%" height="100%" x="100" y="100"/></g><use xlink:href="#l" width="100%" height="100%" y="200"/></g><g fill="#dee3e6" transform="translate(800 800)"><g id="p"><g id="o"><g id="n"><path id="m" d="M0 0h100v100H0z"/><use xlink:href="#m" width="100%" height="100%" x="200"/></g><use xlink:href="#n" width="100%" height="100%" x="400"/></g><use xlink:href="#o" width="100%" height="100%" x="100" y="100"/></g><use xlink:href="#p" width="100%" height="100%" y="200"/></g><use xlink:href="#q" width="100%" height="100%" y="400" style="stroke-width:1"/><g fill="#dee3e6" transform="translate(0 800)"><g id="u"><g id="t"><g id="s"><path id="r" d="M0 0h100v100H0z"/><use xlink:href="#r" width="100%" height="100%" x="200"/></g><use xlink:href="#s" width="100%" height="100%" x="400"/></g><use xlink:href="#t" width="100%" height="100%" x="100" y="100"/></g><use xlink:href="#u" width="100%" height="100%" y="200"/></g><path fill="#8ca2ad" d="M-2284.648-215.126h800v800h-800z"/><g fill="#dee3e6" transform="translate(-2284.648 -215.126)"><g id="y"><g id="x"><g id="w"><path id="v" d="M0 0h100v100H0z"/><use xlink:href="#v" width="100%" height="100%" x="200"/></g><use xlink:href="#w" width="100%" height="100%" x="400"/></g><use xlink:href="#x" width="100%" height="100%" x="100" y="100"/></g><use xlink:href="#y" width="100%" height="100%" y="200"/></g></svg>