<?xml version="1.0" encoding="UTF-8" standalone="no"?>
<svg version="1.1" viewBox="0 0 1200 1200" id="svg19" sodipodi:docname="12x12brown.svg" width="1200" height="1200" inkscape:version="1.1.1 (1:1.1+202109281949+c3084ef5ed)" xmlns:inkscape="http://www.inkscape.org/namespaces/inkscape" xmlns:sodipodi="http://sodipodi.sourceforge.net/DTD/sodipodi-0.dtd" xmlns:xlink="http://www.w3.org/1999/xlink" xmlns="http://www.w3.org/2000/svg" xmlns:svg="http://www.w3.org/2000/svg">
  <defs id="defs23"/>
  <sodipodi:namedview id="namedview21" pagecolor="#ffffff" bordercolor="#666666" borderopacity="1.0" inkscape:pageshadow="2" inkscape:pageopacity="0.0" inkscape:pagecheckerboard="0" showgrid="false" inkscape:zoom="0.35355339" inkscape:cx="367.69552" inkscape:cy="644.88138" inkscape:window-width="1920" inkscape:window-height="1028" inkscape:window-x="0" inkscape:window-y="0" inkscape:window-maximized="1" inkscape:current-layer="svg19"/>
  <rect width="1200.0588" height="1204.1471" fill="#86a666" id="rect2" x="0" y="0" style="stroke-width:1"/>
  <g fill="#ffffdd" id="a">
    <g id="b">
      <g id="c">
        <g id="d">
          <rect width="100" height="100" id="e" x="0" y="0"/>
          <use x="200" xlink:href="#e" id="use5" y="0" width="100%" height="100%"/>
        </g>
        <use x="400" xlink:href="#d" id="use8" y="0" width="100%" height="100%"/>
      </g>
      <use x="100" y="100" xlink:href="#c" id="use11" width="100%" height="100%"/>
    </g>
    <use y="200" xlink:href="#b" id="use14" x="0" width="100%" height="100%"/>
  </g>
  <g fill="#ffffdd" id="a-5" transform="translate(800)">
    <g id="b-7">
      <g id="c-4">
        <g id="d-1">
          <rect width="100" height="100" id="e-85" x="0" y="0"/>
          <use x="200" xlink:href="#e-85" id="use5-9" y="0" width="100%" height="100%"/>
        </g>
        <use x="400" xlink:href="#d-1" id="use8-7" y="0" width="100%" height="100%"/>
      </g>
      <use x="100" y="100" xlink:href="#c-4" id="use11-5" width="100%" height="100%"/>
    </g>
    <use y="200" xlink:href="#b-7" id="use14-3" x="0" width="100%" height="100%"/>
  </g>
  <g fill="#ffffdd" id="a-8" transform="translate(800.03972,399.98457)">
    <g id="b-8">
      <g id="c-3">
        <g id="d-18">
          <rect width="100" height="100" id="e-9" x="0" y="0"/>
          <use x="200" xlink:href="#e-9" id="use5-6" y="0" width="100%" height="100%"/>
        </g>
        <use x="400" xlink:href="#d-18" id="use8-4" y="0" width="100%" height="100%"/>
      </g>
      <use x="100" y="100" xlink:href="#c-3" id="use11-3" width="100%" height="100%"/>
    </g>
    <use y="200" xlink:href="#b-8" id="use14-33" x="0" width="100%" height="100%"/>
  </g>
  <g fill="#ffffdd" id="a-8-8" transform="translate(800,800)">
    <g id="b-8-6">
      <g id="c-3-0">
        <g id="d-18-4">
          <rect width="100" height="100" id="e-9-8" x="0" y="0"/>
          <use x="200" xlink:href="#e-9-8" id="use5-6-8" y="0" width="100%" height="100%"/>
        </g>
        <use x="400" xlink:href="#d-18-4" id="use8-4-8" y="0" width="100%" height="100%"/>
      </g>
      <use x="100" y="100" xlink:href="#c-3-0" id="use11-3-9" width="100%" height="100%"/>
    </g>
    <use y="200" xlink:href="#b-8-6" id="use14-33-7" x="0" width="100%" height="100%"/>
  </g>
  <use y="400" xlink:href="#a" id="use17" x="0" width="100%" height="100%" style="stroke-width:1"/>
  <g fill="#ffffdd" id="a-7" transform="translate(0,800)">
    <g id="b-3">
      <g id="c-6">
        <g id="d-5">
          <rect width="100" height="100" id="e-6" x="0" y="0"/>
          <use x="200" xlink:href="#e-6" id="use5-3" y="0" width="100%" height="100%"/>
        </g>
        <use x="400" xlink:href="#d-5" id="use8-9" y="0" width="100%" height="100%"/>
      </g>
      <use x="100" y="100" xlink:href="#c-6" id="use11-4" width="100%" height="100%"/>
    </g>
    <use y="200" xlink:href="#b-3" id="use14-8" x="0" width="100%" height="100%"/>
  </g>
  <rect width="800" height="800" fill="#86a666" id="rect2-9" x="-2284.6479" y="-215.12581"/>
  <g fill="#ffffdd" id="a-3" transform="translate(-2284.648,-215.12582)">
    <g id="b-9">
      <g id="c-0">
        <g id="d-8">
          <rect width="100" height="100" id="e-8" x="0" y="0"/>
          <use x="200" xlink:href="#e-8" id="use5-5" y="0" width="100%" height="100%"/>
        </g>
        <use x="400" xlink:href="#d-8" id="use8-0" y="0" width="100%" height="100%"/>
      </g>
      <use x="100" y="100" xlink:href="#c-0" id="use11-9" width="100%" height="100%"/>
    </g>
    <use y="200" xlink:href="#b-9" id="use14-6" x="0" width="100%" height="100%"/>
  </g>
</svg>