<?xml version="1.0" encoding="UTF-8" standalone="no"?>
<svg
   clip-rule="evenodd"
   fill-rule="evenodd"
   height="50mm"
   image-rendering="optimizeQuality"
   shape-rendering="geometricPrecision"
   text-rendering="geometricPrecision"
   viewBox="0 0 50 50"
   width="50mm"
   version="1.1"
   id="svg3013"
   sodipodi:docname="chess-icon.svg"
   inkscape:version="1.1.1 (1:1.1+202109281949+c3084ef5ed)"
   xmlns:inkscape="http://www.inkscape.org/namespaces/inkscape"
   xmlns:sodipodi="http://sodipodi.sourceforge.net/DTD/sodipodi-0.dtd"
   xmlns="http://www.w3.org/2000/svg"
   xmlns:svg="http://www.w3.org/2000/svg">
  <defs
     id="defs3017" />
  <sodipodi:namedview
     id="namedview3015"
     pagecolor="#ffffff"
     bordercolor="#666666"
     borderopacity="1.0"
     inkscape:pageshadow="2"
     inkscape:pageopacity="0.0"
     inkscape:pagecheckerboard="0"
     inkscape:document-units="mm"
     showgrid="false"
     inkscape:zoom="2.2939375"
     inkscape:cx="63.646023"
     inkscape:cy="115.52189"
     inkscape:window-width="1920"
     inkscape:window-height="1028"
     inkscape:window-x="0"
     inkscape:window-y="0"
     inkscape:window-maximized="1"
     inkscape:current-layer="svg3013" />
  <linearGradient
     id="a"
     gradientUnits="userSpaceOnUse"
     x1="21.376"
     x2="77.641"
     y1="37.346"
     y2="37.346">
    <stop
       offset="0"
       stop-color="#fff"
       id="stop3004" />
    <stop
       offset="1"
       stop-color="#fff"
       stop-opacity="0"
       id="stop3006" />
  </linearGradient>
  <path
     d="M 25.542033,11.429641 H 24.188644 V 8.9304856 h -1.589463 c -0.429085,0 -0.644397,-0.209161 -0.644397,-0.632095 v -0.01922 c 0,-0.416782 0.215312,-0.625173 0.644397,-0.625173 h 1.588694 v -1.620991 c 0,-0.449848 0.228385,-0.670542 0.684384,-0.670542 0.442159,0 0.669774,0.220694 0.669774,0.670542 v 1.620991 h 1.640984 c 0.416782,0 0.625174,0.207622 0.625174,0.625173 v 0.01922 c 0,0.422934 -0.208392,0.631325 -0.625174,0.631325 l -1.627911,0.01999 z M 14.168183,31.209112 13.54301,27.641086 c -0.01307,0 -0.0323,-0.02538 -0.05844,-0.07767 -0.06536,-0.0915 -0.247608,-0.208387 -0.546738,-0.351415 -0.292978,-0.14995 -0.644398,-0.397558 -1.035035,-0.75513 A 32.28909,32.28909 0 0 1 10.594006,25.311104 6.5431738,6.5431738 0 0 1 9.7481381,24.359887 C 8.9722464,23.293325 8.5354709,22.002991 8.4508841,20.486581 8.320159,19.027843 8.9130356,17.569105 10.221824,16.117288 c 1.321861,-1.445666 3.112026,-2.128512 5.35819,-2.037773 0.839717,0.05229 1.830151,0.25376 2.955925,0.612101 0.371413,0.149949 0.748977,0.299898 1.139615,0.442927 l 1.151918,0.449079 c 0.20224,0.10458 0.384486,0.208391 0.534435,0.30605 a 3.3680928,3.3680928 0 0 1 -0.09766,-0.800498 c 0,-0.989666 0.351419,-1.836303 1.06118,-2.539143 0.702839,-0.696687 1.555628,-1.055028 2.545293,-1.0681 0.989666,0 1.836303,0.35834 2.539143,1.06118 0.696687,0.703608 1.048107,1.549476 1.048107,2.526069 0,0.20224 -0.02614,0.469073 -0.07767,0.801268 0.175325,-0.110732 0.35142,-0.208391 0.514441,-0.286826 0.585956,-0.253761 1.353389,-0.553659 2.310758,-0.892006 1.094246,-0.370644 2.076991,-0.579036 2.955924,-0.631326 2.246165,-0.10458 4.030177,0.579036 5.338966,2.037773 1.282643,1.451818 1.881672,2.910555 1.790164,4.368524 -0.09766,1.51718 -0.540586,2.806744 -1.31494,3.874076 -0.253761,0.345268 -0.540587,0.663622 -0.85971,0.963521 a 31.143323,31.143323 0 0 1 -1.276491,1.132694 c -0.416014,0.35834 -0.774354,0.612101 -1.067332,0.755129 -0.292209,0.143029 -0.461383,0.266833 -0.514442,0.35142 a 0.22607746,0.22607746 0 0 1 -0.03845,0.05921 c -0.01307,0.01307 -0.01999,0.02614 -0.01999,0.03845 l -0.612101,3.588019 1.263419,4.706871 c -0.638246,0.572883 -2.063918,1.041956 -4.270865,1.4126 -2.213867,0.371413 -4.772233,0.553659 -7.669716,0.553659 -2.949004,0 -5.547356,-0.195319 -7.780448,-0.579804 -2.239239,-0.390639 -3.645688,-0.878935 -4.218571,-1.45797 z"
     fill="#1f1a17"
     id="path3009"
     style="stroke-width:1" />
  <path
     d="m 25.522809,24.894322 c 2.187722,0.02538 4.186278,0.156101 6.002587,0.390637 1.822461,0.233768 3.248902,0.533666 4.277785,0.885086 a 97.13641,97.13641 0 0 0 1.581774,-1.269571 9.2414929,9.2414929 0 0 0 1.432593,-1.41952 c 0.60518,-0.774354 0.91123,-1.797086 0.91123,-3.072808 0,-1.139615 -0.273753,-2.096215 -0.820492,-2.858265 -0.976593,-1.425673 -2.467628,-2.135433 -4.460031,-2.135433 -1.197288,0 -2.42149,0.247609 -3.684909,0.742057 -1.106549,0.449079 -1.946266,0.944297 -2.512997,1.491804 -1.067332,1.067332 -1.861679,2.440714 -2.369969,4.113994 -0.175325,0.599029 -0.279905,1.145767 -0.312202,1.634064 -0.0323,0.488296 -0.04614,0.989665 -0.04614,1.497186 z m -10.188865,5.149799 c 2.414569,-0.612101 5.618102,-0.918152 9.615981,-0.918152 3.912525,0 7.07684,0.292209 9.479105,0.878934 l 0.475224,-2.806744 c -2.558366,-0.669774 -5.898007,-1.00889 -10.032764,-1.00889 -4.160132,0 -7.493621,0.346037 -10.01354,1.028883 z m 19.453427,3.391161 -0.566732,-2.186953 c -2.519149,-0.559811 -5.638095,-0.839716 -9.349149,-0.839716 -3.697981,0 -6.810006,0.279905 -9.329924,0.839716 l -0.60518,2.206947 c 2.42841,-0.70976 5.742675,-1.067332 9.955098,-1.067332 4.186278,0 7.480549,0.35142 9.895887,1.048107 z m 0.501369,1.797855 c -2.454555,-0.989666 -5.905697,-1.491804 -10.338815,-1.491804 -4.60306,0 -8.086498,0.50829 -10.456467,1.530252 2.240013,0.885855 5.703458,1.334934 10.398026,1.334934 2.239243,0 4.277016,-0.123036 6.119471,-0.371413 1.849375,-0.24684 3.268126,-0.585956 4.277785,-1.001969 z M 24.200948,24.894322 c -0.0062,-0.495217 -0.02614,-0.989665 -0.05229,-1.477962 -0.02614,-0.488297 -0.123036,-1.035804 -0.286057,-1.634832 -0.520594,-1.699426 -1.308789,-3.072808 -2.369969,-4.113995 -0.546738,-0.534435 -1.380303,-1.035804 -2.512997,-1.491803 -1.295716,-0.507521 -2.52607,-0.761282 -3.684909,-0.761282 -2.005476,0 -3.496511,0.715912 -4.460032,2.155426 -0.546738,0.761281 -0.820492,1.71865 -0.820492,2.857496 0,1.250347 0.306051,2.272309 0.912,3.073577 0.370644,0.469072 0.839716,0.943527 1.4126,1.412599 0.572883,0.469073 1.107318,0.898158 1.601766,1.276492 2.226171,-0.801268 5.644247,-1.230353 10.26038,-1.295716 z m 0.670542,-3.548801 c 0.09151,-0.357571 0.163022,-0.60518 0.227616,-0.742057 0.130725,-0.494448 0.273754,-0.918151 0.442927,-1.263419 0.07151,-0.214543 0.182246,-0.461383 0.332196,-0.748209 0.143028,-0.286826 0.299898,-0.619021 0.469072,-0.983514 0.09766,-0.215311 0.207622,-0.481375 0.319123,-0.794347 0.116883,-0.312202 0.233767,-0.618252 0.344499,-0.924303 0.10458,-0.25376 0.156101,-0.527514 0.156101,-0.820492 0,-0.625173 -0.227616,-1.151918 -0.670543,-1.588694 -0.442158,-0.442158 -0.982745,-0.663622 -1.620991,-0.663622 -1.510258,0 -2.272309,0.761282 -2.272309,2.27231 0,0.292209 0.05229,0.565962 0.156101,0.820492 0.280675,0.826643 0.495218,1.399527 0.645167,1.71865 0.169174,0.364492 0.319123,0.696687 0.461383,0.982745 0.137645,0.286826 0.26145,0.533665 0.35834,0.748977 0.169174,0.422934 0.30605,0.839716 0.422934,1.262651 0.02691,0.07228 0.09843,0.319122 0.228384,0.722832 z"
     fill="url(#a)"
     id="path3011"
     style="fill:url(#a);stroke-width:1" />
</svg>
