<?xml version="1.0" encoding="UTF-8" standalone="no"?>
<svg inkscape:export-ydpi="96.300003" inkscape:export-xdpi="96.300003" inkscape:export-filename="D:\Pictures\Chess Variants\Background2.png" sodipodi:docname="seek-bg2.svg" inkscape:version="1.2.2 (1:1.2.2+202212051550+b0a8486541)" id="svg8" version="1.1" viewBox="0 0 145.52083 142.875" height="540" width="550" xmlns:inkscape="http://www.inkscape.org/namespaces/inkscape" xmlns:sodipodi="http://sodipodi.sourceforge.net/DTD/sodipodi-0.dtd" xmlns:xlink="http://www.w3.org/1999/xlink" xmlns="http://www.w3.org/2000/svg" xmlns:svg="http://www.w3.org/2000/svg" xmlns:rdf="http://www.w3.org/1999/02/22-rdf-syntax-ns#" xmlns:cc="http://creativecommons.org/ns#" xmlns:dc="http://purl.org/dc/elements/1.1/">
  <style id="style2688">.k000 {   }
#g2285, #path2287 {   }
</style>
  <defs id="defs2">
    <inkscape:path-effect oposite_fuse="false" fuse_paths="true" discard_orig_path="false" mode="free" is_visible="true" id="path-effect4547-0-2" center_point="275.14301,224.09666" end_point="275.14301,350.07326" start_point="275.14301,98.12006" effect="mirror_symmetry" lpesatellites="" />
    <inkscape:path-effect oposite_fuse="false" fuse_paths="false" discard_orig_path="false" mode="free" is_visible="true" id="path-effect4551-7-2" center_point="274.67636,329.54996" end_point="274.67636,418.88419" start_point="274.67636,240.21573" effect="mirror_symmetry" lpesatellites="" />
    <inkscape:path-effect oposite_fuse="false" fuse_paths="false" discard_orig_path="false" mode="free" is_visible="true" id="path-effect4557-0-7" center_point="273.50283,404.61159" end_point="273.50283,477.30227" start_point="273.50283,331.92091" effect="mirror_symmetry" lpesatellites="" />
    <inkscape:path-effect oposite_fuse="false" fuse_paths="false" discard_orig_path="false" mode="free" is_visible="true" id="path-effect4669-0" center_point="315.71788,93.192596" end_point="315.71788,96.192596" start_point="315.71788,90.192596" effect="mirror_symmetry" lpesatellites="" />
    <inkscape:path-effect effect="mirror_symmetry" start_point="316.91112,90.060013" end_point="316.91112,96.060013" center_point="316.91112,93.060013" id="path-effect4802-2" is_visible="true" mode="free" discard_orig_path="false" fuse_paths="false" oposite_fuse="false" lpesatellites="" />
    <linearGradient y2="1" x2="0" y1="0" x1="0" id="linearGradient5398">
      <stop id="stop5394" style="stop-color:#000000;stop-opacity:1" offset="20%" />
      <stop id="stop5396" style="stop-color:#4d4d4d;stop-opacity:1" offset="100%" />
    </linearGradient>
    <clipPath id="clipPath8276" clipPathUnits="userSpaceOnUse">
      <rect y="-1.9067795" x="-2.5423729" height="26.271185" width="56.567795" id="rect8278" style="opacity:1;fill:#d40000;fill-opacity:1;stroke:#d40000;stroke-width:0.36687925;stroke-linecap:square;stroke-linejoin:miter;stroke-miterlimit:4;stroke-dasharray:none;stroke-opacity:1;paint-order:normal" />
    </clipPath>
    <clipPath id="clipPath3240" clipPathUnits="userSpaceOnUse">
      <rect y="31.673729" x="2.8601696" height="22.457626" width="45.868641" id="rect3242" style="opacity:1;fill:#d40000;fill-opacity:1;stroke:black;stroke-width:0.19755;stroke-linecap:square;stroke-linejoin:miter;stroke-miterlimit:4;stroke-dasharray:none;stroke-opacity:1;paint-order:normal" />
    </clipPath>
    <linearGradient y2="37.469002" x2="77.639999" y1="37.591999" x1="21.129999" gradientUnits="userSpaceOnUse" id="linearGradient3296" xlink:href="#0-6" inkscape:collect="always" />
    <linearGradient gradientUnits="userSpaceOnUse" y2="37.469002" x2="77.639999" y1="37.591999" x1="21.129999" id="0-6">
      <stop id="stop8929" stop-color="#fff" />
      <stop id="stop8931" stop-opacity="0" stop-color="#fff" offset="1" />
    </linearGradient>
    <linearGradient gradientTransform="matrix(0.87296594,0,0,0.87296594,1.7413394,-3.9521812)" gradientUnits="userSpaceOnUse" x2="77.639999" x1="21.405001" id="0">
      <stop id="stop8352" stop-color="#fff" />
      <stop id="stop8354" stop-opacity="0" stop-color="#fff" offset="1" />
    </linearGradient>
    <linearGradient inkscape:collect="always" xlink:href="#linearGradient1969" id="linearGradient1971" x1="52.41539" y1="10.288448" x2="87.488693" y2="69.24028" gradientUnits="userSpaceOnUse" gradientTransform="matrix(0.26458333,0,0,0.26458333,62.792256,215.56777)" />
    <linearGradient inkscape:collect="always" id="linearGradient1969">
      <stop style="stop-color:#525252;stop-opacity:1" offset="0" id="stop1965" />
      <stop style="stop-color:#999999;stop-opacity:0;" offset="1" id="stop1967" />
    </linearGradient>
    <linearGradient inkscape:collect="always" xlink:href="#linearGradient1961" id="linearGradient1963" x1="120.40495" y1="64.500221" x2="6.1331396" y2="20.335171" gradientUnits="userSpaceOnUse" gradientTransform="matrix(0.26458333,0,0,0.26458333,62.792256,215.56777)" />
    <linearGradient inkscape:collect="always" id="linearGradient1961">
      <stop style="stop-color:#000000;stop-opacity:1;" offset="0" id="stop1957" />
      <stop style="stop-color:#000000;stop-opacity:0;" offset="1" id="stop1959" />
    </linearGradient>
    <linearGradient inkscape:collect="always" xlink:href="#linearGradient1961" id="linearGradient1955" x1="53.469273" y1="112.31886" x2="57.792503" y2="78.67704" gradientUnits="userSpaceOnUse" gradientTransform="matrix(0.26458333,0,0,0.26458333,62.792256,215.56777)" />
    <inkscape:path-effect effect="bspline" id="path-effect1923" is_visible="true" lpeversion="1" weight="33.333333" steps="2" helper_size="0" apply_no_weight="true" apply_with_weight="true" only_selected="false" />
    <linearGradient inkscape:collect="always" xlink:href="#linearGradient1977" id="linearGradient1979" x1="20.076305" y1="54.618431" x2="-55.58984" y2="-17.579689" gradientUnits="userSpaceOnUse" gradientTransform="matrix(0.26458333,0,0,0.26458333,62.792256,215.56777)" />
    <linearGradient inkscape:collect="always" id="linearGradient1977">
      <stop style="stop-color:#5e5e5e;stop-opacity:1;" offset="0" id="stop1973" />
      <stop style="stop-color:#5e5e5e;stop-opacity:0;" offset="1" id="stop1975" />
    </linearGradient>
    <linearGradient id="0-3" x1="21.375999" x2="77.639999" gradientUnits="userSpaceOnUse" gradientTransform="matrix(0.78365318,0,0,0.78365318,57.010042,174.10639)">
      <stop stop-color="#fff" id="stop2274" />
      <stop offset="1" stop-color="#fff" stop-opacity="0" id="stop2276" />
    </linearGradient>
  </defs>
  <sodipodi:namedview inkscape:document-rotation="0" inkscape:window-maximized="0" inkscape:window-y="0" inkscape:window-x="0" inkscape:window-height="1080" inkscape:window-width="1920" showguides="false" units="px" showgrid="false" inkscape:current-layer="layer1" inkscape:document-units="px" inkscape:cy="163.34167" inkscape:cx="470.93312" inkscape:zoom="0.70710678" inkscape:pageshadow="2" inkscape:pageopacity="0.0" borderopacity="1.0" bordercolor="#666666" pagecolor="#ffffff" id="base" inkscape:showpageshadow="2" inkscape:pagecheckerboard="0" inkscape:deskcolor="#d1d1d1" />
  <metadata id="metadata5">
    <rdf:RDF>
      <cc:Work rdf:about="">
        <dc:format>image/svg+xml</dc:format>
        <dc:type rdf:resource="http://purl.org/dc/dcmitype/StillImage" />
        <dc:title />
      </cc:Work>
    </rdf:RDF>
  </metadata>
  <g transform="translate(0,-154.12498)" id="layer1" inkscape:groupmode="layer" inkscape:label="Layer 1">
    <g transform="matrix(-0.0202711,-0.9133009,0.9133009,-0.0202711,-133.94936,345.54621)" style="opacity:0.248" id="g5486">
      <g transform="matrix(0.79438549,0,0,-0.79558765,100.46014,216.55127)" id="g8232" clip-path="url(#clipPath8276)">
        <path style="fill:#1f1a17" inkscape:connector-curvature="0" id="path7677" d="m 28.408,9.22 h 4.216 V 5.825 h 6.796 v 9.295 l -5.5,4.243 V 31.22 l 4.22,4.221 v 5.08 h 3.789 V 46.45 H 8.07 v -5.929 h 3.794 v -5.08 L 16.11,31.22 V 19.363 L 10.602,15.12 V 5.825 h 6.774 V 9.22 h 4.242 V 5.825 h 6.79 z" />
        <path style="fill:white" inkscape:connector-curvature="0" id="path7679" d="m 33.07,17.678 3.15,-2.557 H 13.8 l 3.175,2.557 h 16.1 m 7.197,24.528 H 9.758 v 2.557 h 30.514 v -2.557 m -3.844,-5.05 H 13.602 v 3.37 h 22.826 v -3.37 M 32.212,19.368 H 17.819 V 31.23 H 32.212 V 19.368 m 5.503,-5.927 V 7.514 H 34.32 v 3.395 H 26.675 V 7.514 h -3.344 v 3.395 h -7.62 V 7.514 h -3.395 v 5.927 h 25.4 m -1.913,22 -2.548,-2.532 H 16.804 l -2.599,2.532 h 21.598" />
      </g>
      <path d="m 116.61355,172.5006 c 2.06461,0.13445 3.97193,0.6667 5.73705,1.60708 1.75559,0.92925 3.2554,2.1282 4.49305,3.59049 0.86747,1.02392 1.68171,2.26345 2.4483,3.71142 0.77373,1.4416 1.3854,2.97708 1.84297,4.59372 0.5243,1.88634 0.86112,3.8594 0.99537,5.93429 0.14139,2.06773 0.20892,3.98589 0.20892,5.7521 v 4.29776 c 0,0 -1.02238,0 -3.06712,0 -2.0376,0 -4.68767,0 -7.9518,0 h -13.2162 c -0.12074,0 -0.17476,-0.32301 -0.1684,-0.96345 0.006,-0.64682 0.0469,-1.16554 0.12789,-1.56254 0.0469,-0.31664 0.17477,-0.76138 0.37019,-1.34057 0.20177,-0.57918 0.52429,-1.2801 0.98901,-2.1083 0.20812,-0.42405 0.70621,-1.03745 1.49344,-1.84576 0.79359,-0.80832 1.69522,-1.75109 2.72395,-2.81559 0.59182,-0.60624 1.04938,-1.36762 1.38541,-2.29049 0.33602,-0.91573 0.47742,-1.75109 0.42341,-2.50611 -0.48458,0.3978 -1.01603,0.72081 -1.59672,0.96983 -2.78432,0.99687 -4.80604,2.44484 -6.04607,4.33754 -0.0945,0.12093 -0.39004,0.65318 -0.88812,1.60708 -0.26215,0.49884 -0.49093,0.84174 -0.67285,1.02393 -0.24864,0.24902 -0.61247,0.39063 -1.08274,0.41768 -0.73322,0.0334 -1.30518,-0.31665 -1.71508,-1.07086 -0.55131,0.1615 -1.04224,0.22913 -1.47994,0.20208 -0.73322,-0.27607 -1.26466,-0.57283 -1.59672,-0.88947 -0.672842,-0.67386 -1.103399,-1.34056 -1.311528,-2.01443 -0.201774,-0.67386 -0.302661,-1.39466 -0.302661,-2.16877 0,-1.10507 0.679199,-2.56657 2.051099,-4.38528 1.60466,-2.08842 2.45466,-3.68436 2.55554,-4.77352 0,-0.47179 0.0469,-1.00404 0.1414,-1.59913 0.081,-0.41132 0.24229,-0.80355 0.49094,-1.18543 0.17475,-0.26254 0.28915,-0.44473 0.34317,-0.53861 0.0604,-0.10104 0.16841,-0.24902 0.32967,-0.44474 0.11439,-0.1615 0.21527,-0.28323 0.29631,-0.36358 0.0739,-0.0875 0.17476,-0.20208 0.2963,-0.35006 0.1414,-0.16866 0.32252,-0.36358 0.5513,-0.59271 -0.69905,-1.91975 -0.98186,-3.89997 -0.8476,-5.93429 2.60955,0.92925 4.80603,2.39472 6.5775,4.3988 0.43692,-1.48854 1.29168,-2.69465 2.56269,-3.61037 1.04939,0.73432 1.88349,1.71131 2.50232,2.91662" id="path7100" inkscape:connector-curvature="0" style="fill:#1f1a17;stroke-width:0.794986" />
      <path d="m 129.95605,200.58325 c -0.0135,0 0,-0.35722 0.0333,-1.07086 0.0405,-0.7208 0.0604,-1.4957 0.0604,-2.32391 0.0135,-1.64369 0.0135,-3.34147 0,-5.09893 -0.0135,-1.75824 -0.24864,-3.50933 -0.70621,-5.26122 -0.45041,-1.68426 -0.94134,-3.1187 -1.47993,-4.31128 -0.5378,-1.19259 -1.12326,-2.21651 -1.75559,-3.08529 -0.94135,-1.42092 -2.23302,-2.62703 -3.86071,-3.61038 -1.6277,-0.99051 -3.32927,-1.63652 -5.10472,-1.93964 0.12074,0.64681 0.17476,1.2801 0.16125,1.89986 -0.027,0.47178 -0.24864,0.70728 -0.67284,0.70728 -0.48458,0 -0.69986,-0.2355 -0.65219,-0.70728 0.0405,-1.73756 -0.57831,-3.2269 -1.84933,-4.45927 -0.99536,1.05097 -1.54031,2.26981 -1.61419,3.66448 -0.027,0.46462 -0.26214,0.6667 -0.71256,0.6134 -0.41705,-0.0135 -0.62518,-0.25618 -0.62518,-0.72717 0,0 0.0135,-0.0541 0.0333,-0.16151 -0.53777,0.17503 -1.10337,0.41769 -1.69519,0.73433 -0.37653,0.26255 -0.68635,0.19492 -0.92148,-0.19571 -0.23514,-0.397 -0.13425,-0.70728 0.31616,-0.92925 0.56482,-0.28959 0.98901,-0.5052 1.27817,-0.65318 -1.12961,-1.15837 -2.41493,-2.08841 -3.86071,-2.80206 0.15491,1.83224 0.65934,3.55628 1.4998,5.1936 0.22163,0.33653 0.16841,0.63965 -0.16126,0.90299 -0.37018,0.28959 -0.6792,0.24902 -0.92784,-0.13445 -0.0874,-0.13445 -0.22164,-0.37075 -0.39005,-0.71364 -0.27565,0.27607 -0.46392,0.4853 -0.5513,0.6126 -0.0937,0.12093 -0.25579,0.38427 -0.48457,0.78843 -0.22879,0.41052 -0.3964,0.74785 -0.50444,1.01039 -0.11439,0.33017 -0.16841,0.59272 -0.14776,0.80355 0.0198,0.20207 0.0405,0.42404 0.0541,0.68022 -0.12075,0.77491 -0.39004,1.50207 -0.80233,2.18946 -0.41705,0.68023 -0.94134,1.51559 -1.58718,2.5061 -0.61883,0.94277 -1.0899,1.65721 -1.41877,2.1282 -0.32967,0.47815 -0.57831,1.07802 -0.74672,1.81871 -0.12075,0.44474 -0.12075,0.99051 0,1.6238 0.11439,0.63965 0.37653,1.13848 0.76658,1.4957 0.60532,0.6126 1.19078,0.89583 1.75559,0.84889 0.18191,0 0.43056,-0.074 0.73957,-0.22197 0.30902,-0.14161 0.54495,-0.41768 0.71971,-0.8282 0.33603,-0.74786 0.61883,-1.12496 0.84762,-1.12496 0.32252,0 0.50443,0.18855 0.53144,0.55213 0,0.0812 -0.10803,0.41132 -0.31616,0.99051 -0.12075,0.26255 -0.27566,0.53861 -0.47108,0.82821 -0.25579,0.34369 -0.36303,0.48531 -0.33602,0.43121 0.20812,0.75421 0.55845,0.8823 1.04223,0.39699 0.1414,-0.14161 0.30902,-0.41768 0.49093,-0.80831 0.18827,-0.397 0.47743,-0.92925 0.86747,-1.59913 0.46392,-0.78127 0.95485,-1.40819 1.47994,-1.89987 0.5243,-0.48531 0.98901,-0.8823 1.39891,-1.17906 0.23514,-0.17503 0.5243,-0.37074 0.86748,-0.59271 0.34317,-0.22913 0.80232,-0.45826 1.37905,-0.69375 0.45756,-0.1822 0.96835,-0.41053 1.52681,-0.68023 0.55845,-0.26971 1.05573,-0.6126 1.48629,-1.03745 0.60532,-0.59271 1.06925,-1.31988 1.39891,-2.18945 0.17477,-0.48531 0.23514,-1.08439 0.19463,-1.79883 -0.1144,-0.44473 0.10803,-0.6667 0.67284,-0.6667 0.42341,0 0.65934,0.21561 0.71336,0.65318 0,1.48218 -0.42341,2.83547 -1.26466,4.06147 0.27565,0.84174 0.34953,1.76462 0.21527,2.76149 -0.11439,0.80354 -0.39718,1.66357 -0.8341,2.58009 -0.44406,0.90935 -1.33139,1.92691 -2.66993,3.04471 -2.72395,2.26345 -4.01165,4.59373 -3.86071,6.98526 0,0 1.11611,0 3.35628,0 2.23937,0 4.34528,0 6.31536,0 h 10.78138 m -26.72154,-11.99746 c -0.38368,0.23549 -0.61167,0.55214 -0.6927,0.94993 0.0135,0.43121 -0.18827,0.6667 -0.60532,0.70728 -0.46392,0.0541 -0.69986,-0.14162 -0.71336,-0.59271 0.054,-0.86878 0.43691,-1.55617 1.16377,-2.06774 0.34318,-0.27607 0.65934,-0.25618 0.9485,0.074 0.28915,0.35722 0.25579,0.6667 -0.10089,0.92925 m 5.85144,-9.4102 c 0.16841,0.26254 0.23514,0.53861 0.19543,0.8282 -0.1279,0.84173 -0.59897,1.19259 -1.39892,1.0645 -0.23514,-0.0406 -0.42341,-0.12093 -0.57196,-0.2355 -0.0469,0.0605 -0.12789,0.20845 -0.23514,0.43121 -0.14139,0.42405 -0.41705,0.56566 -0.82695,0.43757 -0.40355,-0.1615 -0.56481,-0.45825 -0.47107,-0.88946 0.59182,-1.5156 1.66106,-2.55304 3.20932,-3.1187 0.45042,-0.13446 0.74672,0 0.88812,0.39063 0.16126,0.42405 0.0405,0.71444 -0.35668,0.86878 -0.0739,0.0406 -0.14775,0.0812 -0.21528,0.1082 -0.0675,0.0334 -0.13424,0.074 -0.21527,0.11457" id="path7102" style="fill:white;stroke-width:0.794986" inkscape:connector-curvature="0" />
    </g>
    <g id="g221" transform="matrix(0.80930997,0,0,0.80930997,50.629492,176.3217)" style="opacity:0.248">
      <title id="title206">Giraffe</title>
      <g style="opacity:1;fill:none;fill-opacity:1;fill-rule:evenodd;stroke-width:1.5;stroke-linecap:round;stroke-linejoin:round;stroke-miterlimit:4;stroke-dasharray:none;stroke-opacity:1" id="g219">
        <g stroke="black" stroke-dashoffset="0" id="g213">
          <path id="Hor_1" d="m 17.6,4.8 h 3" />
          <path id="Ver_1" d="M 19.2,9.9 V 2.2" />
          <path id="Head" d="M 39.5,40.1003 V 34.622299 C 33.256599,32.1627 35.040401,14.6039 30.580799,10.504596 31.6404,9.410926 35.040401,8.045046 32.3647,7.225188 c -5.351601,-1.63971 -3.567801,0 -7.135401,1.63972 -3.567699,0 -10.703099,-3.27943 -12.486899,6.55879 -1.7838,3.279499 -5.35153,3.279499 -7.13536,6.558897 -1.12738,2.066 1.78383,6.558805 7.13536,1.6397 5.351501,0 8.9192,0 10.703,-3.2794 1.783899,3.2794 4.567699,4.3603 4.567699,20.757404 h 11.4869 v -1 z" style="fill:white" />
          <path id="Hor_2" d="m 21.1,5.9 h 3" />
          <path id="Ver_2" d="M 22.7,11 V 3.3" />
        </g>
        <path id="Eye" d="m 16.37441,14.57421 a 0.44094608,1.3228382 0 1 1 -0.866,-0.5 0.44094608,1.3228382 0 1 1 0.866,0.5 z" fill="black" stroke="black" />
        <path id="Dot_1" d="m 31.1,22.5 a 1.73,2.5 0 1 1 -3.46,0 1.73,2.5 0 1 1 3.46,0 z" fill="black" stroke="black" />
        <path id="Dot_2" d="m 33.3,30.5 a 1.73,2.5 0 1 1 -3.46,0 1.73,2.5 0 1 1 3.46,0 z" fill="black" stroke="black" />
        <path id="Dot_3" d="m 37.1,36.5 a 1.73,2.5 0 1 1 -3.46,0 1.73,2.5 0 1 1 3.46,0 z" fill="black" stroke="black" />
      </g>
    </g>
    <g transform="matrix(-0.01637433,0.79401206,-0.79401206,-0.01637433,137.34524,211.08135)" id="g3334" style="opacity:0.248">
      <g transform="translate(-0.39827065,1.190593)" id="g3234" clip-path="url(#clipPath3240)">
        <path style="fill:#1f1a17" inkscape:connector-curvature="0" id="path2100" d="m 25.447,42.01 c -0.229,0.94 -0.517,1.592 -0.847,1.956 -0.33,0.364 -0.762,0.745 -1.312,1.143 -0.593,0.415 -1.295,0.762 -2.108,1.05 -0.813,0.288 -1.71,0.364 -2.701,0.212 l -6.968,-0.965 c -0.288,-0.034 -0.533,-0.034 -0.762,0 -0.22,0.034 -0.432,0.051 -0.635,0.051 -0.347,0 -0.787,0.076 -1.321,0.237 -0.542,0.152 -0.957,0.381 -1.253,0.677 L 5.135,42.425 c 0.296,-0.33 0.559,-0.559 0.787,-0.694 0.237,-0.127 0.508,-0.271 0.821,-0.415 0.957,-0.449 1.981,-0.72 3.073,-0.821 0.466,-0.034 0.923,-0.042 1.363,-0.025 0.449,0.017 0.914,0 1.397,-0.051 0.889,0.152 1.786,0.288 2.684,0.406 0.906,0.127 1.812,0.254 2.718,0.389 0.991,0 1.66,-0.102 2.01,-0.296 0.186,-0.102 0.474,-0.288 0.872,-0.55 0.398,-0.262 0.796,-0.652 1.194,-1.168 -0.881,-0.093 -1.77,-0.262 -2.684,-0.508 -0.906,-0.237 -1.71,-0.491 -2.404,-0.754 l 2.582,-6.401 c -1.295,-0.745 -2.193,-1.338 -2.709,-1.795 -0.508,-0.457 -0.914,-0.982 -1.211,-1.575 -0.432,-0.762 -0.711,-1.499 -0.83,-2.21 -0.127,-0.711 -0.178,-1.346 -0.161,-1.913 0.017,-0.991 0.245,-2.083 0.703,-3.285 0.457,-1.194 1.312,-2.269 2.565,-3.209 1.041,-0.796 2.066,-1.617 3.057,-2.455 0.991,-0.847 1.973,-1.829 2.946,-2.955 -1.219,-0.627 -1.829,-1.626 -1.829,-2.997 0,-0.931 0.322,-1.719 0.974,-2.388 0.652,-0.66 1.456,-0.991 2.396,-0.991 0.923,0 1.719,0.33 2.379,0.991 0.66,0.669 0.991,1.456 0.991,2.388 0,1.355 -0.61,2.354 -1.829,2.997 0.957,1.126 1.93,2.108 2.913,2.955 0.982,0.838 2.02,1.66 3.09,2.455 1.236,0.94 2.083,2.02 2.523,3.209 0.449,1.202 0.694,2.294 0.72,3.285 0,0.567 -0.051,1.202 -0.169,1.913 -0.118,0.711 -0.381,1.448 -0.796,2.21 -0.33,0.593 -0.745,1.118 -1.253,1.575 -0.5,0.457 -1.389,1.05 -2.667,1.795 l 2.582,6.401 c -0.728,0.263 -1.549,0.517 -2.455,0.754 -0.914,0.246 -1.787,0.415 -2.633,0.508 0.381,0.517 0.77,0.906 1.168,1.168 0.398,0.263 0.694,0.449 0.898,0.55 0.347,0.195 1.016,0.296 2.01,0.296 0.889,-0.136 1.786,-0.263 2.692,-0.389 0.898,-0.118 1.803,-0.254 2.718,-0.406 0.44,0.051 0.889,0.068 1.346,0.051 0.457,-0.017 0.923,-0.008 1.405,0.025 1.058,0.102 2.083,0.373 3.073,0.821 0.296,0.144 0.567,0.288 0.804,0.415 0.245,0.135 0.508,0.364 0.804,0.694 l -2.43,3.946 c -0.296,-0.296 -0.711,-0.525 -1.253,-0.677 -0.533,-0.161 -0.965,-0.237 -1.295,-0.237 -0.22,0 -0.44,-0.017 -0.66,-0.051 -0.22,-0.034 -0.474,-0.034 -0.754,0 l -6.951,0.965 c -0.991,0.152 -1.913,0.085 -2.76,-0.195 -0.855,-0.279 -1.558,-0.652 -2.1,-1.118 -0.542,-0.449 -0.982,-0.83 -1.304,-1.151 -0.322,-0.322 -0.593,-0.957 -0.804,-1.897" />
        <path style="fill:url(#linearGradient3296)" inkscape:connector-curvature="0" id="path2102" d="m 26.32,39.2 c 0,1.092 0.245,2.024 0.753,2.794 0.5,0.77 1.041,1.372 1.626,1.795 0.906,0.669 2.235,0.999 3.988,0.999 0.432,0 1.279,-0.093 2.532,-0.279 1.025,-0.161 1.854,-0.279 2.481,-0.356 0.627,-0.076 1.05,-0.135 1.27,-0.186 0.627,-0.085 1.287,-0.068 1.981,0.051 0.262,0.068 0.559,0.127 0.88,0.186 0.322,0.059 0.593,0.186 0.804,0.381 l 1.194,-1.93 c -0.677,-0.347 -1.397,-0.593 -2.159,-0.72 -1.253,-0.22 -2.354,-0.263 -3.302,-0.152 -0.279,0.034 -0.643,0.118 -1.101,0.245 -0.457,0.136 -1.067,0.263 -1.846,0.373 -1.676,0.271 -2.557,0.398 -2.659,0.398 -0.644,0 -1.202,-0.076 -1.685,-0.246 C 30.594,42.384 30.171,42.206 29.79,42.011 28.909,41.613 28.02,40.673 27.106,39.2 h -0.787 m -1.761,0 h -0.796 c -0.931,1.49 -1.812,2.43 -2.659,2.811 -0.398,0.195 -0.83,0.373 -1.312,0.542 -0.483,0.169 -1.033,0.246 -1.66,0.246 -0.119,0 -0.999,-0.127 -2.659,-0.398 -0.787,-0.11 -1.422,-0.237 -1.88,-0.373 -0.466,-0.127 -0.83,-0.212 -1.092,-0.245 -0.948,-0.11 -2.04,-0.068 -3.302,0.152 -0.762,0.127 -1.473,0.373 -2.134,0.72 l 1.194,1.93 c 0.195,-0.195 0.457,-0.322 0.779,-0.381 0.322,-0.059 0.618,-0.118 0.88,-0.186 0.694,-0.119 1.355,-0.136 1.981,-0.051 0.22,0.051 0.643,0.11 1.27,0.186 0.627,0.076 1.465,0.195 2.506,0.356 1.236,0.186 2.083,0.279 2.532,0.279 1.736,0 3.065,-0.33 3.988,-0.999 0.567,-0.423 1.101,-1.025 1.6,-1.795 0.508,-0.77 0.762,-1.702 0.762,-2.794 m 0.889,-9.347 c 1.6,0 3.141,0.127 4.614,0.373 1.617,-0.576 2.794,-1.482 3.522,-2.701 0.627,-1.058 0.94,-2.227 0.94,-3.497 0,-0.762 -0.186,-1.6 -0.567,-2.523 -0.381,-0.914 -0.999,-1.744 -1.863,-2.489 -0.974,-0.813 -2.04,-1.702 -3.2,-2.667 -1.151,-0.965 -2.303,-2.1 -3.446,-3.387 -1.16,1.287 -2.311,2.422 -3.471,3.387 -1.16,0.965 -2.218,1.854 -3.175,2.667 -0.881,0.745 -1.499,1.575 -1.871,2.489 -0.372,0.923 -0.559,1.761 -0.559,2.523 0,1.27 0.305,2.438 0.914,3.497 0.711,1.219 1.897,2.125 3.548,2.701 1.456,-0.246 2.997,-0.373 4.614,-0.373 m 0,4.513 c 1.939,0 3.793,0.195 5.579,0.576 l -1.185,-3.057 c -1.456,-0.229 -2.921,-0.347 -4.394,-0.347 -1.507,0 -2.98,0.119 -4.411,0.347 l -1.194,3.057 c 1.77,-0.381 3.641,-0.576 5.605,-0.576 m 0,-23.537 c 1.126,0 1.685,-0.559 1.685,-1.685 0,-1.126 -0.559,-1.693 -1.685,-1.693 -1.126,0 -1.685,0.567 -1.685,1.693 0,1.126 0.559,1.685 1.685,1.685 m 0,27.01 c 1.126,0 2.218,-0.093 3.285,-0.279 1.067,-0.195 2.1,-0.423 3.09,-0.686 -1.939,-0.508 -4.064,-0.77 -6.375,-0.77 -2.345,0 -4.47,0.263 -6.375,0.77 0.957,0.263 1.973,0.491 3.048,0.686 1.075,0.186 2.184,0.279 3.327,0.279 M 24.556,23.505 22.49,23.48 c -0.559,0 -0.838,-0.279 -0.838,-0.847 0,-0.559 0.279,-0.838 0.838,-0.838 h 2.066 v -2.134 c 0,-0.576 0.296,-0.872 0.889,-0.872 0.576,0 0.872,0.296 0.872,0.872 v 2.134 h 2.134 c 0.542,0 0.813,0.279 0.813,0.838 0,0.567 -0.271,0.847 -0.813,0.847 h -2.134 v 2.032 c 0,0.601 -0.296,0.898 -0.872,0.898 -0.593,0 -0.889,-0.296 -0.889,-0.898 v -2.01" />
      </g>
      <g id="g9596" transform="matrix(0.8038434,0,0,0.8038434,5.6273257,6.7500418)">
        <path style="fill:#1f1a17;stroke-width:0.872966" inkscape:connector-curvature="0" id="path8359" d="m 24.595588,4.249334 c 2.268838,0.1475313 4.36483,0.7315455 6.30456,1.7633913 1.929254,1.019624 3.577414,2.335184 4.937496,3.939695 0.953278,1.1235077 1.848068,2.4835887 2.69048,4.0723867 0.85027,1.581814 1.522453,3.266638 2.025282,5.040505 0.576156,2.069803 0.946295,4.234758 1.093826,6.511453 0.155388,2.268838 0.22959,4.37356 0.22959,6.311543 v 4.715763 c 0,0 -1.123507,0 -3.370521,0 -2.239159,0 -5.151373,0 -8.73839,0 H 15.244376 c -0.132691,0 -0.192053,-0.354424 -0.185069,-1.057162 0.0069,-0.709721 0.05151,-1.278895 0.140549,-1.714504 0.05151,-0.347442 0.192051,-0.835429 0.406801,-1.470948 0.221734,-0.635519 0.576158,-1.404602 1.086843,-2.31336 0.228717,-0.465291 0.776067,-1.138348 1.641176,-2.025282 0.872093,-0.886933 1.86291,-1.921398 2.9934,-3.089426 0.650359,-0.6652 1.153188,-1.500629 1.522453,-2.513269 0.369264,-1.004783 0.524653,-1.921398 0.465291,-2.749843 -0.532509,0.436483 -1.116524,0.790908 -1.754661,1.064146 -3.059746,1.093826 -5.281445,2.682624 -6.644145,4.75941 -0.103877,0.132691 -0.428626,0.716705 -0.975975,1.763392 -0.28808,0.547349 -0.539493,0.923598 -0.739403,1.123507 -0.273239,0.273238 -0.673057,0.428626 -1.189852,0.458307 -0.805748,0.03666 -1.434283,-0.347441 -1.884734,-1.175012 C 9.521212,27.841239 8.9817191,27.91544 8.5007149,27.885761 7.6949673,27.582841 7.110953,27.257225 6.7460533,26.909784 6.006651,26.170382 5.5335036,25.438836 5.3047864,24.699434 c -0.2217333,-0.739402 -0.3326,-1.530309 -0.3326,-2.379705 0,-1.21255 0.7463859,-2.816188 2.2539981,-4.811788 1.7633912,-2.291536 2.6974649,-4.042706 2.8083315,-5.237797 0,-0.517668 0.05151,-1.101682 0.155388,-1.754661 0.08904,-0.451323 0.266255,-0.8816957 0.539493,-1.3007187 0.192052,-0.288079 0.31776,-0.487988 0.377121,-0.590998 0.06635,-0.110862 0.185069,-0.273238 0.362281,-0.487988 0.125707,-0.177212 0.236573,-0.310776 0.325616,-0.398945 0.08118,-0.09603 0.192052,-0.221734 0.325616,-0.384106 0.155388,-0.185068 0.354425,-0.398944 0.605838,-0.650359 -0.768209,-2.1064668 -1.078985,-4.279279 -0.931454,-6.51145305 2.867693,1.01962425 5.281444,2.62762765 7.228159,4.82662885 0.480131,-1.6333193 1.419442,-2.9567357 2.816188,-3.9615196 1.153187,0.8057476 2.069802,1.8777498 2.749842,3.2002932" />
        <path inkscape:connector-curvature="0" style="fill:url(#0);stroke-width:0.872966" id="path8361" d="m 39.257924,35.063286 c -0.01484,0 0,-0.391962 0.03666,-1.175012 0.04452,-0.790908 0.06635,-1.641176 0.06635,-2.549934 0.01485,-1.803548 0.01485,-3.666457 0,-5.594839 -0.01484,-1.929254 -0.273238,-3.850652 -0.776066,-5.772923 -0.494971,-1.848069 -1.034464,-3.422027 -1.626335,-4.730603 -0.590999,-1.308576 -1.234374,-2.432083 -1.929255,-3.385362 -1.034466,-1.559117 -2.453908,-2.8825327 -4.242616,-3.9615187 -1.788706,-1.086843 -3.6586,-1.795691 -5.609679,-2.128291 0.132691,0.709721 0.192053,1.404602 0.177213,2.084642 -0.02968,0.517669 -0.273238,0.776067 -0.739403,0.776067 -0.532509,0 -0.769083,-0.258398 -0.716705,-0.776067 0.04452,-1.906557 -0.635519,-3.5407496 -2.032264,-4.8929738 -1.093827,1.153188 -1.692682,2.4905718 -1.773867,4.0208808 -0.02968,0.509812 -0.288079,0.731546 -0.78305,0.673058 -0.458308,-0.01485 -0.687024,-0.281096 -0.687024,-0.797892 0,0 0.01484,-0.05937 0.03666,-0.177212 -0.590998,0.192052 -1.21255,0.458308 -1.86291,0.805748 -0.413785,0.288078 -0.754242,0.213876 -1.01264,-0.21475 -0.258398,-0.435609 -0.147532,-0.776067 0.34744,-1.019624 0.620679,-0.31776 1.086843,-0.554334 1.404602,-0.716705 C 16.293678,4.2589367 14.881219,3.2384394 13.29242,2.455389 c 0.17023,2.0104406 0.724562,3.9021573 1.648161,5.6987213 0.243558,0.369265 0.185068,0.701865 -0.177213,0.990817 -0.406802,0.31776 -0.746386,0.273238 -1.019624,-0.147531 -0.09603,-0.147531 -0.243558,-0.406802 -0.428626,-0.783051 -0.302919,0.30292 -0.509813,0.532509 -0.605838,0.672184 -0.103014,0.13269 -0.281096,0.421642 -0.532509,0.86511 -0.251415,0.4504497 -0.435611,0.8205867 -0.554334,1.1086657 -0.125707,0.362281 -0.185069,0.65036 -0.162372,0.881695 0.02182,0.221734 0.04452,0.465291 0.05936,0.746387 -0.132691,0.850268 -0.428626,1.64816 -0.881695,2.402401 -0.458307,0.746386 -1.0344648,1.663001 -1.7441861,2.749844 -0.6800405,1.034464 -1.1977093,1.818388 -1.5591173,2.335184 -0.3622807,0.524652 -0.6355191,1.182868 -0.8205879,1.995599 -0.1326909,0.487989 -0.1326909,1.086843 0,1.781725 0.125707,0.701863 0.4137858,1.249213 0.8424121,1.641175 0.6652001,0.672184 1.308576,0.98296 1.9292547,0.931455 0.1999092,0 0.4731476,-0.08118 0.8127315,-0.243557 0.339584,-0.155389 0.598855,-0.458308 0.790907,-0.908758 0.369265,-0.820589 0.68004,-1.234374 0.931454,-1.234374 0.354424,0 0.554333,0.206893 0.584014,0.605838 0,0.08904 -0.118722,0.451324 -0.34744,1.086843 -0.132691,0.288079 -0.302919,0.590998 -0.517669,0.908757 -0.281094,0.377122 -0.398945,0.532509 -0.369264,0.473149 0.228717,0.827571 0.613695,0.968118 1.145331,0.435609 0.155388,-0.155388 0.339583,-0.458307 0.539493,-0.886933 0.206893,-0.435611 0.524652,-1.019624 0.953279,-1.754661 0.509812,-0.857254 1.049305,-1.545151 1.626336,-2.084644 0.576156,-0.532509 1.086842,-0.968119 1.537292,-1.293736 0.258398,-0.192051 0.576158,-0.406801 0.95328,-0.650359 0.377121,-0.251415 0.881694,-0.502828 1.515468,-0.761227 0.502828,-0.199909 1.064146,-0.45045 1.677841,-0.746385 0.613694,-0.295936 1.160171,-0.672183 1.633319,-1.138348 0.6652,-0.650359 1.175012,-1.448251 1.537293,-2.402403 0.192053,-0.532509 0.258398,-1.189852 0.213876,-1.973775 -0.125706,-0.487988 0.118724,-0.731545 0.739403,-0.731545 0.46529,0 0.724561,0.236573 0.783923,0.716705 0,1.626336 -0.46529,3.11125 -1.389761,4.45649 0.302919,0.923599 0.384104,1.936239 0.236573,3.030066 -0.125707,0.881695 -0.436482,1.825372 -0.916615,2.831028 -0.487987,0.9978 -1.46309,2.114323 -2.934038,3.340841 -2.9934,2.483588 -4.408477,5.040506 -4.242614,7.664641 0,0 1.226517,0 3.688281,0 2.460891,0 4.775123,0 6.940079,0 h 11.8479 M 9.8913495,21.900705 c -0.4216425,0.258398 -0.6721837,0.605839 -0.7612262,1.042322 0.01484,0.473148 -0.2068929,0.731545 -0.6652001,0.776067 -0.5098121,0.05937 -0.769083,-0.155388 -0.7839234,-0.65036 0.059362,-0.953279 0.4801312,-1.707522 1.2788951,-2.268839 0.3771213,-0.302919 0.7245617,-0.281095 1.0423211,0.08118 0.31776,0.391962 0.281095,0.731546 -0.1108661,1.019624 M 16.321616,11.575263 c 0.18507,0.288079 0.258398,0.590998 0.21475,0.908757 -0.140548,0.923599 -0.658216,1.308577 -1.537293,1.168028 -0.258398,-0.04452 -0.465291,-0.13269 -0.628535,-0.258397 -0.05151,0.06635 -0.140548,0.228717 -0.258399,0.473147 -0.155387,0.465292 -0.458306,0.620679 -0.908757,0.480132 -0.443467,-0.177212 -0.620679,-0.502829 -0.517669,-0.975976 0.650359,-1.663001 1.825372,-2.801348 3.526783,-3.4220267 0.494971,-0.147531 0.820587,0 0.975975,0.4286267 0.177212,0.46529 0.04452,0.783923 -0.391962,0.953278 -0.08118,0.04452 -0.16237,0.08904 -0.236573,0.118724 -0.0742,0.03666 -0.147531,0.08118 -0.236574,0.125707" />
      </g>
    </g>
    <path id="rect1790-5-9" style="opacity:0.248;fill:#a9a7a7;fill-opacity:1;stroke:#ffff30;stroke-width:0.0748101;stroke-linecap:square;stroke-miterlimit:4;stroke-dasharray:none;stroke-opacity:1;paint-order:markers stroke fill" d="m 67.850504,220.08863 v 10.27442 10.27515 h 9.475304 9.475304 v -10.27515 -10.27442 h -9.475304 z" />
    <path style="opacity:0.248;fill:url(#linearGradient1979);fill-opacity:1;stroke:#ffff30;stroke-width:0.0423571;stroke-linecap:square;stroke-miterlimit:4;stroke-dasharray:none;stroke-opacity:1;paint-order:markers stroke fill" d="m 63.072247,232.57572 c 0.0051,-6.5352 -0.02557,-12.95075 -0.01741,-14.25684 l 0.0034,-2.61628 4.125147,2.56152 2.822528,1.79829 -2.155387,0.0262 0.04554,2.78563 -0.03899,7.28726 -0.0065,10.47668 2.155386,0.003 c -0.664369,0.49672 -4.026244,2.41007 -6.679329,3.93921 l -0.263734,-0.0155 z" id="path1931" sodipodi:nodetypes="ssccccccccccs" />
    <path style="fill:none;stroke:black;stroke-width:0.264583px;stroke-linecap:butt;stroke-linejoin:miter;stroke-opacity:1;opacity:0.248" d="m 62.951176,244.75982 c 0,0 -0.09328,-29.21107 -0.09328,-29.21107 0,0 29.085264,0.16906 29.085264,0.16906" id="path1921" inkscape:path-effect="#path-effect1923" inkscape:original-d="m 62.951176,244.75982 -0.09328,-29.21107 29.085264,0.16906" />
    <path style="opacity:0.248;fill:url(#linearGradient1955);fill-opacity:1;stroke:#ffff30;stroke-width:0.0423571;stroke-linecap:square;stroke-miterlimit:4;stroke-dasharray:none;stroke-opacity:1;paint-order:markers stroke fill" d="m 63.326562,244.57996 c 0.01269,-0.0171 1.520725,-0.91036 3.351198,-1.98511 l 3.328131,-1.95409 7.233591,-7e-5 7.233591,-6e-5 3.514496,1.94276 3.514497,1.94277 -10.84997,0.0225 c -5.967483,0.0124 -12.312161,0.0315 -14.099285,0.0424 -1.787124,0.0109 -3.238936,0.006 -3.226249,-0.0111 z" id="path1925" />
    <path style="opacity:0.248;fill:url(#linearGradient1963);fill-opacity:1;stroke:#ffff30;stroke-width:0.0423571;stroke-linecap:square;stroke-miterlimit:4;stroke-dasharray:none;stroke-opacity:1;paint-order:markers stroke fill" d="m 84.480131,240.56601 2.320981,0.0722 v -20.54957 l -2.384584,-0.024 4.640508,-2.79074 c 1.637622,-0.98484 2.497023,-1.40105 2.602492,-1.41159 0.06416,-0.006 0.13731,6.6e-4 0.209182,0.008 0.0457,0.005 0.03937,0.10568 0.02159,0.12087 0.02671,-0.10875 0.0046,28.53273 0.0046,28.53273 0.07198,0.73727 -7.769122,-3.96931 -7.41472,-3.95828 z" id="path1927" sodipodi:nodetypes="scccsssccss" />
    <path style="opacity:0.248;fill:url(#linearGradient1971);fill-opacity:1;stroke:#ffff30;stroke-width:0.0423571;stroke-linecap:square;stroke-miterlimit:4;stroke-dasharray:none;stroke-opacity:1;paint-order:markers stroke fill" d="m 66.601145,217.88979 c -1.872609,-1.19495 -3.400833,-2.17393 -3.396052,-2.17553 0.03874,-0.0129 21.992568,0.0749 24.770401,0.0991 l 3.570345,0.0311 -3.564656,2.11009 -3.564655,2.11009 -7.205319,-0.001 -7.205318,-0.001 z" id="path1929" />
  </g>
</svg>
