<?xml version="1.0" encoding="UTF-8" standalone="no"?>
<svg
   clip-rule="evenodd"
   fill-rule="evenodd"
   height="219.97638"
   image-rendering="optimizeQuality"
   shape-rendering="geometricPrecision"
   text-rendering="geometricPrecision"
   viewBox="0 0 50 58.202072"
   width="188.97638"
   version="1.1"
   id="svg11"
   sodipodi:docname="shuuro-icon2.svg"
   inkscape:version="1.1.1 (1:1.1+202109281949+c3084ef5ed)"
   xmlns:inkscape="http://www.inkscape.org/namespaces/inkscape"
   xmlns:sodipodi="http://sodipodi.sourceforge.net/DTD/sodipodi-0.dtd"
   xmlns="http://www.w3.org/2000/svg"
   xmlns:svg="http://www.w3.org/2000/svg">
  <defs
     id="defs15">
    <linearGradient
       id="a-5"
       gradientUnits="userSpaceOnUse"
       x1="21.405001"
       x2="77.640999"
       y1="37.346001"
       y2="37.346001">
      <stop
         offset="0"
         stop-color="#fff"
         id="stop1033" />
      <stop
         offset="1"
         stop-color="#fff"
         stop-opacity="0"
         id="stop1035" />
    </linearGradient>
  </defs>
  <sodipodi:namedview
     id="namedview13"
     pagecolor="#ffffff"
     bordercolor="#666666"
     borderopacity="1.0"
     inkscape:pageshadow="2"
     inkscape:pageopacity="0.0"
     inkscape:pagecheckerboard="0"
     inkscape:document-units="mm"
     showgrid="false"
     units="px"
     inkscape:zoom="2.2939374"
     inkscape:cx="34.438603"
     inkscape:cy="97.212766"
     inkscape:window-width="1920"
     inkscape:window-height="1028"
     inkscape:window-x="0"
     inkscape:window-y="0"
     inkscape:window-maximized="1"
     inkscape:current-layer="svg11" />
  <linearGradient
     id="a"
     gradientUnits="userSpaceOnUse"
     x1="21.253"
     x2="77.640999"
     y1="37.591999"
     y2="37.469002">
    <stop
       offset="0"
       stop-color="#fff"
       id="stop2" />
    <stop
       offset="1"
       stop-color="#fff"
       stop-opacity="0"
       id="stop4" />
  </linearGradient>
  <path
     d="m 24.639454,11.62331 c 1.16419,0.104586 2.235048,0.430391 3.216937,0.982438 0.97839,0.548371 1.808686,1.244814 2.487384,2.085658 0.475704,0.5891 0.918405,1.299006 1.331339,2.125761 a 12.867959,12.867959 0 0 1 0.977509,2.614812 16.379237,16.379237 0 0 1 0.480596,3.359313 c 0.05104,1.167525 0.06284,2.250631 0.03865,3.245354 l -0.0589,2.422682 -13.680836,-0.332642 c -0.06864,-0.0018 -0.09423,-0.184929 -0.08188,-0.544971 0.01297,-0.364961 0.04289,-0.656815 0.09319,-0.879515 0.03126,-0.17784 0.109545,-0.426784 0.227815,-0.750593 0.121851,-0.323724 0.31354,-0.714406 0.586803,-1.174904 0.123774,-0.23662 0.413366,-0.575109 0.868437,-1.019968 0.459112,-0.44476 0.980607,-0.963843 1.576426,-1.549772 0.342425,-0.333619 0.610736,-0.756542 0.81354,-1.272154 0.202258,-0.511585 0.293537,-0.980546 0.273388,-1.406895 A 3.7548744,3.7548744 0 0 1 22.8769,20.053183 c -1.58558,0.523723 -2.74456,1.312256 -3.473268,2.362101 -0.05458,0.06734 -0.228719,0.363307 -0.522924,0.891503 -0.154835,0.277598 -0.288708,0.468198 -0.393895,0.567954 -0.143798,0.137409 -0.350683,0.211807 -0.617001,0.220589 -0.414414,0.0092 -0.73251,-0.19641 -0.954037,-0.627205 -0.313013,0.08348 -0.591546,0.114858 -0.837841,0.09361 -0.410159,-0.165684 -0.706124,-0.34026 -0.887464,-0.522822 -0.370627,-0.389098 -0.604564,-0.770834 -0.71283,-1.153551 a 4.2304021,4.2304021 0 0 1 -0.141142,-1.226707 c 0.01515,-0.622937 0.418627,-1.437468 1.218076,-2.443858 0.932309,-1.155285 1.436299,-2.04321 1.508218,-2.657137 0.0065,-0.265947 0.04065,-0.564878 0.101718,-0.898155 a 1.883269,1.883269 0 0 1 0.293407,-0.661495 c 0.102271,-0.145598 0.169331,-0.246281 0.201125,-0.298909 0.03548,-0.05613 0.0985,-0.138062 0.192215,-0.246175 0.0668,-0.08947 0.12496,-0.156263 0.171816,-0.200896 0.04292,-0.04833 0.101436,-0.11152 0.172081,-0.193263 0.08214,-0.09314 0.187067,-0.200527 0.319369,-0.326551 A 8.1019151,8.1019151 0 0 1 18.117332,9.3749309 c 1.460503,0.560093 2.682211,1.4181791 3.6531,2.5703771 0.267525,-0.833544 0.76616,-1.501267 1.496288,-2.0004661 0.582374,0.4283491 1.039897,0.9900821 1.372731,1.6784711 z"
     fill="#1f1a17"
     id="path1038"
     style="stroke-width:1" />
  <path
     d="m 31.788087,27.636877 c -0.0076,-1.87e-4 0.0048,-0.201367 0.03353,-0.603194 0.03277,-0.405765 0.05459,-0.842311 0.06594,-1.309176 0.03018,-0.926372 0.05346,-1.883424 0.06989,-2.874745 a 12.039374,12.039374 0 0 0 -0.326593,-2.975036 c -0.231202,-0.95561 -0.488703,-1.770957 -0.775977,-2.450608 -0.287733,-0.679214 -0.60378,-1.264432 -0.948848,-1.7633 -0.511973,-0.813903 -1.224668,-1.511528 -2.130122,-2.088189 -0.905368,-0.580251 -1.856694,-0.968211 -2.855337,-1.163465 0.0593,0.366272 0.08112,0.724002 0.06501,1.07273 -0.02171,0.265579 -0.150077,0.395733 -0.389566,0.38991 -0.273572,-0.0066 -0.391423,-0.142791 -0.358049,-0.408088 0.04623,-0.97893 -0.282722,-1.826529 -0.983846,-2.53868 -0.575888,0.578338 -0.900262,1.258377 -0.961076,2.043097 -0.02162,0.26199 -0.157145,0.372674 -0.411128,0.335536 -0.235276,-0.01296 -0.349464,-0.152095 -0.342987,-0.418491 0,0 0.0083,-0.02985 0.02106,-0.09058 -0.30602,0.09129 -0.628214,0.220315 -0.96667,0.390684 -0.216178,0.142832 -0.390167,0.100908 -0.517564,-0.122525 -0.127745,-0.227478 -0.06653,-0.400998 0.191241,-0.519931 0.322391,-0.155505 0.564832,-0.271218 0.730107,-0.350667 a 7.9108067,7.9108067 0 0 0 -2.141199,-1.632537 7.765457,7.765457 0 0 0 0.775991,2.948267 c 0.120506,0.192749 0.08586,0.362877 -0.103857,0.506351 -0.212512,0.158174 -0.386863,0.131051 -0.521969,-0.08898 a 3.97918,3.97918 0 0 1 -0.210436,-0.407638 c -0.159406,0.151841 -0.268564,0.267205 -0.319642,0.337761 -0.05505,0.06732 -0.149675,0.213105 -0.284379,0.437791 -0.134797,0.228722 -0.234487,0.416117 -0.298631,0.562642 -0.06911,0.18455 -0.103211,0.331806 -0.09441,0.450037 0.0085,0.114188 0.01664,0.239585 0.02064,0.384186 a 3.4139301,3.4139301 0 0 1 -0.481627,1.223231 59.983782,59.983782 0 0 1 -0.930408,1.390922 57.245908,57.245908 0 0 1 -0.830601,1.180193 c -0.192672,0.26501 -0.341258,0.599299 -0.446498,1.01497 -0.07427,0.249045 -0.08173,0.556252 -0.02224,0.914898 0.05581,0.362594 0.197423,0.646951 0.412731,0.853671 0.333344,0.353638 0.659544,0.521323 0.979502,0.502627 0.102247,0.0025 0.243641,-0.03581 0.420138,-0.115434 0.176847,-0.07558 0.31383,-0.227961 0.418122,-0.456976 0.199956,-0.416958 0.364783,-0.625654 0.493947,-0.622515 0.18208,0.0045 0.282197,0.113212 0.292014,0.318529 -0.0011,0.04574 -0.06618,0.230392 -0.191622,0.554028 -0.07223,0.146328 -0.163452,0.299825 -0.277299,0.460398 -0.14912,0.190232 -0.211606,0.268589 -0.195617,0.238463 0.10716,0.428015 0.302727,0.505468 0.58295,0.238546 0.08177,-0.0779 0.180632,-0.231197 0.28824,-0.448913 0.111743,-0.221655 0.282282,-0.517719 0.511624,-0.888189 0.272618,-0.434039 0.558372,-0.780702 0.861555,-1.050653 0.302648,-0.266373 0.57,-0.483797 0.805471,-0.645004 0.135598,-0.09542 0.301525,-0.201783 0.49831,-0.322199 0.196885,-0.124445 0.45835,-0.24733 0.788069,-0.372141 0.26082,-0.09642 0.552334,-0.218573 0.871311,-0.36294 0.318976,-0.144369 0.604424,-0.330836 0.852863,-0.563976 0.350314,-0.325797 0.622202,-0.729787 0.820229,-1.214998 0.105315,-0.271174 0.147612,-0.60805 0.13452,-1.01089 -0.05847,-0.252721 0.07014,-0.374791 0.389009,-0.367038 0.23904,0.0059 0.369282,0.130588 0.393783,0.377993 -0.02032,0.835516 -0.278363,1.593003 -0.769654,2.272572 0.144077,0.478274 0.173146,0.999522 0.08321,1.559614 -0.07512,0.450507 -0.246594,0.932327 -0.506266,1.442966 -0.262714,0.506526 -0.77805,1.06749 -1.548621,1.679689 -1.569303,1.238516 -2.325984,2.534488 -2.275345,3.884641 l 5.460225,0.132763 z m -14.921479,-7.12986 c -0.219853,0.127935 -0.352906,0.303296 -0.404094,0.525974 0.0018,0.243262 -0.115434,0.373689 -0.351444,0.390838 -0.262645,0.02365 -0.39272,-0.08943 -0.394599,-0.344357 0.0424,-0.488999 0.267981,-0.870779 0.68536,-1.149623 0.197527,-0.15091 0.375749,-0.135356 0.53447,0.05473 0.15835,0.205337 0.135273,0.379336 -0.0697,0.522888 z m 3.43246,-5.223833 c 0.09148,0.150309 0.12536,0.306848 0.09852,0.469538 -0.0833,0.472746 -0.354052,0.664058 -0.803913,0.580874 a 0.71598322,0.71598322 0 0 1 -0.319676,-0.140602 c -0.02775,0.03344 -0.07505,0.115751 -0.139098,0.239388 -0.08565,0.237547 -0.243215,0.313592 -0.472863,0.235312 -0.225625,-0.09612 -0.312598,-0.265629 -0.253767,-0.507417 0.354888,-0.846228 0.972762,-1.416366 1.85415,-1.713993 0.25614,-0.07006 0.421569,0.01023 0.495597,0.232384 0.08566,0.241711 0.01306,0.403291 -0.212827,0.484853 a 1.2314374,1.2314374 0 0 1 -0.12302,0.05803 c -0.03857,0.01792 -0.07725,0.03985 -0.123111,0.06162 z"
     fill="url(#a)"
     id="path1040"
     style="fill:url(#a-5);stroke-width:1" />
</svg>
