<?xml version="1.0" encoding="UTF-8" standalone="no"?>
<svg
   clip-rule="evenodd"
   fill-rule="evenodd"
   height="219.97638"
   image-rendering="optimizeQuality"
   shape-rendering="geometricPrecision"
   text-rendering="geometricPrecision"
   viewBox="0 0 50 58.202072"
   width="188.97638"
   version="1.1"
   id="svg11"
   sodipodi:docname="shuuro-icon0.svg"
   inkscape:version="1.1.1 (1:1.1+202109281949+c3084ef5ed)"
   xmlns:inkscape="http://www.inkscape.org/namespaces/inkscape"
   xmlns:sodipodi="http://sodipodi.sourceforge.net/DTD/sodipodi-0.dtd"
   xmlns="http://www.w3.org/2000/svg"
   xmlns:svg="http://www.w3.org/2000/svg">
  <defs
     id="defs15">
    <inkscape:perspective
       sodipodi:type="inkscape:persp3d"
       inkscape:vp_x="1.1142331 : 34.055468 : 1"
       inkscape:vp_y="0 : 1000 : 0"
       inkscape:vp_z="49.883295 : 34.149308 : 1"
       inkscape:persp3d-origin="26.521867 : 37.263218 : 1"
       id="perspective2794" />
    <linearGradient
       id="a-5"
       gradientUnits="userSpaceOnUse"
       x1="21.405001"
       x2="77.640999"
       y1="37.346001"
       y2="37.346001">
      <stop
         offset="0"
         stop-color="#fff"
         id="stop1033" />
      <stop
         offset="1"
         stop-color="#fff"
         stop-opacity="0"
         id="stop1035" />
    </linearGradient>
  </defs>
  <sodipodi:namedview
     id="namedview13"
     pagecolor="#ffffff"
     bordercolor="#666666"
     borderopacity="1.0"
     inkscape:pageshadow="2"
     inkscape:pageopacity="0.0"
     inkscape:pagecheckerboard="0"
     inkscape:document-units="mm"
     showgrid="false"
     units="px"
     inkscape:zoom="2.2939374"
     inkscape:cx="34.438603"
     inkscape:cy="97.212766"
     inkscape:window-width="1920"
     inkscape:window-height="1028"
     inkscape:window-x="0"
     inkscape:window-y="0"
     inkscape:window-maximized="1"
     inkscape:current-layer="svg11" />
  <linearGradient
     id="a"
     gradientUnits="userSpaceOnUse"
     x1="21.253"
     x2="77.640999"
     y1="37.591999"
     y2="37.469002">
    <stop
       offset="0"
       stop-color="#fff"
       id="stop2" />
    <stop
       offset="1"
       stop-color="#fff"
       stop-opacity="0"
       id="stop4" />
  </linearGradient>
  <g
     sodipodi:type="inkscape:box3d"
     id="g2796"
     style="fill:#4a5c52;stroke:#540000;stroke-width:2.13543;stroke-linejoin:round;stroke-opacity:0.452214;paint-order:markers stroke fill;fill-opacity:1"
     inkscape:perspectiveID="#perspective2794"
     inkscape:corner0="1.2084556 : -0.01191434 : 0 : 1"
     inkscape:corner7="0.16457205 : -0.029116354 : 1.4273205 : 1">
    <path
       sodipodi:type="inkscape:box3dside"
       id="path2808"
       style="fill:#4a5c52;fill-rule:evenodd;stroke:none;stroke-linejoin:round;fill-opacity:1"
       inkscape:box3dsidetype="11"
       d="m 27.248053,26.504469 10.525384,0.949627 v 6.636856 L 27.248053,31.235788 Z"
       points="37.773437,27.454096 37.773437,34.090952 27.248053,31.235788 27.248053,26.504469 " />
    <path
       sodipodi:type="inkscape:box3dside"
       id="path2798"
       style="fill:#4a5c52;fill-rule:evenodd;stroke:none;stroke-linejoin:round;fill-opacity:1"
       inkscape:box3dsidetype="6"
       d="M 12.61894,28.088998 V 35.87816 L 27.248053,31.235788 V 26.504469 Z"
       points="12.61894,35.87816 27.248053,31.235788 27.248053,26.504469 12.61894,28.088998 " />
    <path
       sodipodi:type="inkscape:box3dside"
       id="path2806"
       style="fill:#4a5c52;fill-rule:evenodd;stroke:none;stroke-linejoin:round;fill-opacity:1"
       inkscape:box3dsidetype="13"
       d="M 12.61894,35.87816 22.931375,46.393931 37.773437,34.090952 27.248053,31.235788 Z"
       points="22.931375,46.393931 37.773437,34.090952 27.248053,31.235788 12.61894,35.87816 " />
    <path
       sodipodi:type="inkscape:box3dside"
       id="path2800"
       style="fill:#4a5c52;fill-rule:evenodd;stroke:none;stroke-linejoin:round;fill-opacity:1"
       inkscape:box3dsidetype="5"
       d="M 12.61894,28.088998 22.931375,31.622824 37.773437,27.454096 27.248053,26.504469 Z"
       points="22.931375,31.622824 37.773437,27.454096 27.248053,26.504469 12.61894,28.088998 " />
    <path
       sodipodi:type="inkscape:box3dside"
       id="path2804"
       style="fill:#4a5c52;fill-rule:evenodd;stroke:none;stroke-linejoin:round;fill-opacity:1"
       inkscape:box3dsidetype="14"
       d="M 22.931375,31.622824 V 46.393931 L 37.773437,34.090952 v -6.636856 z"
       points="22.931375,46.393931 37.773437,34.090952 37.773437,27.454096 22.931375,31.622824 " />
    <path
       sodipodi:type="inkscape:box3dside"
       id="path2802"
       style="fill:#4a5c52;fill-rule:evenodd;stroke:none;stroke-linejoin:round;fill-opacity:1"
       inkscape:box3dsidetype="3"
       d="m 12.61894,28.088998 10.312435,3.533826 V 46.393931 L 12.61894,35.87816 Z"
       points="22.931375,31.622824 22.931375,46.393931 12.61894,35.87816 12.61894,28.088998 " />
  </g>
  <path
     d="m 24.639454,11.62331 c 1.16419,0.104586 2.235048,0.430391 3.216937,0.982438 0.97839,0.548371 1.808686,1.244814 2.487384,2.085658 0.475704,0.5891 0.918405,1.299006 1.331339,2.125761 a 12.867959,12.867959 0 0 1 0.977509,2.614812 16.379237,16.379237 0 0 1 0.480596,3.359313 c 0.05104,1.167525 0.06284,2.250631 0.03865,3.245354 l -0.0589,2.422682 -13.680836,-0.332642 c -0.06864,-0.0018 -0.09423,-0.184929 -0.08188,-0.544971 0.01297,-0.364961 0.04289,-0.656815 0.09319,-0.879515 0.03126,-0.17784 0.109545,-0.426784 0.227815,-0.750593 0.121851,-0.323724 0.31354,-0.714406 0.586803,-1.174904 0.123774,-0.23662 0.413366,-0.575109 0.868437,-1.019968 0.459112,-0.44476 0.980607,-0.963843 1.576426,-1.549772 0.342425,-0.333619 0.610736,-0.756542 0.81354,-1.272154 0.202258,-0.511585 0.293537,-0.980546 0.273388,-1.406895 A 3.7548744,3.7548744 0 0 1 22.8769,20.053183 c -1.58558,0.523723 -2.74456,1.312256 -3.473268,2.362101 -0.05458,0.06734 -0.228719,0.363307 -0.522924,0.891503 -0.154835,0.277598 -0.288708,0.468198 -0.393895,0.567954 -0.143798,0.137409 -0.350683,0.211807 -0.617001,0.220589 -0.414414,0.0092 -0.73251,-0.19641 -0.954037,-0.627205 -0.313013,0.08348 -0.591546,0.114858 -0.837841,0.09361 -0.410159,-0.165684 -0.706124,-0.34026 -0.887464,-0.522822 -0.370627,-0.389098 -0.604564,-0.770834 -0.71283,-1.153551 a 4.2304021,4.2304021 0 0 1 -0.141142,-1.226707 c 0.01515,-0.622937 0.418627,-1.437468 1.218076,-2.443858 0.932309,-1.155285 1.436299,-2.04321 1.508218,-2.657137 0.0065,-0.265947 0.04065,-0.564878 0.101718,-0.898155 a 1.883269,1.883269 0 0 1 0.293407,-0.661495 c 0.102271,-0.145598 0.169331,-0.246281 0.201125,-0.298909 0.03548,-0.05613 0.0985,-0.138062 0.192215,-0.246175 0.0668,-0.08947 0.12496,-0.156263 0.171816,-0.200896 0.04292,-0.04833 0.101436,-0.11152 0.172081,-0.193263 0.08214,-0.09314 0.187067,-0.200527 0.319369,-0.326551 A 8.1019151,8.1019151 0 0 1 18.117332,9.3749309 c 1.460503,0.560093 2.682211,1.4181791 3.6531,2.5703771 0.267525,-0.833544 0.76616,-1.501267 1.496288,-2.0004661 0.582374,0.4283491 1.039897,0.9900821 1.372731,1.6784711 z"
     fill="#1f1a17"
     id="path1038"
     style="stroke-width:1" />
</svg>
