<svg xmlns="http://www.w3.org/2000/svg" width="188.976" height="219.976" fill-rule="evenodd" clip-rule="evenodd" image-rendering="optimizeQuality" shape-rendering="geometricPrecision" text-rendering="geometricPrecision" viewBox="0 0 50 58.202"><g stroke="none" style="fill:#4a5c52;stroke:#540000;stroke-width:2.13543;stroke-linejoin:round;stroke-opacity:.452214;paint-order:markers stroke fill;fill-opacity:1"><path d="m27.248 26.504 10.525.95v6.637l-10.525-2.855Z" style="fill:#4a5c52;fill-rule:evenodd;stroke:none;stroke-linejoin:round;fill-opacity:1"/><path d="M12.619 28.089v7.79l14.63-4.643v-4.732Z" style="fill:#4a5c52;fill-rule:evenodd;stroke:none;stroke-linejoin:round;fill-opacity:1"/><path d="M12.619 35.878 22.93 46.394 37.773 34.09l-10.525-2.855Zm0-7.789 10.312 3.534 14.842-4.169-10.525-.95Z" style="fill:#4a5c52;fill-rule:evenodd;stroke:none;stroke-linejoin:round;fill-opacity:1"/><path d="M22.931 31.623v14.77l14.842-12.302v-6.637zm-10.312-3.534 10.312 3.534v14.77L12.62 35.879Z" style="fill:#4a5c52;fill-rule:evenodd;stroke:none;stroke-linejoin:round;fill-opacity:1"/></g><path fill="#1f1a17" d="M24.64 11.623a7.927 7.927 0 0 1 3.216.983 8.507 8.507 0 0 1 2.488 2.085c.475.59.918 1.3 1.331 2.126a12.868 12.868 0 0 1 .978 2.615 16.38 16.38 0 0 1 .48 3.36c.051 1.167.063 2.25.039 3.245l-.059 2.422-13.68-.332c-.07-.002-.095-.185-.083-.545.013-.365.043-.657.093-.88a4.99 4.99 0 0 1 .228-.75c.122-.324.314-.715.587-1.175.124-.237.413-.575.868-1.02.46-.445.981-.964 1.577-1.55.342-.334.61-.757.813-1.272.203-.512.294-.98.274-1.407a3.755 3.755 0 0 1-.913.525c-1.586.524-2.745 1.312-3.473 2.362-.055.068-.23.364-.523.892-.155.277-.289.468-.394.568-.144.137-.35.212-.617.22-.415.01-.733-.196-.954-.627a2.457 2.457 0 0 1-.838.094c-.41-.166-.706-.34-.888-.523-.37-.39-.604-.77-.712-1.154a4.23 4.23 0 0 1-.142-1.226c.016-.623.42-1.438 1.219-2.444.932-1.155 1.436-2.043 1.508-2.657.006-.266.04-.565.102-.898a1.883 1.883 0 0 1 .293-.662c.102-.146.17-.246.201-.299.036-.056.099-.138.192-.246.067-.09.125-.156.172-.201.043-.048.102-.111.172-.193.082-.093.187-.2.32-.327a8.102 8.102 0 0 1-.398-3.357c1.46.56 2.683 1.418 3.653 2.57a3.752 3.752 0 0 1 1.497-2 4.44 4.44 0 0 1 1.372 1.678z" style="stroke-width:1"/></svg>