<svg xmlns="http://www.w3.org/2000/svg" xmlns:xlink="http://www.w3.org/1999/xlink" width="50mm" height="50mm" fill-rule="evenodd" clip-rule="evenodd" image-rendering="optimizeQuality" shape-rendering="geometricPrecision" text-rendering="geometricPrecision" viewBox="0 0 50 50"><defs><filter id="c" width="1.162" height="1.068" x="-.081" y="-.034" color-interpolation-filters="sRGB"><feGaussianBlur stdDeviation=".407"/></filter><filter id="d" width="1.339" height="1.239" x="-.169" y="-.12" style="color-interpolation-filters:sRGB"><feGaussianBlur stdDeviation=".617"/></filter><filter id="g" width="1.22" height="1.444" x="-.11" y="-.222" style="color-interpolation-filters:sRGB"><feGaussianBlur stdDeviation=".417"/></filter><filter id="h" width="1.286" height="1.583" x="-.143" y="-.292" style="color-interpolation-filters:sRGB"><feGaussianBlur stdDeviation=".346"/></filter><filter id="i" width="1.43" height="1.346" x="-.215" y="-.173" style="color-interpolation-filters:sRGB"><feGaussianBlur stdDeviation=".27"/></filter><filter id="k" width="1.128" height="1.077" x="-.064" y="-.038" color-interpolation-filters="sRGB"><feGaussianBlur stdDeviation=".57"/></filter><filter id="m" width="1.216" height="1.115" x="-.108" y="-.057" style="color-interpolation-filters:sRGB"><feGaussianBlur stdDeviation=".527"/></filter><filter id="n" width="1.307" height="1.167" x="-.153" y="-.083" style="color-interpolation-filters:sRGB"><feGaussianBlur stdDeviation=".612"/></filter><filter id="o" width="1.469" height="1.834" x="-.234" y="-.417" color-interpolation-filters="sRGB"><feGaussianBlur stdDeviation=".299"/></filter><filter id="p" width="1.461" height="1.329" x="-.231" y="-.164" style="color-interpolation-filters:sRGB"><feGaussianBlur stdDeviation=".312"/></filter><filter id="q" width="1.238" height="1.197" x="-.119" y="-.099" color-interpolation-filters="sRGB"><feGaussianBlur stdDeviation=".467"/></filter><filter id="r" width="1.358" height="1.414" x="-.179" y="-.207" style="color-interpolation-filters:sRGB"><feGaussianBlur stdDeviation=".292"/></filter><filter id="s" width="1.641" height="1.823" x="-.321" y="-.411" color-interpolation-filters="sRGB"><feGaussianBlur stdDeviation="1.013"/></filter><filter id="t" width="1.479" height="1.139" x="-.239" y="-.07" color-interpolation-filters="sRGB"><feGaussianBlur stdDeviation=".279"/></filter><linearGradient xlink:href="#a" id="b" x1="14.558" x2="30.297" y1="25.93" y2="29.004" gradientTransform="matrix(1.0739 0 0 1.0269 -2.26 -.38)" gradientUnits="userSpaceOnUse"/><linearGradient id="a" x1="9.241" x2="40.761" y1="27.266" y2="27.266" gradientTransform="matrix(1.0155 0 0 1.0103 -.389 .482)" gradientUnits="userSpaceOnUse"><stop offset="0" stop-color="#635f5e" style="stop-color:#737373"/><stop offset="1" stop-color="#131111" style="stop-color:#303030"/></linearGradient><linearGradient xlink:href="#a" id="e" x1="5.612" x2="25.919" y1="42.295" y2="42.295" gradientTransform="matrix(1.0856 0 0 .94062 -2.555 2.942)" gradientUnits="userSpaceOnUse"/><linearGradient xlink:href="#a" id="f" x1="24.848" x2="45.155" y1="42.295" y2="42.295" gradientTransform="matrix(1.0856 0 0 .94062 -2.555 2.942)" gradientUnits="userSpaceOnUse"/><linearGradient xlink:href="#a" id="j" x1="-736.5" x2="-696.5" y1="-367.96" y2="-367.96" gradientTransform="matrix(.6023 0 0 .59996 455.628 242.103)" gradientUnits="userSpaceOnUse"/><linearGradient xlink:href="#a" id="l" x1="-116.32" x2="-77.199" y1="299.9" y2="299.9" gradientTransform="matrix(.65041 0 0 .63758 86.574 -180.17)" gradientUnits="userSpaceOnUse"/></defs><path fill="url(#linearGradient2770-4)" d="m31.016 32.267.205-2.062c-1.345 1.13-.087-3.123-2.39-2.744l-.652-.127c2.367 7.221-.807-1.382-.87-.858l-2.762 2.201-2.668.994-3.203 2.585-1.543 4.867c-.03.386 3.095 2.034 7.713 2.034s7.745-1.648 7.714-2.034z" style="clip-rule:evenodd;fill:url(#b);fill-rule:evenodd;stroke:#000;stroke-linecap:round;shape-rendering:geometricPrecision"/><path d="M-549.75-422.16c3.412 1.813.501 4.931-1.526 5.206.462.197.978.31 1.526.31 5.528-1.76 1.318-5.644 0-5.516zm-.688 5.518c3.092 4.115 5.848 8.46 8.724 12.71l-4.806 5.199 1.09 4.422 3 .863-1.354-4.67 4.573-5.815-9.86-12.698h-.678v-.01z" filter="url(#filter1616-8-6)" opacity=".25" style="clip-rule:evenodd;opacity:.2;mix-blend-mode:normal;fill-rule:evenodd;filter:url(#c);shape-rendering:geometricPrecision" transform="matrix(.81215 0 0 .65936 470.762 296.83)"/><path d="M26.073 35.618c-3.087.012-6.397.504-8.369 1.768 2.182 1.501 5.798 1.826 8.885 1.77-7.14-1.445 2.03-2.966 4.844-3.001-1.522-.368-3.71-.544-5.36-.537z" opacity=".2" style="clip-rule:evenodd;fill-rule:evenodd;opacity:.15;shape-rendering:geometricPrecision"/><path fill="none" stroke="#000" d="M17.134 37.123s1.925-1.566 7.714-1.566 7.713 1.566 7.713 1.566" style="clip-rule:evenodd;fill-rule:evenodd;shape-rendering:geometricPrecision"/><path fill="none" stroke="#000" stroke-width="1.07" d="M18.58 31.759s1.994-1.093 6.61-1.093c4.614 0 6.608 1.093 6.608 1.093" style="clip-rule:evenodd;fill-rule:evenodd;shape-rendering:geometricPrecision"/><path fill="#fff" d="M18.56 23.495s-1.244-.265-1.246-.273l-1.846 1.9 8.745-11.243-8.075 12.385z" opacity=".9" style="clip-rule:evenodd;opacity:.3;fill-rule:evenodd;filter:url(#d);image-rendering:optimizeQuality;shape-rendering:geometricPrecision" transform="translate(-1.168 -2.75) scale(1.07021)"/><path d="M25 39.156c-5.617 0-7.296-1.77-7.296-1.77s1.679-1.77 7.296-1.77 7.296 1.77 7.296 1.77-1.679 1.77-7.296 1.77z" opacity=".2" style="clip-rule:evenodd;fill-rule:evenodd;opacity:.2;shape-rendering:geometricPrecision"/><path fill="url(#linearGradient2774-8)" stroke-linecap="round" d="M22.65 39.156c-5.193 6.258-11.79-2.915-18.533 3.487l1.968 3.653C10.483 40.624 25 51.51 25 39.156z" style="clip-rule:evenodd;fill-rule:evenodd;fill:url(#e);shape-rendering:geometricPrecision;stroke-linejoin:round;stroke:#000"/><path fill="url(#linearGradient2776-7)" stroke-linecap="round" d="M27.35 39.156c5.193 6.258 11.79-2.915 18.532 3.487l-1.968 3.653C39.516 40.624 25 51.51 25 39.156z" style="clip-rule:evenodd;fill-rule:evenodd;fill:url(#f);shape-rendering:geometricPrecision;stroke-linejoin:round;stroke:#000"/><path d="m4.834 42.735 1.403 2.59-.346-2.333c3.12-2.388 5.958-1.62 8.041-1.599 0 0-5.852-1.955-9.098 1.342z" style="clip-rule:evenodd;fill-rule:evenodd;fill:#fff;filter:url(#g);image-rendering:optimizeQuality;opacity:.3;shape-rendering:geometricPrecision"/><path d="m45.242 42.769-.49.889c-1.905-2.325-3.739-2.756-5.319-2.76 0 0 3.018-.718 5.809 1.871z" style="clip-rule:evenodd;fill-rule:evenodd;fill:#fff;filter:url(#h);image-rendering:optimizeQuality;opacity:.2;shape-rendering:geometricPrecision"/><path fill="#fff" d="m603.76-67.566 1.05-3.309s.37-.256 1.454-.433c0 0-.745 2.224.508 3.042-2.154.336-2.536.554-3.012.7z" filter="url(#filter1624-3)" opacity=".7" style="filter:url(#i);opacity:.1" transform="matrix(1.0007 0 0 .98931 -586.04 102.79)"/><path fill="url(#linearGradient2766-9)" stroke="#000" stroke-dashoffset="1.852" stroke-linecap="round" d="M15.746 26.813c1.74 1.45 2.505-.423 3.12-1.84.841-2.38 4.293-1.099 5.26-4.092 1.704 6.677-5.942 5.056-5.58 12.204h17.097C36.795 19.77 32.63 10.545 20.01 11.83c-1.255-1.311-3.007-2.144-3.007-2.144-.68 1.256-.61 2.841.401 3.447.265.242-2.124 1.252-1.804 4.753 0 0-1.923 3.203-3.045 5.308-.817 1.645.647 3.773 2.732 3.969" style="clip-rule:evenodd;fill:url(#j);fill-rule:evenodd;stroke-width:.602333;shape-rendering:geometricPrecision"/><path d="m19.47 15.495-.03.003c-1.733.282-1.974 1.919-1.974 1.919a.324.324 0 0 0 .635.129s.101-1.192 1.444-1.41a.323.323 0 0 0-.074-.641z" color="#000" style="font-variant-ligatures:normal;font-variant-position:normal;font-variant-caps:normal;font-variant-numeric:normal;font-variant-alternates:normal;font-variant-east-asian:normal;font-feature-settings:normal;font-variation-settings:normal;text-indent:0;text-decoration-line:none;text-decoration-style:solid;text-decoration-color:#000;text-transform:none;text-orientation:mixed;white-space:normal;shape-padding:0;shape-margin:0;inline-size:0;clip-rule:evenodd;isolation:auto;mix-blend-mode:normal;fill-rule:evenodd;stroke-width:.588877;shape-rendering:geometricPrecision"/><path d="M19.377 16.816a.658.71 69.395 0 1-.555.805.658.71 69.395 0 1-.825-.486.658.71 69.395 0 1 .555-.805.658.71 69.395 0 1 .825.486z" style="clip-rule:evenodd;fill-rule:evenodd;stroke-width:.588877;paint-order:markers fill stroke;shape-rendering:geometricPrecision"/><path d="M14.5 22.927a.324.324 0 0 0-.225.095 1.83 1.83 0 0 0-.46.69c-.064.19-.054.363-.054.363a.324.324 0 0 0 .351.292c.179-.016.421-.146.405-.324 0 0-.008 0 .024-.095s.108-.248.302-.442c.127-.126.016-.358-.11-.484a.325.325 0 0 0-.232-.094z" color="#000" style="font-variant-ligatures:normal;font-variant-position:normal;font-variant-caps:normal;font-variant-numeric:normal;font-variant-alternates:normal;font-variant-east-asian:normal;font-feature-settings:normal;font-variation-settings:normal;text-indent:0;text-decoration-line:none;text-decoration-style:solid;text-decoration-color:#000;text-transform:none;text-orientation:mixed;white-space:normal;shape-padding:0;shape-margin:0;inline-size:0;clip-rule:evenodd;isolation:auto;mix-blend-mode:normal;fill-rule:evenodd;stroke-width:.588877;shape-rendering:geometricPrecision"/><path d="M-718.42-382.86c17.099.645 19.298 14.991 17.595 34.473h3.526c1.754-20.341-3.914-34.957-21.01-35.602z" filter="url(#filter1572-7-1)" opacity=".25" style="clip-rule:evenodd;opacity:.2;fill-rule:evenodd;filter:url(#k);shape-rendering:geometricPrecision" transform="matrix(.58885 0 0 .58656 445.718 236.902)"/><path fill="url(#linearGradient2768-3)" stroke="#000" stroke-linecap="round" d="M19.821 12.58s.384-2.439 2.297-2.854c0 0 1.224.639.98 3.515" style="clip-rule:evenodd;fill:url(#l);fill-rule:evenodd;stroke-width:.588877;paint-order:markers fill stroke;shape-rendering:geometricPrecision"/><path fill="none" stroke="#000" stroke-linecap="round" d="M16.73 25.174c-.18.31-.854 1.029-1.516 1.59" style="clip-rule:evenodd;fill-rule:evenodd;stroke-width:.588877;shape-rendering:geometricPrecision"/><path d="m9.013 16.612 4.194-7.324 1.172-1.892S13.582 2.98 17.098.015c0 0 .555-.614.003-1.106-.553-.492-1.936-2.129-.753-4.336-.077-.022.274 4.806 4.353 4.864-3.919 1.249-6.11 4.989-5.15 8.582-.736 1.173-1.458 2.08-2.375 3.208-.82 1.009-1.796 2.195-3.077 3.907-.34.453-.701.944-1.086 1.477z" style="clip-rule:evenodd;opacity:.3;mix-blend-mode:normal;fill:#fff;fill-rule:evenodd;filter:url(#m);image-rendering:optimizeQuality;shape-rendering:geometricPrecision" transform="translate(7.432 13.422) scale(.58888)"/><path d="M19.342 31.868c-.743-9.435 10.084-8.795 9.439-17.61 1.103 10.97-7.884 9.129-9.439 17.61z" style="clip-rule:evenodd;opacity:.2;fill:#fff;fill-rule:evenodd;filter:url(#n);image-rendering:optimizeQuality;shape-rendering:geometricPrecision" transform="translate(7.432 13.422) scale(.58888)"/><path d="M-733.97-364.25c-.015.573 1.587-1.887 3.06-.439-.597-1.43-2.217-1.902-3.06.439z" filter="url(#filter3022-9)" style="clip-rule:evenodd;opacity:.2;fill:#fff;fill-rule:evenodd;filter:url(#o);image-rendering:optimizeQuality;shape-rendering:geometricPrecision" transform="matrix(.58885 0 0 .58656 445.718 236.902)"/><path d="M21.612-1.23s.58-3.7 3.249-4.46c-1.554 1.972-1.745 5.154-3.249 4.46z" style="clip-rule:evenodd;opacity:.2;fill:#fff;fill-rule:evenodd;filter:url(#p);image-rendering:optimizeQuality;shape-rendering:geometricPrecision" transform="translate(7.432 13.422) scale(.58888)"/><path d="M-716.03-369.64c.405-1.184.326-3.052-.03-3.612-2.96 8.671-8.246 5.492-9.102 11.347 1.64-3.708 7.813-2.42 9.132-7.735z" filter="url(#filter1433-2-4-3)" opacity=".25" style="clip-rule:evenodd;opacity:.2;fill-rule:evenodd;filter:url(#q);image-rendering:optimizeQuality;shape-rendering:geometricPrecision" transform="matrix(.58885 0 0 .58656 445.718 236.902)"/><path d="M-723.87-377.47c-3.217.615-3.405 3.277-3.405 3.277s-.499.21-.49-.328c-.231-.688 1.215-3.475 3.895-2.949z" filter="url(#filter1676-3-7)" opacity=".2" style="clip-rule:evenodd;opacity:.2;fill:#fff;fill-rule:evenodd;filter:url(#r);image-rendering:optimizeQuality;shape-rendering:geometricPrecision" transform="matrix(.58885 0 0 .58656 445.718 236.902)"/><path fill="#fff" d="M-723.63-356.13c-6.532-.827-7.581 5.84-7.581 5.84 1.11-2.066 4.294-4.784 7.581-5.84z" filter="url(#filter1866-4-7)" style="clip-rule:evenodd;opacity:.1;fill-rule:evenodd;filter:url(#s);image-rendering:optimizeQuality;shape-rendering:geometricPrecision" transform="matrix(.45053 0 0 .54257 348.554 211.327)"/><path fill="none" stroke="#000" stroke-linecap="round" stroke-linejoin="round" d="M23.855 20.622s.235-.535.438-2.053" style="stroke-width:.588877"/><path d="M27.572 18.36c.364-.025 5.37-6.215 1.061-9.62l-.51 4.557c.107 1.681.437 3.358-.55 5.064z" filter="url(#filter1605-5)" opacity=".15" style="clip-rule:evenodd;opacity:.2;fill-rule:evenodd;filter:url(#t);image-rendering:optimizeQuality;shape-rendering:geometricPrecision" transform="translate(7.432 13.422) scale(.58888)"/></svg>