<?xml version="1.0" encoding="UTF-8" standalone="no"?>
<svg width="50mm" height="50mm" clip-rule="evenodd" fill-rule="evenodd" image-rendering="optimizeQuality" shape-rendering="geometricPrecision" text-rendering="geometricPrecision" inkscape:version="1.2 (1:1.2.1+202207142221+cd75a1ee6d)" sodipodi:docname="bI.svg" version="1.1" viewBox="0 0 50 50" id="svg970" xmlns:inkscape="http://www.inkscape.org/namespaces/inkscape" xmlns:sodipodi="http://sodipodi.sourceforge.net/DTD/sodipodi-0.dtd" xmlns:xlink="http://www.w3.org/1999/xlink" xmlns="http://www.w3.org/2000/svg" xmlns:svg="http://www.w3.org/2000/svg">
  <sodipodi:namedview bordercolor="#666666" borderopacity="1" gridtolerance="10" guidetolerance="10" inkscape:current-layer="svg970" inkscape:cx="106.74019" inkscape:cy="43.629852" inkscape:document-rotation="0" inkscape:pageopacity="0" inkscape:pageshadow="2" inkscape:window-height="1026" inkscape:window-maximized="0" inkscape:window-width="1414" inkscape:window-x="0" inkscape:window-y="0" inkscape:zoom="3.1056718" objecttolerance="10" pagecolor="#ffffff" showgrid="false" id="namedview909" inkscape:showpageshadow="2" inkscape:pagecheckerboard="0" inkscape:deskcolor="#d1d1d1" inkscape:document-units="mm" />
  <defs id="defs938">
    <linearGradient id="linearGradient2770-4-1" x1="14.558" x2="30.29747" y1="25.93" y2="29.003815" gradientTransform="matrix(1.0739 0 0 1.0269 -2.2596 -.38035)" gradientUnits="userSpaceOnUse" xlink:href="#linearGradient2403" />
    <linearGradient id="linearGradient2403" x1="9.2407" x2="40.761" y1="27.266" y2="27.266" gradientTransform="matrix(1.0155 0 0 1.0103 -.38852 .48153)" gradientUnits="userSpaceOnUse">
      <stop stop-color="#635f5e" style="stop-color:#737373" offset="0" id="stop912" />
      <stop stop-color="#131111" style="stop-color:#303030" offset="1" id="stop914" />
    </linearGradient>
    <filter id="filter1616-8-6-66-8" x="-0.080937616" y="-0.034005671" width="1.1618752" height="1.0680113" color-interpolation-filters="sRGB">
      <feGaussianBlur stdDeviation="0.40686194" id="feGaussianBlur918" />
    </filter>
    <filter id="filter1486" x="-0.1693495" y="-0.11957713" width="1.338699" height="1.2391543" style="color-interpolation-filters:sRGB" inkscape:collect="always">
      <feGaussianBlur inkscape:collect="always" stdDeviation="0.61706783" id="feGaussianBlur921" />
    </filter>
    <linearGradient id="linearGradient1640" x1="5.6115" x2="25.919" y1="42.295" y2="42.295" gradientTransform="matrix(1.0856 0 0 .94062 -2.5546 2.9415)" gradientUnits="userSpaceOnUse" inkscape:collect="always" xlink:href="#linearGradient2403" />
    <linearGradient id="linearGradient1642" x1="24.848" x2="45.155" y1="42.295" y2="42.295" gradientTransform="matrix(1.0856 0 0 .94062 -2.5546 2.9415)" gradientUnits="userSpaceOnUse" inkscape:collect="always" xlink:href="#linearGradient2403" />
    <filter id="filter1474" x="-0.10991114" y="-0.22186808" width="1.2198223" height="1.4437362" style="color-interpolation-filters:sRGB" inkscape:collect="always">
      <feGaussianBlur inkscape:collect="always" stdDeviation="0.41667037" id="feGaussianBlur926" />
    </filter>
    <filter id="filter1478" x="-0.14312562" y="-0.29156244" width="1.2862512" height="1.5831249" style="color-interpolation-filters:sRGB" inkscape:collect="always">
      <feGaussianBlur inkscape:collect="always" stdDeviation="0.34639381" id="feGaussianBlur929" />
    </filter>
    <filter id="filter1482" x="-0.21515349" y="-0.17315708" width="1.430307" height="1.3463142" style="color-interpolation-filters:sRGB" inkscape:collect="always">
      <feGaussianBlur inkscape:collect="always" stdDeviation="0.27000239" id="feGaussianBlur935" />
    </filter>
    <linearGradient id="linearGradient1872" x1="-736.5" x2="-696.5" y1="-367.95999" y2="-367.95999" gradientTransform="matrix(0.6023023,0,0,0.59995923,455.62796,242.10257)" gradientUnits="userSpaceOnUse" inkscape:collect="always" xlink:href="#linearGradient2403" />
    <filter id="filter1572-7-1-4-4-4" x="-0.063848594" y="-0.038424502" width="1.1276972" height="1.076849" color-interpolation-filters="sRGB">
      <feGaussianBlur stdDeviation="0.56999549" id="feGaussianBlur196" />
    </filter>
    <linearGradient id="linearGradient1874" x1="-116.32" x2="-77.198997" y1="299.89999" y2="299.89999" gradientTransform="matrix(0.65041439,0,0,0.63757688,86.574019,-180.17022)" gradientUnits="userSpaceOnUse" inkscape:collect="always" xlink:href="#linearGradient2403" />
    <filter id="filter1876" x="-0.1082045" y="-0.057389118" width="1.216409" height="1.1147782" style="color-interpolation-filters:sRGB" inkscape:collect="always">
      <feGaussianBlur inkscape:collect="always" stdDeviation="0.52699649" id="feGaussianBlur200" />
    </filter>
    <filter id="filter1884" x="-0.15338185" y="-0.083341379" width="1.3067637" height="1.1666828" style="color-interpolation-filters:sRGB" inkscape:collect="always">
      <feGaussianBlur inkscape:collect="always" stdDeviation="0.61151735" id="feGaussianBlur203" />
    </filter>
    <filter id="filter4257-4" x="-0.23448697" y="-0.41694674" width="1.4689739" height="1.8338935" color-interpolation-filters="sRGB">
      <feGaussianBlur stdDeviation="0.29904924" id="feGaussianBlur206" />
    </filter>
    <filter id="filter1880" x="-0.23064966" y="-0.1644443" width="1.4612993" height="1.3288886" style="color-interpolation-filters:sRGB" inkscape:collect="always">
      <feGaussianBlur inkscape:collect="always" stdDeviation="0.31221314" id="feGaussianBlur209" />
    </filter>
    <filter id="filter1754-6-0" x="-0.11914115" y="-0.098731697" width="1.2382823" height="1.1974634" color-interpolation-filters="sRGB">
      <feGaussianBlur stdDeviation="0.46679525" id="feGaussianBlur212" />
    </filter>
    <filter id="filter1888" x="-0.17888928" y="-0.20724932" width="1.3577786" height="1.4144986" style="color-interpolation-filters:sRGB" inkscape:collect="always">
      <feGaussianBlur inkscape:collect="always" stdDeviation="0.29214511" id="feGaussianBlur215" />
    </filter>
    <filter id="filter1746-3-5" x="-0.32068081" y="-0.41131192" width="1.6413616" height="1.8226238" color-interpolation-filters="sRGB">
      <feGaussianBlur stdDeviation="1.0129772" id="feGaussianBlur218" />
    </filter>
    <filter id="filter1758-7-0" x="-0.2394653" y="-0.069722208" width="1.4789306" height="1.1394444" color-interpolation-filters="sRGB">
      <feGaussianBlur stdDeviation="0.27949598" id="feGaussianBlur221" />
    </filter>
  </defs>
  <path d="m 31.016,32.267 0.205455,-2.061853 c -1.345493,1.129919 -0.08732,-3.123372 -2.391208,-2.744385 L 28.17881,27.33365 c 2.367536,7.221606 -0.806655,-1.381357 -0.869725,-0.858066 l -2.761897,2.201548 -2.668044,0.993606 -3.203164,2.585732 -1.5428,4.867 c -0.03112,0.38564 3.0951,2.0336 7.7132,2.0336 4.6178,0 7.7451,-1.6481 7.7135,-2.0336 z" fill="url(#linearGradient2770-4)" image-rendering="optimizeQuality" style="clip-rule:evenodd;fill:url(#linearGradient2770-4-1);fill-rule:evenodd;stroke:black;stroke-linecap:round;shape-rendering:geometricPrecision" sodipodi:nodetypes="cccccccccscc" id="path940" />
  <path transform="matrix(0.81214658,0,0,0.65935509,470.76227,296.8306)" d="m -549.75,-422.16 c 3.4115,1.813 0.50125,4.9315 -1.5259,5.2058 0.46165,0.19695 0.97797,0.31078 1.5259,0.31078 5.5278,-1.76 1.3181,-5.645 0,-5.5166 z m -0.68784,5.5183 c 3.0916,4.115 5.8477,8.459 8.7241,12.709 l -4.8064,5.1992 1.0894,4.4227 3.0008,0.86255 -1.3539,-4.6689 4.5724,-5.8156 -9.8594,-12.698 h -0.67839 v -0.0107 z" filter="url(#filter1616-8-6)" image-rendering="optimizeQuality" opacity=".25" style="clip-rule:evenodd;opacity:0.2;mix-blend-mode:normal;fill-rule:evenodd;filter:url(#filter1616-8-6-66-8);shape-rendering:geometricPrecision" sodipodi:nodetypes="sccssccccccccccc" id="path946" />
  <path d="m26.073 35.618c-3.0872 0.01216-6.3973 0.50415-8.3688 1.7676 2.1814 1.5015 5.7983 1.8266 8.885 1.7697-7.1397-1.444 2.03-2.9656 4.8441-3.0007-1.5224-0.36742-3.7096-0.54321-5.3603-0.53645z" image-rendering="optimizeQuality" opacity=".2" style="clip-rule:evenodd;fill-rule:evenodd;opacity:.15;shape-rendering:geometricPrecision" sodipodi:nodetypes="cccccc" id="path948" />
  <path d="m17.134 37.123s1.9246-1.5659 7.7139-1.5659 7.7129 1.5659 7.7129 1.5659" fill="none" image-rendering="optimizeQuality" stroke="#000000" stroke-width=".99998" style="clip-rule:evenodd;fill-rule:evenodd;shape-rendering:geometricPrecision" sodipodi:nodetypes="czc" id="path950" />
  <path d="m 18.580643,31.759012 c 0,0 1.993803,-1.093114 6.608767,-1.093221 4.614964,-6.5e-5 6.60866,1.093221 6.60866,1.093221" fill="none" image-rendering="optimizeQuality" stroke="black" stroke-width="1.07019" style="clip-rule:evenodd;fill-rule:evenodd;shape-rendering:geometricPrecision" sodipodi:nodetypes="csc" id="path952" />
  <path d="m 18.559471,23.495233 c 0,0 -1.243215,-0.265417 -1.245715,-0.273417 l -1.845576,1.900448 8.745008,-11.243341 -8.0753,12.385 z" fill="white" opacity=".9" style="clip-rule:evenodd;opacity:0.3;fill-rule:evenodd;filter:url(#filter1486);image-rendering:optimizeQuality;shape-rendering:geometricPrecision" sodipodi:nodetypes="cccccc" id="path954" transform="matrix(1.070211,0,0,1.070211,-1.1676288,-2.7507159)" />
  <path d="m25 39.156c-5.6169 6.1e-5 -7.2958-1.7704-7.2958-1.7704s1.6787-1.7703 7.2958-1.7704c5.6169-6.1e-5 7.2958 1.7704 7.2958 1.7704s-1.6787 1.7703-7.2958 1.7704z" image-rendering="optimizeQuality" opacity=".2" style="clip-rule:evenodd;fill-rule:evenodd;opacity:.2;shape-rendering:geometricPrecision" sodipodi:nodetypes="scscs" id="path956" />
  <path d="m22.65 39.156c-5.1931 6.2585-11.79-2.9152-18.533 3.4873l1.9679 3.6528c4.398-5.6719 18.915 5.2133 18.915-7.1401z" fill="url(#linearGradient2774-8)" image-rendering="optimizeQuality" stroke-linecap="round" style="clip-rule:evenodd;fill-rule:evenodd;fill:url(#linearGradient1640);shape-rendering:geometricPrecision;stroke-linejoin:round;stroke:#000000" id="path958" />
  <path d="m27.35 39.156c5.1931 6.2585 11.79-2.9152 18.532 3.4873l-1.9679 3.6528c-4.398-5.6719-18.915 5.2133-18.915-7.1401z" fill="url(#linearGradient2776-7)" image-rendering="optimizeQuality" stroke-linecap="round" style="clip-rule:evenodd;fill-rule:evenodd;fill:url(#linearGradient1642);shape-rendering:geometricPrecision;stroke-linejoin:round;stroke:#000000" id="path960" />
  <path d="m4.8338 42.735 1.4034 2.59-0.34576-2.3335c3.1201-2.3871 5.9576-1.6194 8.0407-1.5984 0 0-5.852-1.9547-9.0983 1.3419z" style="clip-rule:evenodd;fill-rule:evenodd;fill:#ffffff;filter:url(#filter1474);image-rendering:optimizeQuality;opacity:.3;shape-rendering:geometricPrecision" id="path962" />
  <path d="m45.242 42.769-0.4897 0.88855c-1.9053-2.3245-3.739-2.7553-5.3188-2.7602 0 0 3.0172-0.71713 5.8085 1.8717z" style="clip-rule:evenodd;fill-rule:evenodd;fill:#ffffff;filter:url(#filter1478);image-rendering:optimizeQuality;opacity:.2;shape-rendering:geometricPrecision" id="path964" />
  <path transform="matrix(1.0007 0 0 .98931 -586.04 102.79)" d="m603.76-67.566 1.0507-3.3086s0.36875-0.25609 1.4535-0.4337c0 0-0.74558 2.2238 0.50763 3.042-2.1537 0.33608-2.5358 0.55399-3.0118 0.70026z" clip-rule="evenodd" fill="#ffffff" fill-rule="evenodd" filter="url(#filter1624-3)" image-rendering="optimizeQuality" opacity=".7" shape-rendering="geometricPrecision" style="filter:url(#filter1482);opacity:.1" sodipodi:nodetypes="ccccc" id="path968" />
  <path d="m 15.746403,26.8127 c 1.738875,1.449813 2.504137,-0.422615 3.118998,-1.838981 0.841821,-2.380719 4.293185,-1.09974 5.259988,-4.092849 1.705023,6.676856 -5.941708,5.055678 -5.579886,12.203857 H 35.643311 C 36.795393,19.771373 32.630444,10.544846 20.008568,11.82962 18.753609,10.518824 17.001604,9.6864625 17.001604,9.6864625 c -0.680274,1.2557425 -0.609741,2.8409005 0.401647,3.4465465 0.264472,0.241504 -2.124426,1.251886 -1.804226,4.753425 0,0 -1.922945,3.202781 -3.04479,5.307633 -0.817064,1.645331 0.646965,3.773312 2.731938,3.968768" fill="url(#linearGradient2766-9)" image-rendering="optimizeQuality" stroke="black" stroke-dashoffset="1.852" stroke-linecap="round" style="clip-rule:evenodd;fill:url(#linearGradient1872);fill-rule:evenodd;stroke-width:0.602333;shape-rendering:geometricPrecision" sodipodi:nodetypes="ccccccccccc" id="path226" />
  <path d="m 19.470927,15.494689 c -0.01038,5.87e-4 -0.02078,0.0018 -0.03115,0.0035 -1.732832,0.281824 -1.973919,1.91856 -1.973919,1.91856 -0.03527,0.17439 0.0776,0.344364 0.252471,0.380227 0.175414,0.03584 0.346777,-0.07679 0.382739,-0.25158 0,0 0.101413,-1.191357 1.443631,-1.409653 0.176675,-0.02886 0.296411,-0.194983 0.267457,-0.371029 -0.02709,-0.16409 -0.17472,-0.280888 -0.341237,-0.269953 z" color="black" color-rendering="auto" dominant-baseline="auto" image-rendering="optimizeQuality" solid-color="black" stop-color="black" style="font-variant-ligatures:normal;font-variant-position:normal;font-variant-caps:normal;font-variant-numeric:normal;font-variant-alternates:normal;font-variant-east-asian:normal;font-feature-settings:normal;font-variation-settings:normal;text-indent:0;text-decoration-line:none;text-decoration-style:solid;text-decoration-color:black;text-transform:none;text-orientation:mixed;white-space:normal;shape-padding:0;shape-margin:0;inline-size:0;clip-rule:evenodd;isolation:auto;mix-blend-mode:normal;fill-rule:evenodd;stroke-width:0.588877;shape-rendering:geometricPrecision" id="path228" />
  <path d="m 19.377295,16.816128 a 0.65806981,0.70930209 69.395 0 1 -0.555405,0.804641 0.65806981,0.70930209 69.395 0 1 -0.824899,-0.485794 0.65806981,0.70930209 69.395 0 1 0.555406,-0.80464 0.65806981,0.70930209 69.395 0 1 0.824898,0.485798 z" image-rendering="optimizeQuality" style="clip-rule:evenodd;fill-rule:evenodd;stroke-width:0.588877;paint-order:markers fill stroke;shape-rendering:geometricPrecision" id="path230" />
  <path d="m 14.500689,22.927491 c -0.08478,5.87e-4 -0.165899,0.03461 -0.225959,0.0942 -0.258203,0.256903 -0.393969,0.50015 -0.458823,0.690399 -0.06485,0.190224 -0.05535,0.362996 -0.05535,0.362996 0.01654,0.177139 0.173766,0.307592 0.351612,0.291782 0.17873,-0.01596 0.420946,-0.145965 0.404417,-0.324012 0,0 -0.008,-5.87e-4 0.0242,-0.09534 0.03228,-0.09463 0.107777,-0.247822 0.302041,-0.44111 0.126833,-0.12619 0.01637,-0.358496 -0.110449,-0.484686 -0.06147,-0.06104 -0.144941,-0.09497 -0.231717,-0.0942 z" color="black" color-rendering="auto" dominant-baseline="auto" image-rendering="optimizeQuality" solid-color="black" stop-color="black" style="font-variant-ligatures:normal;font-variant-position:normal;font-variant-caps:normal;font-variant-numeric:normal;font-variant-alternates:normal;font-variant-east-asian:normal;font-feature-settings:normal;font-variation-settings:normal;text-indent:0;text-decoration-line:none;text-decoration-style:solid;text-decoration-color:black;text-transform:none;text-orientation:mixed;white-space:normal;shape-padding:0;shape-margin:0;inline-size:0;clip-rule:evenodd;isolation:auto;mix-blend-mode:normal;fill-rule:evenodd;stroke-width:0.588877;shape-rendering:geometricPrecision" id="path232" />
  <path transform="matrix(0.58884734,0,0,0.5865566,445.71819,236.90176)" d="m -718.42,-382.86 c 17.099,0.6447 19.298,14.991 17.595,34.473 h 3.5261 c 1.7534,-20.341 -3.9138,-34.957 -21.011,-35.602 z" filter="url(#filter1572-7-1)" image-rendering="optimizeQuality" opacity=".25" style="clip-rule:evenodd;opacity:0.2;fill-rule:evenodd;filter:url(#filter1572-7-1-4-4-4);shape-rendering:geometricPrecision" id="path234" />
  <path d="m 19.821308,12.580927 c 0,0 0.384166,-2.439599 2.296855,-2.8548145 0,0 1.224157,0.6387535 0.979597,3.5149455" fill="url(#linearGradient2768-3)" image-rendering="optimizeQuality" stroke="black" stroke-linecap="round" style="clip-rule:evenodd;fill:url(#linearGradient1874);fill-rule:evenodd;stroke-width:0.588877;paint-order:markers fill stroke;shape-rendering:geometricPrecision" id="path236" />
  <path d="m 16.730883,25.174057 c -0.180492,0.309849 -0.85499,1.028531 -1.516653,1.590674" fill="none" image-rendering="optimizeQuality" stroke="black" stroke-linecap="round" style="clip-rule:evenodd;fill-rule:evenodd;stroke-width:0.588877;shape-rendering:geometricPrecision" id="path238" />
  <path d="m 9.0125127,16.611505 4.1942003,-7.3239996 1.172,-1.8919 c 0,0 -0.79698,-4.4145 2.7191,-7.38079995 -5e-4,9.96e-4 0.55469,-0.61422 0.003,-1.10600005 -0.55243,-0.49212 -1.936,-2.1287 -0.7527,-4.3361 -0.077,-0.02201 0.27413,4.80580005 4.3533,4.86390005 -3.9191,1.2493 -6.111,4.98919995 -5.151,8.58219995 -0.73559,1.1727 -1.4576,2.0797996 -2.3743,3.2078996 -0.82019,1.0093 -1.7963,2.1954 -3.0776,3.9069 -0.3395303,0.45355 -0.7005003,0.944 -1.0857003,1.4778 z" style="clip-rule:evenodd;opacity:0.3;mix-blend-mode:normal;fill:white;fill-rule:evenodd;filter:url(#filter1876);image-rendering:optimizeQuality;shape-rendering:geometricPrecision" id="path240" transform="matrix(0.58887679,0,0,0.58887679,7.4318025,13.422135)" />
  <path d="m 19.342213,31.867505 c -0.74366,-9.4346 10.084,-8.7948 9.4383,-17.61 1.1035,10.971 -7.8835,9.1291 -9.4383,17.61 z" style="clip-rule:evenodd;opacity:0.2;fill:white;fill-rule:evenodd;filter:url(#filter1884);image-rendering:optimizeQuality;shape-rendering:geometricPrecision" id="path242" transform="matrix(0.58887679,0,0,0.58887679,7.4318025,13.422135)" />
  <path transform="matrix(0.58884734,0,0,0.5865566,445.71819,236.90176)" d="m -733.97,-364.25 c -0.0148,0.57251 1.587,-1.8871 3.0607,-0.43886 -0.59811,-1.4295 -2.2181,-1.9017 -3.0607,0.43886 z" filter="url(#filter3022-9)" style="clip-rule:evenodd;opacity:0.2;fill:white;fill-rule:evenodd;filter:url(#filter4257-4);image-rendering:optimizeQuality;shape-rendering:geometricPrecision" id="path244" />
  <path d="m 21.612213,-1.2304946 c 0,0 0.58013,-3.6995 3.2487,-4.4593 -1.5535,1.9713 -1.745,5.15380005 -3.2487,4.4593 z" style="clip-rule:evenodd;opacity:0.2;fill:white;fill-rule:evenodd;filter:url(#filter1880);image-rendering:optimizeQuality;shape-rendering:geometricPrecision" id="path246" transform="matrix(0.58887679,0,0,0.58887679,7.4318025,13.422135)" />
  <path transform="matrix(0.58884734,0,0,0.5865566,445.71819,236.90176)" d="m -716.03,-369.64 c 0.40451,-1.1844 0.32557,-3.0516 -0.0308,-3.6122 -2.9586,8.6713 -8.2447,5.492 -9.101,11.347 1.6394,-3.7075 7.8131,-2.4199 9.1318,-7.7344 z" filter="url(#filter1433-2-4-3)" opacity=".25" style="clip-rule:evenodd;opacity:0.2;fill-rule:evenodd;filter:url(#filter1754-6-0);image-rendering:optimizeQuality;shape-rendering:geometricPrecision" id="path248" />
  <path transform="matrix(0.58884734,0,0,0.5865566,445.71819,236.90176)" d="m -723.87,-377.47 c -3.2168,0.61547 -3.405,3.2769 -3.405,3.2769 0,0 -0.49877,0.21082 -0.49048,-0.32798 -0.23069,-0.68798 1.2151,-3.4747 3.8955,-2.9489 z" filter="url(#filter1676-3-7)" opacity=".2" style="clip-rule:evenodd;opacity:0.2;fill:white;fill-rule:evenodd;filter:url(#filter1888);image-rendering:optimizeQuality;shape-rendering:geometricPrecision" id="path250" />
  <path transform="matrix(0.45053196,0,0,0.5425734,348.55353,211.32684)" d="m -723.63,-356.13 c -6.5319,-0.82682 -7.5812,5.8397 -7.5812,5.8397 1.1097,-2.0653 4.2941,-4.784 7.5812,-5.8397 z" fill="white" filter="url(#filter1866-4-7)" style="clip-rule:evenodd;opacity:0.1;fill-rule:evenodd;filter:url(#filter1746-3-5);image-rendering:optimizeQuality;shape-rendering:geometricPrecision" id="path252" />
  <path d="m 23.855115,20.622038 c 0,0 0.234743,-0.535229 0.437947,-2.053354" clip-rule="evenodd" fill="none" fill-rule="evenodd" image-rendering="optimizeQuality" shape-rendering="geometricPrecision" stroke="black" stroke-linecap="round" stroke-linejoin="round" id="path254" style="stroke-width:0.588877" />
  <path d="m 27.572213,18.360505 c 0.36428,-0.026 5.3704,-6.2152 1.061,-9.6207996 l -0.51019,4.5567996 c 0.10743,1.6818 0.43691,3.3589 -0.55079,5.0641 z" filter="url(#filter1605-5)" opacity=".15" style="clip-rule:evenodd;opacity:0.2;fill-rule:evenodd;filter:url(#filter1758-7-0);image-rendering:optimizeQuality;shape-rendering:geometricPrecision" id="path256" transform="matrix(0.58887679,0,0,0.58887679,7.4318025,13.422135)" />
</svg>
