<?xml version="1.0" encoding="UTF-8" standalone="no"?>
<svg width="50mm" height="50mm" clip-rule="evenodd" fill-rule="evenodd" image-rendering="optimizeQuality" shape-rendering="geometricPrecision" text-rendering="geometricPrecision" inkscape:version="1.2 (1:1.2.1+202207142221+cd75a1ee6d)" sodipodi:docname="bR.svg" version="1.1" viewBox="0 0 50 50" id="svg65" xmlns:inkscape="http://www.inkscape.org/namespaces/inkscape" xmlns:sodipodi="http://sodipodi.sourceforge.net/DTD/sodipodi-0.dtd" xmlns:xlink="http://www.w3.org/1999/xlink" xmlns="http://www.w3.org/2000/svg" xmlns:svg="http://www.w3.org/2000/svg">
  <sodipodi:namedview bordercolor="#666666" borderopacity="1" gridtolerance="10" guidetolerance="10" inkscape:current-layer="svg65" inkscape:cx="92.666733" inkscape:cy="109.74291" inkscape:document-rotation="0" inkscape:pageopacity="0" inkscape:pageshadow="2" inkscape:window-height="1029" inkscape:window-maximized="1" inkscape:window-width="1920" inkscape:window-x="0" inkscape:window-y="0" inkscape:zoom="2.1960416" objecttolerance="10" pagecolor="#ffffff" showgrid="false" id="namedview2" inkscape:showpageshadow="2" inkscape:pagecheckerboard="0" inkscape:deskcolor="#d1d1d1" inkscape:document-units="mm" />
  <defs id="defs43">
    <linearGradient id="linearGradient2472-2" x1="9.2407" x2="40.761" y1="27.266" y2="27.266" gradientTransform="matrix(1.0155 0 0 1.0103 -.38852 .48153)" gradientUnits="userSpaceOnUse">
      <stop stop-color="#635f5e" offset="0" id="stop4" />
      <stop stop-color="#131111" style="stop-color:#1f1f1f" offset="1" id="stop6" />
    </linearGradient>
    <linearGradient id="linearGradient2360-1" x1="9.0055" x2="40.995" y1="26.762" y2="26.762" gradientTransform="rotate(180,25.323638,27.275737)" gradientUnits="userSpaceOnUse" inkscape:collect="always">
      <stop stop-color="#635f5e" style="stop-color:#737373" offset="0" id="stop9" />
      <stop stop-color="#131111" style="stop-color:#303030" offset="1" id="stop11" />
    </linearGradient>
    <filter id="filter1568-2-3-53-2" x="-0.23719784" y="-0.063070205" width="1.4743957" height="1.1261404" color-interpolation-filters="sRGB">
      <feGaussianBlur stdDeviation="0.46309753" id="feGaussianBlur14" />
    </filter>
    <filter id="filter1720" x="-0.10509895" y="-0.093702835" width="1.2101979" height="1.1874057" style="color-interpolation-filters:sRGB" inkscape:collect="always">
      <feGaussianBlur inkscape:collect="always" stdDeviation="0.26430633" id="feGaussianBlur17" />
    </filter>
    <filter id="filter1732" x="-0.1172292" y="-0.085010384" width="1.2344584" height="1.1700208" style="color-interpolation-filters:sRGB" inkscape:collect="always">
      <feGaussianBlur inkscape:collect="always" stdDeviation="0.3726423" id="feGaussianBlur20" />
    </filter>
    <filter id="filter1724" x="-0.097414844" y="-0.12116597" width="1.1948297" height="1.2423319" style="color-interpolation-filters:sRGB" inkscape:collect="always">
      <feGaussianBlur inkscape:collect="always" stdDeviation="0.122832" id="feGaussianBlur32" />
    </filter>
    <filter id="filter1728" x="-0.097414844" y="-0.12116597" width="1.1948297" height="1.2423319" style="color-interpolation-filters:sRGB" inkscape:collect="always">
      <feGaussianBlur inkscape:collect="always" stdDeviation="0.122832" id="feGaussianBlur35" />
    </filter>
    <linearGradient id="linearGradient1718" x1="-36.133" x2="-9.9385" y1="-313.97" y2="-313.97" gradientTransform="matrix(1,0,0,-1,48.682807,-277.69963)" gradientUnits="userSpaceOnUse" inkscape:collect="always">
      <stop style="stop-color:#000000" offset="0" id="stop38" />
      <stop style="stop-color:#000000;stop-opacity:0" offset="1" id="stop40" />
    </linearGradient>
    <linearGradient id="linearGradient1872" x1="-736.5" x2="-696.5" y1="-367.95999" y2="-367.95999" gradientTransform="matrix(0.54362698,0,0,0.54151217,412.30465,222.45294)" gradientUnits="userSpaceOnUse" inkscape:collect="always" xlink:href="#linearGradient2403" />
    <linearGradient id="linearGradient2403" x1="9.2406998" x2="40.761002" y1="27.266001" y2="27.266001" gradientTransform="matrix(1.0155,0,0,1.0103,-0.38852,0.48153)" gradientUnits="userSpaceOnUse">
      <stop stop-color="#635f5e" style="stop-color:#737373" offset="0" id="stop193" />
      <stop stop-color="#131111" style="stop-color:#303030" offset="1" id="stop195" />
    </linearGradient>
    <filter id="filter1572-7-1-4-4-4" x="-0.063848594" y="-0.038424502" width="1.1276972" height="1.076849" color-interpolation-filters="sRGB">
      <feGaussianBlur stdDeviation="0.56999549" id="feGaussianBlur198" />
    </filter>
    <linearGradient id="linearGradient1874" x1="-116.32" x2="-77.198997" y1="299.89999" y2="299.89999" gradientTransform="matrix(0.60046603,0,0,0.58861436,80.740838,-162.59013)" gradientUnits="userSpaceOnUse" inkscape:collect="always" xlink:href="#linearGradient2403" />
    <filter id="filter1876" x="-0.1082045" y="-0.057389118" width="1.216409" height="1.1147782" style="color-interpolation-filters:sRGB" inkscape:collect="always">
      <feGaussianBlur inkscape:collect="always" stdDeviation="0.52699649" id="feGaussianBlur202" />
    </filter>
    <filter id="filter1884" x="-0.15338185" y="-0.083341379" width="1.3067637" height="1.1666828" style="color-interpolation-filters:sRGB" inkscape:collect="always">
      <feGaussianBlur inkscape:collect="always" stdDeviation="0.61151735" id="feGaussianBlur205" />
    </filter>
    <filter id="filter4257-4" x="-0.23448697" y="-0.41694674" width="1.4689739" height="1.8338935" color-interpolation-filters="sRGB">
      <feGaussianBlur stdDeviation="0.29904924" id="feGaussianBlur208" />
    </filter>
    <filter id="filter1880" x="-0.23064966" y="-0.1644443" width="1.4612993" height="1.3288886" style="color-interpolation-filters:sRGB" inkscape:collect="always">
      <feGaussianBlur inkscape:collect="always" stdDeviation="0.31221314" id="feGaussianBlur211" />
    </filter>
    <filter id="filter1754-6-0" x="-0.11914115" y="-0.098731697" width="1.2382823" height="1.1974634" color-interpolation-filters="sRGB">
      <feGaussianBlur stdDeviation="0.46679525" id="feGaussianBlur214" />
    </filter>
    <filter id="filter1888" x="-0.17888928" y="-0.20724932" width="1.3577786" height="1.4144986" style="color-interpolation-filters:sRGB" inkscape:collect="always">
      <feGaussianBlur inkscape:collect="always" stdDeviation="0.29214511" id="feGaussianBlur217" />
    </filter>
    <filter id="filter1746-3-5" x="-0.32068081" y="-0.41131192" width="1.6413616" height="1.8226238" color-interpolation-filters="sRGB">
      <feGaussianBlur stdDeviation="1.0129772" id="feGaussianBlur220" />
    </filter>
    <filter id="filter1758-7-0" x="-0.2394653" y="-0.069722206" width="1.4789306" height="1.1394444" color-interpolation-filters="sRGB">
      <feGaussianBlur stdDeviation="0.27949598" id="feGaussianBlur223" />
    </filter>
  </defs>
  <path d="m 33.584807,34.050974 h -15.879 m 21.038,4.4326 h -26.196 m 26.196,7.8107 v -7.811 l -5.1583,-4.4326 c -5.186146,-3.480398 -12.175179,-4.183314 -15.87835,0 l -5.1583,4.4326 v 7.811 h 5.5929 v -3.3482 h 4.6133 v 3.3482 h 5.7826 v -3.3482 h 4.6133 v 3.3482 z" clip-rule="evenodd" fill="url(#linearGradient2472-2)" fill-rule="evenodd" image-rendering="optimizeQuality" shape-rendering="geometricPrecision" stroke="black" stroke-linecap="round" style="fill:url(#linearGradient2360-1)" sodipodi:nodetypes="ccccccccccccccccccc" id="path45" />
  <path d="m 12.466,16.525 -0.04126,-6.6749 3.328,-0.094748 -1.9969,0.71094 v 5.3559 l 4.7045,0.66643 z" style="clip-rule:evenodd;opacity:0.25;mix-blend-mode:normal;fill:white;fill-rule:evenodd;filter:url(#filter1720);image-rendering:optimizeQuality;shape-rendering:geometricPrecision" sodipodi:nodetypes="ccccccc" id="path49" transform="rotate(180,25.323403,27.790187)" />
  <path d="m 17.596,22.031 h 7.5805 l -6.4675,0.99949 v 8.5984 l -1.1615,0.92249 z" opacity=".9" style="clip-rule:evenodd;opacity:0.25;mix-blend-mode:normal;fill:white;fill-rule:evenodd;filter:url(#filter1732);image-rendering:optimizeQuality;shape-rendering:geometricPrecision" sodipodi:nodetypes="cccccc" id="path51" transform="rotate(180,25.323403,27.790187)" />
  <path d="m 22.651,9.7945 -0.01705,2.433 c 0.6576,-1.2303 1.3626,-2.1769 3.0262,-2.4246 z" style="clip-rule:evenodd;opacity:0.15;mix-blend-mode:normal;fill:white;fill-rule:evenodd;filter:url(#filter1724);image-rendering:optimizeQuality;shape-rendering:geometricPrecision" id="path59" transform="rotate(180,25.323403,27.790187)" />
  <path d="m 33.051,9.8071 -0.01705,2.433 c 0.38835,-1.5204 1.1111,-2.3894 3.0262,-2.4246 z" style="clip-rule:evenodd;opacity:0.1;mix-blend-mode:normal;fill:white;fill-rule:evenodd;filter:url(#filter1728);image-rendering:optimizeQuality;shape-rendering:geometricPrecision" id="path61" transform="rotate(180,25.323403,27.790187)" />
  <path d="m 12.548807,38.483374 h 26.195 l -5.1602,-4.4326 h -15.876 z" style="clip-rule:evenodd;opacity:0.2;fill:url(#linearGradient1718);fill-rule:evenodd;image-rendering:optimizeQuality;shape-rendering:geometricPrecision" id="path63" />
  <path d="m 15.275636,28.136258 c 1.569474,1.308576 2.260188,-0.381443 2.81515,-1.65983 0.759811,-2.148793 3.874949,-0.992603 4.747569,-3.694129 1.538922,6.026406 -5.362877,4.56316 -5.036304,11.014976 H 33.234218 C 34.274065,21.780887 30.51486,13.453192 19.122587,14.612807 c -1.132704,-1.1831 -2.714031,-1.934376 -2.714031,-1.934376 -0.614003,1.13341 -0.55034,2.564145 0.36252,3.110789 0.238707,0.217978 -1.917469,1.129931 -1.628462,4.290356 0,0 -1.735615,2.890772 -2.748171,4.790572 -0.737468,1.485045 0.583938,3.405721 2.465798,3.582137" fill="url(#linearGradient2766-9)" image-rendering="optimizeQuality" stroke="black" stroke-dashoffset="1.852" stroke-linecap="round" style="clip-rule:evenodd;fill:url(#linearGradient1872);fill-rule:evenodd;stroke-width:0.543654;shape-rendering:geometricPrecision" sodipodi:nodetypes="ccccccccccc" id="path228" />
  <path d="m 18.790904,18.048756 c -0.0096,5.42e-4 -0.01919,0.0016 -0.02876,0.0033 -1.599758,0.260183 -1.82233,1.771226 -1.82233,1.771226 -0.03257,0.160999 0.07164,0.317918 0.233081,0.351027 0.161943,0.03309 0.320147,-0.07089 0.353348,-0.23226 0,0 0.09362,-1.099866 1.332769,-1.301399 0.163107,-0.02665 0.273647,-0.180009 0.246916,-0.342535 -0.02501,-0.151489 -0.161302,-0.259317 -0.315031,-0.249222 z" color="black" color-rendering="auto" dominant-baseline="auto" image-rendering="optimizeQuality" solid-color="black" stop-color="black" style="font-variant-ligatures:normal;font-variant-position:normal;font-variant-caps:normal;font-variant-numeric:normal;font-variant-alternates:normal;font-variant-east-asian:normal;font-feature-settings:normal;font-variation-settings:normal;text-indent:0;text-decoration-line:none;text-decoration-style:solid;text-decoration-color:black;text-transform:none;text-orientation:mixed;white-space:normal;shape-padding:0;shape-margin:0;inline-size:0;clip-rule:evenodd;isolation:auto;mix-blend-mode:normal;fill-rule:evenodd;stroke-width:0.543654;shape-rendering:geometricPrecision" id="path230" />
  <path d="m 18.704463,19.268715 a 0.60753352,0.65483143 69.395 0 1 -0.512753,0.74285 0.60753352,0.65483143 69.395 0 1 -0.761551,-0.448488 0.60753352,0.65483143 69.395 0 1 0.512753,-0.742849 0.60753352,0.65483143 69.395 0 1 0.761551,0.448493 z" image-rendering="optimizeQuality" style="clip-rule:evenodd;fill-rule:evenodd;stroke-width:0.543654;paint-order:markers fill stroke;shape-rendering:geometricPrecision" id="path232" />
  <path d="m 14.202353,24.910758 c -0.07827,5.41e-4 -0.153157,0.03196 -0.208604,0.08696 -0.238378,0.237175 -0.363716,0.46174 -0.423589,0.63738 -0.05988,0.175616 -0.0511,0.335119 -0.0511,0.335119 0.01527,0.163536 0.160421,0.283972 0.324611,0.269375 0.165005,-0.01472 0.38862,-0.134755 0.373359,-0.29913 0,0 -0.0075,-5.41e-4 0.02234,-0.08801 0.0298,-0.08736 0.0995,-0.228791 0.278847,-0.407235 0.117092,-0.1165 0.01511,-0.330966 -0.101969,-0.447465 -0.05674,-0.05635 -0.133809,-0.08767 -0.213922,-0.08696 z" color="black" color-rendering="auto" dominant-baseline="auto" image-rendering="optimizeQuality" solid-color="black" stop-color="black" style="font-variant-ligatures:normal;font-variant-position:normal;font-variant-caps:normal;font-variant-numeric:normal;font-variant-alternates:normal;font-variant-east-asian:normal;font-feature-settings:normal;font-variation-settings:normal;text-indent:0;text-decoration-line:none;text-decoration-style:solid;text-decoration-color:black;text-transform:none;text-orientation:mixed;white-space:normal;shape-padding:0;shape-margin:0;inline-size:0;clip-rule:evenodd;isolation:auto;mix-blend-mode:normal;fill-rule:evenodd;stroke-width:0.543654;shape-rendering:geometricPrecision" id="path234" />
  <path transform="matrix(0.54362698,0,0,0.54151216,412.30465,222.45293)" d="m -718.42,-382.86 c 17.099,0.6447 19.298,14.991 17.595,34.473 h 3.5261 c 1.7534,-20.341 -3.9138,-34.957 -21.011,-35.602 z" filter="url(#filter1572-7-1)" image-rendering="optimizeQuality" opacity=".25" style="clip-rule:evenodd;opacity:0.2;fill-rule:evenodd;filter:url(#filter1572-7-1-4-4-4);shape-rendering:geometricPrecision" id="path236" />
  <path d="m 19.114378,15.358754 c 0,0 0.354664,-2.25225 2.120469,-2.635581 0,0 1.130148,0.589702 0.904369,3.245018" fill="url(#linearGradient2768-3)" image-rendering="optimizeQuality" stroke="black" stroke-linecap="round" style="clip-rule:evenodd;fill:url(#linearGradient1874);fill-rule:evenodd;stroke-width:0.543654;paint-order:markers fill stroke;shape-rendering:geometricPrecision" id="path238" />
  <path d="m 16.26128,26.984799 c -0.166629,0.286055 -0.789331,0.949546 -1.400181,1.468519" fill="none" image-rendering="optimizeQuality" stroke="black" stroke-linecap="round" style="clip-rule:evenodd;fill-rule:evenodd;stroke-width:0.543654;shape-rendering:geometricPrecision" id="path240" />
  <path d="m 3.5874529,15.04781 4.1942,-7.3239999 1.172,-1.8919 c 0,0 -0.79698,-4.4145 2.7191001,-7.3808 -5e-4,9.96e-4 0.55469,-0.61422 0.003,-1.106 -0.55243,-0.49212 -1.9360001,-2.1287 -0.7527,-4.3361 -0.077,-0.02201 0.27413,4.8058 4.3533,4.8639 -3.9191,1.24929998 -6.1110001,4.9892 -5.151,8.5822 -0.7355901,1.1727 -1.4576001,2.0798 -2.3743001,3.2079 -0.82019,1.0092999 -1.7963,2.1953999 -3.0776,3.9068999 -0.33953,0.45355 -0.7005,0.944 -1.0857,1.4778 z" style="clip-rule:evenodd;opacity:0.3;mix-blend-mode:normal;fill:white;fill-rule:evenodd;filter:url(#filter1876);image-rendering:optimizeQuality;shape-rendering:geometricPrecision" id="path242" transform="matrix(0.54365415,0,0,0.54365415,10.625678,16.985471)" />
  <path d="m 13.917153,30.30381 c -0.74366,-9.4346 10.084,-8.7948 9.4383,-17.61 1.1035,10.971 -7.8835,9.1291 -9.4383,17.61 z" style="clip-rule:evenodd;opacity:0.2;fill:white;fill-rule:evenodd;filter:url(#filter1884);image-rendering:optimizeQuality;shape-rendering:geometricPrecision" id="path244" transform="matrix(0.54365415,0,0,0.54365415,10.625678,16.985471)" />
  <path transform="matrix(0.54362698,0,0,0.54151216,412.30465,222.45293)" d="m -733.97,-364.25 c -0.0148,0.57251 1.587,-1.8871 3.0607,-0.43886 -0.59811,-1.4295 -2.2181,-1.9017 -3.0607,0.43886 z" filter="url(#filter3022-9)" style="clip-rule:evenodd;opacity:0.2;fill:white;fill-rule:evenodd;filter:url(#filter4257-4);image-rendering:optimizeQuality;shape-rendering:geometricPrecision" id="path246" />
  <path d="m 16.187153,-2.7941899 c 0,0 0.58013,-3.6995 3.2487,-4.4593 -1.5535,1.9713 -1.745,5.1538 -3.2487,4.4593 z" style="clip-rule:evenodd;opacity:0.2;fill:white;fill-rule:evenodd;filter:url(#filter1880);image-rendering:optimizeQuality;shape-rendering:geometricPrecision" id="path248" transform="matrix(0.54365415,0,0,0.54365415,10.625678,16.985471)" />
  <path transform="matrix(0.54362698,0,0,0.54151216,412.30465,222.45293)" d="m -716.03,-369.64 c 0.40451,-1.1844 0.32557,-3.0516 -0.0308,-3.6122 -2.9586,8.6713 -8.2447,5.492 -9.101,11.347 1.6394,-3.7075 7.8131,-2.4199 9.1318,-7.7344 z" filter="url(#filter1433-2-4-3)" opacity=".25" style="clip-rule:evenodd;opacity:0.2;fill-rule:evenodd;filter:url(#filter1754-6-0);image-rendering:optimizeQuality;shape-rendering:geometricPrecision" id="path250" />
  <path transform="matrix(0.54362698,0,0,0.54151216,412.30465,222.45293)" d="m -723.87,-377.47 c -3.2168,0.61547 -3.405,3.2769 -3.405,3.2769 0,0 -0.49877,0.21082 -0.49048,-0.32798 -0.23069,-0.68798 1.2151,-3.4747 3.8955,-2.9489 z" filter="url(#filter1676-3-7)" opacity=".2" style="clip-rule:evenodd;opacity:0.2;fill:white;fill-rule:evenodd;filter:url(#filter1888);image-rendering:optimizeQuality;shape-rendering:geometricPrecision" id="path252" />
  <path transform="matrix(0.41593349,0,0,0.50090663,322.6017,198.84204)" d="m -723.63,-356.13 c -6.5319,-0.82682 -7.5812,5.8397 -7.5812,5.8397 1.1097,-2.0653 4.2941,-4.784 7.5812,-5.8397 z" fill="white" filter="url(#filter1866-4-7)" style="clip-rule:evenodd;opacity:0.1;fill-rule:evenodd;filter:url(#filter1746-3-5);image-rendering:optimizeQuality;shape-rendering:geometricPrecision" id="path254" />
  <path d="m 22.83841,22.782352 c 0,0 0.216715,-0.494127 0.404315,-1.895667" clip-rule="evenodd" fill="none" fill-rule="evenodd" image-rendering="optimizeQuality" shape-rendering="geometricPrecision" stroke="black" stroke-linecap="round" stroke-linejoin="round" id="path256" style="stroke-width:0.543654" />
  <path d="m 22.147153,16.79681 c 0.36428,-0.026 5.3704,-6.2152 1.061,-9.6207999 l -0.51019,4.5567999 c 0.10743,1.6818 0.43691,3.3589 -0.55079,5.0641 z" filter="url(#filter1605-5)" opacity=".15" style="clip-rule:evenodd;opacity:0.2;fill-rule:evenodd;filter:url(#filter1758-7-0);image-rendering:optimizeQuality;shape-rendering:geometricPrecision" id="path258" transform="matrix(0.54365415,0,0,0.54365415,10.625678,16.985471)" />
</svg>
