<?xml version="1.0" encoding="UTF-8" standalone="no"?>
<svg width="177.17" height="177.17" shape-rendering="geometricPrecision" image-rendering="optimizeQuality" fill-rule="evenodd" clip-rule="evenodd" viewBox="0 0 50 50" version="1.1" id="svg402" sodipodi:docname="bGMaestro.svg" inkscape:version="1.2.2 (1:1.2.2+202212051550+b0a8486541)" xmlns:inkscape="http://www.inkscape.org/namespaces/inkscape" xmlns:sodipodi="http://sodipodi.sourceforge.net/DTD/sodipodi-0.dtd" xmlns:xlink="http://www.w3.org/1999/xlink" xmlns="http://www.w3.org/2000/svg" xmlns:svg="http://www.w3.org/2000/svg">
  <sodipodi:namedview id="namedview404" pagecolor="#ffffff" bordercolor="#000000" borderopacity="0.25" inkscape:showpageshadow="2" inkscape:pageopacity="0.0" inkscape:pagecheckerboard="0" inkscape:deskcolor="#d1d1d1" showgrid="false" inkscape:zoom="1" inkscape:cx="-335" inkscape:cy="28" inkscape:window-width="1916" inkscape:window-height="1041" inkscape:window-x="0" inkscape:window-y="18" inkscape:window-maximized="1" inkscape:current-layer="svg402" />
  <defs id="defs392">
    <linearGradient inkscape:collect="always" id="linearGradient159528">
      <stop style="stop-color:#737373;stop-opacity:1;" offset="0" id="stop159524" />
      <stop style="stop-color:#303030;stop-opacity:1;" offset="1" id="stop159526" />
    </linearGradient>
    <linearGradient id="linearGradient29373" inkscape:swatch="solid">
      <stop style="stop-color:#ece9df;stop-opacity:1;" offset="0" id="stop29371" />
    </linearGradient>
    <linearGradient id="linearGradient29365" inkscape:swatch="solid">
      <stop style="stop-color:#ece9df;stop-opacity:1;" offset="0" id="stop29363" />
    </linearGradient>
    <linearGradient id="0" x1="21.376" x2="77.64" gradientUnits="userSpaceOnUse">
      <stop stop-color="#fff" id="stop387" />
      <stop offset="1" stop-color="#fff" stop-opacity="0" id="stop389" />
    </linearGradient>
    <linearGradient inkscape:collect="always" xlink:href="#linearGradient159528" id="linearGradient159530" x1="5.1011539" y1="21.807961" x2="42.925716" y2="21.641039" gradientUnits="userSpaceOnUse" />
    <filter id="filter1572-7-1-4-4-8" x="-0.40808942" y="-0.042772864" width="1.8161788" height="1.0855457" color-interpolation-filters="sRGB">
      <feGaussianBlur stdDeviation="0.56999549" id="feGaussianBlur407" />
    </filter>
    <filter id="filter1754-6-5" x="-0.11914115" y="-0.098731697" width="1.2382823" height="1.1974634" color-interpolation-filters="sRGB">
      <feGaussianBlur stdDeviation="0.46679525" id="feGaussianBlur413" />
    </filter>
    <filter inkscape:collect="always" style="color-interpolation-filters:sRGB" id="filter12338" x="-0.16491385" y="-0.04782517" width="1.3298282" height="1.0956503">
      <feGaussianBlur inkscape:collect="always" stdDeviation="0.39107673" id="feGaussianBlur12340" />
    </filter>
    <filter inkscape:collect="always" style="color-interpolation-filters:sRGB" id="filter12342" x="-0.089815157" y="-0.062123244" width="1.1796306" height="1.1242465">
      <feGaussianBlur inkscape:collect="always" stdDeviation="0.21407488" id="feGaussianBlur12344" />
    </filter>
    <filter inkscape:collect="always" style="color-interpolation-filters:sRGB" id="filter14524" x="-0.12788224" y="-0.39630895" width="1.2557638" height="1.7926181">
      <feGaussianBlur inkscape:collect="always" stdDeviation="0.17435266" id="feGaussianBlur14526" />
    </filter>
  </defs>
  <g id="g221" transform="matrix(1.1685706,0,0,1.1685706,-2.741966,-0.80588198)">
    <title id="title206">Giraffe</title>
    <g style="opacity:1;fill:none;fill-opacity:1;fill-rule:evenodd;stroke-width:1.5;stroke-linecap:round;stroke-linejoin:round;stroke-miterlimit:4;stroke-dasharray:none;stroke-opacity:1" id="g219">
      <g stroke="black" stroke-dashoffset="0" id="g213">
        <path id="Hor_1" d="m 17.6,4.8 h 3" />
        <path id="Ver_1" d="M 19.2,9.9 V 2.2" style="stroke-width:1.10469114;stroke-dasharray:none" />
        <path id="Head" d="M 39.5,40.1003 V 34.622299 C 33.256599,32.1627 35.040401,14.6039 30.580799,10.504596 31.6404,9.410926 35.040401,8.045046 32.3647,7.225188 c -5.351601,-1.63971 -3.567801,0 -7.135401,1.63972 -3.567699,0 -10.703099,-3.27943 -12.486899,6.55879 -1.7838,3.279499 -5.35153,3.279499 -7.13536,6.558897 -1.12738,2.066 1.78383,6.558805 7.13536,1.6397 0.383386,0 0.757616,0 1.122692,-0.0012 4.730839,-0.01563 7.924301,-0.233733 9.580308,-3.278194 1.783899,3.2794 4.567699,4.3603 4.567699,20.757404 h 11.4869 v -1 z" style="fill:url(#linearGradient159530);fill-opacity:1;stroke-width:1.01697;stroke-dasharray:none" sodipodi:nodetypes="ccccccccsccccc" />
        <path id="Hor_2" d="m 21.1,5.9 h 3" />
        <path id="Ver_2" d="M 22.7,11 V 3.3" style="stroke-width:1.08073343;stroke-dasharray:none" />
      </g>
      <path id="Eye" d="m 16.37441,14.57421 c -0.01934,0.125481 -0.89113,0.165834 -0.866,-0.5 0.06546,-1.734421 1.001666,-0.380205 0.866,0.5 z" fill="black" stroke="black" sodipodi:nodetypes="sss" style="fill:white;fill-opacity:1;stroke:white;stroke-opacity:1" />
      <path id="Dot_1" d="m 31.1,22.5 a 1.73,2.5 0 1 1 -3.46,0 1.73,2.5 0 1 1 3.46,0 z" fill="black" stroke="black" style="stroke:white;stroke-opacity:1" />
      <path id="Dot_2" d="m 33.3,30.5 c 0,3.333332 -3.46,3.333332 -3.46,0 0,-3.333332 3.46,-3.333332 3.46,0 z" fill="black" stroke="black" sodipodi:nodetypes="sss" style="stroke:white;stroke-opacity:1" />
      <path id="Dot_3" d="m 37.1,36.5 a 1.73,2.5 0 1 1 -3.46,0 1.73,2.5 0 1 1 3.46,0 z" fill="black" stroke="black" style="stroke:white;stroke-opacity:1" />
    </g>
    <path d="m 9.7299107,20.017525 c -0.1216208,-0.04978 -0.2579646,-0.04956 -0.3794548,-1.76e-4 -0.5227303,0.213306 -0.8621688,0.480184 -1.0685294,0.713595 -0.2063463,0.233376 -0.2959136,0.486181 -0.2959136,0.486181 -0.082099,0.263262 0.064896,0.543736 0.3287301,0.627309 0.2651827,0.08389 0.6892781,0.04255 0.7719424,-0.221997 0,0 -0.011189,-0.0057 0.091544,-0.121924 C 9.2808864,21.384426 9.480364,21.210377 9.8736495,21.049891 10.130417,20.945117 10.111118,20.546869 10.00506,20.290644 9.9535823,20.166634 9.854441,20.068259 9.7298541,20.01755 Z" color="black" color-rendering="auto" dominant-baseline="auto" image-rendering="optimizeQuality" solid-color="black" stop-color="black" style="font-variant-ligatures:normal;font-variant-position:normal;font-variant-caps:normal;font-variant-numeric:normal;font-variant-alternates:normal;font-variant-east-asian:normal;font-feature-settings:normal;font-variation-settings:normal;text-indent:0;text-decoration-line:none;text-decoration-style:solid;text-decoration-color:black;text-transform:none;text-orientation:mixed;white-space:normal;shape-padding:0;shape-margin:0;inline-size:0;clip-rule:evenodd;isolation:auto;mix-blend-mode:normal;fill-rule:evenodd;stroke-width:0.912772;shape-rendering:geometricPrecision;stroke:white;stroke-opacity:1" id="path433" />
    <path transform="matrix(0.83822357,0.40638143,-0.3597749,0.93945783,489.65733,659.59274)" d="m -716.03,-369.64 c 0.40451,-1.1844 0.32557,-3.0516 -0.0308,-3.6122 -2.9586,8.6713 -8.2447,5.492 -9.101,11.347 1.6394,-3.7075 7.8131,-2.4199 9.1318,-7.7344 z" filter="url(#filter1433-2-4-3)" opacity=".25" style="clip-rule:evenodd;opacity:0.15;fill-rule:evenodd;filter:url(#filter1754-6-5);image-rendering:optimizeQuality;shape-rendering:geometricPrecision" id="path449" />
    <path style="opacity:0.29719617;fill:white;fill-opacity:1;stroke:white;stroke-width:0.0905641;stroke-linejoin:round;stroke-dasharray:none;stroke-opacity:1;paint-order:markers stroke fill;filter:url(#filter12342)" d="m 16.366208,9.7647125 -0.729024,0.5617865 -0.677949,0.77226 -0.635008,1.058518 -0.473514,1.156423 -0.380107,1.333676 -0.215448,1.003948 -0.518923,0.821131 -0.511969,0.624654 -0.538439,0.525264 -0.523046,0.461659 -0.390612,0.247573 -0.247694,0.165755 0.695439,0.266581 2.478017,-2.878996 0.132801,-0.680576 0.293807,-1.603907 0.0207,-0.324239 0.498058,-1.108534 0.971168,-1.070737 0.892716,-0.946671 0.241817,-0.2567839 -0.322335,-0.1100939 z" id="path226472" sodipodi:nodetypes="cccccccccccccccccccccccc" />
    <path style="opacity:0.21914681;fill:white;fill-opacity:1;stroke:white;stroke-width:0.0905641;stroke-linejoin:round;stroke-dasharray:none;stroke-opacity:1;paint-order:markers stroke fill;filter:url(#filter12338)" d="m 23.957306,20.130793 1.494481,2.35987 0.386253,0.65362 0.499834,0.980283 0.414517,1.010344 0.314703,0.918619 0.363823,1.372484 0.318708,1.497861 0.228118,1.468286 0.140253,1.084887 0.120348,1.207024 0.212708,2.987964 0.05821,1.537862 0.04349,3.347461 1.321141,-0.01301 -0.160596,-3.559573 -0.580746,-5.218835 -0.981526,-4.365854 -0.724051,-1.911089 -1.456152,-3.155994 -1.448108,-2.347783 -0.520304,0.04641 -0.09444,0.0092 0.01759,0.03075 z" id="path238216" sodipodi:nodetypes="ccccccccccccccccccccccccc" />
    <path style="opacity:1;fill:black;fill-opacity:1;stroke:none;stroke-width:0.194846;stroke-linejoin:round;stroke-dasharray:none;stroke-opacity:1;paint-order:markers stroke fill" d="m 12.400137,23.248181 1.577462,-2.045138 0.772355,0.70522 -0.923168,1.412622 z" id="path241122" sodipodi:nodetypes="ccccc" />
  </g>
  <path transform="matrix(1.0226629,-0.30292734,0.30174887,1.0186845,861.16569,187.02094)" d="m -700.20284,-378.72002 c -0.53331,12.29402 -0.5416,12.53955 -0.008,31.98264 l 2.69158,-2.50751 c 0.0204,-17.93603 0.72227,-22.12082 -0.24766,-29.41157 z" filter="url(#filter1572-7-1)" image-rendering="optimizeQuality" opacity=".25" style="clip-rule:evenodd;opacity:0.15;fill-rule:evenodd;filter:url(#filter1572-7-1-4-4-8);shape-rendering:geometricPrecision" id="path435" sodipodi:nodetypes="ccccc" />
  <path style="opacity:1;fill:white;fill-opacity:1;stroke:white;stroke-width:0.105831;stroke-linejoin:round;stroke-dasharray:none;stroke-opacity:1;paint-order:markers stroke fill" d="m 14.947644,13.298603 0.05701,0.414811 c 0,0 0.513584,-0.09539 0.648965,-0.09539 0.135382,0 0.512541,0.09938 0.512541,0.09938 0.38333,0.155256 0.458309,0.303459 0.458309,0.303459 l 0.244548,0.200286 c 0.09736,0.06658 0.201444,0.300522 0.201444,0.300522 l 0.433579,-0.35833 -0.323974,-0.325922 -0.608922,-0.516224 -0.706124,-0.190678 z" id="path245370" sodipodi:nodetypes="ccsccccccccc" />
  <path style="opacity:0.195894;mix-blend-mode:normal;fill:white;fill-opacity:1;stroke:white;stroke-width:0.105831;stroke-linejoin:round;stroke-dasharray:none;stroke-opacity:1;paint-order:markers stroke fill;filter:url(#filter14524)" d="m 35.643063,8.5533002 -0.099,-0.08103 L 35.16817,8.28855 34.599335,8.1078789 33.57849,7.8237462 33.006565,7.6821223 32.000917,7.488352 l -0.04375,0.1530426 1.733539,0.5152214 0.870747,0.2050821 0.889563,0.3160317 z" id="path248242" sodipodi:nodetypes="cccccccccccc" />
</svg>
