<?xml version="1.0" encoding="UTF-8" standalone="no"?>
<svg width="50mm" height="50mm" clip-rule="evenodd" fill-rule="evenodd" image-rendering="optimizeQuality" shape-rendering="geometricPrecision" text-rendering="geometricPrecision" inkscape:version="1.2 (1:1.2.1+202207142221+cd75a1ee6d)" sodipodi:docname="wI.svg" version="1.1" viewBox="0 0 50 50" id="svg27141" xmlns:inkscape="http://www.inkscape.org/namespaces/inkscape" xmlns:sodipodi="http://sodipodi.sourceforge.net/DTD/sodipodi-0.dtd" xmlns:xlink="http://www.w3.org/1999/xlink" xmlns="http://www.w3.org/2000/svg" xmlns:svg="http://www.w3.org/2000/svg">
  <sodipodi:namedview bordercolor="#666666" borderopacity="1" gridtolerance="10" guidetolerance="10" inkscape:current-layer="svg27141" inkscape:cx="85.004732" inkscape:cy="89.355096" inkscape:document-rotation="0" inkscape:pageopacity="0" inkscape:pageshadow="2" inkscape:window-height="1029" inkscape:window-maximized="1" inkscape:window-width="1920" inkscape:window-x="0" inkscape:window-y="0" inkscape:zoom="7.2407734" objecttolerance="10" pagecolor="#ffffff" showgrid="false" id="namedview27087" inkscape:showpageshadow="2" inkscape:pagecheckerboard="0" inkscape:deskcolor="#d1d1d1" inkscape:document-units="mm" />
  <defs id="defs27109">
    <linearGradient id="linearGradient1643" x1="9.2407" x2="40.761" y1="27.266" y2="27.266" gradientTransform="matrix(.98495 0 0 .98605 .37559 .64119)" gradientUnits="userSpaceOnUse">
      <stop stop-color="#ece9df" offset="0" id="stop27089" />
      <stop stop-color="#f4e0c8" offset="1" id="stop27091" />
    </linearGradient>
    <linearGradient id="linearGradient2770-4" x1="17.945415" x2="16.941765" y1="26.96385" y2="25.611477" gradientTransform="matrix(1.0739 0 0 1.0269 -2.2596 -.38035)" gradientUnits="userSpaceOnUse" xlink:href="#linearGradient1643" />
    <linearGradient id="linearGradient2772-9" x1="21.347" x2="29.141" y1="10.312" y2="10.312" gradientTransform="matrix(.83475 0 0 .90883 3.7518 1.0937)" gradientUnits="userSpaceOnUse" xlink:href="#linearGradient1643" />
    <filter id="filter1616-8-6" x="-.080938" y="-.034006" width="1.1619" height="1.068" color-interpolation-filters="sRGB">
      <feGaussianBlur stdDeviation="0.40686194" id="feGaussianBlur27096" />
    </filter>
    <linearGradient id="linearGradient2774-8" x1="5.6115" x2="25.919" y1="42.295" y2="42.295" gradientTransform="matrix(1.0856 0 0 .94062 -2.5546 2.4128)" gradientUnits="userSpaceOnUse" xlink:href="#linearGradient1643" />
    <linearGradient id="linearGradient2776-7" x1="24.848" x2="45.155" y1="42.295" y2="42.295" gradientTransform="matrix(1.0856 0 0 .94062 -2.5546 2.4128)" gradientUnits="userSpaceOnUse" xlink:href="#linearGradient1643" />
    <filter id="filter1624-3" x="-0.00024597761" y="-0.00020206046" width="1.000492" height="1.0004041" color-interpolation-filters="sRGB">
      <feGaussianBlur stdDeviation="0.00030868449" id="feGaussianBlur27101" />
    </filter>
    <filter id="filter1616-8-6-66-1" x="-0.23873371" y="-0.15809394" width="1.4774674" height="1.3161879" color-interpolation-filters="sRGB">
      <feGaussianBlur stdDeviation="0.40686194" id="feGaussianBlur27104" />
    </filter>
    <linearGradient id="linearGradient2774-8-0" x1="5.6115" x2="25.919" y1="42.295" y2="42.295" gradientTransform="matrix(1.0856 0 0 .94062 -2.7162 2.9415)" gradientUnits="userSpaceOnUse" xlink:href="#linearGradient1643" />
    <linearGradient id="linearGradient2776-7-1" x1="24.848" x2="45.155" y1="42.295" y2="42.295" gradientTransform="matrix(1.0856 0 0 .94062 -2.7162 2.9415)" gradientUnits="userSpaceOnUse" xlink:href="#linearGradient1643" />
    <linearGradient id="linearGradient2766-9" x1="-736.5" x2="-696.5" y1="-367.95999" y2="-367.95999" gradientTransform="matrix(0.60195977,0,0,0.59961804,455.12948,242.55777)" gradientUnits="userSpaceOnUse" xlink:href="#linearGradient1643" />
    <filter id="filter1572-7-1-4-4-8" x="-0.063848594" y="-0.038424502" width="1.1276972" height="1.076849" color-interpolation-filters="sRGB">
      <feGaussianBlur stdDeviation="0.56999549" id="feGaussianBlur28739" />
    </filter>
    <linearGradient id="linearGradient2768-3" x1="-116.32" x2="-77.198997" y1="299.89999" y2="299.89999" gradientTransform="matrix(0.66489781,0,0,0.65177444,87.987896,-183.80155)" gradientUnits="userSpaceOnUse" xlink:href="#linearGradient1643" />
    <filter id="filter4257-2" x="-0.23448697" y="-0.41694674" width="1.4689739" height="1.8338935" color-interpolation-filters="sRGB">
      <feGaussianBlur stdDeviation="0.29904924" id="feGaussianBlur28742" />
    </filter>
    <filter id="filter1754-6-5" x="-0.11914115" y="-0.098731697" width="1.2382823" height="1.1974634" color-interpolation-filters="sRGB">
      <feGaussianBlur stdDeviation="0.46679525" id="feGaussianBlur28745" />
    </filter>
    <filter id="filter1676-3-7-2-3" x="-0.044722319" y="-0.051812329" width="1.0894446" height="1.1036247" color-interpolation-filters="sRGB">
      <feGaussianBlur stdDeviation="0.073036278" id="feGaussianBlur28748" />
    </filter>
    <filter id="filter1746-3-3" x="-0.32068081" y="-0.41131192" width="1.6413616" height="1.8226238" color-interpolation-filters="sRGB">
      <feGaussianBlur stdDeviation="1.0129772" id="feGaussianBlur28751" />
    </filter>
    <filter id="filter1758-7-8" x="-0.2394653" y="-0.069722207" width="1.4789306" height="1.1394444" color-interpolation-filters="sRGB">
      <feGaussianBlur stdDeviation="0.27949598" id="feGaussianBlur28754" />
    </filter>
  </defs>
  <path d="m 31.016,32.267 -2.592435,-1.653778 c -7.039793,0.02238 -6.315184,0.35955 -8.927051,1.225322 l -0.820534,0.417926 -1.5428,4.867 c -0.03112,0.38564 3.0951,2.0336 7.7132,2.0336 4.6178,0 7.7451,-1.6481 7.7135,-2.0336 z" fill="url(#linearGradient2770-4)" image-rendering="optimizeQuality" style="clip-rule:evenodd;fill:url(#linearGradient2770-4);fill-rule:evenodd;stroke:black;stroke-linecap:round;shape-rendering:geometricPrecision" sodipodi:nodetypes="cccccscc" id="path27111" />
  <path transform="matrix(1.0334,0,0,1.0218,592.95,439.08)" d="m -543.04556,-398.5582 -3.47458,-0.1753 1.0894,4.4227 3.0008,0.86255 -1.3539,-4.6689 0.63753,1.31554 c -5.58938,-5.63894 -1.07763,-0.94839 0.10075,-1.75659 z" filter="url(#filter1616-8-6)" image-rendering="optimizeQuality" opacity=".25" style="clip-rule:evenodd;opacity:0.15;mix-blend-mode:normal;fill-rule:evenodd;filter:url(#filter1616-8-6-66-1);shape-rendering:geometricPrecision" sodipodi:nodetypes="ccccccc" id="path27117" />
  <path d="m26.073 35.618c-3.0872 0.01216-6.3973 0.50415-8.3688 1.7676 2.1814 1.5015 5.7983 1.8266 8.885 1.7697-7.1397-1.444 2.03-2.9656 4.8441-3.0007-1.5224-0.36742-3.7096-0.54321-5.3603-0.53645z" image-rendering="optimizeQuality" opacity=".2" style="clip-rule:evenodd;fill-rule:evenodd;opacity:.15;shape-rendering:geometricPrecision" sodipodi:nodetypes="cccccc" id="path27119" />
  <path d="m17.134 37.123s1.9246-1.5659 7.7139-1.5659 7.7129 1.5659 7.7129 1.5659" fill="none" image-rendering="optimizeQuality" stroke="#000000" stroke-width=".99998" style="clip-rule:evenodd;fill-rule:evenodd;shape-rendering:geometricPrecision" sodipodi:nodetypes="czc" id="path27121" />
  <path d="m 18.496109,33.465915 c 0,0 1.944546,-0.812039 6.256746,-0.812139 4.3122,-6.1e-5 6.397857,0.796486 6.397857,0.796486" fill="none" image-rendering="optimizeQuality" stroke="black" stroke-width="0.99998" style="clip-rule:evenodd;fill-rule:evenodd;shape-rendering:geometricPrecision" sodipodi:nodetypes="csc" id="path27123" />
  <path d="m25 39.156c-5.6169 6.1e-5 -7.2958-1.7704-7.2958-1.7704s1.6787-1.7703 7.2958-1.7704c5.6169-6.1e-5 7.2958 1.7704 7.2958 1.7704s-1.6787 1.7703-7.2958 1.7704z" image-rendering="optimizeQuality" opacity=".2" style="clip-rule:evenodd;fill-rule:evenodd;opacity:.15;shape-rendering:geometricPrecision" sodipodi:nodetypes="scscs" id="path27127" />
  <path d="m22.488 39.156c-5.1931 6.2585-11.79-2.9152-18.533 3.4873l1.9679 3.6528c4.398-5.6719 18.915 5.2133 18.915-7.1401z" fill="url(#linearGradient2774-8)" image-rendering="optimizeQuality" stroke-linecap="round" style="clip-rule:evenodd;fill-rule:evenodd;fill:url(#linearGradient2774-8-0);shape-rendering:geometricPrecision;stroke-linejoin:round;stroke:#000000" id="path27129" />
  <path d="m27.188 39.156c5.1931 6.2585 11.79-2.9152 18.532 3.4873l-1.9679 3.6528c-4.398-5.6719-18.915 5.2133-18.915-7.1401z" fill="url(#linearGradient2776-7)" image-rendering="optimizeQuality" stroke-linecap="round" style="clip-rule:evenodd;fill-rule:evenodd;fill:url(#linearGradient2776-7-1);shape-rendering:geometricPrecision;stroke-linejoin:round;stroke:#000000" id="path27131" />
  <path d="m4.6722 42.735 1.4034 2.59-0.34576-2.3335c3.1201-2.3871 5.9576-1.6194 8.0407-1.5984 0 0-5.852-1.9547-9.0983 1.3419z" style="clip-rule:evenodd;fill-rule:evenodd;fill:#ffffff;image-rendering:optimizeQuality;shape-rendering:geometricPrecision" id="path27133" />
  <path d="m45.08 42.769-0.4897 0.88855c-1.9053-2.3245-3.739-2.7553-5.3188-2.7602 0 0 3.0172-0.71713 5.8085 1.8717z" style="clip-rule:evenodd;fill-rule:evenodd;fill:#ffffff;image-rendering:optimizeQuality;shape-rendering:geometricPrecision" id="path27135" />
  <path d="m 23.95214,15.274424 c -0.25001,0.04087 -2.6033,-1.49129 0.41766,-2.449458 -0.08906,-0.0056 -1.7573,1.319806 -0.41766,2.449458 z" style="clip-rule:evenodd;fill:white;fill-rule:evenodd;stroke-width:0.784974;image-rendering:optimizeQuality;shape-rendering:geometricPrecision" id="path27137" />
  <path transform="matrix(1.0007,0,0,0.98931,-586.04,102.79)" d="m 603.76,-67.566 0.91481,-3.168154 c 0,0 0.30436,-0.320677 1.38911,-0.498287 0,0 -0.5453,2.147941 0.70791,2.966141 -2.1537,0.33608 -2.5358,0.55399 -3.0118,0.70026 z" clip-rule="evenodd" fill="white" fill-rule="evenodd" filter="url(#filter1624-3)" image-rendering="optimizeQuality" opacity="0.7" shape-rendering="geometricPrecision" sodipodi:nodetypes="cccccc" id="path27139" />
  <path d="m 15.498081,27.390331 c 1.737885,1.44899 2.502714,-0.422374 3.117225,-1.837935 0.841341,-2.379365 4.290743,-1.099114 5.256997,-4.090522 1.704052,6.673059 -5.93833,5.052803 -5.576714,12.196918 H 35.383674 C 36.5351,20.35301 32.37252,11.131728 19.757822,12.415773 c -1.254246,-1.310051 -3.005254,-2.14194 -3.005254,-2.14194 -0.679887,1.255028 -0.609394,2.839285 0.401419,3.444586 0.264322,0.241367 -2.123218,1.251175 -1.8032,4.750723 0,0 -1.921853,3.200961 -3.043059,5.304615 -0.816599,1.644395 0.646597,3.771165 2.730385,3.966511" fill="url(#linearGradient2766-9)" image-rendering="optimizeQuality" stroke="black" stroke-dashoffset="1.852" stroke-linecap="round" style="clip-rule:evenodd;fill:url(#linearGradient2766-9);fill-rule:evenodd;stroke-width:0.60199;shape-rendering:geometricPrecision" sodipodi:nodetypes="ccccccccccc" id="path28759" />
  <path d="m 19.390548,16.220409 c -0.01066,5.99e-4 -0.02125,0.0018 -0.03185,0.0036 -1.771415,0.288101 -2.01787,1.961283 -2.01787,1.961283 -0.03605,0.178274 0.07933,0.352033 0.258091,0.388694 0.179321,0.03664 0.3545,-0.07849 0.391263,-0.257182 0,0 0.103669,-1.217887 1.475778,-1.441044 0.18061,-0.0295 0.303012,-0.199325 0.273412,-0.37929 -0.02769,-0.167744 -0.17861,-0.287143 -0.348835,-0.275964 z" color="black" color-rendering="auto" dominant-baseline="auto" image-rendering="optimizeQuality" solid-color="black" stop-color="black" style="font-variant-ligatures:normal;font-variant-position:normal;font-variant-caps:normal;font-variant-numeric:normal;font-variant-alternates:normal;font-variant-east-asian:normal;font-feature-settings:normal;font-variation-settings:normal;text-indent:0;text-decoration-line:none;text-decoration-style:solid;text-decoration-color:black;text-transform:none;text-orientation:mixed;white-space:normal;shape-padding:0;shape-margin:0;inline-size:0;clip-rule:evenodd;isolation:auto;mix-blend-mode:normal;fill-rule:evenodd;stroke-width:0.60199;shape-rendering:geometricPrecision" id="path28761" />
  <path d="m 19.294832,17.571274 a 0.67272368,0.7250968 69.395 0 1 -0.567773,0.822559 0.67272368,0.7250968 69.395 0 1 -0.843268,-0.496612 0.67272368,0.7250968 69.395 0 1 0.567773,-0.822559 0.67272368,0.7250968 69.395 0 1 0.843268,0.496619 z" image-rendering="optimizeQuality" style="clip-rule:evenodd;fill-rule:evenodd;stroke-width:0.60199;paint-order:markers fill stroke;shape-rendering:geometricPrecision" id="path28763" />
  <path d="m 14.309634,23.818725 c -0.08667,6e-4 -0.169593,0.03538 -0.23099,0.09629 -0.263955,0.262625 -0.402744,0.511288 -0.46904,0.705773 -0.0663,0.194461 -0.05658,0.371079 -0.05658,0.371079 0.01691,0.181085 0.177635,0.314443 0.359442,0.29828 0.18271,-0.01631 0.43032,-0.149216 0.413423,-0.331227 0,0 -0.0082,-5.99e-4 0.02475,-0.09746 0.03299,-0.09673 0.110177,-0.253342 0.308767,-0.450933 0.129657,-0.129 0.01674,-0.366479 -0.112909,-0.495479 -0.06284,-0.06239 -0.148168,-0.09708 -0.236878,-0.09629 z" color="black" color-rendering="auto" dominant-baseline="auto" image-rendering="optimizeQuality" solid-color="black" stop-color="black" style="font-variant-ligatures:normal;font-variant-position:normal;font-variant-caps:normal;font-variant-numeric:normal;font-variant-alternates:normal;font-variant-east-asian:normal;font-feature-settings:normal;font-variation-settings:normal;text-indent:0;text-decoration-line:none;text-decoration-style:solid;text-decoration-color:black;text-transform:none;text-orientation:mixed;white-space:normal;shape-padding:0;shape-margin:0;inline-size:0;clip-rule:evenodd;isolation:auto;mix-blend-mode:normal;fill-rule:evenodd;stroke-width:0.60199;shape-rendering:geometricPrecision" id="path28765" />
  <path transform="matrix(0.60195977,0,0,0.59961803,455.12947,242.55777)" d="m -718.42,-382.86 c 17.099,0.6447 19.298,14.991 17.595,34.473 h 3.5261 c 1.7534,-20.341 -3.9138,-34.957 -21.011,-35.602 z" filter="url(#filter1572-7-1)" image-rendering="optimizeQuality" opacity=".25" style="clip-rule:evenodd;opacity:0.15;fill-rule:evenodd;filter:url(#filter1572-7-1-4-4-8);shape-rendering:geometricPrecision" id="path28767" />
  <path d="m 19.748732,13.241763 c 0,0 0.392721,-2.493924 2.348001,-2.918387 0,0 1.251417,0.652979 1.001411,3.593218" fill="url(#linearGradient2768-3)" image-rendering="optimizeQuality" stroke="black" stroke-linecap="round" style="clip-rule:evenodd;fill:url(#linearGradient2768-3);fill-rule:evenodd;stroke-width:0.60199;paint-order:markers fill stroke;shape-rendering:geometricPrecision" id="path28769" />
  <path d="m 16.589489,26.115316 c -0.18451,0.31675 -0.874028,1.051436 -1.550425,1.626095" fill="none" image-rendering="optimizeQuality" stroke="black" stroke-linecap="round" style="clip-rule:evenodd;fill-rule:evenodd;stroke-width:0.60199;shape-rendering:geometricPrecision" id="path28771" />
  <path d="m 12.50878,24.10166 2.524867,-4.408974 0.705531,-1.138904 c 0,0 -0.479774,-2.657485 1.636871,-4.443168 -3e-4,6e-4 0.333918,-0.369753 0.0018,-0.6658 -0.332558,-0.296251 -1.165453,-1.281456 -0.453118,-2.610288 -0.04635,-0.01325 0.165024,2.893043 2.620642,2.928018 -2.359258,0.752066 -3.67876,3.003448 -3.100849,5.166398 -0.442773,0.705954 -0.877415,1.252018 -1.429259,1.931123 -0.493746,0.607589 -1.081355,1.321609 -1.852685,2.351915 -0.204394,0.273032 -0.421693,0.568277 -0.65358,0.88962 z" style="clip-rule:evenodd;opacity:0.8;mix-blend-mode:normal;fill:white;fill-rule:evenodd;stroke-width:0.60199;image-rendering:optimizeQuality;shape-rendering:geometricPrecision" id="path28773" />
  <path d="m 18.727155,33.285618 c -0.447675,-5.679533 6.070467,-5.294381 5.681761,-10.601042 0.664296,6.604431 -4.745787,5.495626 -5.681761,10.601042 z" style="clip-rule:evenodd;opacity:0.7;fill:white;fill-rule:evenodd;stroke-width:0.60199;image-rendering:optimizeQuality;shape-rendering:geometricPrecision" id="path28775" />
  <path transform="matrix(0.60195977,0,0,0.59961803,455.12947,242.55777)" d="m -733.97,-364.25 c -0.0148,0.57251 1.587,-1.8871 3.0607,-0.43886 -0.59811,-1.4295 -2.2181,-1.9017 -3.0607,0.43886 z" filter="url(#filter3022-9)" style="clip-rule:evenodd;fill:white;fill-rule:evenodd;filter:url(#filter4257-2);image-rendering:optimizeQuality;shape-rendering:geometricPrecision" id="path28777" />
  <path d="m 20.093672,13.360957 c 0,0 0.349232,-2.227061 1.955685,-2.684453 -0.935192,1.186702 -1.050473,3.102534 -1.955685,2.684453 z" style="clip-rule:evenodd;opacity:0.8;fill:white;fill-rule:evenodd;stroke-width:0.60199;image-rendering:optimizeQuality;shape-rendering:geometricPrecision" id="path28779" />
  <path transform="matrix(0.60195977,0,0,0.59961803,455.12947,242.55777)" d="m -716.03,-369.64 c 0.40451,-1.1844 0.32557,-3.0516 -0.0308,-3.6122 -2.9586,8.6713 -8.2447,5.492 -9.101,11.347 1.6394,-3.7075 7.8131,-2.4199 9.1318,-7.7344 z" filter="url(#filter1433-2-4-3)" opacity=".25" style="clip-rule:evenodd;opacity:0.15;fill-rule:evenodd;filter:url(#filter1754-6-5);image-rendering:optimizeQuality;shape-rendering:geometricPrecision" id="path28781" />
  <path transform="matrix(0.60195977,0,0,0.59961803,455.12947,242.55777)" d="m -723.87,-377.47 c -3.2168,0.61547 -3.405,3.2769 -3.405,3.2769 0,0 -0.49877,0.21082 -0.49048,-0.32798 -0.23069,-0.68798 1.2151,-3.4747 3.8955,-2.9489 z" filter="url(#filter1676-3-7)" opacity=".2" style="clip-rule:evenodd;opacity:0.8;fill:white;fill-rule:evenodd;filter:url(#filter1676-3-7-2-3);image-rendering:optimizeQuality;shape-rendering:geometricPrecision" id="path28783" />
  <path transform="matrix(0.46056439,0,0,0.55465541,355.80114,216.41335)" d="m -723.63,-356.13 c -6.5319,-0.82682 -7.5812,5.8397 -7.5812,5.8397 1.1097,-2.0653 4.2941,-4.784 7.5812,-5.8397 z" fill="white" filter="url(#filter1866-4-7)" style="clip-rule:evenodd;fill-rule:evenodd;filter:url(#filter1746-3-3);image-rendering:optimizeQuality;shape-rendering:geometricPrecision" id="path28785" />
  <path d="m 23.872363,21.461934 c 0,0 0.239971,-0.547148 0.4477,-2.099078" clip-rule="evenodd" fill="none" fill-rule="evenodd" image-rendering="optimizeQuality" shape-rendering="geometricPrecision" stroke="black" stroke-linecap="round" stroke-linejoin="round" id="path28787" style="stroke-width:0.60199" />
  <path d="m 28.017911,18.830306 c 0.36428,-0.026 5.3704,-6.2152 1.061,-9.6207997 l -0.51019,4.5567997 c 0.10743,1.6818 0.43691,3.3589 -0.55079,5.0641 z" filter="url(#filter1605-5)" opacity=".15" style="clip-rule:evenodd;opacity:0.15;fill-rule:evenodd;filter:url(#filter1758-7-8);image-rendering:optimizeQuality;shape-rendering:geometricPrecision" id="path28789" transform="matrix(0.60198987,0,0,0.60198987,6.8150323,13.818887)" />
</svg>
