<?xml version="1.0" encoding="UTF-8" standalone="no"?>
<svg width="50mm" height="50mm" clip-rule="evenodd" fill-rule="evenodd" image-rendering="optimizeQuality" shape-rendering="geometricPrecision" text-rendering="geometricPrecision" inkscape:version="1.2 (1:1.2.1+202207142221+cd75a1ee6d)" sodipodi:docname="wU.svg" version="1.1" viewBox="0 0 50 50" id="svg33340" xmlns:inkscape="http://www.inkscape.org/namespaces/inkscape" xmlns:sodipodi="http://sodipodi.sourceforge.net/DTD/sodipodi-0.dtd" xmlns:xlink="http://www.w3.org/1999/xlink" xmlns="http://www.w3.org/2000/svg" xmlns:svg="http://www.w3.org/2000/svg">
  <sodipodi:namedview bordercolor="#666666" borderopacity="1" gridtolerance="10" guidetolerance="10" inkscape:current-layer="svg33340" inkscape:cx="-7.9688832" inkscape:cy="31.875533" inkscape:document-rotation="0" inkscape:pageopacity="0" inkscape:pageshadow="2" inkscape:window-height="1029" inkscape:window-maximized="1" inkscape:window-width="1920" inkscape:window-x="0" inkscape:window-y="0" inkscape:zoom="2.1960417" objecttolerance="10" pagecolor="#ffffff" showgrid="false" id="namedview33295" inkscape:showpageshadow="2" inkscape:pagecheckerboard="0" inkscape:deskcolor="#d1d1d1" inkscape:document-units="mm" />
  <defs id="defs33318">
    <linearGradient id="linearGradient2472-2" x1="9.2407" x2="40.761" y1="27.266" y2="27.266" gradientTransform="matrix(1.0155 0 0 1.0103 -.38852 .48153)" gradientUnits="userSpaceOnUse">
      <stop stop-color="#ece9df" offset="0" id="stop33297" />
      <stop stop-color="#f4e0c8" offset="1" id="stop33299" />
    </linearGradient>
    <filter id="filter1568-2" x="-.11252" y="-.030292" width="1.225" height="1.0606" color-interpolation-filters="sRGB">
      <feGaussianBlur stdDeviation="0.46700248" id="feGaussianBlur33302" />
    </filter>
    <linearGradient id="linearGradient2360" x1="9.0055" x2="40.995" y1="26.762" y2="26.762" gradientTransform="rotate(180,25.323638,27.275737)" gradientUnits="userSpaceOnUse" inkscape:collect="always">
      <stop stop-color="#ece9df" offset="0" id="stop33305" />
      <stop stop-color="#f4e0c8" offset="1" id="stop33307" />
    </linearGradient>
    <filter id="filter1568-2-3-0" x="-0.1115568" y="-0.030364779" width="1.2231136" height="1.0607296" color-interpolation-filters="sRGB">
      <feGaussianBlur stdDeviation="0.46309753" id="feGaussianBlur33310" />
    </filter>
    <linearGradient id="linearGradient2362" x1="-36.133" x2="-9.9385" y1="-313.97" y2="-313.97" gradientTransform="matrix(1,0,0,-1,48.682807,-277.69963)" gradientUnits="userSpaceOnUse" inkscape:collect="always">
      <stop style="stop-color:#000000" offset="0" id="stop33313" />
      <stop style="stop-color:#000000;stop-opacity:0" offset="1" id="stop33315" />
    </linearGradient>
    <linearGradient id="linearGradient2766-9" x1="-736.5" x2="-696.5" y1="-367.95999" y2="-367.95999" gradientTransform="matrix(0.56356966,0,0,0.56137726,426.71981,229.19107)" gradientUnits="userSpaceOnUse" xlink:href="#linearGradient1643" />
    <linearGradient id="linearGradient1643" x1="9.2406998" x2="40.761002" y1="27.266001" y2="27.266001" gradientTransform="matrix(0.98495,0,0,0.98605,0.37559,0.64119)" gradientUnits="userSpaceOnUse">
      <stop stop-color="#ece9df" offset="0" id="stop28714" />
      <stop stop-color="#f4e0c8" offset="1" id="stop28716" />
    </linearGradient>
    <filter id="filter1572-7-1-4-4-8" x="-0.063848594" y="-0.038424502" width="1.1276972" height="1.076849" color-interpolation-filters="sRGB">
      <feGaussianBlur stdDeviation="0.56999549" id="feGaussianBlur28739" />
    </filter>
    <linearGradient id="linearGradient2768-3" x1="-116.32" x2="-77.198997" y1="299.89999" y2="299.89999" gradientTransform="matrix(0.62249382,0,0,0.61020738,82.992753,-169.9771)" gradientUnits="userSpaceOnUse" xlink:href="#linearGradient1643" />
    <filter id="filter4257-2" x="-0.23448697" y="-0.41694674" width="1.4689739" height="1.8338935" color-interpolation-filters="sRGB">
      <feGaussianBlur stdDeviation="0.29904924" id="feGaussianBlur28742" />
    </filter>
    <filter id="filter1754-6-5" x="-0.11914115" y="-0.098731697" width="1.2382823" height="1.1974634" color-interpolation-filters="sRGB">
      <feGaussianBlur stdDeviation="0.46679525" id="feGaussianBlur28745" />
    </filter>
    <filter id="filter1676-3-7-2-3" x="-0.044722319" y="-0.051812329" width="1.0894446" height="1.1036247" color-interpolation-filters="sRGB">
      <feGaussianBlur stdDeviation="0.073036278" id="feGaussianBlur28748" />
    </filter>
    <filter id="filter1746-3-3" x="-0.32068081" y="-0.41131192" width="1.6413616" height="1.8226238" color-interpolation-filters="sRGB">
      <feGaussianBlur stdDeviation="1.0129772" id="feGaussianBlur28751" />
    </filter>
    <filter id="filter1758-7-8" x="-0.2394653" y="-0.069722205" width="1.4789306" height="1.1394444" color-interpolation-filters="sRGB">
      <feGaussianBlur stdDeviation="0.27949598" id="feGaussianBlur28754" />
    </filter>
  </defs>
  <path d="m 33.584807,34.050974 h -15.879 m 21.038,4.4326 h -26.196 m 26.196,7.8107 v -7.811 l -5.1583,-4.4326 c -2.955998,-8.086628 -11.921036,-6.733812 -15.87835,0 l -5.1583,4.4326 v 7.811 h 5.5929 v -3.3482 h 4.6133 v 3.3482 h 5.7826 v -3.3482 h 4.6133 v 3.3482 z" clip-rule="evenodd" fill="url(#linearGradient2472-2)" fill-rule="evenodd" image-rendering="optimizeQuality" shape-rendering="geometricPrecision" stroke="black" stroke-linecap="round" style="fill:url(#linearGradient2360)" sodipodi:nodetypes="ccccccccccccccccccc" id="path33320" />
  <path d="m 38.180807,39.055374 0.04126,6.6749 -3.328,0.09475 1.9969,-0.71094 v -5.3559 l -4.7045,-0.66643 z" style="clip-rule:evenodd;opacity:0.8;mix-blend-mode:normal;fill:white;fill-rule:evenodd;image-rendering:optimizeQuality;shape-rendering:geometricPrecision" sodipodi:nodetypes="ccccccc" id="path33324" />
  <path d="m 32.592823,33.397855 h -7.439262 l 3.255472,-1.203657 1.002482,-1.538486 1.163471,0.217223 z" opacity=".9" style="clip-rule:evenodd;opacity:0.8;mix-blend-mode:normal;fill:white;fill-rule:evenodd;stroke-width:0.981368;image-rendering:optimizeQuality;shape-rendering:geometricPrecision" sodipodi:nodetypes="cccccc" id="path33326" />
  <path d="m 27.995807,45.785874 0.01705,-2.433 c -0.6576,1.2303 -1.3626,2.1769 -3.0262,2.4246 z" style="clip-rule:evenodd;opacity:0.8;mix-blend-mode:normal;fill:white;fill-rule:evenodd;image-rendering:optimizeQuality;shape-rendering:geometricPrecision" id="path33334" />
  <path d="m 17.595807,45.773274 0.01705,-2.433 c -0.38835,1.5204 -1.1111,2.3894 -3.0262,2.4246 z" style="clip-rule:evenodd;opacity:0.7;mix-blend-mode:normal;fill:white;fill-rule:evenodd;image-rendering:optimizeQuality;shape-rendering:geometricPrecision" id="path33336" />
  <path d="m 12.548807,38.483374 h 26.195 l -5.1602,-4.4326 h -15.876 z" style="clip-rule:evenodd;opacity:0.15;fill:url(#linearGradient2362);fill-rule:evenodd;image-rendering:optimizeQuality;shape-rendering:geometricPrecision" id="path33338" />
  <path d="m 15.125996,27.74598 c 1.627051,1.35658 2.343102,-0.395437 2.918422,-1.72072 0.787684,-2.22762 4.0171,-1.029017 4.921732,-3.829648 1.595376,6.247482 -5.559611,4.730559 -5.221058,11.419056 H 33.74338 C 34.821373,21.157466 30.924263,12.524273 19.11407,13.726427 c -1.174256,-1.226501 -2.813592,-2.005338 -2.813592,-2.005338 -0.636528,1.174989 -0.57053,2.658211 0.375818,3.224908 0.247464,0.225974 -1.987811,1.171381 -1.688202,4.447745 0,0 -1.799286,2.99682 -2.848986,4.966312 -0.764521,1.539523 0.60536,3.530658 2.556254,3.713545" fill="url(#linearGradient2766-9)" image-rendering="optimizeQuality" stroke="black" stroke-dashoffset="1.852" stroke-linecap="round" style="clip-rule:evenodd;fill:url(#linearGradient2766-9);fill-rule:evenodd;stroke-width:0.563598;shape-rendering:geometricPrecision" sodipodi:nodetypes="ccccccccccc" id="path28759" />
  <path d="m 18.77022,17.288422 c -0.01,5.62e-4 -0.01989,0.0017 -0.0298,0.0033 -1.658441,0.269726 -1.889179,1.836202 -1.889179,1.836202 -0.03375,0.166904 0.07427,0.329581 0.241632,0.363904 0.167885,0.0343 0.331891,-0.07348 0.366309,-0.24078 0,0 0.09706,-1.140215 1.381661,-1.349142 0.169091,-0.02761 0.283687,-0.186612 0.255976,-0.355099 -0.02593,-0.157047 -0.16722,-0.268831 -0.32659,-0.258365 z" color="black" color-rendering="auto" dominant-baseline="auto" image-rendering="optimizeQuality" solid-color="black" stop-color="black" style="font-variant-ligatures:normal;font-variant-position:normal;font-variant-caps:normal;font-variant-numeric:normal;font-variant-alternates:normal;font-variant-east-asian:normal;font-feature-settings:normal;font-variation-settings:normal;text-indent:0;text-decoration-line:none;text-decoration-style:solid;text-decoration-color:black;text-transform:none;text-orientation:mixed;white-space:normal;shape-padding:0;shape-margin:0;inline-size:0;clip-rule:evenodd;isolation:auto;mix-blend-mode:normal;fill-rule:evenodd;stroke-width:0.563598;shape-rendering:geometricPrecision" id="path28761" />
  <path d="m 18.680608,18.553135 a 0.62982059,0.6788536 69.395 0 1 -0.531564,0.770101 0.62982059,0.6788536 69.395 0 1 -0.789487,-0.464939 0.62982059,0.6788536 69.395 0 1 0.531563,-0.770102 0.62982059,0.6788536 69.395 0 1 0.789488,0.464947 z" image-rendering="optimizeQuality" style="clip-rule:evenodd;fill-rule:evenodd;stroke-width:0.563598;paint-order:markers fill stroke;shape-rendering:geometricPrecision" id="path28763" />
  <path d="m 14.01334,24.402155 c -0.08114,5.61e-4 -0.158776,0.03312 -0.216258,0.09015 -0.24712,0.245876 -0.377057,0.478681 -0.439126,0.660763 -0.06206,0.182059 -0.05297,0.347413 -0.05297,0.347413 0.01584,0.169535 0.166306,0.294389 0.336519,0.279256 0.171057,-0.01526 0.402876,-0.139697 0.387056,-0.310101 0,0 -0.0077,-5.62e-4 0.02316,-0.09125 0.03087,-0.09056 0.103149,-0.237185 0.289074,-0.422174 0.121388,-0.120774 0.01566,-0.343106 -0.105709,-0.463881 -0.05883,-0.05842 -0.138718,-0.09089 -0.221769,-0.09015 z" color="black" color-rendering="auto" dominant-baseline="auto" image-rendering="optimizeQuality" solid-color="black" stop-color="black" style="font-variant-ligatures:normal;font-variant-position:normal;font-variant-caps:normal;font-variant-numeric:normal;font-variant-alternates:normal;font-variant-east-asian:normal;font-feature-settings:normal;font-variation-settings:normal;text-indent:0;text-decoration-line:none;text-decoration-style:solid;text-decoration-color:black;text-transform:none;text-orientation:mixed;white-space:normal;shape-padding:0;shape-margin:0;inline-size:0;clip-rule:evenodd;isolation:auto;mix-blend-mode:normal;fill-rule:evenodd;stroke-width:0.563598;shape-rendering:geometricPrecision" id="path28765" />
  <path transform="matrix(0.56356966,0,0,0.56137726,426.71981,229.19107)" d="m -718.42,-382.86 c 17.099,0.6447 19.298,14.991 17.595,34.473 h 3.5261 c 1.7534,-20.341 -3.9138,-34.957 -21.011,-35.602 z" filter="url(#filter1572-7-1)" image-rendering="optimizeQuality" opacity=".25" style="clip-rule:evenodd;opacity:0.15;fill-rule:evenodd;filter:url(#filter1572-7-1-4-4-8);shape-rendering:geometricPrecision" id="path28767" />
  <path d="m 19.105561,14.49974 c 0,0 0.367673,-2.334873 2.198256,-2.732266 0,0 1.171607,0.611334 0.937545,3.36406" fill="url(#linearGradient2768-3)" image-rendering="optimizeQuality" stroke="black" stroke-linecap="round" style="clip-rule:evenodd;fill:url(#linearGradient2768-3);fill-rule:evenodd;stroke-width:0.563598;paint-order:markers fill stroke;shape-rendering:geometricPrecision" id="path28769" />
  <path d="m 16.147799,26.55228 c -0.172743,0.296548 -0.818288,0.98438 -1.451546,1.522391" fill="none" image-rendering="optimizeQuality" stroke="black" stroke-linecap="round" style="clip-rule:evenodd;fill-rule:evenodd;stroke-width:0.563598;shape-rendering:geometricPrecision" id="path28771" />
  <path d="m 12.327338,24.667045 2.363842,-4.12779 0.660537,-1.066272 c 0,0 -0.449177,-2.488003 1.532479,-4.159802 -2.82e-4,5.62e-4 0.312622,-0.346173 0.0017,-0.623339 -0.311348,-0.277358 -1.091125,-1.199731 -0.424221,-2.443817 -0.0434,-0.01241 0.1545,2.708539 2.453512,2.741284 -2.208798,0.704103 -3.444147,2.811902 -2.903093,4.836909 -0.414576,0.660931 -0.821501,1.172171 -1.338151,1.807965 -0.462258,0.56884 -1.01239,1.237324 -1.734529,2.201921 -0.191358,0.25562 -0.3948,0.532036 -0.611898,0.832886 z" style="clip-rule:evenodd;opacity:0.8;mix-blend-mode:normal;fill:white;fill-rule:evenodd;stroke-width:0.563598;image-rendering:optimizeQuality;shape-rendering:geometricPrecision" id="path28773" />
  <path d="m 18.149134,33.265294 c -0.419125,-5.317321 5.683321,-4.956731 5.319406,-9.924957 0.621931,6.183231 -4.443123,5.145141 -5.319406,9.924957 z" style="clip-rule:evenodd;opacity:0.7;fill:white;fill-rule:evenodd;stroke-width:0.563598;image-rendering:optimizeQuality;shape-rendering:geometricPrecision" id="path28775" />
  <path transform="matrix(0.56356966,0,0,0.56137726,426.71981,229.19107)" d="m -733.97,-364.25 c -0.0148,0.57251 1.587,-1.8871 3.0607,-0.43886 -0.59811,-1.4295 -2.2181,-1.9017 -3.0607,0.43886 z" filter="url(#filter3022-9)" style="clip-rule:evenodd;fill:white;fill-rule:evenodd;filter:url(#filter4257-2);image-rendering:optimizeQuality;shape-rendering:geometricPrecision" id="path28777" />
  <path d="m 19.428502,14.611332 c 0,0 0.32696,-2.08503 1.83096,-2.513252 -0.875549,1.11102 -0.983478,2.904672 -1.83096,2.513252 z" style="clip-rule:evenodd;opacity:0.8;fill:white;fill-rule:evenodd;stroke-width:0.563598;image-rendering:optimizeQuality;shape-rendering:geometricPrecision" id="path28779" />
  <path transform="matrix(0.56356966,0,0,0.56137726,426.71981,229.19107)" d="m -716.03,-369.64 c 0.40451,-1.1844 0.32557,-3.0516 -0.0308,-3.6122 -2.9586,8.6713 -8.2447,5.492 -9.101,11.347 1.6394,-3.7075 7.8131,-2.4199 9.1318,-7.7344 z" filter="url(#filter1433-2-4-3)" opacity=".25" style="clip-rule:evenodd;opacity:0.15;fill-rule:evenodd;filter:url(#filter1754-6-5);image-rendering:optimizeQuality;shape-rendering:geometricPrecision" id="path28781" />
  <path transform="matrix(0.56356966,0,0,0.56137726,426.71981,229.19107)" d="m -723.87,-377.47 c -3.2168,0.61547 -3.405,3.2769 -3.405,3.2769 0,0 -0.49877,0.21082 -0.49048,-0.32798 -0.23069,-0.68798 1.2151,-3.4747 3.8955,-2.9489 z" filter="url(#filter1676-3-7)" opacity=".2" style="clip-rule:evenodd;opacity:0.8;fill:white;fill-rule:evenodd;filter:url(#filter1676-3-7-2-3);image-rendering:optimizeQuality;shape-rendering:geometricPrecision" id="path28783" />
  <path transform="matrix(0.4311918,0,0,0.51928214,333.72616,204.71402)" d="m -723.63,-356.13 c -6.5319,-0.82682 -7.5812,5.8397 -7.5812,5.8397 1.1097,-2.0653 4.2941,-4.784 7.5812,-5.8397 z" fill="white" filter="url(#filter1866-4-7)" style="clip-rule:evenodd;fill-rule:evenodd;filter:url(#filter1746-3-3);image-rendering:optimizeQuality;shape-rendering:geometricPrecision" id="path28785" />
  <path d="m 22.966207,22.195669 c 0,0 0.224665,-0.512254 0.419146,-1.965209" clip-rule="evenodd" fill="none" fill-rule="evenodd" image-rendering="optimizeQuality" shape-rendering="geometricPrecision" stroke="black" stroke-linecap="round" stroke-linejoin="round" id="path28787" style="stroke-width:0.563598" />
  <path d="m 23.610473,22.997305 c 0.36428,-0.026 5.3704,-6.2152 1.061,-9.6208 l -0.51019,4.5568 c 0.10743,1.6818 0.43691,3.3589 -0.55079,5.0641 z" filter="url(#filter1605-5)" opacity=".15" style="clip-rule:evenodd;opacity:0.15;fill-rule:evenodd;filter:url(#filter1758-7-8);image-rendering:optimizeQuality;shape-rendering:geometricPrecision" id="path28789" transform="matrix(0.56359783,0,0,0.56359783,9.4807339,12.691547)" />
</svg>
