<svg xmlns="http://www.w3.org/2000/svg" width="50mm" height="50mm" fill-rule="evenodd" clip-rule="evenodd" image-rendering="optimizeQuality" shape-rendering="geometricPrecision" text-rendering="geometricPrecision" viewBox="0 0 50 50"><path d="M-365.718 151.444c-2.966 4.278-5.91 8.574-8.868 12.859-.088.531.512.923.702 1.395.871 1.314 1.671 2.697 2.587 3.968.486.13.982-.341 1.474-.458 2.218-.897 4.76-1.192 7.097-.65 1.135.208 2.202.685 3.232 1.161.506-.157.65-.893 1.004-1.282.865-1.402 1.83-2.752 2.578-4.22-.146-.648-.736-1.147-1.057-1.734-2.513-3.657-5.045-7.302-7.57-10.952-.32-.2-.825-.181-1.179-.087z" style="opacity:1;fill:#575452;fill-opacity:1;stroke:#000;stroke-width:.42426407;stroke-linecap:square;stroke-linejoin:miter;stroke-miterlimit:4;stroke-dasharray:none;stroke-dashoffset:0;stroke-opacity:1;paint-order:fill markers stroke" transform="translate(390.121 -140.344)"/><path d="M-365.629 173.546c-1.907-.01-3.801.507-5.484 1.392-.287.192-.032.516.132.694 1.146 1.46 2.48 2.913 4.27 3.56.743.265 1.556.346 2.325.142 1.737-.421 3.072-1.737 4.17-3.078.278-.385.635-.734.835-1.163-.018-.356-.487-.367-.745-.504-1.759-.653-3.617-1.083-5.503-1.043z" style="opacity:1;fill:#575452;fill-opacity:1;stroke:none;stroke-width:.21213204;stroke-linecap:square;stroke-linejoin:miter;stroke-miterlimit:4;stroke-dasharray:none;stroke-dashoffset:0;stroke-opacity:1;paint-order:fill markers stroke" transform="translate(390.121 -140.344)"/><path d="m-363.055 174.037-2.596 5.121c2.783.127 4.616-1.87 6.104-4.21-1.158-.337-2.239-.907-3.508-.911z" style="fill:#464342;fill-opacity:1;fill-rule:evenodd;stroke:none;stroke-width:.26458332px;stroke-linecap:butt;stroke-linejoin:miter;stroke-opacity:1" transform="translate(390.121 -140.344)"/><path d="M-1378.637 739.871c-7.17 0-13.047 5.863-13.047 13.033 0 5.006 2.869 9.368 7.037 11.55l-34.566 50.028 14.023 21.848c-.527.312-1.06.608-1.583.936l-1.227.752.38 18.494 2.114-.045c8.84 12.62 17.906 19.145 27.319 18.947 9.674-.203 18.463-7.428 26.595-19.787l2.795-.117-.687-15.988-.092-1.504-1.03-.7a63.155 63.155 0 0 0-1.46-.96l14.615-22.852-34.31-49.557c3.686-2.308 6.157-6.396 6.157-11.045 0-7.17-5.863-13.033-13.033-13.033zm0 5.067a7.927 7.927 0 0 1 7.969 7.966 7.929 7.929 0 0 1-7.969 7.97 7.939 7.939 0 0 1-7.98-7.97 7.937 7.937 0 0 1 7.98-7.966zm2.512 20.75-.4.277 32.992 47.646-12.905 20.186c-7.83-4.132-15.576-5.83-23.136-5.58v-.002c-7.265.24-14.353 2.285-21.172 5.674l-12.389-19.301 33.653-48.694c.28.019.559.043.843.043.86 0 1.698-.089 2.512-.25zm-1.728 67.535c7.526.075 15.26 2.454 23.357 7.75l.404 9.4c-8.365-3.507-16.746-5.489-25.02-5.523-7.99-.035-15.88 1.75-23.56 5.718l-.197-9.623c8.223-4.936 16.486-7.808 25.015-7.722zm-1.186 16.582c7.166.045 14.481 1.767 21.996 4.828-7.288 10.49-14.462 15.574-21.25 15.717-6.678.14-14.07-4.441-22.023-15.31 6.987-3.634 14.058-5.28 21.277-5.235z" style="color:#000;font-style:normal;font-variant:normal;font-weight:400;font-stretch:normal;font-size:medium;line-height:normal;font-family:sans-serif;font-variant-ligatures:normal;font-variant-position:normal;font-variant-caps:normal;font-variant-numeric:normal;font-variant-alternates:normal;font-feature-settings:normal;text-indent:0;text-align:start;text-decoration:none;text-decoration-line:none;text-decoration-style:solid;text-decoration-color:#000;letter-spacing:normal;word-spacing:normal;text-transform:none;writing-mode:lr-tb;direction:ltr;text-orientation:mixed;dominant-baseline:auto;baseline-shift:baseline;text-anchor:start;white-space:normal;shape-padding:0;clip-rule:nonzero;display:inline;overflow:visible;visibility:visible;opacity:1;isolation:auto;mix-blend-mode:normal;color-interpolation:sRGB;color-interpolation-filters:linearRGB;solid-color:#000;solid-opacity:1;vector-effect:none;fill:#000;fill-opacity:1;fill-rule:nonzero;stroke:none;stroke-width:5.0655818;stroke-linecap:butt;stroke-linejoin:miter;stroke-miterlimit:4;stroke-dasharray:none;stroke-dashoffset:0;stroke-opacity:1;color-rendering:auto;image-rendering:auto;shape-rendering:auto;text-rendering:auto;enable-background:accumulate" transform="translate(389.574 -191.418) scale(.26458)"/><path d="M-168.836 209.693v3.5h-4.121v1.71h4.121v6.019h1.803v-6.02h4.187v-1.709h-4.187v-3.5z" style="color:#000;font-style:normal;font-variant:normal;font-weight:400;font-stretch:normal;font-size:medium;line-height:normal;font-family:sans-serif;font-variant-ligatures:normal;font-variant-position:normal;font-variant-caps:normal;font-variant-numeric:normal;font-variant-alternates:normal;font-feature-settings:normal;text-indent:0;text-align:start;text-decoration:none;text-decoration-line:none;text-decoration-style:solid;text-decoration-color:#000;letter-spacing:normal;word-spacing:normal;text-transform:none;writing-mode:lr-tb;direction:ltr;text-orientation:mixed;dominant-baseline:auto;baseline-shift:baseline;text-anchor:start;white-space:normal;shape-padding:0;clip-rule:nonzero;display:inline;overflow:visible;visibility:visible;opacity:1;isolation:auto;mix-blend-mode:normal;color-interpolation:sRGB;color-interpolation-filters:linearRGB;solid-color:#000;solid-opacity:1;vector-effect:none;fill:#b3b3b3;fill-opacity:1;fill-rule:nonzero;stroke:none;stroke-width:1.37872982;stroke-linecap:square;stroke-linejoin:miter;stroke-miterlimit:4;stroke-dasharray:none;stroke-dashoffset:0;stroke-opacity:1;paint-order:fill markers stroke;color-rendering:auto;image-rendering:auto;shape-rendering:auto;text-rendering:auto;enable-background:accumulate" transform="translate(157.656 -148.938) scale(.79003)"/><path d="M-638.292 765.26c-2.1-.778-3.833-2.346-4.934-4.467-.869-1.672-.98-2.217-.838-4.122.566-7.603 9.386-10.826 14.637-5.349 4.017 4.191 2.664 11.044-2.684 13.601-1.697.811-4.49.964-6.18.338z" style="opacity:1;fill:#fff;fill-opacity:1;stroke:none;stroke-width:2.00439715;stroke-linecap:square;stroke-linejoin:miter;stroke-miterlimit:4;stroke-dasharray:none;stroke-dashoffset:0;stroke-opacity:1;paint-order:fill markers stroke" transform="translate(177.395 -173.978) scale(.24007)"/><path d="M-375.754 230.413c-1.323 0-2.387.81-2.387 1.814.004 1.794 0 3.736 0 5.354h28.193v-5.354c0-1.005-1.065-1.814-2.387-1.814z" style="opacity:1;fill:#575452;fill-opacity:1;stroke:#000;stroke-width:1.19350111;stroke-linecap:square;stroke-linejoin:miter;stroke-miterlimit:4;stroke-dasharray:none;stroke-dashoffset:0;stroke-opacity:1;paint-order:fill markers stroke" transform="translate(389.045 -192.477)"/><path d="M-365.439 169.186c-2.267.05-4.453.914-6.362 2.073-.203.69-.056 1.499-.126 2.233-.214.672.458.792.876.408 2.907-1.383 6.324-1.473 9.424-.712.95.21 1.827.644 2.77.853.475-.224.13-.88.204-1.287-.13-.583.217-1.497-.53-1.732-1.878-1.152-4.03-1.91-6.256-1.836zm.063-23.308c-1.595-.01-2.73 1.974-1.88 3.333.506.942 1.702 1.496 2.708 1.004.927-.336 1.602-1.289 1.423-2.292.033-1.133-1.176-2.077-2.251-2.045z" style="opacity:1;fill:#575452;fill-opacity:1;stroke:#000;stroke-width:.42426407;stroke-linecap:square;stroke-linejoin:miter;stroke-miterlimit:4;stroke-dasharray:none;stroke-dashoffset:0;stroke-opacity:1;paint-order:fill markers stroke" transform="translate(390.121 -140.344)"/><path d="m-364.742 151.588 7.172 12.629-3.3 4.645 1.452.696 3.435-5.429zm3.278 18.528-1.1 2.685 3.82 1.125.017-2.514c-.965-.46-1.992-.954-2.737-1.296z" style="fill:#464342;fill-opacity:1;fill-rule:evenodd;stroke:none;stroke-width:.26458332px;stroke-linecap:butt;stroke-linejoin:miter;stroke-opacity:1" transform="translate(390.121 -140.344)"/></svg>