<svg xmlns="http://www.w3.org/2000/svg" xmlns:xlink="http://www.w3.org/1999/xlink" width="177.17" height="177.17" fill-rule="evenodd" clip-rule="evenodd" image-rendering="optimizeQuality" shape-rendering="geometricPrecision" viewBox="0 0 50 50"><defs><filter id="b" width="1.816" height="1.086" x="-.408" y="-.043" color-interpolation-filters="sRGB"><feGaussianBlur stdDeviation=".57"/></filter><filter id="d" width="1.238" height="1.197" x="-.119" y="-.099" color-interpolation-filters="sRGB"><feGaussianBlur stdDeviation=".467"/></filter><filter id="e" width="1.18" height="1.124" x="-.09" y="-.062" style="color-interpolation-filters:sRGB"><feGaussianBlur stdDeviation=".214"/></filter><filter id="f" width="1.33" height="1.096" x="-.165" y="-.048" style="color-interpolation-filters:sRGB"><feGaussianBlur stdDeviation=".391"/></filter><filter id="g" width="1.816" height="1.086" x="-.408" y="-.043" color-interpolation-filters="sRGB"><feGaussianBlur stdDeviation=".57"/></filter><filter id="h" width="1.256" height="1.793" x="-.128" y="-.396" style="color-interpolation-filters:sRGB"><feGaussianBlur stdDeviation=".174"/></filter><linearGradient xlink:href="#a" id="c" x1="5.101" x2="42.926" y1="21.808" y2="21.641" gradientUnits="userSpaceOnUse"/><linearGradient id="a"><stop offset="0" style="stop-color:#737373;stop-opacity:1"/><stop offset="1" style="stop-color:#303030;stop-opacity:1"/></linearGradient></defs><g style="opacity:1;fill:none;fill-opacity:1;fill-rule:evenodd;stroke-width:1.5;stroke-linecap:round;stroke-linejoin:round;stroke-miterlimit:4;stroke-dasharray:none;stroke-opacity:1"><path d="m13.234 14.437.033.242s.3-.056.38-.056c.078 0 .299.059.299.059.224.09.268.177.268.177l.143.117c.057.039.118.176.118.176l.253-.21-.19-.19-.355-.302-.413-.111z" style="fill:#000;fill-opacity:1;stroke:none;stroke-width:.0618586;stroke-linejoin:round;stroke-dasharray:none;stroke-opacity:1;paint-order:markers stroke fill" transform="translate(-2.742 -.806) scale(1.16857)"/><path d="m25.33 11.663-.058-.047-.22-.108-.332-.105-.596-.166-.335-.083-.588-.113-.025.09 1.1.267.454.085.46.137z" style="opacity:.856538;fill:#fff;fill-opacity:1;stroke:none;stroke-width:.0618586;stroke-linejoin:round;stroke-dasharray:none;stroke-opacity:1;paint-order:markers stroke fill" transform="translate(-2.742 -.806) scale(1.16857)"/><path d="M-700.203-378.72c-.533 12.294-.541 12.54-.008 31.983l2.692-2.508c.02-17.936.722-22.12-.248-29.411z" filter="url(#filter1572-7-1)" opacity=".25" style="clip-rule:evenodd;opacity:.15;fill-rule:evenodd;filter:url(#b);shape-rendering:geometricPrecision" transform="matrix(.71661 -.21227 .21144 .71382 605.082 137.557)"/><path d="M14.398 35.09c-1.17 0-2.11.716-2.11 1.604v4.731h24.917v-4.73c0-.889-.94-1.604-2.11-1.604z" style="fill:#575452;fill-opacity:1;stroke:#000;stroke-width:1.05481;stroke-linecap:square;stroke-linejoin:miter;stroke-miterlimit:4;stroke-dasharray:none;stroke-dashoffset:0;stroke-opacity:1;paint-order:fill markers stroke" transform="translate(-2.742 -.806) scale(1.16857)"/><g stroke="#000" style="opacity:1;fill:none;fill-opacity:1;fill-rule:evenodd;stroke-width:1.5;stroke-linecap:round;stroke-linejoin:round;stroke-miterlimit:4;stroke-dasharray:none;stroke-opacity:1"><path stroke-width="1.19079" d="M14.93 10.407h2.381"/><path d="M19.2 9.9V2.2" style="stroke-width:1.10469;stroke-dasharray:none" transform="matrix(.79386 0 0 .79386 .958 6.597)"/><path d="M39.5 40.1v-5.478c-6.243-2.46-4.46-20.018-8.92-24.117 1.06-1.094 4.46-2.46 1.785-3.28-5.352-1.64-3.568 0-7.136 1.64-3.567 0-10.703-3.28-12.487 6.559-1.783 3.28-5.351 3.28-7.135 6.559-1.127 2.066 1.784 6.558 7.135 1.64.384 0 .758 0 1.123-.002 4.73-.016 7.924-.234 9.58-3.278 1.784 3.28 4.568 4.36 4.568 20.757H39.5v-1z" style="fill:url(#c);fill-opacity:1;stroke-width:1.01697;stroke-dasharray:none" transform="matrix(.79386 0 0 .79386 .958 6.597)"/><path stroke-width="1.19079" d="M17.708 11.28h2.382"/><path d="M22.7 11V3.3" style="stroke-width:1.08073;stroke-dasharray:none" transform="matrix(.79386 0 0 .79386 .958 6.597)"/><path fill="#000" d="M16.374 14.574c-.019.126-.89.166-.866-.5.066-1.734 1.002-.38.866.5z" style="fill:#fff;fill-opacity:1;stroke:#fff;stroke-opacity:1" transform="matrix(.79386 0 0 .79386 .958 6.597)"/><path fill="#000" d="M31.1 22.5a1.73 2.5 0 1 1-3.46 0 1.73 2.5 0 1 1 3.46 0zm2.2 8c0 3.333-3.46 3.333-3.46 0s3.46-3.333 3.46 0zm3.8 6a1.73 2.5 0 1 1-3.46 0 1.73 2.5 0 1 1 3.46 0z" style="stroke:#fff;stroke-opacity:1" transform="matrix(.79386 0 0 .79386 .958 6.597)"/></g><path d="M9.73 20.018a.503.503 0 0 0-.38 0c-.522.213-.862.48-1.068.713a1.665 1.665 0 0 0-.296.486.502.502 0 0 0 .329.627c.265.084.689.043.772-.222 0 0-.012-.005.091-.121.103-.117.302-.29.696-.451.256-.105.237-.503.131-.76a.503.503 0 0 0-.275-.272Z" color="#000" style="font-variant-ligatures:normal;font-variant-position:normal;font-variant-caps:normal;font-variant-numeric:normal;font-variant-alternates:normal;font-variant-east-asian:normal;font-feature-settings:normal;font-variation-settings:normal;text-indent:0;text-decoration-line:none;text-decoration-style:solid;text-decoration-color:#000;text-transform:none;text-orientation:mixed;white-space:normal;shape-padding:0;shape-margin:0;inline-size:0;clip-rule:evenodd;isolation:auto;mix-blend-mode:normal;fill-rule:evenodd;stroke:#fff;stroke-width:.912772;stroke-opacity:1;shape-rendering:geometricPrecision" transform="matrix(.79386 0 0 .79386 .958 6.597)"/><path d="M-716.03-369.64c.405-1.184.326-3.052-.03-3.612-2.96 8.671-8.246 5.492-9.102 11.347 1.64-3.708 7.813-2.42 9.132-7.735z" filter="url(#filter1433-2-4-3)" opacity=".25" style="clip-rule:evenodd;opacity:.15;fill-rule:evenodd;filter:url(#d);image-rendering:optimizeQuality;shape-rendering:geometricPrecision" transform="matrix(.66543 .3226 -.2856 .7458 389.675 530.219)"/><path d="m16.366 9.765-.729.561-.678.773-.635 1.058-.473 1.157-.38 1.333-.216 1.004-.519.821-.512.625-.538.525-.523.462-.39.248-.249.165.696.267 2.478-2.88.133-.68.294-1.604.02-.324.498-1.108.971-1.071.893-.947.242-.257-.322-.11z" style="opacity:.297196;fill:#fff;fill-opacity:1;stroke:#fff;stroke-width:.0905641;stroke-linejoin:round;stroke-dasharray:none;stroke-opacity:1;paint-order:markers stroke fill;filter:url(#e)" transform="matrix(.79386 0 0 .79386 .958 6.597)"/><path d="m23.957 20.13 1.495 2.36.386.654.5.98.414 1.01.315.92.364 1.372.319 1.498.228 1.468.14 1.085.12 1.207.213 2.988.058 1.538.044 3.347 1.32-.013-.16-3.56-.58-5.218-.982-4.366-.724-1.911-1.456-3.156-1.448-2.348-.52.047-.095.009.018.03z" style="opacity:.219147;fill:#fff;fill-opacity:1;stroke:#fff;stroke-width:.0905641;stroke-linejoin:round;stroke-dasharray:none;stroke-opacity:1;paint-order:markers stroke fill;filter:url(#f)" transform="matrix(.79386 0 0 .79386 .958 6.597)"/><path d="m12.4 23.248 1.578-2.045.772.705-.923 1.413z" style="opacity:1;fill:#000;fill-opacity:1;stroke:none;stroke-width:.194846;stroke-linejoin:round;stroke-dasharray:none;stroke-opacity:1;paint-order:markers stroke fill" transform="matrix(.79386 0 0 .79386 .958 6.597)"/><path d="M-700.203-378.72c-.533 12.294-.541 12.54-.008 31.983l2.692-2.508c.02-17.936.722-22.12-.248-29.411z" filter="url(#filter1572-7-1)" opacity=".25" style="clip-rule:evenodd;opacity:.15;fill-rule:evenodd;filter:url(#g);shape-rendering:geometricPrecision" transform="matrix(.69474 -.20579 .205 .69203 587.844 134.195)"/><path d="m13.45 14.535.033.24s.299-.055.377-.055c.079 0 .298.058.298.058.223.09.267.177.267.177l.142.116c.057.039.117.175.117.175l.252-.208-.188-.19-.354-.3-.41-.11z" style="fill:#fff;fill-opacity:1;stroke:#fff;stroke-width:.061524;stroke-linejoin:round;stroke-dasharray:none;stroke-opacity:1;paint-order:markers stroke fill" transform="translate(-2.742 -.806) scale(1.16857)"/><path d="m35.643 8.553-.099-.08-.376-.184-.569-.181-1.02-.284-.572-.142L32 7.488l-.044.153 1.734.516.87.205.89.316z" style="opacity:.195894;mix-blend-mode:normal;fill:#fff;fill-opacity:1;stroke:#fff;stroke-width:.105831;stroke-linejoin:round;stroke-dasharray:none;stroke-opacity:1;paint-order:markers stroke fill;filter:url(#h)" transform="matrix(.67934 0 0 .67934 2.82 7.145)"/></g></svg>