<svg xmlns="http://www.w3.org/2000/svg" width="50mm" height="50mm" fill-rule="evenodd" clip-rule="evenodd" image-rendering="optimizeQuality" shape-rendering="geometricPrecision" text-rendering="geometricPrecision" viewBox="0 0 50 50"><g style="fill:#fff"><path d="M-321.477 347.162c-3.411.007-6.172 2.84-6.167 6.329.004 2.327.891 4.466 2.897 5.564l-3.867 2.605.14 1.998 4.162-.018c-.034 3.632-1.319 7.513-6.914 10.77-1.178 1.053-3.533.835-3.564 1.863v4.723a.82.82 0 0 0 .822.821h24.867a.82.82 0 0 0 .821-.82v-4.724c-.365-.926-2.416-1.283-3.563-1.862-5.608-3.266-6.887-7.157-6.914-10.796l4.504-.02.016-2.051-3.996-2.53c1.975-1.109 2.946-3.227 2.949-5.532v-.016c-.01-3.49-2.78-6.311-6.192-6.304z" style="opacity:1;fill:#575452;fill-opacity:1;stroke:#000;stroke-width:1.5;stroke-linecap:square;stroke-linejoin:miter;stroke-miterlimit:4;stroke-dasharray:none;stroke-dashoffset:0;stroke-opacity:1;paint-order:fill markers stroke" transform="translate(346.535 -336.866)"/></g><path d="M-160.673 152.874c1.928 4.399.789 7.456-1.246 10.12 4.445-.296 5.171-8.183 1.246-10.12z" style="fill:#464342;fill-opacity:1;fill-rule:evenodd;stroke:none;stroke-width:.26458332px;stroke-linecap:butt;stroke-linejoin:miter;stroke-opacity:1" transform="translate(188.76 -140.885)"/><path d="M-161.92 162.99c-1.041 14.21.367 14.855 10.673 22.085l-.047-4.77c-9.591-3.893-10.12-8.504-10.15-13.378l4.116.14.234-1.122z" style="fill:#464342;fill-opacity:1;fill-rule:evenodd;stroke:none;stroke-width:.26458332px;stroke-linecap:butt;stroke-linejoin:miter;stroke-opacity:1" transform="translate(188.76 -140.885)"/></svg>