<svg xmlns="http://www.w3.org/2000/svg" width="50mm" height="50mm" fill-rule="evenodd" clip-rule="evenodd" image-rendering="optimizeQuality" shape-rendering="geometricPrecision" text-rendering="geometricPrecision" viewBox="0 0 50 50"><path d="m-276.964 210.612 1.533 2.317v10.65l-4.899 6.256 25.836.358-4.798-6.615v-10.65l1.922-2.316z" style="fill:#575452;fill-opacity:1;fill-rule:evenodd;stroke:#000;stroke-width:1.5;stroke-linecap:butt;stroke-linejoin:miter;stroke-opacity:1" transform="translate(271.693 -175.042) scale(.92208)"/><path d="M-273.715 210.668h-5.19l-2.701-10.412h5.895l2.038 6.883h3.748l-.33-6.883h6.22l-.324 6.883h3.484l2.361-6.75 6.056-.133-2.894 10.545-5.678-.133z" style="fill:#575452;fill-opacity:1;fill-rule:evenodd;stroke:#000;stroke-width:1.5;stroke-linecap:butt;stroke-linejoin:miter;stroke-opacity:1" transform="translate(271.693 -175.042) scale(.92208)"/><path d="M-429.095 228.228c-1.457 0-2.63.891-2.63 1.999v5.9h31.071v-5.9c0-1.108-1.173-2-2.63-2z" style="opacity:1;fill:#575452;fill-opacity:1;stroke:#000;stroke-width:1.31536531;stroke-linecap:square;stroke-linejoin:miter;stroke-miterlimit:4;stroke-dasharray:none;stroke-dashoffset:0;stroke-opacity:1;paint-order:fill markers stroke" transform="translate(441.19 -191.084)"/><path d="m-402.122 149.115-6.051 8.182 3.813.024z" style="fill:#464342;fill-opacity:1;fill-rule:evenodd;stroke:none;stroke-width:.2635234px;stroke-linecap:butt;stroke-linejoin:miter;stroke-opacity:1" transform="translate(440.075 -138.75)"/><path d="m-408.88 158.66-5.624 16.476 10.22.07-3.836-5.426.187-10.22.713-.888z" style="fill:#464342;fill-opacity:1;fill-rule:evenodd;stroke:none;stroke-width:.26458332px;stroke-linecap:butt;stroke-linejoin:miter;stroke-opacity:1" transform="translate(440.075 -138.75)"/></svg>