<svg xmlns="http://www.w3.org/2000/svg" width="50mm" height="50mm" fill-rule="evenodd" clip-rule="evenodd" image-rendering="optimizeQuality" shape-rendering="geometricPrecision" text-rendering="geometricPrecision" viewBox="0 0 50 50"><path d="m-327.432 207.287-4.374 4.422c.091 2.783.24 3.57 1.567 5.274 4.136-2.686 1.203 2.645 4.67-.077.201-2.241 3.174-2.68 5.122-3.634 7.95 2.305.668 2.527-3.245 8.937-1.122 1.77-1.05 3.886-1.3 5.913l19.558-.13v-1.235l-.714-1.494c-1.25-3.633.325-8.495.158-14.922-1.808-6.262-4.287-9.72-10.42-9.407.174-1.86-.01-7.375-4.355-1.223-.684 4.79-5.913.912-6.667 7.576z" style="display:inline;fill:#f9f9f9;fill-opacity:1;stroke:#333;stroke-width:1.22710395;stroke-linecap:butt;stroke-linejoin:miter;stroke-miterlimit:4;stroke-dasharray:none;stroke-opacity:1" transform="translate(357.81 -200.612) scale(1.0497)"/><path d="M-321.43 206.203c-.403.633-2.373.324-2.382-.008-.042-1.336 2.88-1.55 2.9-1.294" style="opacity:1;fill:#333;fill-opacity:1;stroke:none;stroke-width:1.40096557;stroke-linecap:square;stroke-linejoin:miter;stroke-miterlimit:4;stroke-dasharray:none;stroke-dashoffset:0;stroke-opacity:1;paint-order:fill markers stroke" transform="translate(357.81 -200.612) scale(1.0497)"/><path d="M-325.495 229.187c-1.322 0-2.387.81-2.387 1.814v5.354h28.193V231c0-1.005-1.064-1.814-2.387-1.814z" style="opacity:1;fill:#f9f9f9;fill-opacity:1;stroke:#333;stroke-width:1.19350111;stroke-linecap:square;stroke-linejoin:miter;stroke-miterlimit:4;stroke-dasharray:none;stroke-dashoffset:0;stroke-opacity:1;paint-order:fill markers stroke" transform="translate(330.733 -183.728) scale(.96825)"/><path d="M-329.265 213.058c.557.105 1.403-1.138 1.225-1.315-.713-.712-2.339.785-2.209.928" style="opacity:1;fill:#333;fill-opacity:1;stroke:none;stroke-width:1.05663764;stroke-linecap:square;stroke-linejoin:miter;stroke-miterlimit:4;stroke-dasharray:none;stroke-dashoffset:0;stroke-opacity:1;paint-order:fill markers stroke" transform="translate(330.733 -183.728) scale(.96825)"/><path d="M-327.684 216.942c.408-.64.725-1.318 1.626-1.745" style="fill:none;fill-rule:evenodd;stroke:#333;stroke-width:1.28615761;stroke-linecap:butt;stroke-linejoin:miter;stroke-opacity:1" transform="translate(330.733 -183.728) scale(.96825)"/><path d="M-314.92 200.824c12.845 9.701 8.318 13.645 2.778 27.417h9.078l-.744-1.885c-.995-3.767.23-10.757.171-15.876-1.952-8.161-6.218-10.615-11.4-9.726zm-1.026-4.396c.427 1.521.742 2.834.912 4.315.462-1.655-.064-5.269-.912-4.315z" style="fill:#e6e6e6;fill-opacity:1;fill-rule:evenodd;stroke:none;stroke-width:.26458332px;stroke-linecap:butt;stroke-linejoin:miter;stroke-opacity:1" transform="translate(330.008 -183.365) scale(.96825)"/><path d="M-1380.172 765.423c-11.212 16.17-22.338 32.406-33.517 48.6-.333 2.01 1.933 3.49 2.653 5.276 3.292 4.966 6.315 10.193 9.776 14.996 1.837.49 3.714-1.29 5.57-1.73 8.387-3.391 17.994-4.508 26.825-2.457 4.288.785 8.322 2.59 12.215 4.388 1.914-.593 2.46-3.377 3.796-4.848 3.268-5.297 6.914-10.4 9.742-15.947-.55-2.451-2.781-4.336-3.993-6.553-9.5-13.824-19.068-27.6-28.61-41.394-1.209-.755-3.121-.686-4.458-.33z" style="opacity:1;fill:#f9f9f9;fill-opacity:1;stroke:#000;stroke-width:1.60352;stroke-linecap:square;stroke-linejoin:miter;stroke-miterlimit:4;stroke-dasharray:none;stroke-dashoffset:0;stroke-opacity:1;paint-order:fill markers stroke" transform="translate(394.218 -194.86) scale(.26458)"/><path d="M-1379.835 848.96c-7.21-.041-14.368 1.917-20.727 5.26-1.088.727-.123 1.95.497 2.622 4.33 5.518 9.374 11.012 16.136 13.456 2.81 1.003 5.883 1.308 8.791.539 6.565-1.594 11.608-6.568 15.758-11.636 1.054-1.455 2.403-2.773 3.159-4.394-.068-1.347-1.841-1.386-2.815-1.906-6.649-2.468-13.672-4.095-20.799-3.94z" style="opacity:1;fill:#f9f9f9;fill-opacity:1;stroke:none;stroke-width:.801759;stroke-linecap:square;stroke-linejoin:miter;stroke-miterlimit:4;stroke-dasharray:none;stroke-dashoffset:0;stroke-opacity:1;paint-order:fill markers stroke" transform="translate(394.218 -194.86) scale(.26458)"/><path d="m-362.508 225.111-2.596 5.122c2.783.126 4.616-1.87 6.104-4.21-1.158-.338-2.238-.908-3.508-.912z" style="fill:#e6e6e6;fill-opacity:1;fill-rule:evenodd;stroke:none;stroke-width:.264583px;stroke-linecap:butt;stroke-linejoin:miter;stroke-opacity:1" transform="translate(394.218 -194.86)"/><path d="M-1378.637 739.871c-7.17 0-13.047 5.863-13.047 13.033 0 5.006 2.869 9.368 7.037 11.55l-34.566 50.028 14.023 21.848c-.527.312-1.06.608-1.583.936l-1.227.752.38 18.494 2.114-.045c8.84 12.62 17.906 19.145 27.319 18.947 9.674-.203 18.463-7.428 26.595-19.787l2.795-.117-.687-15.988-.092-1.504-1.03-.7a63.155 63.155 0 0 0-1.46-.96l14.615-22.852-34.31-49.557c3.686-2.308 6.157-6.396 6.157-11.045 0-7.17-5.863-13.033-13.033-13.033zm0 5.067a7.927 7.927 0 0 1 7.969 7.966 7.929 7.929 0 0 1-7.969 7.97 7.939 7.939 0 0 1-7.98-7.97 7.937 7.937 0 0 1 7.98-7.966zm2.512 20.75-.4.277 32.992 47.646-12.905 20.186c-7.83-4.132-15.576-5.83-23.136-5.58v-.002c-7.265.24-14.353 2.285-21.172 5.674l-12.389-19.301 33.653-48.694c.28.019.559.043.843.043.86 0 1.698-.089 2.512-.25zm-1.728 67.535c7.526.075 15.26 2.454 23.357 7.75l.404 9.4c-8.365-3.507-16.746-5.489-25.02-5.523-7.99-.035-15.88 1.75-23.56 5.718l-.197-9.623c8.223-4.936 16.486-7.808 25.015-7.722zm-1.186 16.582c7.166.045 14.481 1.767 21.996 4.828-7.288 10.49-14.462 15.574-21.25 15.717-6.678.14-14.07-4.441-22.023-15.31 6.987-3.634 14.058-5.28 21.277-5.235z" style="color:#000;font-style:normal;font-variant:normal;font-weight:400;font-stretch:normal;font-size:medium;line-height:normal;font-family:sans-serif;font-variant-ligatures:normal;font-variant-position:normal;font-variant-caps:normal;font-variant-numeric:normal;font-variant-alternates:normal;font-feature-settings:normal;text-indent:0;text-align:start;text-decoration:none;text-decoration-line:none;text-decoration-style:solid;text-decoration-color:#000;letter-spacing:normal;word-spacing:normal;text-transform:none;writing-mode:lr-tb;direction:ltr;text-orientation:mixed;dominant-baseline:auto;baseline-shift:baseline;text-anchor:start;white-space:normal;shape-padding:0;clip-rule:nonzero;display:inline;overflow:visible;visibility:visible;opacity:1;isolation:auto;mix-blend-mode:normal;color-interpolation:sRGB;color-interpolation-filters:linearRGB;solid-color:black;solid-opacity:1;vector-effect:none;fill:#333;fill-opacity:1;fill-rule:nonzero;stroke:none;stroke-width:5.06558;stroke-linecap:butt;stroke-linejoin:miter;stroke-miterlimit:4;stroke-dasharray:none;stroke-dashoffset:0;stroke-opacity:1;color-rendering:auto;image-rendering:auto;shape-rendering:auto;text-rendering:auto;enable-background:accumulate" transform="translate(394.218 -194.86) scale(.26458)"/><path d="M-168.836 209.693v3.5h-4.121v1.71h4.121v6.019h1.803v-6.02h4.187v-1.709h-4.187v-3.5z" style="color:#000;font-style:normal;font-variant:normal;font-weight:400;font-stretch:normal;font-size:medium;line-height:normal;font-family:sans-serif;font-variant-ligatures:normal;font-variant-position:normal;font-variant-caps:normal;font-variant-numeric:normal;font-variant-alternates:normal;font-feature-settings:normal;text-indent:0;text-align:start;text-decoration:none;text-decoration-line:none;text-decoration-style:solid;text-decoration-color:#000;letter-spacing:normal;word-spacing:normal;text-transform:none;writing-mode:lr-tb;direction:ltr;text-orientation:mixed;dominant-baseline:auto;baseline-shift:baseline;text-anchor:start;white-space:normal;shape-padding:0;clip-rule:nonzero;display:inline;overflow:visible;visibility:visible;opacity:1;isolation:auto;mix-blend-mode:normal;color-interpolation:sRGB;color-interpolation-filters:linearRGB;solid-color:black;solid-opacity:1;vector-effect:none;fill:#333;fill-opacity:1;fill-rule:nonzero;stroke:none;stroke-width:1.37873;stroke-linecap:square;stroke-linejoin:miter;stroke-miterlimit:4;stroke-dasharray:none;stroke-dashoffset:0;stroke-opacity:1;paint-order:fill markers stroke;color-rendering:auto;image-rendering:auto;shape-rendering:auto;text-rendering:auto;enable-background:accumulate" transform="translate(162.3 -152.38) scale(.79003)"/><path d="M-638.292 765.26c-2.1-.778-3.833-2.346-4.934-4.467-.869-1.672-.98-2.217-.838-4.122.566-7.603 9.386-10.826 14.637-5.349 4.017 4.191 2.664 11.044-2.684 13.601-1.697.811-4.49.964-6.18.338z" style="opacity:1;fill:#fff;fill-opacity:1;stroke:none;stroke-width:2.0044;stroke-linecap:square;stroke-linejoin:miter;stroke-miterlimit:4;stroke-dasharray:none;stroke-dashoffset:0;stroke-opacity:1;paint-order:fill markers stroke" transform="translate(182.039 -177.42) scale(.24007)"/><path d="M-1379.117 832.48c-8.568.192-16.83 3.455-24.045 7.835-.77 2.605-.212 5.664-.48 8.44-.806 2.54 1.734 2.995 3.314 1.544 10.986-5.23 23.902-5.568 35.616-2.694 3.59.793 6.905 2.436 10.467 3.224 1.799-.845.492-3.325.774-4.864-.488-2.204.82-5.657-2.005-6.545-7.094-4.354-15.232-7.22-23.64-6.94z" style="opacity:1;fill:#f9f9f9;fill-opacity:1;stroke:#333;stroke-width:1.60352;stroke-linecap:square;stroke-linejoin:miter;stroke-miterlimit:4;stroke-dasharray:none;stroke-dashoffset:0;stroke-opacity:1;paint-order:fill markers stroke" transform="translate(394.218 -194.86) scale(.26458)"/><path d="M-1378.881 744.388c-6.03-.039-10.318 7.46-7.106 12.598 1.912 3.56 6.435 5.653 10.235 3.793 3.505-1.27 6.054-4.871 5.38-8.663.124-4.281-4.446-7.85-8.51-7.728z" style="opacity:1;fill:#f9f9f9;fill-opacity:1;stroke:none;stroke-width:1.60352;stroke-linecap:square;stroke-linejoin:miter;stroke-miterlimit:4;stroke-dasharray:none;stroke-dashoffset:0;stroke-opacity:1;paint-order:fill markers stroke" transform="translate(394.218 -194.86) scale(.26458)"/><path d="m-364.195 202.663 7.172 12.628-3.3 4.646 1.452.696 3.436-5.43zm3.278 18.527-1.1 2.686 3.82 1.124.017-2.513c-.965-.46-1.991-.954-2.737-1.297z" style="fill:#e6e6e6;fill-opacity:1;fill-rule:evenodd;stroke:none;stroke-width:.264583px;stroke-linecap:butt;stroke-linejoin:miter;stroke-opacity:1" transform="translate(394.218 -194.86)"/></svg>