<svg xmlns="http://www.w3.org/2000/svg" width="50mm" height="50mm" fill-rule="evenodd" clip-rule="evenodd" image-rendering="optimizeQuality" shape-rendering="geometricPrecision" text-rendering="geometricPrecision" viewBox="0 0 50 50"><path d="m-276.964 210.612 1.533 2.317c5.936.286 13.434.377 16.14 0l1.92-2.317z" style="fill:#f9f9f9;fill-opacity:1;fill-rule:evenodd;stroke:#333;stroke-width:1.5;stroke-linecap:butt;stroke-linejoin:miter;stroke-opacity:1" transform="rotate(180 -110.847 114.82) scale(.92208)"/><path d="M-273.715 210.668h-5.19l-2.701-10.412h5.895l2.038 6.883h3.748l-.33-6.883h6.22l-.324 6.883h3.484l2.361-6.75 6.056-.133-2.894 10.545-5.678-.133z" style="fill:#f9f9f9;fill-opacity:1;fill-rule:evenodd;stroke:#333;stroke-width:1.5;stroke-linecap:butt;stroke-linejoin:miter;stroke-opacity:1" transform="rotate(180 -110.847 114.82) scale(.92208)"/><path d="m-401.575 200.19-6.05 8.181 3.813.025z" style="fill:#e6e6e6;fill-opacity:1;fill-rule:evenodd;stroke:none;stroke-width:.263523px;stroke-linecap:butt;stroke-linejoin:miter;stroke-opacity:1" transform="rotate(180 -194.764 122.211)"/><path d="m-327.432 207.287-4.374 4.422c.091 2.783.24 3.57 1.567 5.274 4.136-2.686 1.203 2.645 4.67-.077.201-2.241 3.174-2.68 5.122-3.634 7.95 2.305.668 2.527-3.245 8.937-1.122 1.77-1.05 3.886-1.3 5.913l19.558-.13v-1.235l-.714-1.494c-1.25-3.633.325-8.495.158-14.922-1.808-6.262-4.287-9.72-10.42-9.407.174-1.86-.01-7.375-4.355-1.223-.684 4.79-5.913.912-6.667 7.576z" style="display:inline;fill:#f9f9f9;fill-opacity:1;stroke:#333;stroke-width:1.2271;stroke-linecap:butt;stroke-linejoin:miter;stroke-miterlimit:4;stroke-dasharray:none;stroke-opacity:1" transform="translate(204.895 -101.299) scale(.57122)"/><path d="M-321.43 206.203c-.403.633-2.373.324-2.382-.008-.042-1.336 2.88-1.55 2.9-1.294" style="opacity:1;fill:#333;fill-opacity:1;stroke:none;stroke-width:1.40097;stroke-linecap:square;stroke-linejoin:miter;stroke-miterlimit:4;stroke-dasharray:none;stroke-dashoffset:0;stroke-opacity:1;paint-order:fill markers stroke" transform="translate(204.895 -101.299) scale(.57122)"/><path d="M-325.495 229.187c-1.322 0-2.387.81-2.387 1.814v5.354h28.193V231c0-1.005-1.064-1.814-2.387-1.814z" style="opacity:1;fill:#f9f9f9;fill-opacity:1;stroke:#333;stroke-width:1.1935;stroke-linecap:square;stroke-linejoin:miter;stroke-miterlimit:4;stroke-dasharray:none;stroke-dashoffset:0;stroke-opacity:1;paint-order:fill markers stroke" transform="translate(190.16 -92.11) scale(.5269)"/><path d="M-329.265 213.058c.557.105 1.403-1.138 1.225-1.315-.713-.712-2.339.785-2.209.928" style="opacity:1;fill:#333;fill-opacity:1;stroke:none;stroke-width:1.05664;stroke-linecap:square;stroke-linejoin:miter;stroke-miterlimit:4;stroke-dasharray:none;stroke-dashoffset:0;stroke-opacity:1;paint-order:fill markers stroke" transform="translate(190.16 -92.11) scale(.5269)"/><path d="M-327.684 216.942c.408-.64.725-1.318 1.626-1.745" style="fill:none;fill-rule:evenodd;stroke:#333;stroke-width:1.28616;stroke-linecap:butt;stroke-linejoin:miter;stroke-opacity:1" transform="translate(190.16 -92.11) scale(.5269)"/><path d="M-314.92 200.824c12.845 9.701 8.318 13.645 2.778 27.417h9.078l-.744-1.885c-.995-3.767.23-10.757.171-15.876-1.952-8.161-6.218-10.615-11.4-9.726zm-1.026-4.396c.427 1.521.742 2.834.912 4.315.462-1.655-.064-5.269-.912-4.315z" style="fill:#e6e6e6;fill-opacity:1;fill-rule:evenodd;stroke:none;stroke-width:.264583px;stroke-linecap:butt;stroke-linejoin:miter;stroke-opacity:1" transform="translate(189.766 -91.913) scale(.5269)"/></svg>