<svg xmlns="http://www.w3.org/2000/svg" xmlns:xlink="http://www.w3.org/1999/xlink" width="177.17" height="177.17" fill-rule="evenodd" clip-rule="evenodd" image-rendering="optimizeQuality" shape-rendering="geometricPrecision" viewBox="0 0 50 50"><defs><linearGradient id="d" x1="21.405" x2="77.64" gradientTransform="translate(1.741 -3.952) scale(.87297)" gradientUnits="userSpaceOnUse"><stop stop-color="#fff"/><stop offset="1" stop-color="#fff" stop-opacity="0"/></linearGradient><linearGradient id="a" x1="21.13" x2="77.64" y1="37.592" y2="37.469" gradientUnits="userSpaceOnUse"><stop stop-color="#fff"/><stop offset="1" stop-color="#fff" stop-opacity="0"/></linearGradient><linearGradient xlink:href="#a" id="c" x1="21.13" x2="77.64" y1="37.592" y2="37.469" gradientUnits="userSpaceOnUse"/><clipPath id="b" clipPathUnits="userSpaceOnUse"><path d="M2.86 31.674h45.869v22.458H2.86z" style="opacity:1;fill:#d40000;fill-opacity:1;stroke:#000;stroke-width:.19755037;stroke-linecap:square;stroke-linejoin:miter;stroke-miterlimit:4;stroke-dasharray:none;stroke-opacity:1;paint-order:normal"/></clipPath></defs><g clip-path="url(#b)" transform="translate(-.449 -.022)"><path d="M25.447 42.01c-.229.94-.517 1.592-.847 1.956-.33.364-.762.745-1.312 1.143-.593.415-1.295.762-2.108 1.05-.813.288-1.71.364-2.701.212l-6.968-.965a2.85 2.85 0 0 0-.762 0c-.22.034-.432.051-.635.051-.347 0-.787.076-1.321.237-.542.152-.957.381-1.253.677l-2.405-3.946c.296-.33.559-.559.787-.694.237-.127.508-.271.821-.415a9.158 9.158 0 0 1 3.073-.821 12.27 12.27 0 0 1 1.363-.025c.449.017.914 0 1.397-.051.889.152 1.786.288 2.684.406.906.127 1.812.254 2.718.389.991 0 1.66-.102 2.01-.296.186-.102.474-.288.872-.55.398-.262.796-.652 1.194-1.168a17.272 17.272 0 0 1-2.684-.508 23.912 23.912 0 0 1-2.404-.754l2.582-6.401c-1.295-.745-2.193-1.338-2.709-1.795a5.306 5.306 0 0 1-1.211-1.575c-.432-.762-.711-1.499-.83-2.21a9.338 9.338 0 0 1-.161-1.913c.017-.991.245-2.083.703-3.285.457-1.194 1.312-2.269 2.565-3.209a80.007 80.007 0 0 0 3.057-2.455 27.681 27.681 0 0 0 2.946-2.955c-1.219-.627-1.829-1.626-1.829-2.997 0-.931.322-1.719.974-2.388.652-.66 1.456-.991 2.396-.991.923 0 1.719.33 2.379.991.66.669.991 1.456.991 2.388 0 1.355-.61 2.354-1.829 2.997a26.783 26.783 0 0 0 2.913 2.955c.982.838 2.02 1.66 3.09 2.455 1.236.94 2.083 2.02 2.523 3.209.449 1.202.694 2.294.72 3.285a11.7 11.7 0 0 1-.169 1.913c-.118.711-.381 1.448-.796 2.21a6.07 6.07 0 0 1-1.253 1.575c-.5.457-1.389 1.05-2.667 1.795l2.582 6.401a28.46 28.46 0 0 1-2.455.754c-.914.246-1.787.415-2.633.508.381.517.77.906 1.168 1.168.398.263.694.449.898.55.347.195 1.016.296 2.01.296.889-.136 1.786-.263 2.692-.389a80.91 80.91 0 0 0 2.718-.406c.44.051.889.068 1.346.051.457-.017.923-.008 1.405.025a9.651 9.651 0 0 1 3.073.821c.296.144.567.288.804.415.245.135.508.364.804.694l-2.43 3.946c-.296-.296-.711-.525-1.253-.677-.533-.161-.965-.237-1.295-.237-.22 0-.44-.017-.66-.051a2.79 2.79 0 0 0-.754 0l-6.951.965c-.991.152-1.913.085-2.76-.195-.855-.279-1.558-.652-2.1-1.118-.542-.449-.982-.83-1.304-1.151-.322-.322-.593-.957-.804-1.897" style="fill:#1f1a17"/><path d="M26.32 39.2c0 1.092.245 2.024.753 2.794.5.77 1.041 1.372 1.626 1.795.906.669 2.235.999 3.988.999.432 0 1.279-.093 2.532-.279a77.514 77.514 0 0 1 2.481-.356c.627-.076 1.05-.135 1.27-.186a6.507 6.507 0 0 1 1.981.051c.262.068.559.127.88.186.322.059.593.186.804.381l1.194-1.93a7.373 7.373 0 0 0-2.159-.72c-1.253-.22-2.354-.263-3.302-.152a8.044 8.044 0 0 0-1.101.245c-.457.136-1.067.263-1.846.373-1.676.271-2.557.398-2.659.398-.644 0-1.202-.076-1.685-.246a10.22 10.22 0 0 1-1.287-.542c-.881-.398-1.77-1.338-2.684-2.811h-.787m-1.761 0h-.796c-.931 1.49-1.812 2.43-2.659 2.811-.398.195-.83.373-1.312.542-.483.169-1.033.246-1.66.246-.119 0-.999-.127-2.659-.398-.787-.11-1.422-.237-1.88-.373-.466-.127-.83-.212-1.092-.245-.948-.11-2.04-.068-3.302.152a7.068 7.068 0 0 0-2.134.72l1.194 1.93c.195-.195.457-.322.779-.381s.618-.118.88-.186a6.507 6.507 0 0 1 1.981-.051c.22.051.643.11 1.27.186s1.465.195 2.506.356c1.236.186 2.083.279 2.532.279 1.736 0 3.065-.33 3.988-.999.567-.423 1.101-1.025 1.6-1.795.508-.77.762-1.702.762-2.794m.889-9.347c1.6 0 3.141.127 4.614.373 1.617-.576 2.794-1.482 3.522-2.701.627-1.058.94-2.227.94-3.497 0-.762-.186-1.6-.567-2.523-.381-.914-.999-1.744-1.863-2.489-.974-.813-2.04-1.702-3.2-2.667-1.151-.965-2.303-2.1-3.446-3.387-1.16 1.287-2.311 2.422-3.471 3.387-1.16.965-2.218 1.854-3.175 2.667-.881.745-1.499 1.575-1.871 2.489-.372.923-.559 1.761-.559 2.523 0 1.27.305 2.438.914 3.497.711 1.219 1.897 2.125 3.548 2.701a27.7 27.7 0 0 1 4.614-.373m0 4.513c1.939 0 3.793.195 5.579.576l-1.185-3.057a28.018 28.018 0 0 0-8.805 0l-1.194 3.057a26.597 26.597 0 0 1 5.605-.576m0-23.537c1.126 0 1.685-.559 1.685-1.685s-.559-1.693-1.685-1.693-1.685.567-1.685 1.693c0 1.126.559 1.685 1.685 1.685m0 27.01a19.07 19.07 0 0 0 3.285-.279c1.067-.195 2.1-.423 3.09-.686-1.939-.508-4.064-.77-6.375-.77-2.345 0-4.47.263-6.375.77.957.263 1.973.491 3.048.686 1.075.186 2.184.279 3.327.279m-.889-14.334-2.066-.025c-.559 0-.838-.279-.838-.847 0-.559.279-.838.838-.838h2.066v-2.134c0-.576.296-.872.889-.872.576 0 .872.296.872.872v2.134h2.134c.542 0 .813.279.813.838 0 .567-.271.847-.813.847h-2.134v2.032c0 .601-.296.898-.872.898-.593 0-.889-.296-.889-.898v-2.01" style="fill:url(#c)"/></g><path d="M24.596 4.25c2.268.147 4.364.73 6.304 1.763 1.93 1.02 3.578 2.335 4.938 3.94.953 1.123 1.848 2.483 2.69 4.072a25.038 25.038 0 0 1 2.025 5.04c.577 2.07.947 4.235 1.094 6.512a92.3 92.3 0 0 1 .23 6.311v4.716H15.244c-.132 0-.192-.354-.185-1.057.007-.71.052-1.279.14-1.715.052-.347.193-.835.408-1.47.221-.636.576-1.405 1.087-2.314.228-.465.776-1.138 1.64-2.025.873-.887 1.864-1.922 2.994-3.09.65-.665 1.153-1.5 1.523-2.513.369-1.005.524-1.921.465-2.75a7.259 7.259 0 0 1-1.755 1.064c-3.06 1.094-5.281 2.683-6.644 4.76-.104.133-.429.717-.976 1.763-.288.548-.54.924-.74 1.124-.273.273-.672.428-1.19.458-.805.037-1.433-.347-1.884-1.175-.606.177-1.145.251-1.626.222-.806-.303-1.39-.629-1.755-.976-.74-.74-1.212-1.471-1.441-2.21a8.235 8.235 0 0 1-.333-2.38c0-1.213.747-2.816 2.254-4.812 1.764-2.292 2.698-4.043 2.809-5.238 0-.518.051-1.102.155-1.755.089-.45.266-.881.54-1.3.191-.288.317-.488.377-.591.066-.111.185-.273.362-.488.126-.177.236-.311.325-.4.082-.095.192-.22.326-.383.155-.185.354-.4.606-.65A15.776 15.776 0 0 1 11.794.19c2.868 1.02 5.282 2.628 7.229 4.827.48-1.634 1.419-2.957 2.816-3.962 1.153.806 2.07 1.878 2.75 3.2" style="fill:#1f1a17;stroke-width:.87296593" transform="translate(5.577 5.537) scale(.80384)"/><path d="M39.258 35.063c-.015 0 0-.392.037-1.175.044-.79.066-1.64.066-2.55.015-1.803.015-3.666 0-5.594a23.43 23.43 0 0 0-.776-5.773c-.495-1.848-1.035-3.422-1.626-4.731-.591-1.309-1.235-2.432-1.93-3.385-1.034-1.56-2.454-2.883-4.242-3.962-1.789-1.087-3.659-1.796-5.61-2.128.133.71.192 1.404.177 2.084-.03.518-.273.777-.74.777-.532 0-.768-.259-.716-.777.045-1.906-.635-3.54-2.032-4.893-1.094 1.154-1.693 2.491-1.774 4.021-.03.51-.288.732-.783.673-.458-.014-.687-.28-.687-.797 0 0 .015-.06.037-.178a11.56 11.56 0 0 0-1.863.806c-.414.288-.755.214-1.013-.215-.258-.435-.148-.776.347-1.02l1.405-.716a15.389 15.389 0 0 0-4.243-3.075c.17 2.01.725 3.903 1.649 5.7.243.368.185.701-.178.99-.406.318-.746.273-1.02-.148a8.031 8.031 0 0 1-.428-.783c-.303.303-.51.533-.606.673-.103.132-.28.421-.532.865-.252.45-.436.82-.555 1.108-.125.363-.185.65-.162.882.022.222.045.465.06.746a6.601 6.601 0 0 1-.882 2.403c-.459.746-1.035 1.663-1.744 2.75a113.975 113.975 0 0 1-1.56 2.335c-.362.524-.635 1.183-.82 1.995-.133.488-.133 1.087 0 1.782.126.702.414 1.25.842 1.641.665.672 1.309.983 1.93.932.2 0 .473-.081.812-.244.34-.155.6-.458.791-.909.37-.82.68-1.234.932-1.234.354 0 .554.207.584.606 0 .089-.12.451-.348 1.087a6.437 6.437 0 0 1-.517.909c-.282.377-.4.532-.37.473.229.827.614.968 1.146.435.155-.155.34-.458.54-.887.206-.435.524-1.02.952-1.754.51-.858 1.05-1.545 1.627-2.085.576-.532 1.087-.968 1.537-1.294.258-.192.576-.406.953-.65.377-.251.882-.503 1.516-.761.503-.2 1.064-.45 1.678-.747a6.046 6.046 0 0 0 1.633-1.138c.665-.65 1.175-1.448 1.537-2.402.192-.533.259-1.19.214-1.974-.126-.488.119-.732.74-.732.465 0 .724.237.783.717a7.699 7.699 0 0 1-1.39 4.456c.304.924.385 1.937.237 3.03-.126.882-.436 1.826-.916 2.832-.488.997-1.464 2.114-2.934 3.34-2.994 2.484-4.409 5.04-4.243 7.665h22.476M9.891 21.901c-.421.258-.672.606-.76 1.042.014.473-.208.732-.666.776-.51.06-.77-.155-.784-.65.06-.954.48-1.708 1.279-2.27.377-.302.724-.28 1.042.082.318.392.281.732-.11 1.02m6.43-10.326c.185.288.258.591.214.909-.14.924-.658 1.309-1.537 1.168a1.399 1.399 0 0 1-.628-.258 3.22 3.22 0 0 0-.259.473c-.155.465-.458.62-.909.48-.443-.177-.62-.503-.517-.976.65-1.663 1.825-2.801 3.526-3.422.495-.148.821 0 .976.429.178.465.045.783-.391.953a2.304 2.304 0 0 1-.237.119c-.074.036-.148.08-.237.125" style="fill:url(#d);stroke-width:.87296593" transform="translate(5.577 5.537) scale(.80384)"/></svg>