<svg xmlns="http://www.w3.org/2000/svg" width="177.17" height="177.17" fill-rule="evenodd" clip-rule="evenodd" image-rendering="optimizeQuality" shape-rendering="geometricPrecision" viewBox="0 0 50 50"><defs><linearGradient id="c" x1="21.405" x2="77.64" gradientTransform="matrix(.84732 0 0 .8486 3.192 -2.022)" gradientUnits="userSpaceOnUse"><stop stop-color="#fff"/><stop offset="1" stop-color="#fff" stop-opacity="0"/></linearGradient><linearGradient id="b" x1="21.376" x2="77.64" gradientUnits="userSpaceOnUse"><stop stop-color="#fff"/><stop offset="1" stop-color="#fff" stop-opacity="0"/></linearGradient><clipPath id="a" clipPathUnits="userSpaceOnUse"><path d="M7.207 4.029H42.37V19.7H7.207z" style="opacity:1;fill:#d40000;fill-opacity:1;stroke:#000;stroke-width:.2045171;stroke-linecap:square;stroke-linejoin:miter;stroke-miterlimit:4;stroke-dasharray:none;stroke-opacity:1;paint-order:normal"/></clipPath></defs><g clip-path="url(#a)" transform="matrix(1 0 0 -1 .9 52.275)"><path d="M28.408 9.22h4.216V5.825h6.796v9.295l-5.5 4.243V31.22l4.22 4.221v5.08h3.789v5.929H8.07v-5.929h3.794v-5.08l4.246-4.221V19.363l-5.508-4.243V5.825h6.774V9.22h4.242V5.825h6.79z" style="fill:#1f1a17"/><path d="m33.07 17.678 3.15-2.557H13.8l3.175 2.557h16.1m7.197 24.528H9.758v2.557h30.514v-2.557m-3.844-5.05H13.602v3.37h22.826v-3.37m-4.216-17.788H17.819V31.23h14.393V19.368m5.503-5.927V7.514H34.32v3.395h-7.645V7.514h-3.344v3.395h-7.62V7.514h-3.395v5.927h25.4m-1.913 22-2.548-2.532H16.804l-2.599 2.532h21.598" style="fill:url(#b)"/></g><path d="M25.375 5.951c2.202.143 4.236.711 6.12 1.714a16.045 16.045 0 0 1 4.792 3.83c.925 1.092 1.793 2.414 2.611 3.959a24.36 24.36 0 0 1 1.966 4.9 31.026 31.026 0 0 1 1.061 6.33c.151 2.205.223 4.25.223 6.135v4.584h-25.85c-.129 0-.186-.345-.18-1.028.007-.69.05-1.243.137-1.666.05-.338.186-.813.395-1.43.215-.618.56-1.366 1.055-2.25.222-.451.753-1.106 1.593-1.968.846-.862 1.808-1.868 2.905-3.003.631-.647 1.12-1.459 1.478-2.443.358-.977.51-1.868.452-2.673a7.044 7.044 0 0 1-1.704 1.034c-2.97 1.063-5.126 2.608-6.449 4.627-.1.129-.416.696-.947 1.714-.28.532-.523.898-.718 1.092-.265.266-.653.417-1.154.446-.783.035-1.393-.338-1.83-1.143-.588.173-1.111.245-1.578.216-.782-.295-1.35-.611-1.703-.949-.718-.719-1.177-1.43-1.4-2.149a8.016 8.016 0 0 1-.322-2.313c0-1.179.724-2.737 2.188-4.677 1.711-2.228 2.618-3.93 2.725-5.092 0-.503.05-1.07.151-1.706.087-.438.259-.857.524-1.264.186-.28.308-.474.366-.575.064-.107.18-.265.352-.474a3.11 3.11 0 0 1 .316-.388c.078-.093.186-.215.316-.373.15-.18.344-.388.588-.632a15.357 15.357 0 0 1-.904-6.33c2.783.991 5.126 2.554 7.015 4.692.466-1.588 1.378-2.874 2.734-3.851 1.12.783 2.009 1.825 2.669 3.11" style="fill:#1f1a17;stroke-width:.84796321" transform="translate(1.932 4.12) scale(.82804)"/><path d="M39.606 35.905c-.014 0 0-.38.036-1.142.043-.769.064-1.595.064-2.479a328.61 328.61 0 0 0 0-5.439 22.807 22.807 0 0 0-.753-5.611c-.48-1.797-1.004-3.327-1.579-4.599-.573-1.272-1.198-2.364-1.872-3.29-1.004-1.517-2.382-2.803-4.118-3.852-1.736-1.056-3.551-1.745-5.445-2.069.129.69.186 1.366.172 2.027-.029.503-.265.754-.718.754-.517 0-.746-.251-.695-.754.043-1.854-.617-3.442-1.973-4.757-1.062 1.121-1.643 2.421-1.722 3.909-.028.496-.28.711-.76.654-.445-.014-.667-.273-.667-.775 0 0 .015-.058.036-.173-.574.187-1.177.446-1.808.784-.402.28-.732.208-.983-.21-.25-.423-.143-.754.337-.99.603-.31 1.055-.54 1.364-.697a14.938 14.938 0 0 0-4.118-2.989 14.72 14.72 0 0 0 1.6 5.54c.236.359.179.682-.173.963-.395.309-.724.266-.99-.143a7.81 7.81 0 0 1-.415-.762c-.294.295-.495.518-.588.654-.1.129-.273.41-.517.84a10.73 10.73 0 0 0-.538 1.079c-.122.352-.18.632-.158.857.021.215.043.452.058.725a6.423 6.423 0 0 1-.856 2.336c-.445.725-1.004 1.616-1.693 2.673a110.804 110.804 0 0 1-1.513 2.27c-.352.51-.617 1.15-.797 1.94-.129.474-.129 1.056 0 1.732.122.682.402 1.214.818 1.595.645.653 1.27.955 1.872.905.194 0 .46-.078.79-.236.329-.151.58-.446.767-.884.358-.797.66-1.2.904-1.2.344 0 .538.201.567.59 0 .086-.115.438-.337 1.056a6.26 6.26 0 0 1-.503.883c-.273.367-.387.518-.358.46.222.805.595.941 1.111.424.151-.151.33-.446.524-.863.2-.423.51-.99.925-1.705.495-.834 1.019-1.502 1.579-2.027.56-.517 1.055-.94 1.492-1.257.25-.187.56-.396.925-.633.366-.244.856-.488 1.471-.74A25.473 25.473 0 0 0 22 20.554a5.868 5.868 0 0 0 1.585-1.107c.646-.632 1.14-1.408 1.492-2.335.187-.518.251-1.157.208-1.919-.122-.474.115-.71.718-.71.451 0 .703.23.76.696a7.492 7.492 0 0 1-1.348 4.332c.294.898.372 1.882.23 2.945-.123.858-.424 1.775-.89 2.752-.474.97-1.42 2.056-2.848 3.248-2.906 2.414-4.28 4.9-4.118 7.45h21.816M11.102 23.11c-.409.251-.652.589-.738 1.013.014.46-.201.711-.646.754-.495.058-.747-.15-.761-.632.058-.926.466-1.66 1.241-2.205.366-.295.704-.273 1.012.079.308.38.273.71-.108.99m6.242-10.036c.18.28.25.574.208.883-.136.898-.639 1.272-1.492 1.135a1.357 1.357 0 0 1-.61-.25c-.05.064-.136.222-.25.46-.152.451-.446.602-.883.466-.43-.172-.602-.489-.502-.949.631-1.616 1.771-2.723 3.423-3.326.48-.144.796 0 .947.416.172.453.043.762-.38.927a2.227 2.227 0 0 1-.23.115c-.072.036-.143.08-.23.123" style="fill:url(#c);stroke-width:.84796321" transform="translate(1.932 4.12) scale(.82804)"/></svg>