<svg xmlns="http://www.w3.org/2000/svg" xmlns:xlink="http://www.w3.org/1999/xlink" width="110" height="110"><defs><linearGradient id="e"><stop offset="0" style="stop-color:#5e5e60;stop-opacity:1"/><stop offset="1" style="stop-color:#5e5e60;stop-opacity:0"/></linearGradient><linearGradient id="d"><stop offset="0" style="stop-color:#5e5e5e;stop-opacity:1"/><stop offset="1" style="stop-color:#5e5e5e;stop-opacity:0"/></linearGradient><linearGradient id="c"><stop offset="0" style="stop-color:#525252;stop-opacity:1"/><stop offset="1" style="stop-color:#999;stop-opacity:0"/></linearGradient><linearGradient id="b"><stop offset="0" style="stop-color:#000;stop-opacity:1"/><stop offset="1" style="stop-color:#000;stop-opacity:0"/></linearGradient><linearGradient id="a"><stop offset="0" style="stop-color:#000;stop-opacity:1"/><stop offset="1" style="stop-color:#000;stop-opacity:0"/></linearGradient><linearGradient xlink:href="#a" id="h" x1="57.938" x2="26.611" y1="93.9" y2="27.529" gradientUnits="userSpaceOnUse"/><linearGradient xlink:href="#b" id="i" x1="93.49" x2="6.133" y1="60.279" y2="20.335" gradientUnits="userSpaceOnUse"/><linearGradient xlink:href="#c" id="j" x1="52.415" x2="87.489" y1="10.288" y2="69.24" gradientUnits="userSpaceOnUse"/><linearGradient xlink:href="#d" id="g" x1="20.076" x2="-55.59" y1="54.618" y2="-17.58" gradientUnits="userSpaceOnUse"/><linearGradient xlink:href="#e" id="f" x1="37.86" x2="116.013" y1="29.182" y2="131.514" gradientUnits="userSpaceOnUse"/></defs><path d="M27.002 27.252v54.764h55.023V27.252H27.002z" style="opacity:.818413;fill:url(#f);fill-opacity:1;stroke:#ffff30;stroke-width:.282747;stroke-linecap:square;stroke-miterlimit:4;stroke-dasharray:none;stroke-opacity:1;paint-order:markers stroke fill"/><path d="M1.094 64.075C.996 39.456.954 15.288.998 10.368l.082-8.945 12.765 13.053 12.766 13.053.006 27.098.005 27.098L15.05 94.16C8.686 101 2.982 107.1 2.375 107.715l-1.103 1.12z" style="opacity:.818413;fill:url(#g);fill-opacity:1;stroke:#ffff30;stroke-width:.16009;stroke-linecap:square;stroke-miterlimit:4;stroke-dasharray:none;stroke-opacity:1;paint-order:markers stroke fill"/><path d="M.6 110.332.249-.072l109.929.64" style="fill:none;stroke:#000;stroke-width:1px;stroke-linecap:butt;stroke-linejoin:miter;stroke-opacity:1"/><path d="M2.02 109.6c.047-.119 5.747-6.294 12.665-13.723l12.58-13.508h27.339l27.34-.001 13.282 13.43 13.284 13.43-41.008.155c-22.555.086-46.534.218-53.289.293-6.754.076-12.242.041-12.194-.077z" style="opacity:.818413;fill:url(#h);fill-opacity:1;stroke:#ffff30;stroke-width:.16009;stroke-linecap:square;stroke-miterlimit:4;stroke-dasharray:none;stroke-opacity:1;paint-order:markers stroke fill"/><path d="M95.6 95.221 82.329 81.94l.016-27.206.015-27.205 13.507-12.77c7.43-7.022 13.552-12.723 13.607-12.669.102.103-.44 106.252-.542 106.355-.032.031-6.03-5.92-13.33-13.224z" style="opacity:.818413;fill:url(#i);fill-opacity:1;stroke:#ffff30;stroke-width:.16009;stroke-linecap:square;stroke-miterlimit:4;stroke-dasharray:none;stroke-opacity:1;paint-order:markers stroke fill"/><path d="M14.396 13.724C7.318 6.492 1.542.566 1.56.557c.147-.079 83.122.453 93.62.6l13.495.187-13.473 12.772-13.472 12.77-27.233-.006-27.233-.006Z" style="opacity:.818413;fill:url(#j);fill-opacity:1;stroke:#ffff30;stroke-width:.16009;stroke-linecap:square;stroke-miterlimit:4;stroke-dasharray:none;stroke-opacity:1;paint-order:markers stroke fill"/></svg>