<svg xmlns="http://www.w3.org/2000/svg" width="50mm" height="50mm" fill-rule="evenodd" clip-rule="evenodd" image-rendering="optimizeQuality" shape-rendering="geometricPrecision" text-rendering="geometricPrecision" viewBox="0 0 50 50"><defs><filter id="a" width="1.171" height="1.174" x="-.086" y="-.087" style="color-interpolation-filters:sRGB"><feGaussianBlur stdDeviation="1.51"/></filter></defs><path fill="#1f1a17" d="M26.178 9.395c2.6.17 5.004.838 7.222 2.015 2.21 1.169 4.098 2.676 5.656 4.513 1.092 1.287 2.117 2.845 3.082 4.665a28.684 28.684 0 0 1 2.32 5.774 36.511 36.511 0 0 1 1.253 7.46c.177 2.599.262 5.012.262 7.23v5.402H15.468c-.153 0-.22-.407-.212-1.21.009-.814.06-1.466.16-1.965.06-.398.221-.957.467-1.685.254-.728.66-1.609 1.244-2.65.263-.534.89-1.304 1.88-2.32.999-1.016 2.133-2.201 3.429-3.539.745-.762 1.32-1.719 1.744-2.879.423-1.151.601-2.201.533-3.15a8.37 8.37 0 0 1-2.006 1.22c-3.505 1.253-6.045 3.073-7.612 5.452-.118.153-.49.822-1.117 2.015-.33.627-.618 1.059-.847 1.287-.313.314-.77.491-1.363.525-.923.043-1.643-.398-2.16-1.346-.693.203-1.312.288-1.862.254-.923-.347-1.592-.72-2.006-1.117-.847-.847-1.389-1.685-1.651-2.532a9.43 9.43 0 0 1-.381-2.726c0-1.389.855-3.226 2.582-5.512 2.015-2.625 3.09-4.631 3.217-6.003 0-.593.06-1.261.178-2.007a4.198 4.198 0 0 1 .618-1.49c.22-.33.364-.558.432-.677.076-.127.212-.313.415-.559.144-.203.27-.355.372-.457.093-.11.22-.254.373-.44.178-.212.406-.457.694-.745a18.06 18.06 0 0 1-1.067-7.46c3.285 1.169 6.054 3.015 8.28 5.53.551-1.872 1.626-3.387 3.226-4.539 1.321.923 2.371 2.15 3.15 3.666z" style="filter:url(#a);fill:#572100;fill-opacity:1"/><text xml:space="preserve" x="24.679" y="22.223" style="font-style:normal;font-weight:400;font-size:33.892px;line-height:1.25;font-family:sans-serif;fill:#000;fill-opacity:1;stroke:none;stroke-width:.847301"><tspan x="24.679" y="22.223" style="fill:#fff;fill-opacity:1;stroke-width:.847301">+</tspan></text></svg>